<?xml version="1.0" encoding="utf-8"?>
<!-- Generator: Adobe Illustrator 23.0.3, SVG Export Plug-In . SVG Version: 6.00 Build 0)  -->
<svg version="1.1" id="Layer_1" xmlns="http://www.w3.org/2000/svg" xmlns:xlink="http://www.w3.org/1999/xlink" x="0px" y="0px"
	 viewBox="0 0 238.8 36.5" style="enable-background:new 0 0 238.8 36.5;" xml:space="preserve">
<style type="text/css">
	.st0{fill:#F4F4F4;}
</style>
<g transform="translate(-.58284 -286.97)">
	<g>
		<g>
			<path class="st0" d="M28.6,303.2c-0.6,0-1,0.3-1,0.8v9.5c-2.5,2.6-5.5,3.8-9,3.8c-7.1,0-12.2-5.4-12.2-12.5s5.1-12.5,12.2-12.5
				c4.4,0,7.7,1.9,10.5,5.5c0.3,0.4,0.6,0.4,1.1,0.1l3.2-2.4c0.4-0.3,0.4-0.6,0.1-1.1c-3.4-4.9-9-7.5-14.9-7.5
				c-10.2,0-18,7.6-18,17.9c0,10.4,7.8,18,18,18c3.5,0,6.8-1.1,9.6-3.5l0.5,2c0.1,0.6,0.5,0.9,1.1,0.9h2.8c0.6,0,0.8-0.3,0.8-1V304
				c0-0.6-0.3-0.8-0.8-0.8H28.6z"/>
			<path class="st0" d="M73.1,287.5c-0.6,0-1.1,0.3-1.4,0.9l-6.3,14l-4.8,11.8h-0.3l-4.4-10l-7.2-15.8c-0.2-0.4-0.6-0.8-1.1-0.8h-6
				c-0.6,0-0.9,0.3-0.9,0.9v33.1c0,0.6,0.3,0.9,0.9,0.9h4c0.5,0,0.8-0.3,0.8-0.9v-15.3l-0.3-10.1h0.3l5.4,12.9l5.7,12.5
				c0.3,0.6,0.7,0.9,1.3,0.9h2.6c0.6,0,1-0.3,1.3-0.9l5.8-12.5l5.2-12.9H74l-0.3,10.1v15.3c0,0.6,0.3,0.9,0.9,0.9h4.1
				c0.6,0,0.8-0.3,0.8-0.9v-33.1c0-0.6-0.3-0.9-0.8-0.9L73.1,287.5z"/>
			<path class="st0" d="M103.9,292.4c7.2,0,12.1,5.3,12.1,12.5c0,7.2-4.9,12.5-12.1,12.5c-7.2,0-12.1-5.3-12.1-12.5
				C91.8,297.7,96.8,292.4,103.9,292.4z M86,305c0,10.4,7.9,17.9,18,17.9s18-7.6,18-17.9c0-10.4-7.9-18-18-18S86,294.5,86,305z"/>
			<path class="st0" d="M134.2,292.9h8.2c7,0,12,5,12,12c0,7-5.1,12-12,12h-8.2V292.9z M129.3,287.5c-0.6,0-0.9,0.3-0.9,0.9v33.1
				c0,0.6,0.3,0.9,0.9,0.9h13.1c10.1,0,18-7.1,18-17.5c0-10.2-7.9-17.4-18-17.4L129.3,287.5z"/>
		</g>
		<path class="st0" d="M167.6,287.5c-0.6,0-0.8,0.3-0.8,0.8v33.2c0,0.6,0.3,0.8,0.8,0.8h2.5c0.6,0,0.9-0.3,0.9-0.8v-15.4h21.8v15.4
			c0,0.6,0.3,0.8,0.9,0.8h2.4c0.6,0,0.9-0.3,0.9-0.8v-33.2c0-0.6-0.3-0.8-0.9-0.8h-2.4c-0.6,0-0.9,0.3-0.9,0.8v14H171v-14
			c0-0.6-0.3-0.8-0.9-0.8H167.6z"/>
		<path class="st0" d="M203.3,305c0,10.4,7.9,17.9,18,17.9c3.9,0,7.4-1.1,10.3-3.1l3.3,3.5c0.3,0.3,0.9,0.3,1.2,0l1.6-1.5
			c0.4-0.4,0.4-0.8,0.1-1.2l-3.1-3.3c2.9-3.1,4.7-7.4,4.7-12.3c0-10.4-7.8-18-18-18C211.2,287,203.3,294.5,203.3,305L203.3,305z
			 M221.3,290.8c8,0,13.8,6.1,13.8,14.1c0,3.6-1.2,6.8-3.3,9.3l-4.4-4.7c-0.3-0.3-0.8-0.4-1.2-0.1l-1.7,1.6
			c-0.4,0.3-0.4,0.9-0.1,1.2l4.3,4.5c-2.1,1.3-4.7,2.1-7.5,2.1c-7.9,0-13.7-6-13.7-14C207.6,297,213.4,290.8,221.3,290.8
			L221.3,290.8z"/>
	</g>
	<g transform="matrix(.26458 0 0 .26458 0 192.22)">
	</g>
</g>
</svg>
