<svg enable-background="new 0 0 87.8 87.8" version="1.1" viewBox="0 0 87.8 87.8" xml:space="preserve" xmlns="http://www.w3.org/2000/svg">
<style type="text/css">
	.st0{fill:#03A9F4;}
</style>
<g fill="#fff">
	<path class="st0" d="M72.1,85.7v1c0,0.6-0.5,1-1,1H68c-0.6,0-1-0.5-1-1v-62H54.8V49c0,0.6-0.5,1-1,1H33.9c-0.6,0-1-0.5-1-1   c0-0.6,0.5-1,1-1h18.9V23.7c0-0.6,0.5-1,1-1h14.3c0.6,0,1,0.5,1,1v62H72.1z"/>
	<path class="st0" d="m41.6 54.1c0 0.6-0.5 1-1 1h-6.7c-0.6 0-1-0.5-1-1v-29.4h-12.3v62c0 0.6-0.5 1-1 1h-3.1c-0.6 0-1-0.5-1-1v-1h3.1v-62c0-0.6 0.5-1 1-1h14.3c0.6 0 1 0.5 1 1v29.4h5.6c0.6 0 1.1 0.4 1.1 1z"/>
		<path class="st0" d="m46.3 55.1h-5.8c-0.6 0-1-0.5-1-1s0.5-1 1-1h5.8c0.6 0 1 0.5 1 1s-0.3 1-1 1z" fill="#fff"/>
		<path class="st0" d="m46 85.7v1c0 0.6 0.5 1 1 1 0.6 0 1-0.5 1-1v-1h-2zm7.8-32.6h-7.5c-0.6 0-1 0.5-1 1 0 0.6 0.5 1 1 1h6.4v3.1h-18.7c-0.6 0-1 0.5-1 1v27.5c0 0.6 0.5 1 1 1h3c0.6 0 1-0.5 1-1v-1h-3v-25.5h17.9v25.5h-3v1c0 0.6 0.5 1 1 1h3c0.6 0 1-0.5 1-1v-32.6c-0.1-0.6-0.6-1-1.1-1zm-14.1 32.6v1c0 0.6 0.5 1 1 1 0.6 0 1-0.5 1-1v-1h-2z" fill="#fff"/>
		<path class="st0" d="m32.3 24.7c-0.6 0-1-0.5-1-1v-4.2h-9.2v4.2c0 0.6-0.5 1-1 1-0.6 0-1-0.5-1-1v-5.2c0-0.6 0.5-1 1-1h11.2c0.6 0 1 0.5 1 1v5.2c0.2 0.6-0.3 1-1 1z" fill="#fff"/>
		<path class="st0" d="m29.1 19.5c-0.6 0-1-0.5-1-1v-4.2h-2.6v4.2c0 0.6-0.5 1-1 1s-1-0.5-1-1v-5.2c0-0.6 0.5-1 1-1h4.6c0.6 0 1 0.5 1 1v5.2c0 0.6-0.5 1-1 1z" fill="#fff"/>
		<path class="st0" d="m24.2 59.8c-0.6 0-1-0.5-1-1v-35c0-0.6 0.5-1 1-1s1 0.5 1 1v35c0 0.5-0.5 1-1 1z" fill="#fff"/>
		<path class="st0" d="m24.2 75.8c-0.6 0-1-0.5-1-1v-8.7c0-0.6 0.5-1 1-1s1 0.5 1 1v8.7c0 0.5-0.5 1-1 1z" fill="#fff"/>
		<path class="st0" d="m29.3 40.7c-0.6 0-1-0.5-1-1v-16c0-0.6 0.5-1 1-1 0.6 0 1 0.5 1 1v15.9c0 0.6-0.5 1.1-1 1.1z" fill="#fff"/>
		<path class="st0" d="m29.3 53.9c-0.6 0-1-0.5-1-1v-10c0-0.6 0.5-1 1-1 0.6 0 1 0.5 1 1v10c0 0.6-0.5 1-1 1z" fill="#fff"/>
		<path class="st0" d="m36 24.7h-2c-0.6 0-1-0.5-1-1 0-0.6 0.5-1 1-1h2c0.6 0 1 0.5 1 1 0 0.6-0.4 1-1 1z" fill="#fff"/>
		<path class="st0" d="m19.6 24.7h-2c-0.6 0-1-0.5-1-1 0-0.6 0.5-1 1-1h2c0.6 0 1 0.5 1 1 0 0.6-0.5 1-1 1z" fill="#fff"/>
			<path class="st0" d="m66.6 24.7c-0.6 0-1-0.5-1-1v-4.2h-9.2v4.2c0 0.6-0.5 1-1 1s-1-0.5-1-1v-5.2c0-0.6 0.5-1 1-1h11.2c0.6 0 1 0.5 1 1v5.2c0 0.6-0.5 1-1 1z" fill="#fff"/>
			<path class="st0" d="m63.2 19.5c-0.6 0-1-0.5-1-1v-4.2h-2.6v4.2c0 0.6-0.5 1-1 1s-1-0.5-1-1v-5.2c0-0.6 0.5-1 1-1h4.6c0.6 0 1 0.5 1 1v5.2c0.1 0.6-0.4 1-1 1z" fill="#fff"/>
			<path class="st0" d="m63.6 59.8c0.6 0 1-0.5 1-1v-35c0-0.6-0.5-1-1-1s-1 0.5-1 1v35c0 0.5 0.4 1 1 1z" fill="#fff"/>
			<path class="st0" d="m63.6 75.8c0.6 0 1-0.5 1-1v-8.7c0-0.6-0.5-1-1-1s-1 0.5-1 1v8.7c0 0.5 0.4 1 1 1z" fill="#fff"/>
			<path class="st0" d="m58.5 40.7c0.6 0 1-0.5 1-1v-16c0-0.6-0.5-1-1-1s-1 0.5-1 1v15.9c0 0.6 0.3 1.1 1 1.1z" fill="#fff"/>
			<path class="st0" d="m58.5 53.9c0.6 0 1-0.5 1-1v-10c0-0.6-0.5-1-1-1s-1 0.5-1 1v10c0 0.6 0.3 1 1 1z" fill="#fff"/>
			<path class="st0" d="m70.1 24.7h-2c-0.6 0-1-0.5-1-1 0-0.6 0.5-1 1-1h2c0.6 0 1 0.5 1 1 0 0.6-0.4 1-1 1z" fill="#fff"/>
			<path class="st0" d="m53.8 24.7h-2c-0.6 0-1-0.5-1-1 0-0.6 0.5-1 1-1h2c0.6 0 1 0.5 1 1 0 0.6-0.5 1-1 1z" fill="#fff"/>
		<path class="st0" d="m13.6 50.7c-0.2 0-0.4-0.1-0.6-0.2-0.5-0.3-0.6-0.9-0.3-1.4 1.8-2.7 3.9-5.1 6.3-7.2 0.4-0.4 1.1-0.3 1.4 0.1 0.4 0.4 0.3 1.1-0.1 1.4-2.3 2-4.3 4.3-5.9 6.8-0.3 0.4-0.6 0.5-0.8 0.5z" fill="#fff"/>
		<path class="st0" d="m7.6 67.4s-0.1 0 0 0c-0.7-0.1-1.1-0.6-1-1.1 0.4-4.2 1.5-8.3 3.2-12.2 0.2-0.5 0.8-0.7 1.4-0.5 0.5 0.2 0.7 0.8 0.5 1.4-1.7 3.6-2.7 7.5-3.1 11.5 0 0.5-0.5 0.9-1 0.9z" fill="#fff"/>
		<path class="st0" d="m11.5 87.8c-0.4 0-0.7-0.2-0.9-0.6-2.4-4.6-3.8-9.6-4.1-14.8 0-0.6 0.4-1 1-1.1 0.6 0 1 0.4 1.1 1 0.3 4.9 1.6 9.7 3.9 14 0.3 0.5 0.1 1.1-0.4 1.4-0.4 0-0.5 0.1-0.6 0.1z" fill="#fff"/>
		<path class="st0" d="m74.2 50.7c-0.3 0-0.7-0.2-0.8-0.5-1.7-2.5-3.7-4.8-5.9-6.8-0.4-0.4-0.5-1-0.1-1.4s1-0.5 1.4-0.1c2.4 2.1 4.5 4.6 6.3 7.2 0.3 0.5 0.2 1.1-0.3 1.4-0.2 0.2-0.3 0.2-0.6 0.2z" fill="#fff"/>
		<path class="st0" d="m80.1 67.4c-0.5 0-1-0.4-1-0.9-0.4-4-1.4-7.9-3.1-11.5-0.2-0.5 0-1.1 0.5-1.4 0.5-0.2 1.1 0 1.4 0.5 1.8 3.8 2.9 7.9 3.3 12.2 0 0.6-0.4 1.1-1.1 1.1 0.1 0 0.1 0 0 0z" fill="#fff"/>
		<path class="st0" d="m76.2 87.8c-0.2 0-0.3 0-0.5-0.1-0.5-0.3-0.7-0.9-0.4-1.4 2.3-4.4 3.6-9.1 3.9-14 0-0.6 0.5-1 1.1-1s1 0.5 1 1.1c-0.3 5.2-1.7 10.2-4.1 14.8-0.2 0.4-0.6 0.6-1 0.6z" fill="#fff"/>
		<path class="st0" d="m53.8 35.9h-0.3c-3.1-0.9-6.4-1.3-9.7-1.3s-6.5 0.4-9.7 1.3c-0.5 0.2-1.1-0.2-1.3-0.7s0.2-1.1 0.7-1.3c3.3-0.9 6.8-1.4 10.2-1.4 3.5 0 6.9 0.5 10.2 1.4 0.5 0.2 0.9 0.7 0.7 1.3 0 0.4-0.4 0.7-0.8 0.7z" fill="#fff"/>
		<path class="st0" d="m26.7 14.3c-0.6 0-1-0.5-1-1v-12.3c0-0.6 0.5-1 1-1 0.6 0 1 0.5 1 1v12.3c0 0.6-0.4 1-1 1z" fill="#fff"/>
		<path class="st0" d="m61 14.3c-0.6 0-1-0.5-1-1v-6.2c0-0.6 0.5-1 1-1 0.6 0 1 0.5 1 1v6.2c0 0.6-0.4 1-1 1z" fill="#fff"/>
		<path class="st0" d="m48 78.1v8.7c0 0.6-0.5 1-1 1-0.6 0-1-0.5-1-1v-7.6h-4.1v7.6c0 0.6-0.5 1-1 1-0.6 0-1-0.5-1-1v-8.7c0-0.6 0.5-1 1-1h6.1c0.5 0 1 0.4 1 1z" fill="#fff"/>
		<path class="st0" d="m51.8 66.1v20.7c0 0.6-0.5 1-1 1-0.6 0-1-0.5-1-1v-19.7h-1.8v11c0 0.6-0.5 1-1 1-0.6 0-1-0.5-1-1v-12c0-0.6 0.5-1 1-1h3.9c0.6 0 0.9 0.4 0.9 1z" fill="#fff"/>
		<path class="st0" d="m41.8 71.3v6.8c0 0.6-0.5 1-1 1-0.6 0-1-0.5-1-1v-5.8h-1.8v14.5c0 0.6-0.5 1-1 1-0.6 0-1-0.5-1-1v-15.5c0-0.6 0.5-1 1-1h3.9c0.4-0.1 0.9 0.4 0.9 1z" fill="#fff"/>
		<path class="st0" d="m20.6 82.7c0 0.6-0.5 1-1 1h-2v3c0 0.6-0.5 1-1 1-0.6 0-1-0.5-1-1v-4c0-0.6 0.5-1 1-1h3.1c0.4 0 0.9 0.5 0.9 1z" fill="#fff"/>
		<path class="st0" d="m17.6 69v13.8c0 0.6-0.5 1-1 1-0.6 0-1-0.5-1-1v-12.8h-1.9v16.7c0 0.6-0.5 1-1 1-0.2 0-0.4-0.1-0.6-0.2-0.3-0.2-0.4-0.5-0.4-0.8v-17.7c0-0.6 0.5-1 1-1h3.9c0.5 0 1 0.4 1 1z" fill="#fff"/>
		<path class="st0" d="m72.1 82.7v4c0 0.6-0.5 1-1 1-0.6 0-1-0.5-1-1v-3h-2c-0.6 0-1-0.5-1-1 0-0.6 0.5-1 1-1h3.1c0.5 0 0.9 0.5 0.9 1z" fill="#fff"/>
		<path class="st0" d="m76.1 75.8v11c0 0.3-0.2 0.7-0.4 0.8s-0.4 0.2-0.6 0.2c-0.6 0-1-0.5-1-1v-10h-1.9v7.5c0 0.6-0.5 1-1 1-0.6 0-1-0.5-1-1v-8.5c0-0.6 0.5-1 1-1h3.9c0.5-0.1 1 0.4 1 1z" fill="#fff"/>
</g>
</svg>
