<svg xmlns="http://www.w3.org/2000/svg" viewBox="0 0 254.32 36.2"><title>oslo_bysykkel</title><path d="M21.4,24a.94.94,0,0,0-1,1,9.2,9.2,0,1,1-9.2-9.2h0l.2-2h-.2A11.2,11.2,0,1,0,22.4,25a.94.94,0,0,0-.89-1Z" style="fill:#777"/><path d="M43.2,13.8a12.27,12.27,0,0,0-3.9.7l.9,1.8a10.47,10.47,0,0,1,3-.5,9.2,9.2,0,1,1-9.1,9.7l-2-.1A11.15,11.15,0,1,0,43.2,13.8Z" style="fill:#777"/><path d="M38.4,17.2l-.9-1.8a11.09,11.09,0,0,0-5.3,7.9l2,.1A9.38,9.38,0,0,1,38.4,17.2Z" style="fill:#777"/><line x1="13.4" y1="1" x2="17.4" y2="1" style="fill:none;stroke:#777;stroke-linecap:round;stroke-linejoin:round;stroke-width:2px"/><line x1="32.4" y1="4.7" x2="38.4" y2="4.7" style="fill:none;stroke:#777;stroke-linecap:round;stroke-linejoin:round;stroke-width:2px"/><line x1="11.5" y1="25" x2="13.2" y2="3.6" style="fill:none;stroke:#000;stroke-linecap:round;stroke-linejoin:round;stroke-width:2px"/><line x1="26.4" y1="24" x2="13.4" y2="9" style="fill:none;stroke:#000;stroke-linecap:round;stroke-linejoin:round;stroke-width:2px"/><line x1="35.4" y1="9" x2="43.4" y2="25" style="fill:none;stroke:#000;stroke-linecap:round;stroke-linejoin:round;stroke-width:2px"/><line x1="13.4" y1="9" x2="34.4" y2="9" style="fill:none;stroke:#000;stroke-linecap:round;stroke-linejoin:round;stroke-width:2px"/><line x1="36.4" y1="7.4" x2="26.4" y2="24" style="fill:none;stroke:#000;stroke-linecap:round;stroke-linejoin:round;stroke-width:2px"/><line x1="26.4" y1="24" x2="43.4" y2="25" style="fill:none;stroke:#000;stroke-linecap:round;stroke-linejoin:round;stroke-width:2px"/><line x1="11.5" y1="25" x2="13.2" y2="3.6" style="fill:none;stroke:#ea5a47;stroke-linecap:round;stroke-linejoin:round;stroke-width:2.0999999046325684px"/><line x1="26.4" y1="24" x2="13.4" y2="9" style="fill:none;stroke:#ea5a47;stroke-linecap:round;stroke-linejoin:round;stroke-width:2.0999999046325684px"/><line x1="35.4" y1="9" x2="43.4" y2="25" style="fill:none;stroke:#ea5a47;stroke-linecap:round;stroke-linejoin:round;stroke-width:2.0999999046325684px"/><line x1="13.4" y1="9" x2="34.4" y2="9" style="fill:none;stroke:#ea5a47;stroke-linecap:round;stroke-linejoin:round;stroke-width:2.0999999046325684px"/><line x1="36.4" y1="7.4" x2="26.4" y2="24" style="fill:none;stroke:#ea5a47;stroke-linecap:round;stroke-linejoin:round;stroke-width:2.0999999046325684px"/><line x1="26.4" y1="24" x2="43.4" y2="25" style="fill:none;stroke:#ea5a47;stroke-linecap:round;stroke-linejoin:round;stroke-width:2.0999999046325684px"/><path d="M70.19,11.1a7.54,7.54,0,1,1-7.71,7.55A7.55,7.55,0,0,1,70.19,11.1Zm-4.57,7.55a4.55,4.55,0,1,0,9.11,0,4.56,4.56,0,1,0-9.11,0Z" style="fill:#ea5a47"/><path d="M92.31,13.33a.31.31,0,0,1,.08.48L91,15.48a.35.35,0,0,1-.56,0A7.23,7.23,0,0,0,85.86,14C84,14,83,14.51,83,15.35s.81,1.29,3.25,1.53c3.76.35,6.48,1.61,6.48,4.67S90,26.17,86.34,26.17a9.8,9.8,0,0,1-6.72-2.26c-.19-.13-.19-.32,0-.54l1.26-1.69a.33.33,0,0,1,.54-.08,7.35,7.35,0,0,0,5,1.67c2.26,0,3.28-.67,3.28-1.67s-1-1.5-3.74-1.75c-3.6-.3-6-1.37-6-4.41,0-2.66,2.55-4.35,6.07-4.35A9.81,9.81,0,0,1,92.31,13.33Z" style="fill:#ea5a47"/><path d="M98.19,11.32a.34.34,0,0,1,.38.38V23h8.36a.34.34,0,0,1,.38.38v2.2a.34.34,0,0,1-.38.38H95.83a.34.34,0,0,1-.38-.38V11.69a.34.34,0,0,1,.38-.38Z" style="fill:#ea5a47"/><path d="M116.36,11.1a7.54,7.54,0,1,1-7.71,7.55A7.55,7.55,0,0,1,116.36,11.1Zm-4.57,7.55a4.55,4.55,0,1,0,9.11,0,4.56,4.56,0,1,0-9.11,0Z" style="fill:#ea5a47"/><path d="M144,18.11a3.48,3.48,0,0,1,2.53,3.39c0,2.66-2,4.46-5,4.46h-7.74a.34.34,0,0,1-.38-.38V11.69a.34.34,0,0,1,.38-.38h7.17c2.74,0,4.62,1.75,4.62,4A2.82,2.82,0,0,1,144,17.93ZM136.44,17h4.49a1.4,1.4,0,0,0,1.5-1.4,1.34,1.34,0,0,0-1.5-1.4h-4.49Zm0,6h4.94c1.26,0,2-.62,2-1.56s-.67-1.56-2-1.56h-4.94Z" style="fill:#777"/><path d="M156.68,25.58a.34.34,0,0,1-.38.38h-2.36a.34.34,0,0,1-.38-.38V22.22l-6.07-10.61a.19.19,0,0,1,.19-.3h3a.42.42,0,0,1,.35.21l4.11,7.6h.19l3.92-7.58a.38.38,0,0,1,.38-.24h2.93c.19,0,.27.13.19.32l-6,10.59Z" style="fill:#777"/><path d="M176.51,13.33a.31.31,0,0,1,.08.48l-1.34,1.67a.35.35,0,0,1-.56,0,7.23,7.23,0,0,0-4.62-1.5c-1.83,0-2.82.51-2.82,1.34s.81,1.29,3.25,1.53c3.76.35,6.48,1.61,6.48,4.67s-2.74,4.62-6.42,4.62a9.8,9.8,0,0,1-6.72-2.26c-.19-.13-.19-.32,0-.54l1.26-1.69a.33.33,0,0,1,.54-.08,7.35,7.35,0,0,0,5,1.67c2.26,0,3.28-.67,3.28-1.67s-1-1.5-3.74-1.75c-3.6-.3-6-1.37-6-4.41,0-2.66,2.55-4.35,6.07-4.35A9.81,9.81,0,0,1,176.51,13.33Z" style="fill:#777"/><path d="M187.42,25.58A.34.34,0,0,1,187,26h-2.36a.34.34,0,0,1-.38-.38V22.22l-6.07-10.61a.19.19,0,0,1,.19-.3h3a.42.42,0,0,1,.35.21l4.11,7.6H186L190,11.56a.38.38,0,0,1,.38-.24h2.93c.19,0,.27.13.19.32l-6,10.59Z" style="fill:#777"/><path d="M198.53,11.32a.34.34,0,0,1,.38.38v5.8l6-6a1.09,1.09,0,0,1,.7-.21h3.28c.24,0,.32.21.13.4l-6.42,6,6.83,7.82c.19.19.08.4-.16.4h-3.22a.82.82,0,0,1-.67-.27l-4.92-6.13L198.9,20.8v4.78a.34.34,0,0,1-.38.38h-2.36a.34.34,0,0,1-.38-.38V11.69a.34.34,0,0,1,.38-.38Z" style="fill:#777"/><path d="M214.46,11.32a.34.34,0,0,1,.38.38v5.8l6-6a1.09,1.09,0,0,1,.7-.21h3.28c.24,0,.32.21.13.4l-6.42,6,6.83,7.82c.19.19.08.4-.16.4H222a.82.82,0,0,1-.67-.27l-4.92-6.13-1.59,1.24v4.78a.34.34,0,0,1-.38.38H212.1a.34.34,0,0,1-.38-.38V11.69a.34.34,0,0,1,.38-.38Z" style="fill:#777"/><path d="M238.92,11.32a.34.34,0,0,1,.38.38v2.15a.34.34,0,0,1-.38.38h-8.14V17h7.15a.34.34,0,0,1,.38.38v2.15a.34.34,0,0,1-.38.38h-7.15V23h8.36a.34.34,0,0,1,.38.38v2.18a.34.34,0,0,1-.38.38H228a.34.34,0,0,1-.38-.38V11.69a.38.38,0,0,1,.38-.38Z" style="fill:#777"/><path d="M245.21,11.32a.34.34,0,0,1,.38.38V23h8.36a.34.34,0,0,1,.38.38v2.2a.34.34,0,0,1-.38.38h-11.1a.34.34,0,0,1-.38-.38V11.69a.34.34,0,0,1,.38-.38Z" style="fill:#777"/></svg>