<svg xmlns="http://www.w3.org/2000/svg" viewBox="0 0 254.32 36.2"><title>oslo_bysykkel_1</title><path d="M21.4,24.8a.94.94,0,0,0-1,1,9.2,9.2,0,1,1-9.2-9.2h0l.2-2h-.2A11.2,11.2,0,1,0,22.4,25.8a.94.94,0,0,0-.89-1Z" transform="translate(0 -0.8)" style="fill:#777"/><path d="M43.2,14.6a12.27,12.27,0,0,0-3.9.7l.9,1.8a10.47,10.47,0,0,1,3-.5,9.2,9.2,0,1,1-9.1,9.7l-2-.1A11.15,11.15,0,1,0,43.2,14.6Z" transform="translate(0 -0.8)" style="fill:#777"/><path d="M38.4,18l-.9-1.8a11.09,11.09,0,0,0-5.3,7.9l2,.1A9.38,9.38,0,0,1,38.4,18Z" transform="translate(0 -0.8)" style="fill:#777"/><line x1="13.4" y1="1" x2="17.4" y2="1" style="fill:none;stroke:#777;stroke-linecap:round;stroke-linejoin:round;stroke-width:2px"/><line x1="32.4" y1="4.7" x2="38.4" y2="4.7" style="fill:none;stroke:#777;stroke-linecap:round;stroke-linejoin:round;stroke-width:2px"/><line x1="11.5" y1="25" x2="13.2" y2="3.6" style="fill:none;stroke:#000;stroke-linecap:round;stroke-linejoin:round;stroke-width:2px"/><line x1="26.4" y1="24" x2="13.4" y2="9" style="fill:none;stroke:#000;stroke-linecap:round;stroke-linejoin:round;stroke-width:2px"/><line x1="35.4" y1="9" x2="43.4" y2="25" style="fill:none;stroke:#000;stroke-linecap:round;stroke-linejoin:round;stroke-width:2px"/><line x1="13.4" y1="9" x2="34.4" y2="9" style="fill:none;stroke:#000;stroke-linecap:round;stroke-linejoin:round;stroke-width:2px"/><line x1="36.4" y1="7.4" x2="26.4" y2="24" style="fill:none;stroke:#000;stroke-linecap:round;stroke-linejoin:round;stroke-width:2px"/><line x1="26.4" y1="24" x2="43.4" y2="25" style="fill:none;stroke:#000;stroke-linecap:round;stroke-linejoin:round;stroke-width:2px"/><line x1="11.5" y1="25" x2="13.2" y2="3.6" style="fill:none;stroke:#ea5a47;stroke-linecap:round;stroke-linejoin:round;stroke-width:2.0999999046325684px"/><line x1="26.4" y1="24" x2="13.4" y2="9" style="fill:none;stroke:#ea5a47;stroke-linecap:round;stroke-linejoin:round;stroke-width:2.0999999046325684px"/><line x1="35.4" y1="9" x2="43.4" y2="25" style="fill:none;stroke:#ea5a47;stroke-linecap:round;stroke-linejoin:round;stroke-width:2.0999999046325684px"/><line x1="13.4" y1="9" x2="34.4" y2="9" style="fill:none;stroke:#ea5a47;stroke-linecap:round;stroke-linejoin:round;stroke-width:2.0999999046325684px"/><line x1="36.4" y1="7.4" x2="26.4" y2="24" style="fill:none;stroke:#ea5a47;stroke-linecap:round;stroke-linejoin:round;stroke-width:2.0999999046325684px"/><line x1="26.4" y1="24" x2="43.4" y2="25" style="fill:none;stroke:#ea5a47;stroke-linecap:round;stroke-linejoin:round;stroke-width:2.0999999046325684px"/><path d="M70.19,5.9a7.54,7.54,0,1,1-7.71,7.55A7.55,7.55,0,0,1,70.19,5.9Zm-4.57,7.55a4.55,4.55,0,1,0,9.11,0,4.56,4.56,0,1,0-9.11,0Z" transform="translate(0 -0.8)" style="fill:#ea5a47"/><path d="M92.31,8.13a.31.31,0,0,1,.08.48L91,10.28a.35.35,0,0,1-.56,0,7.23,7.23,0,0,0-4.62-1.5C84,8.81,83,9.32,83,10.15s.81,1.29,3.25,1.53c3.76.35,6.48,1.61,6.48,4.67S90,21,86.34,21a9.8,9.8,0,0,1-6.72-2.26c-.19-.13-.19-.32,0-.54l1.26-1.69a.33.33,0,0,1,.54-.08,7.35,7.35,0,0,0,5,1.67c2.26,0,3.28-.67,3.28-1.67s-1-1.5-3.74-1.75c-3.6-.3-6-1.37-6-4.41C79.94,7.6,82.5,5.9,86,5.9A9.81,9.81,0,0,1,92.31,8.13Z" transform="translate(0 -0.8)" style="fill:#ea5a47"/><path d="M98.19,6.12a.34.34,0,0,1,.38.38V17.81h8.36a.34.34,0,0,1,.38.38v2.2a.34.34,0,0,1-.38.38H95.83a.34.34,0,0,1-.38-.38V6.49a.34.34,0,0,1,.38-.38Z" transform="translate(0 -0.8)" style="fill:#ea5a47"/><path d="M116.36,5.9a7.54,7.54,0,1,1-7.71,7.55A7.55,7.55,0,0,1,116.36,5.9Zm-4.57,7.55a4.55,4.55,0,1,0,9.11,0,4.56,4.56,0,1,0-9.11,0Z" transform="translate(0 -0.8)" style="fill:#ea5a47"/><path d="M144,12.92a3.48,3.48,0,0,1,2.53,3.39c0,2.66-2,4.46-5,4.46h-7.74a.34.34,0,0,1-.38-.38V6.49a.34.34,0,0,1,.38-.38h7.17c2.74,0,4.62,1.75,4.62,4A2.82,2.82,0,0,1,144,12.73Zm-7.52-1.1h4.49a1.4,1.4,0,0,0,1.5-1.4,1.34,1.34,0,0,0-1.5-1.4h-4.49Zm0,6h4.94c1.26,0,2-.62,2-1.56s-.67-1.56-2-1.56h-4.94Z" transform="translate(0 -0.8)" style="fill:#ea5a47"/><path d="M156.68,20.39a.34.34,0,0,1-.38.38h-2.36a.34.34,0,0,1-.38-.38V17L147.49,6.41a.19.19,0,0,1,.19-.3h3a.42.42,0,0,1,.35.21l4.11,7.6h.19l3.92-7.58a.38.38,0,0,1,.38-.24h2.93c.19,0,.27.13.19.32l-6,10.59Z" transform="translate(0 -0.8)" style="fill:#ea5a47"/><path d="M176.51,8.13a.31.31,0,0,1,.08.48l-1.34,1.67a.35.35,0,0,1-.56,0,7.23,7.23,0,0,0-4.62-1.5c-1.83,0-2.82.51-2.82,1.34s.81,1.29,3.25,1.53c3.76.35,6.48,1.61,6.48,4.67S174.23,21,170.55,21a9.8,9.8,0,0,1-6.72-2.26c-.19-.13-.19-.32,0-.54l1.26-1.69a.33.33,0,0,1,.54-.08,7.35,7.35,0,0,0,5,1.67c2.26,0,3.28-.67,3.28-1.67s-1-1.5-3.74-1.75c-3.6-.3-6-1.37-6-4.41,0-2.66,2.55-4.35,6.07-4.35A9.81,9.81,0,0,1,176.51,8.13Z" transform="translate(0 -0.8)" style="fill:#ea5a47"/><path d="M187.42,20.39a.34.34,0,0,1-.38.38h-2.36a.34.34,0,0,1-.38-.38V17L178.23,6.41a.19.19,0,0,1,.19-.3h3a.42.42,0,0,1,.35.21l4.11,7.6H186L190,6.36a.38.38,0,0,1,.38-.24h2.93c.19,0,.27.13.19.32l-6,10.59Z" transform="translate(0 -0.8)" style="fill:#ea5a47"/><path d="M198.53,6.12a.34.34,0,0,1,.38.38v5.8l6-6a1.09,1.09,0,0,1,.7-.21h3.28c.24,0,.32.21.13.4l-6.42,6,6.83,7.82c.19.19.08.4-.16.4h-3.22a.82.82,0,0,1-.67-.27l-4.92-6.13L198.9,15.6v4.78a.34.34,0,0,1-.38.38h-2.36a.34.34,0,0,1-.38-.38V6.49a.34.34,0,0,1,.38-.38Z" transform="translate(0 -0.8)" style="fill:#ea5a47"/><path d="M214.46,6.12a.34.34,0,0,1,.38.38v5.8l6-6a1.09,1.09,0,0,1,.7-.21h3.28c.24,0,.32.21.13.4l-6.42,6,6.83,7.82c.19.19.08.4-.16.4H222a.82.82,0,0,1-.67-.27l-4.92-6.13-1.59,1.24v4.78a.34.34,0,0,1-.38.38H212.1a.34.34,0,0,1-.38-.38V6.49a.34.34,0,0,1,.38-.38Z" transform="translate(0 -0.8)" style="fill:#ea5a47"/><path d="M238.92,6.12a.34.34,0,0,1,.38.38V8.64a.34.34,0,0,1-.38.38h-8.14v2.74h7.15a.34.34,0,0,1,.38.38v2.15a.34.34,0,0,1-.38.38h-7.15v3.17h8.36a.34.34,0,0,1,.38.38v2.18a.34.34,0,0,1-.38.38H228a.34.34,0,0,1-.38-.38V6.49a.38.38,0,0,1,.38-.38Z" transform="translate(0 -0.8)" style="fill:#ea5a47"/><path d="M245.21,6.12a.34.34,0,0,1,.38.38V17.81h8.36a.34.34,0,0,1,.38.38v2.2a.34.34,0,0,1-.38.38h-11.1a.34.34,0,0,1-.38-.38V6.49a.34.34,0,0,1,.38-.38Z" transform="translate(0 -0.8)" style="fill:#ea5a47"/><path d="M68.48,26.92a.14.14,0,0,1,0,.22l-.6.74a.16.16,0,0,1-.25,0,3.22,3.22,0,0,0-2.06-.67c-.82,0-1.26.23-1.26.6s.36.58,1.45.68c1.68.16,2.89.72,2.89,2.09s-1.22,2.06-2.87,2.06a4.37,4.37,0,0,1-3-1c-.08-.06-.08-.14,0-.24l.56-.76a.15.15,0,0,1,.24,0,3.28,3.28,0,0,0,2.23.74c1,0,1.46-.3,1.46-.74s-.46-.67-1.67-.78C64,29.7,63,29.22,63,27.86c0-1.19,1.14-1.94,2.71-1.94A4.38,4.38,0,0,1,68.48,26.92Z" transform="translate(0 -0.8)" style="fill:#777"/><path d="M75.14,26a.15.15,0,0,1,.17.17v1a.15.15,0,0,1-.17.17H73.05v5a.15.15,0,0,1-.17.17H71.83a.15.15,0,0,1-.17-.17v-5H69.58a.15.15,0,0,1-.17-.17v-1a.15.15,0,0,1,.17-.17Z" transform="translate(0 -0.8)" style="fill:#777"/><path d="M80.5,31.26H77.24l-.46,1.15a.21.21,0,0,1-.2.14H75.4c-.12,0-.16-.06-.12-.17l2.83-6.27a.15.15,0,0,1,.16-.1h1.37a.15.15,0,0,1,.16.1l2.7,6.25a.14.14,0,0,1-.13.19H81.21a.26.26,0,0,1-.25-.17ZM77.75,30H80L79,27.31h-.13Z" transform="translate(0 -0.8)" style="fill:#777"/><path d="M88.17,26a.15.15,0,0,1,.17.17v1a.15.15,0,0,1-.17.17H86.09v5a.15.15,0,0,1-.17.17H84.86a.15.15,0,0,1-.17-.17v-5H82.61a.15.15,0,0,1-.17-.17v-1a.15.15,0,0,1,.17-.17Z" transform="translate(0 -0.8)" style="fill:#777"/><path d="M89.3,26.18a.15.15,0,0,1,.17-.17h1.06a.15.15,0,0,1,.17.17v3.48a1.55,1.55,0,1,0,3.08,0V26.18a.15.15,0,0,1,.17-.17H95a.15.15,0,0,1,.17.17v3.49a2.93,2.93,0,1,1-5.86,0Z" transform="translate(0 -0.8)" style="fill:#777"/><path d="M102,26.92a.14.14,0,0,1,0,.22l-.6.74a.16.16,0,0,1-.25,0,3.22,3.22,0,0,0-2.06-.67c-.82,0-1.26.23-1.26.6s.36.58,1.45.68c1.68.16,2.89.72,2.89,2.09s-1.22,2.06-2.87,2.06a4.37,4.37,0,0,1-3-1c-.08-.06-.08-.14,0-.24l.56-.76a.15.15,0,0,1,.24,0,3.28,3.28,0,0,0,2.23.74c1,0,1.46-.3,1.46-.74s-.46-.67-1.67-.78c-1.61-.13-2.67-.61-2.67-2,0-1.19,1.14-1.94,2.71-1.94A4.38,4.38,0,0,1,102,26.92Z" transform="translate(0 -0.8)" style="fill:#777"/><path d="M111.28,31.26H108l-.46,1.15a.21.21,0,0,1-.2.14h-1.19c-.12,0-.16-.06-.12-.17l2.83-6.27A.15.15,0,0,1,109,26h1.37a.15.15,0,0,1,.16.1l2.7,6.25a.14.14,0,0,1-.13.19H112a.26.26,0,0,1-.25-.17ZM108.53,30h2.28l-1.06-2.69h-.13Z" transform="translate(0 -0.8)" style="fill:#777"/><path d="M119.23,32.55a.19.19,0,0,1-.18-.08l-1.64-2.08-1.66-2.34h-.06l.08,2v2.3a.15.15,0,0,1-.17.17h-1a.15.15,0,0,1-.17-.17v-6.2a.15.15,0,0,1,.17-.17h.92a.3.3,0,0,1,.23.08l1.8,2.28L119,30.51h.06l-.08-2V26.18a.15.15,0,0,1,.17-.17h1a.15.15,0,0,1,.17.17v6.2a.15.15,0,0,1-.17.17Z" transform="translate(0 -0.8)" style="fill:#777"/><path d="M124.55,26a3.27,3.27,0,1,1,0,6.54H122a.15.15,0,0,1-.17-.17v-6.2A.15.15,0,0,1,122,26Zm-1.33,5.21h1.33a1.94,1.94,0,1,0,0-3.89h-1.33Z" transform="translate(0 -0.8)" style="fill:#777"/><path d="M133.28,26a.15.15,0,0,1,.17.17v6.2a.15.15,0,0,1-.17.17h-1.06a.15.15,0,0,1-.17-.17v-6.2a.15.15,0,0,1,.17-.17Z" transform="translate(0 -0.8)" style="fill:#777"/><path d="M139.7,32.55a.19.19,0,0,1-.18-.08l-1.64-2.08-1.66-2.34h-.06l.08,2v2.3a.15.15,0,0,1-.17.17h-1a.15.15,0,0,1-.17-.17v-6.2a.15.15,0,0,1,.17-.17H136a.3.3,0,0,1,.23.08l1.8,2.28,1.51,2.13h.06l-.08-2V26.18a.15.15,0,0,1,.17-.17h1a.15.15,0,0,1,.17.17v6.2a.15.15,0,0,1-.17.17Z" transform="translate(0 -0.8)" style="fill:#777"/><path d="M147.24,26a.15.15,0,0,1,.17.17v1a.15.15,0,0,1-.17.17h-3.55v1.25h3.21a.15.15,0,0,1,.17.17v1a.15.15,0,0,1-.17.17h-3.21v2.48a.15.15,0,0,1-.17.17h-1.06a.15.15,0,0,1-.17-.17v-6.2a.15.15,0,0,1,.17-.17Z" transform="translate(0 -0.8)" style="fill:#777"/><path d="M151.75,25.92a3.37,3.37,0,1,1-3.44,3.37A3.37,3.37,0,0,1,151.75,25.92Zm-2,3.37a2,2,0,1,0,2-2.06A2,2,0,0,0,149.71,29.29Z" transform="translate(0 -0.8)" style="fill:#777"/><path d="M162.54,25.92a3.37,3.37,0,1,1-3.44,3.37A3.37,3.37,0,0,1,162.54,25.92Zm-2,3.37a2,2,0,1,0,2-2.06A2,2,0,0,0,160.5,29.29Z" transform="translate(0 -0.8)" style="fill:#777"/><path d="M172.11,26a.15.15,0,0,1,.17.17v1a.15.15,0,0,1-.17.17h-3.55v1.25h3.21a.15.15,0,0,1,.17.17v1a.15.15,0,0,1-.17.17h-3.21v2.48a.15.15,0,0,1-.17.17h-1.06a.15.15,0,0,1-.17-.17v-6.2a.15.15,0,0,1,.17-.17Z" transform="translate(0 -0.8)" style="fill:#777"/><path d="M181.86,26.92a.14.14,0,0,1,0,.22l-.6.74a.16.16,0,0,1-.25,0,3.22,3.22,0,0,0-2.06-.67c-.82,0-1.26.23-1.26.6s.36.58,1.45.68c1.68.16,2.89.72,2.89,2.09s-1.22,2.06-2.87,2.06a4.37,4.37,0,0,1-3-1c-.08-.06-.08-.14,0-.24l.56-.76a.15.15,0,0,1,.24,0,3.28,3.28,0,0,0,2.23.74c1,0,1.46-.3,1.46-.74s-.46-.67-1.67-.78c-1.61-.13-2.67-.61-2.67-2,0-1.19,1.14-1.94,2.71-1.94A4.38,4.38,0,0,1,181.86,26.92Z" transform="translate(0 -0.8)" style="fill:#777"/><path d="M188.52,26a.15.15,0,0,1,.17.17v1a.15.15,0,0,1-.17.17h-2.09v5a.15.15,0,0,1-.17.17h-1.06a.15.15,0,0,1-.17-.17v-5H183a.15.15,0,0,1-.17-.17v-1A.15.15,0,0,1,183,26Z" transform="translate(0 -0.8)" style="fill:#777"/><path d="M193.88,31.26h-3.26l-.46,1.15a.21.21,0,0,1-.2.14h-1.19c-.12,0-.16-.06-.12-.17l2.83-6.27a.15.15,0,0,1,.16-.1H193a.15.15,0,0,1,.16.1l2.7,6.25a.14.14,0,0,1-.13.19h-1.14a.26.26,0,0,1-.25-.17ZM191.12,30h2.28l-1.06-2.69h-.13Z" transform="translate(0 -0.8)" style="fill:#777"/><path d="M201.55,26a.15.15,0,0,1,.17.17v1a.15.15,0,0,1-.17.17h-2.09v5a.15.15,0,0,1-.17.17h-1.06a.15.15,0,0,1-.17-.17v-5H196a.15.15,0,0,1-.17-.17v-1A.15.15,0,0,1,196,26Z" transform="translate(0 -0.8)" style="fill:#777"/><path d="M203.9,26a.15.15,0,0,1,.17.17v6.2a.15.15,0,0,1-.17.17h-1.06a.15.15,0,0,1-.17-.17v-6.2a.15.15,0,0,1,.17-.17Z" transform="translate(0 -0.8)" style="fill:#777"/><path d="M208.71,25.92a3.37,3.37,0,1,1-3.44,3.37A3.37,3.37,0,0,1,208.71,25.92Zm-2,3.37a2,2,0,1,0,2-2.06A2,2,0,0,0,206.67,29.29Z" transform="translate(0 -0.8)" style="fill:#777"/><path d="M218.16,32.55a.19.19,0,0,1-.18-.08l-1.64-2.08-1.66-2.34h-.06l.08,2v2.3a.15.15,0,0,1-.17.17h-1a.15.15,0,0,1-.17-.17v-6.2a.15.15,0,0,1,.17-.17h.92a.3.3,0,0,1,.23.08l1.8,2.28L218,30.51H218l-.08-2V26.18a.15.15,0,0,1,.17-.17h1a.15.15,0,0,1,.17.17v6.2a.15.15,0,0,1-.17.17Z" transform="translate(0 -0.8)" style="fill:#777"/><path d="M226.11,26.92a.14.14,0,0,1,0,.22l-.6.74a.16.16,0,0,1-.25,0,3.22,3.22,0,0,0-2.06-.67c-.82,0-1.26.23-1.26.6s.36.58,1.45.68c1.68.16,2.89.72,2.89,2.09s-1.22,2.06-2.87,2.06a4.37,4.37,0,0,1-3-1c-.08-.06-.08-.14,0-.24l.56-.76a.15.15,0,0,1,.24,0,3.28,3.28,0,0,0,2.23.74c1,0,1.46-.3,1.46-.74s-.46-.67-1.67-.78c-1.61-.13-2.67-.61-2.67-2,0-1.19,1.14-1.94,2.71-1.94A4.38,4.38,0,0,1,226.11,26.92Z" transform="translate(0 -0.8)" style="fill:#777"/></svg>