<svg xmlns="http://www.w3.org/2000/svg" viewBox="0 0 569.87 104.76"><defs><style>.a{fill:#fa2921;}.b{fill:#ed79b5;}.c{fill:#ffb400;}.d{fill:#1e83f7;}.e{fill:#18c249;}.f{fill:#80b7f9;}</style></defs><title>edyphotos_logo_4</title><path class="a" d="M50,31.33A80.8,80.8,0,0,1,66.29,50.48C72.55,39.3,76.72,26,76.77,17.56v-.16C76.77,4.87,64.29,0,53.53,0S30.29,4.87,30.29,17.39v.68C36.28,20.73,43.39,25.49,50,31.33Z"/><path class="b" d="M11.71,65.47c4.39-4.88,11.12-10.17,18.7-14.64a81,81,0,0,1,23.25-9.6c-8.7-9.4-20-17.47-28.07-20.14L25.43,21C13.52,17.17,5,27.55,1.7,37.77S-.85,61.39,11.06,65.26Z"/><path class="c" d="M105.47,37.6C102.15,27.37,93.66,17,81.75,20.87l-.64.21c-.68,6.52-3,14.76-6.53,22.84A80.77,80.77,0,0,1,61.41,65.34C74,67.83,87.9,67.69,96,65.13l.16-.05C108,61.22,108.79,47.84,105.47,37.6Z"/><path class="d" d="M42.91,75.47A81,81,0,0,1,41,50.4C29.34,55.77,18.15,64.06,13.14,70.87L13,71c-7.36,10.13-.12,21.41,8.58,27.74s21.67,9.72,29-.41l.4-.55C47.77,92.11,44.82,84.07,42.91,75.47Z"/><path class="e" d="M93.94,70.35c-6.42,1.37-15,1.7-23.74.85a80.84,80.84,0,0,1-24.44-5.9C47.27,78,51.7,91.22,56.63,98.1l.09.14c7.36,10.13,20.32,6.73,29,.41S101.7,81,94.34,70.9Z"/><path class="f" d="M163.94,71.47a.85.85,0,0,1-.08,1.3,29.34,29.34,0,0,1-19.26,6.83c-13.89,0-23.56-9.67-23.56-22.75C121,43.6,131,34,144.2,34s22.43,9.59,22.43,22.83v3.25c0,.73-.32,1.14-1,1.14H130.87c1.54,5.61,6.58,9.51,13.73,9.51,5.53,0,9.91-1.14,14.14-4.63a.8.8,0,0,1,1.3.08Zm-33.15-19H157c-.65-5.69-6.42-9.59-12.84-9.59C137.62,42.87,132.09,46.85,130.79,52.45Z"/><path class="f" d="M217,21.74a1,1,0,0,1,1.14,1.14V77.81A1,1,0,0,1,217,78.94h-5.28a1.15,1.15,0,0,1-1.22-1l-.73-3.17-.57-.08c-3.33,3.25-8.29,4.88-13.49,4.88-13,0-22.59-9.18-22.59-22.83S182.47,34,195.71,34c5,0,9.43,1.22,13,4.14V22.88a1,1,0,0,1,1.14-1.14ZM208.71,48a17.7,17.7,0,0,0-13-5c-7.72,0-13.24,5.36-13.24,13.81S188,70.66,195.71,70.66c5.44,0,9.51-1.54,13-5.36Z"/><path class="f" d="M270.22,34.66c.57,0,.73.49.49,1.06L252.42,80.32c-2.68,6.58-7.07,10.4-13.49,10.4a12,12,0,0,1-4.23-.57,1.33,1.33,0,0,1-1-1.38V82.68a.92.92,0,0,1,1.22-1,16.7,16.7,0,0,0,3,.24c2.84,0,4.88-1.06,5.77-4.23l.32-1.14-18.93-41a.58.58,0,0,1,.57-.89h8.94a1,1,0,0,1,1,.65L248.77,66h.65l11-30.71a1,1,0,0,1,1-.65Z"/><path class="f" d="M276.47,66.92a6.34,6.34,0,1,1-6.34,6.34A6.2,6.2,0,0,1,276.47,66.92Z"/><path class="f" d="M292.56,91.86a1,1,0,0,1-1.14-1.14V35.8a1,1,0,0,1,1.14-1.14h5.28a1.15,1.15,0,0,1,1.22,1l.73,3.17.57.08c3.33-3.25,8.21-4.88,13.41-4.88,13.08,0,22.67,9.18,22.67,22.83s-9.51,22.75-22.67,22.75c-5.2,0-9.34-1.14-12.92-4.06V90.72a1,1,0,0,1-1.14,1.14Zm8.29-26.24a17.51,17.51,0,0,0,12.92,5c7.72,0,13.33-5.36,13.33-13.81s-5.61-13.89-13.33-13.89c-5.44,0-9.43,1.38-12.92,5.2Z"/><path class="f" d="M352.85,21.74A1,1,0,0,1,354,22.88v15.6A16.42,16.42,0,0,1,365.85,34c11.46,0,19.74,6.83,19.74,20.15V77.81a1,1,0,0,1-1.14,1.14h-7.15a1,1,0,0,1-1.14-1.14V54.49c0-7.8-3.82-11.54-10.32-11.54A15,15,0,0,0,354,48.07V77.81a1,1,0,0,1-1.14,1.14H345.7a1,1,0,0,1-1.14-1.14V22.88a1,1,0,0,1,1.14-1.14Z"/><path class="f" d="M416.22,34c12.76,0,23.24,9.83,23.24,22.83S429,79.59,416.22,79.59s-23.32-9.67-23.32-22.75S403.39,34,416.22,34ZM402.41,56.84c0,8,5.69,13.89,13.81,13.89S430,64.89,430,56.84c0-8.21-5.69-14-13.73-14S402.41,48.64,402.41,56.84Z"/><path class="f" d="M450.27,26a1.11,1.11,0,0,1,1.14-1.14h6.17A1.11,1.11,0,0,1,458.72,26v8.61h12a1,1,0,0,1,1.14,1.14v6.5a1,1,0,0,1-1.14,1.14h-12v21c0,4.14,2.19,6.26,5.69,6.26a12.41,12.41,0,0,0,5.85-1.3c.89-.41,1.38-.08,1.63.49l2.19,5.2a1.1,1.1,0,0,1-.57,1.63,17.62,17.62,0,0,1-10.24,2.84c-9.75,0-14-6.18-14-14.87V43.44h-5a1,1,0,0,1-1.14-1.14V36.37a1,1,0,0,1,1-1.06l5.28-.49Z"/><path class="f" d="M501.62,34c12.76,0,23.24,9.83,23.24,22.83s-10.48,22.75-23.24,22.75S478.3,69.92,478.3,56.84,488.78,34,501.62,34ZM487.81,56.84c0,8,5.69,13.89,13.81,13.89s13.73-5.85,13.73-13.89c0-8.21-5.69-14-13.73-14S487.81,48.64,487.81,56.84Z"/><path class="f" d="M568.49,40.75a.93.93,0,0,1,.24,1.46l-4.06,5a1.06,1.06,0,0,1-1.71.08,21.86,21.86,0,0,0-14-4.55c-5.53,0-8.53,1.54-8.53,4.06s2.44,3.9,9.83,4.63c11.38,1.06,19.58,4.88,19.58,14.14,0,8.86-8.29,14-19.42,14-8.12,0-14.46-2-20.31-6.83-.57-.41-.57-1-.08-1.63L533.88,66a1,1,0,0,1,1.63-.24c4.47,3.49,8.69,5,15.11,5,6.83,0,9.91-2,9.91-5,0-3.17-3.09-4.55-11.29-5.28-10.89-.89-18.12-4.14-18.12-13.33,0-8,7.72-13.16,18.36-13.16A29.68,29.68,0,0,1,568.49,40.75Z"/></svg>