<svg xmlns="http://www.w3.org/2000/svg" xmlns:xlink="http://www.w3.org/1999/xlink" viewBox="0 0 429.11 380.93"><defs><radialGradient id="a" cx="180.19" cy="441.6" r="30.9" gradientTransform="translate(280.9 -75.25) rotate(45)" gradientUnits="userSpaceOnUse"><stop offset="0" stop-color="#fff"/><stop offset="0.04" stop-color="#fffde6"/><stop offset="0.1" stop-color="#fffbcb"/><stop offset="0.16" stop-color="#fff9b8"/><stop offset="0.22" stop-color="#fff8ad"/><stop offset="0.28" stop-color="#fff8a9"/><stop offset="0.67" stop-color="#fcf6ac"/><stop offset="0.89" stop-color="#fcf49b"/><stop offset="1" stop-color="#fbf06b"/></radialGradient></defs><title>Asset 2</title><path d="M25.06,380.66A213.61,213.61,0,0,1,0,280C0,161.46,96.06,65.4,214.55,65.4S429.11,161.46,429.11,280a213.61,213.61,0,0,1-25.06,100.71" style="fill:#ee3633"/><polyline points="104.13 380.66 132.88 344.43 55.48 380.67" style="fill:url(#a)"/><polyline points="47.87 380.67 120.11 323.73 16.16 345.36 112.45 300.64 6.32 297.71 110.33 276.4 7.74 249.08 113.86 252.34 20.33 202.09 122.84 229.73 43.42 159.27 136.79 209.8 75.76 122.92 154.96 193.63 115.61 95.02 176.38 182.09 160.82 77.06 199.87 175.79 208.96 70.01 224.19 175.08 257.43 74.25 248.01 180 303.61 89.55 270.06 190.28 345.01 115.09 289.14 205.37 379.42 149.49 304.22 224.45 404.96 190.9 314.5 246.5 420.26 237.08 319.42 270.32 424.5 285.54 318.71 294.63 417.45 333.68 312.42 318.13 399.49 378.89 300.87 339.54 337.57 380.65" style="fill:#f5eb20"/><path d="M110.5,380.66l-.18-71.43L99.46,302.3s-10.7-6.24-11.39-7.28-74.56-82.18-74.56-82.18L9,187.88l8.24-20.81L74.77,65.66,90,55l20.33-6.54,5.33-25s10.22-11.35,11.07-11.92,25.63-6.8,25.63-6.8l28.22,9.79,15.88,34.33L204,34.74S219,12.14,219.86,11.5s23.89-7.07,23.89-7.07S262,5.84,263.08,6.53s19.68,21.15,19.68,21.15l3.68,56.87L295.87,63l19.7-19.72,30.7-3.41L365.5,53.09l10.42,22.07-10.66,177.9-11.39,45.42-18.29,11.44,0,70.73" style="fill:#f2c392"/><path d="M114.82,69.74c-8.54-1.81-11.13-2.07-13.46-1.81s-12.69,5.18-12.69,5.18L80.25,83.56,75,96.92l4.4,8.8,31,15.61,10.19,2.77,8.28-6.73,6.73-11.13.78-15L130.09,77Z" style="fill:#f5d1ac"/><path d="M107.92,196.9q12.91-24,25.68-48.12c11.18-21.13,28-44.85,19.87-69.78-6.19-19-22.55-32.81-42.66-33-24.25-.29-43.18,16.43-54.14,36.85-16.23,30.24-32.11,60.68-48.16,91-6.08,11.49-4.06,25.41,1.23,36.88a72.7,72.7,0,0,0,14,19.8c2.79,2.88,5.94,5.36,8.68,8.27,5.11,5.44,10.06,11,15.08,16.56l38.41,42.16c9.08,10,22.37,15.07,35.47,17.18a113.52,113.52,0,0,0,26,1c5.36-.37,5.4-8.78,0-8.4-17.53,1.22-40.75-.53-53.64-13.61-9.81-10-18.89-20.74-28.3-31.07s-18.39-21.25-28.3-31.07c-10.69-10.58-21.38-21-23.66-36.66a31,31,0,0,1,1.26-15.16c-.85,2.29.63-1,1-1.63L19.52,171l12.07-22.81L58.83,96.68C67.07,81.11,75.89,65,93,57.8a43.93,43.93,0,0,1,26-2.55c7.84,1.7,14.12,6.66,19.1,12.84a40.77,40.77,0,0,1,7.43,37.21c-2.82,9.85-8.64,19.13-13.38,28.16q-14.58,27.75-29.45,55.34l-2.08,3.87c-2.56,4.76,4.69,9,7.25,4.24Z" style="fill:#261a20"/><path d="M108.06,183.79c11.36,18.61,35.84,29.17,57.07,21.52a50.25,50.25,0,0,0,27.69-24.87c4.83-9.82,5.76-19.87,5.76-30.53V52.1c0-12.88-3.66-24.9-12.09-34.83C173.1,1.49,149.82-4.36,130.79,4.18a42.8,42.8,0,0,0-19.63,18.33c-4.66,8.53-5.07,18.11-5,27.64,0,5.4,8.43,5.41,8.4,0,0-7.76-.08-15.93,3.64-23A34.84,34.84,0,0,1,133.71,12c15.63-7.44,34.67-2.4,46,10.18C193,37,190.19,57.39,190.19,75.66v67.18c0,4.67.07,9.34,0,14-.23,15.4-8.4,30.18-21.88,37.8-18.2,10.29-42.31,2.39-53-15.11-2.81-4.61-10.08-.39-7.25,4.24Z" style="fill:#261a20"/><path d="M196,56.8l-.43,82.58c-.06,10.84-1.39,23,1.25,33.63,5.7,23,30.06,38.9,53.44,33.24,14.89-3.6,27-16.1,32.61-29.93,4.89-12,4-25,4.25-37.75.46-29.71,1-59.43,1.39-89.14.24-20.76-12-39.85-31.83-46.87C245-1.58,231.11-.83,220.47,5.76c-9.82,6.08-16.28,16.16-20.22,26.81A73.49,73.49,0,0,0,196,56.8c-.1,5.41,8.3,5.41,8.4,0,.44-24.57,15.49-53.41,44.28-47.72,19.4,3.84,31.65,21.33,31.42,40.58-.33,27.31-.85,54.61-1.27,81.92-.13,8.64-.15,17.3-.4,25.94-.51,17.39-11.79,35-28.91,40.22-19,5.8-39.54-7.75-44.44-26.31-2.44-9.25-1.17-20.13-1.12-29.59.15-27.71.76-55.45.44-83.16,0-.62,0-1.25,0-1.87C204.42,51.39,196,51.38,196,56.8Z" style="fill:#261a20"/><path d="M287.35,80.43,283.14,152c-.63,10.66-2.21,21.17,2.66,31.18,8.62,17.7,30.95,26.63,49.79,23.59,14-2.27,27.44-11.34,33.92-24.09,5-9.78,4.65-21.25,5.41-32,1.72-24.08,3.92-48.17,5.16-72.28,1.26-24.43-21.55-41.24-44-43-27-2.06-46.7,18.93-48.69,44.93-.41,5.39,8,5.36,8.4,0C297.49,57.66,315.37,41,338.5,44.17c17.44,2.39,34.23,15.68,33.16,34.55-1.26,22.34-3.19,44.65-4.78,67-.53,7.44-.88,14.92-1.59,22.34-1.55,16.11-15.37,26.88-30.19,30.34-.54.13-1.09.21-1.64.31,1.28-.22.15,0-1.28.11a48.21,48.21,0,0,1-16.47-1.7c-9.44-2.8-18.35-9.06-22.65-18.13-3.8-8-2.06-17.61-1.56-26.18l4.25-72.34C296.07,75,287.67,75,287.35,80.43Z" style="fill:#261a20"/><path d="M160.48,206.08c32.83,9.45,52.12,37,62,68.3,1.61,5.14,9.73,2.95,8.1-2.23C219.81,238,198.43,208.27,162.71,198c-5.2-1.5-7.43,6.6-2.23,8.1Z" style="fill:#261a20"/><path d="M280,318.07c21.09-.3,45-.3,64.52-9.38,10.37-4.81,16.94-13.32,19.45-24.39,2.74-12.06,3.8-24.93,5-37.21,2-20.37,3.18-40.81,4.32-61.23q1.13-20.22,2-40.46c.23-5.41-8.17-5.39-8.4,0-1.28,29.89-2.86,59.8-5.29,89.61-1.1,13.47-2.65,26.86-4.55,40.24-1.3,9.14-3.52,17.95-11.65,23.35-6.67,4.43-14.77,6.4-22.54,7.82-14.1,2.59-28.59,3-42.89,3.25-5.4.08-5.42,8.48,0,8.4Z" style="fill:#261a20"/><path d="M125.33,68.57c-6.1-3.18-11.91-6.39-19-6.77A30,30,0,0,0,82.32,72.19c-3.82,4.5-6.36,10.31-9,15.55-3.49,7-3.47,15.08,2.29,20.95,3.2,3.26,8,5.11,12,7.18l17.09,8.9c4.56,2.37,8.81,4.69,14.21,4.08,8-.9,11.9-6.59,15.28-13.08,3.67-7,7.43-13.82,7-22.08a30.42,30.42,0,0,0-15.86-25.13c-4.73-2.63-9,4.62-4.24,7.25,6.67,3.71,11.24,10.13,11.7,17.88.34,5.72-2,10.35-4.52,15.23-2.18,4.19-4.12,10.13-9.21,11.41-3.9,1-7.19-1.28-10.47-3-7.86-4.1-15.78-8.1-23.59-12.29-10.4-5.58-3.35-15.54.74-23,3.85-7,10.52-11.69,18.65-11.93,6.28-.18,11.34,2.85,16.7,5.64C125.88,78.32,130.13,71.07,125.33,68.57Z" style="fill:#261a20"/><line x1="335.61" y1="380.93" x2="335.61" y2="307.93" style="fill:none;stroke:#261a20;stroke-miterlimit:10;stroke-width:10px"/><line x1="110.33" y1="307.66" x2="110.33" y2="380.66" style="fill:none;stroke:#261a20;stroke-miterlimit:10;stroke-width:10px"/></svg>