<svg xmlns="http://www.w3.org/2000/svg" viewBox="0 0 374.87 50.91"><title>Asset 12</title><path d="M14.7,20.65A1.15,1.15,0,0,1,16,21.92v19.6L36.39,21.37a3.66,3.66,0,0,1,2.36-.73H49.82c.82,0,1.09.73.45,1.36L28.58,42.33l23,26.41c.64.64.27,1.36-.54,1.36H40.2a2.76,2.76,0,0,1-2.27-.91L21.32,48.51,16,52.68V68.83A1.15,1.15,0,0,1,14.7,70.1h-8a1.15,1.15,0,0,1-1.27-1.27V21.92a1.15,1.15,0,0,1,1.27-1.27Z" transform="translate(-5.44 -19.92)" style="fill:#ed1e27"/><path d="M95.83,60.3H71.15L67.7,69a1.55,1.55,0,0,1-1.54,1.09h-9c-.91,0-1.18-.45-.91-1.27L77.68,21.37a1.14,1.14,0,0,1,1.18-.73H89.2a1.14,1.14,0,0,1,1.18.73L110.8,68.65a1,1,0,0,1-1,1.45h-8.62a2,2,0,0,1-1.91-1.27ZM75,50.77H92.2l-8-20.33h-1Z" transform="translate(-5.44 -19.92)" style="fill:#ed1e27"/><path d="M153.82,20.65a1.15,1.15,0,0,1,1.27,1.27v7.44a1.15,1.15,0,0,1-1.27,1.27H138v38.2a1.15,1.15,0,0,1-1.27,1.27h-8a1.15,1.15,0,0,1-1.27-1.27V30.63H111.71a1.15,1.15,0,0,1-1.27-1.27V21.92a1.15,1.15,0,0,1,1.27-1.27Z" transform="translate(-5.44 -19.92)" style="fill:#ed1e27"/><path d="M183.85,19.92c14.25,0,26,11,26,25.5s-11.71,25.41-26,25.41-26-10.8-26-25.41S169.52,19.92,183.85,19.92Zm-15.43,25.5c0,9,6.35,15.52,15.43,15.52s15.34-6.53,15.34-15.52c0-9.17-6.35-15.61-15.34-15.61S168.43,36.25,168.43,45.42Z" transform="translate(-5.44 -19.92)" style="fill:#ed1e27"/><path d="M242.48,20.65c11,0,19.42,7.8,19.42,18.06a17.47,17.47,0,0,1-8.71,15.15l7.8,15a.84.84,0,0,1-.82,1.27h-8.89a1.73,1.73,0,0,1-1.63-.91l-6.08-12.34a9.39,9.39,0,0,1-1.45.09h-12.7V68.83a1.15,1.15,0,0,1-1.27,1.27h-8a1.15,1.15,0,0,1-1.27-1.27V21.92a1.15,1.15,0,0,1,1.27-1.27Zm0,26.32c5.72,0,8.89-3.63,8.89-8.26s-3.18-8.08-8.89-8.08H229.41V47Z" transform="translate(-5.44 -19.92)" style="fill:#ed1e27"/><path d="M316.53,43.24a1.15,1.15,0,0,1,1.27,1.27V68.83a1.15,1.15,0,0,1-1.27,1.27h-5.35c-.82,0-1.27-.27-1.45-.91l-1-3c-3.54,3.18-8.26,4.63-14,4.63-14.52,0-24.68-10.71-24.68-25.59,0-14.61,11.07-25.32,25.59-25.32,8.53,0,17.15,4.36,21.6,11.43a1,1,0,0,1-.18,1.45L311.35,37a1.11,1.11,0,0,1-1.72-.18c-3.63-4.63-7.89-6.9-14-6.9-9.07,0-15.06,6.35-15.06,15.33s5.72,15.61,14.61,15.61c5.81,0,9-1.45,12.16-4.36v-12a1.15,1.15,0,0,1,1.27-1.27Z" transform="translate(-5.44 -19.92)" style="fill:#ed1e27"/><path d="M365.26,60.3H340.58L337.13,69a1.55,1.55,0,0,1-1.54,1.09h-9c-.91,0-1.18-.45-.91-1.27l21.42-47.46a1.14,1.14,0,0,1,1.18-.73h10.34a1.14,1.14,0,0,1,1.18.73l20.42,47.28a1,1,0,0,1-1,1.45h-8.62a2,2,0,0,1-1.91-1.27Zm-20.87-9.53h17.24l-8-20.33h-1Z" transform="translate(-5.44 -19.92)" style="fill:#ed1e27"/></svg>