<svg xmlns="http://www.w3.org/2000/svg" viewBox="0 0 914 109.4"><title>singlbit.com</title><path d="M129.6,0V109.2h46.5V0Zm33.6,96.4H142.6V12.9h20.6Z"/><path d="M196.7,0V109.2h46.5V46.5h20.6v62.7h46.5V0ZM297.4,96.4H276.8V33.5H230.3V96.4H209.7V13h87.7Z"/><path d="M724.8,0V109.2h46.5V0Zm33.6,96.4H737.8V12.9h20.6Z"/><path d="M595,0V109.2H704.2V0Zm96.4,48.1H676.1v13h15.2V96.3H608V13h83.4Z"/><path d="M444.5,42.2V0H330.9V109.2H444.5V54.6H398V67.4H377.4V42.2ZM411,80.4v-13h20.6V96.2H343.9V13h87.8V29.2H364.5V80.4Z"/><path d="M511.7,62.7V0H465.2V109.2H574.4V62.7Zm49.8,33.6H478.1V12.9h20.6V75.7h62.8Z"/><rect x="633.1" y="62.7" width="33.2" height="13"/><rect x="633.1" y="33.6" width="33.2" height="13"/><rect x="901.2" y="16.5" width="12.8" height="12.8"/><rect x="869.8" y="62.6" width="12.8" height="12.8"/><rect x="894.7" y="29.3" width="6.4" height="6.4"/><rect x="907.6" y="40.1" width="6.4" height="6.4"/><polygon points="888.3 29.3 888.3 33.6 856.8 33.6 856.8 62.6 863.4 62.6 863.4 56.2 869.8 56.2 869.8 46.5 894.8 46.5 894.8 40.1 901.2 40.1 901.2 29.3 888.3 29.3"/><rect x="882.7" y="56.2" width="6.4" height="6.4"/><polygon points="791.9 0 791.9 46.5 823.3 46.5 823.3 109.2 869.8 109.2 869.8 75.5 863.3 75.5 863.3 81.9 856.8 81.9 856.8 96.4 836.3 96.4 836.3 33.6 804.8 33.6 804.8 13 888.3 13 888.3 16.5 901.2 16.5 901.2 0 791.9 0"/><path d="M11.8.1A11.48,11.48,0,0,0,3.5,3.6,11.34,11.34,0,0,0,0,11.9v97.5H97.2A11.82,11.82,0,0,0,109,97.6V.1ZM97.2,32.5h-65v12h65V97.6H11.8V77H76.7V65H11.8V11.9H97.3V32.5Z"/></svg>