<svg id="Layer_1" data-name="Layer 1" xmlns="http://www.w3.org/2000/svg" xmlns:xlink="http://www.w3.org/1999/xlink" width="219.571" height="219.319" viewBox="0 0 219.571 219.319"><defs><linearGradient id="linear-gradient" x1="621.209" y1="385.372" x2="841.121" y2="385.372" gradientTransform="matrix(1, 0, 0, -1, 0, 770)" gradientUnits="userSpaceOnUse"><stop offset="0" stop-color="#f15f79"/><stop offset="1" stop-color="#b24592"/></linearGradient><linearGradient id="linear-gradient-2" x1="713.31" y1="-610.923" x2="749.666" y2="-610.923" gradientTransform="matrix(1, 0, 0, -1, 0, -226)" xlink:href="#linear-gradient"/><linearGradient id="linear-gradient-3" x1="714.391" y1="-636.638" x2="721.649" y2="-636.638" gradientTransform="matrix(1, 0, 0, -1, 0, -226)" xlink:href="#linear-gradient"/><linearGradient id="linear-gradient-4" x1="723.713" y1="-582.252" x2="730.972" y2="-582.252" gradientTransform="matrix(1, 0, 0, -1, 0, -226)" xlink:href="#linear-gradient"/><linearGradient id="linear-gradient-5" x1="748.409" y1="-631.909" x2="755.692" y2="-631.909" gradientTransform="matrix(1, 0, 0, -1, 0, -226)" xlink:href="#linear-gradient"/><linearGradient id="linear-gradient-6" x1="699.097" y1="-605.898" x2="706.355" y2="-605.898" gradientTransform="matrix(1, 0, 0, -1, 0, -226)" xlink:href="#linear-gradient"/><linearGradient id="linear-gradient-7" x1="754.229" y1="-598.213" x2="761.514" y2="-598.213" gradientTransform="matrix(1, 0, 0, -1, 0, -226)" xlink:href="#linear-gradient"/><linearGradient id="linear-gradient-8" x1="731.438" y1="-558.861" x2="785.908" y2="-558.861" gradientTransform="matrix(1, 0, 0, -1, 0, -226)" xlink:href="#linear-gradient"/><linearGradient id="linear-gradient-9" x1="762.778" y1="-622.929" x2="817.326" y2="-622.929" gradientTransform="matrix(1, 0, 0, -1, 0, -226)" xlink:href="#linear-gradient"/><linearGradient id="linear-gradient-10" x1="660.914" y1="-569.677" x2="715.454" y2="-569.677" gradientTransform="matrix(1, 0, 0, -1, 0, -226)" xlink:href="#linear-gradient"/><linearGradient id="linear-gradient-11" x1="648.52" y1="-638.942" x2="703.041" y2="-638.942" gradientTransform="matrix(1, 0, 0, -1, 0, -226)" xlink:href="#linear-gradient"/><linearGradient id="linear-gradient-12" x1="713.212" y1="-673.003" x2="767.718" y2="-673.003" gradientTransform="matrix(1, 0, 0, -1, 0, -226)" xlink:href="#linear-gradient"/></defs><title>Untitled-2</title><g id="Layer_5" data-name="Layer 5"><g id="Layer_7" data-name="Layer 7"><g id="Layer_6_copy" data-name="Layer 6 copy"><g id="_Group_" data-name="&lt;Group&gt;"><g id="_Group_2" data-name="&lt;Group&gt;"><path d="M731.487,286.791a97.761,97.761,0,0,1,45.519,11.232c47.884,24.829,66.209,84.536,41.381,132.419a98.008,98.008,0,0,1-132.419,41.381C638.084,447,619.167,387.288,644.587,339.4a98.061,98.061,0,0,1,86.9-52.613m0-11.823h0c-41.381,0-78.624,22.464-97.541,59.116-13.6,26.011-16.552,55.569-7.685,83.353,8.868,28.375,27.785,51.43,53.8,64.436a107.756,107.756,0,0,0,50.84,12.414c41.381,0,78.623-22.464,97.54-59.116,13.6-26.01,15.962-55.568,7.094-83.944a108.02,108.02,0,0,0-53.795-64.436c-14.779-7.685-32.513-11.823-50.248-11.823Z" transform="translate(-621.209 -274.968)" fill="url(#linear-gradient)"/></g><path id="_Path_" data-name="&lt;Path&gt;" d="M747.448,393.2a17.979,17.979,0,0,1-31.922-16.552,18.346,18.346,0,0,1,24.828-7.685A18.138,18.138,0,0,1,747.448,393.2Z" transform="translate(-621.209 -274.968)" fill="url(#linear-gradient-2)"/><path id="_Path_2" data-name="&lt;Path&gt;" d="M721.437,412.116c-.591,1.774-2.955,2.365-4.729,1.774a3.572,3.572,0,1,1,4.729-1.774Z" transform="translate(-621.209 -274.968)" fill="url(#linear-gradient-3)"/><path id="_Path_3" data-name="&lt;Path&gt;" d="M730.305,357.73c-.591,1.774-2.956,2.365-4.73,1.774a3.572,3.572,0,0,1,2.956-6.5A2.976,2.976,0,0,1,730.305,357.73Z" transform="translate(-621.209 -274.968)" fill="url(#linear-gradient-4)"/><path id="_Path_4" data-name="&lt;Path&gt;" d="M755.133,407.387a3.572,3.572,0,1,1-1.773-4.729A2.976,2.976,0,0,1,755.133,407.387Z" transform="translate(-621.209 -274.968)" fill="url(#linear-gradient-5)"/><path id="_Path_5" data-name="&lt;Path&gt;" d="M706.067,381.376c-.591,1.774-2.956,2.365-4.729,1.774a3.572,3.572,0,1,1,4.729-1.774Z" transform="translate(-621.209 -274.968)" fill="url(#linear-gradient-6)"/><path id="_Path_6" data-name="&lt;Path&gt;" d="M761.045,373.691a3.571,3.571,0,1,1-1.774-4.729A2.976,2.976,0,0,1,761.045,373.691Z" transform="translate(-621.209 -274.968)" fill="url(#linear-gradient-7)"/><path id="_Compound_Path_" data-name="&lt;Compound Path&gt;" d="M771.094,308.664c-9.458-5.32-20.69-3.547-28.966,2.365a24.651,24.651,0,0,0-7.685,9.458c-.591,1.183-1.183,1.774-1.183,2.956h0a27.163,27.163,0,0,0,47.884,24.829h0c.591-.592,1.182-1.774,1.773-2.365a26.9,26.9,0,0,0,2.956-11.823C786.464,323.443,781.144,313.985,771.094,308.664Zm5.321,33.7c-.591.591-1.183,1.774-1.774,2.365A82.407,82.407,0,0,0,758.68,332.31a44.228,44.228,0,0,0-18.917-5.911c.591-1.182.591-1.774,1.182-2.956a20.386,20.386,0,0,1,12.415-10.05h0a82.008,82.008,0,0,1,23.646,12.415A18.191,18.191,0,0,1,776.415,342.36Z" transform="translate(-621.209 -274.968)" fill="url(#linear-gradient-8)"/><path id="_Compound_Path_2" data-name="&lt;Compound Path&gt;" d="M805.381,374.874a12.882,12.882,0,0,0-2.955-1.774,27.107,27.107,0,0,0-25.42,47.884,26.765,26.765,0,0,0,17.735,2.364,28.45,28.45,0,0,0,18.917-14.187C820.751,397.337,816.613,382.559,805.381,374.874Zm-5.32,39.607a22.02,22.02,0,0,1-18.326,1.182c.591-1.182,1.182-1.773,1.774-2.955a56.438,56.438,0,0,0,5.911-34.879,18.726,18.726,0,0,1,9.459,2.365,17.383,17.383,0,0,1,7.094,5.912A69.854,69.854,0,0,1,800.061,414.481Z" transform="translate(-621.209 -274.968)" fill="url(#linear-gradient-9)"/><path id="_Compound_Path_3" data-name="&lt;Compound Path&gt;" d="M700.747,319.305c-1.182-.591-1.774-1.182-2.956-1.182a27.39,27.39,0,0,0-33.7,13,25.715,25.715,0,0,0-.591,23.646,26.432,26.432,0,0,0,12.414,13.006,27.151,27.151,0,0,0,36.652-11.232C719.073,342.951,714.343,326.4,700.747,319.305ZM679.465,357.73c-.591,1.182-1.182,1.774-1.773,2.956a21.593,21.593,0,0,1-9.459-15.37,86.1,86.1,0,0,1,20.1-21.282A16.679,16.679,0,0,1,697.2,326.4c2.956,1.773,5.32,3.547,7.094,6.5A53.2,53.2,0,0,0,679.465,357.73Z" transform="translate(-621.209 -274.968)" fill="url(#linear-gradient-10)"/><path id="_Compound_Path_4" data-name="&lt;Compound Path&gt;" d="M688.333,389.061a26.823,26.823,0,0,0-36.652,11.232,27.15,27.15,0,0,0,11.232,36.652,26.312,26.312,0,0,0,17.735,2.365,25.688,25.688,0,0,0,18.917-14.188C706.658,412.116,701.929,395.564,688.333,389.061Zm-14.188,43.746a81.082,81.082,0,0,1-15.37-30.149c2.956-5.321,8.276-8.276,14.188-9.459a57.911,57.911,0,0,0,17.143,33.7A20.068,20.068,0,0,1,674.145,432.807Z" transform="translate(-621.209 -274.968)" fill="url(#linear-gradient-11)"/><path id="_Compound_Path_5" data-name="&lt;Compound Path&gt;" d="M752.769,422.757c-13.6-7.094-29.558-1.773-36.652,11.823a25.748,25.748,0,0,0-.591,23.647,26.426,26.426,0,0,0,12.414,13.005A27.151,27.151,0,0,0,764.592,460a26.161,26.161,0,0,0,2.955-8.867C768.73,439.31,763.409,428.078,752.769,422.757Zm5.911,31.923A69.7,69.7,0,0,1,731.487,460h-6.5a20.82,20.82,0,0,1-4.138-16.552,61.5,61.5,0,0,0,37.243-5.321C761.045,442.856,761.045,448.768,758.68,454.68Z" transform="translate(-621.209 -274.968)" fill="url(#linear-gradient-12)"/></g></g></g></g></svg>