<svg id="Layer_8" data-name="Layer 8" xmlns="http://www.w3.org/2000/svg" xmlns:xlink="http://www.w3.org/1999/xlink" width="346.7" height="166.5" viewBox="0 0 346.7 166.5"><defs><linearGradient id="linear-gradient" x1="8" y1="134.25" x2="354.7" y2="134.25" gradientTransform="matrix(1, 0, 0, -1, 0, 230)" gradientUnits="userSpaceOnUse"><stop offset="0" stop-color="#ff9068"/><stop offset="1" stop-color="#fd746c"/></linearGradient></defs><title>logo_premium_orange</title><g id="_Group_" data-name="&lt;Group&gt;"><path id="_Compound_Path_" data-name="&lt;Compound Path&gt;" d="M350.3243,12.5H12.3757C9.9335,12.5,8,14.0538,8,16.0165v159.467C8,177.4462,9.9335,179,12.3757,179H350.3243c2.4422,0,4.3757-1.5538,4.3757-3.5165V16.0165C354.7,14.1356,352.7665,12.5,350.3243,12.5ZM282.6531,30.9c0-1.9626,1.9335-3.5164,4.3758-3.5164h6.818c2.4422,0,4.3757,1.5538,4.3757,3.5164V46.765c0,1.9627-1.9335,3.5164-4.3757,3.5164h-6.818c-2.4423,0-4.3758-1.5537-4.3758-3.5164Zm-31.1388,0c0-1.9626,1.9334-3.5164,4.3757-3.5164h6.92c2.4423,0,4.3758,1.5538,4.3758,3.5164V46.765c0,1.9627-1.9335,3.5164-4.3758,3.5164h-6.92c-2.4423,0-4.3757-1.5537-4.3757-3.5164Zm-31.2407,0c0-1.9626,1.9335-3.5164,4.3757-3.5164h6.92c2.4423,0,4.3757,1.5538,4.3757,3.5164V46.765c0,1.9627-1.9334,3.5164-4.3757,3.5164h-6.92c-2.4422,0-4.3757-1.5537-4.3757-3.5164Zm-31.1389,0c0-1.9626,1.9335-3.5164,4.3758-3.5164h6.8179c2.4423,0,4.3758,1.5538,4.3758,3.5164V46.765c0,1.9627-1.9335,3.5164-4.3758,3.5164h-6.8179c-2.4423,0-4.3758-1.5537-4.3758-3.5164Zm-31.1389,0c0-1.9626,1.9335-3.5164,4.3758-3.5164H169.19c2.4423,0,4.3758,1.5538,4.3758,3.5164V46.765c0,1.9627-1.9335,3.5164-4.3758,3.5164h-6.8179c-2.4423,0-4.3758-1.5537-4.3758-3.5164Zm-31.2406,0c0-1.9626,1.9334-3.5164,4.3757-3.5164h6.92c2.4422,0,4.3757,1.5538,4.3757,3.5164V46.765c0,1.9627-1.9335,3.5164-4.3757,3.5164h-6.92c-2.4423,0-4.3757-1.5537-4.3757-3.5164Zm-31.1389,0c0-1.9626,1.9335-3.5164,4.3757-3.5164h6.92c2.4422,0,4.3757,1.5538,4.3757,3.5164V46.765c0,1.9627-1.9335,3.5164-4.3757,3.5164h-6.92c-2.4422,0-4.3757-1.5537-4.3757-3.5164Zm-31.2407,0c0-1.9626,1.9335-3.5164,4.3758-3.5164h6.818c2.4422,0,4.3757,1.5538,4.3757,3.5164V46.765c0,1.9627-1.9335,3.5164-4.3757,3.5164h-6.818c-2.4423,0-4.3758-1.5537-4.3758-3.5164Zm-35.2093,0c0-1.9626,1.9335-3.5164,4.3757-3.5164h6.92c2.4423,0,4.3757,1.5538,4.3757,3.5164V46.765c0,1.9627-1.9335,3.5164-4.3757,3.5164h-6.92c-2.4422,0-4.3757-1.5537-4.3757-3.5164ZM44.7357,160.6c0,1.9626-1.9334,3.5164-4.3757,3.5164H33.44c-2.4423,0-4.3758-1.5538-4.3758-3.5164V144.735c0-1.9626,1.9335-3.5164,4.3758-3.5164h6.92c2.4423,0,4.3757,1.5537,4.3757,3.5164Zm35.3111,0c0,1.9626-1.9334,3.5164-4.3757,3.5164h-6.818c-2.4422,0-4.3757-1.5538-4.3757-3.5164V144.735c0-1.9626,1.9335-3.5164,4.3757-3.5164h6.818c2.4423,0,4.3757,1.5537,4.3757,3.5164Zm31.1389,0c0,1.9626-1.9334,3.5164-4.3757,3.5164H99.89c-2.4423,0-4.3758-1.5538-4.3758-3.5164V144.735c0-1.9626,1.9335-3.5164,4.3758-3.5164h6.92c2.4423,0,4.3757,1.5537,4.3757,3.5164Zm31.1389,0c0,1.9626-1.9334,3.5164-4.3757,3.5164h-6.818c-2.4423,0-4.3757-1.5538-4.3757-3.5164V144.735c0-1.9626,1.9334-3.5164,4.3757-3.5164h6.92c2.4422,0,4.3757,1.5537,4.3757,3.5164V160.6Zm31.2407,0c0,1.9626-1.9335,3.5164-4.3758,3.5164h-6.8179c-2.4423,0-4.3758-1.5538-4.3758-3.5164V144.735c0-1.9626,1.9335-3.5164,4.3758-3.5164H169.19c2.4423,0,4.3758,1.5537,4.3758,3.5164Zm31.1389,0c0,1.9626-1.9335,3.5164-4.3758,3.5164h-6.8179c-2.4423,0-4.3758-1.5538-4.3758-3.5164V144.735c0-1.9626,1.9335-3.5164,4.3758-3.5164h6.8179c2.4423,0,4.3758,1.5537,4.3758,3.5164Zm31.2406,0c0,1.9626-1.9334,3.5164-4.3757,3.5164h-6.92c-2.4422,0-4.3757-1.5538-4.3757-3.5164V144.735c0-1.9626,1.9335-3.5164,4.3757-3.5164h6.92c2.4423,0,4.3757,1.5537,4.3757,3.5164Zm31.1389,0c0,1.9626-1.9334,3.5164-4.3757,3.5164h-6.92c-2.4423,0-4.3758-1.5538-4.3758-3.5164V144.735c0-1.9626,1.9335-3.5164,4.3758-3.5164h6.92c2.4423,0,4.3757,1.5537,4.3757,3.5164Zm31.1389,0c0,1.9626-1.9334,3.5164-4.3757,3.5164h-6.818c-2.4423,0-4.3757-1.5538-4.3757-3.5164V144.735c0-1.9626,1.9334-3.5164,4.3757-3.5164h6.818c2.4423,0,4.3757,1.5537,4.3757,3.5164Zm35.3111,0c0,1.9626-1.9335,3.5164-4.3757,3.5164h-6.92c-2.4422,0-4.3757-1.5538-4.3757-3.5164V144.735c0-1.9626,1.9335-3.5164,4.3757-3.5164h6.92c2.4422,0,4.3757,1.5537,4.3757,3.5164Zm0-35.5735c0,1.9627-1.9335,3.5165-4.3757,3.5165H33.542c-2.4422,0-4.3757-1.5538-4.3757-3.5165V66.4735c0-1.9627,1.9335-3.5165,4.3757-3.5165H329.26c2.4423,0,4.3758,1.5538,4.3758,3.5165v58.553Zm0-78.2615c0,1.9627-1.9335,3.5164-4.3757,3.5164h-6.92c-2.4422,0-4.3757-1.5537-4.3757-3.5164V30.9c0-1.9626,1.9335-3.5164,4.3757-3.5164h6.92c2.4422,0,4.3757,1.5538,4.3757,3.5164Z" transform="translate(-8 -12.5)" fill="url(#linear-gradient)"/></g><path d="M60.1108,77.771c8.711,0,15.2622,6.2632,15.2622,14.3262,0,8.3506-6.5512,14.47-15.2622,14.47H49.6724v9.4306a.911.911,0,0,1-1.0078,1.0079H42.3291a.911.911,0,0,1-1.0078-1.0079V78.7788a.9108.9108,0,0,1,1.0078-1.0078Zm0,20.8769c4.3916,0,6.9112-2.7353,6.9112-6.5507,0-3.7437-2.52-6.4073-6.9112-6.4073H49.6724v12.958Z" transform="translate(-8 -12.5)" fill="#fd786b"/><path d="M101.2856,77.771c8.711,0,15.4063,6.1909,15.4063,14.3262a13.8567,13.8567,0,0,1-6.9111,12.0224l6.1909,11.8784a.6661.6661,0,0,1-.648,1.0079h-7.0551a1.37,1.37,0,0,1-1.2955-.72l-4.8237-9.791a7.4286,7.4286,0,0,1-1.1518.0723H90.9189v9.4306a.911.911,0,0,1-1.0078,1.0079H83.5757a.911.911,0,0,1-1.0078-1.0079V78.7788a.9107.9107,0,0,1,1.0078-1.0078Zm0,20.8769c4.5357,0,7.0552-2.8793,7.0552-6.5507s-2.52-6.4073-7.0552-6.4073H90.9189v12.958Z" transform="translate(-8 -12.5)" fill="#fd786b"/><path d="M154.7705,77.771a.9107.9107,0,0,1,1.0078,1.0078v5.7593a.9107.9107,0,0,1-1.0078,1.0078H132.957v7.3428h19.1494a.9114.9114,0,0,1,1.0083,1.0083v5.7593a.9113.9113,0,0,1-1.0083,1.0078H132.957v8.4946h22.3892a.9108.9108,0,0,1,1.0078,1.0078v5.8315a.911.911,0,0,1-1.0078,1.0079H125.6138a.911.911,0,0,1-1.0078-1.0079V78.7788a1.0293,1.0293,0,0,1,1.0078-1.0078Z" transform="translate(-8 -12.5)" fill="#fd786b"/><path d="M207.3906,77.771a.9105.9105,0,0,1,1.0078,1.0078V115.998a.9108.9108,0,0,1-1.0078,1.0079h-6.3349a.9108.9108,0,0,1-1.0078-1.0079V101.7437l.3593-10.7266-.4316-.0718-5.7588,14.83-4.4639,10.5107a1.1682,1.1682,0,0,1-1.1513.72h-4.8955a1.1693,1.1693,0,0,1-1.1519-.72l-4.2471-10.5107L172.4038,90.873l-.4321.0723.36,10.7984V115.998a.911.911,0,0,1-1.0078,1.0079h-6.0473a.911.911,0,0,1-1.0078-1.0079V78.7788a.9107.9107,0,0,1,1.0078-1.0078H173.7a1.2339,1.2339,0,0,1,1.1519.7915l5.7592,13.1743,5.7583,14.5425h.2881l5.6875-14.5425,5.4717-13.1743a1.2923,1.2923,0,0,1,1.2949-.7915Z" transform="translate(-8 -12.5)" fill="#fd786b"/><path d="M224.374,77.771a.9113.9113,0,0,1,1.0088,1.0078V115.998a.9115.9115,0,0,1-1.0088,1.0079h-6.3349a.9112.9112,0,0,1-1.0078-1.0079V78.7788a.911.911,0,0,1,1.0078-1.0078Z" transform="translate(-8 -12.5)" fill="#fd786b"/><path d="M234.0186,78.7788a.911.911,0,0,1,1.0078-1.0078h6.3349a.9105.9105,0,0,1,1.0078,1.0078V99.6563c0,5.831,3.24,10.0063,9.2149,10.0063,5.832,0,9.2871-3.9595,9.2871-10.0063V78.7788a.911.911,0,0,1,1.0078-1.0078h6.3359a.911.911,0,0,1,1.0079,1.0078V99.728c0,10.1509-6.7676,17.854-17.6387,17.854-10.7979,0-17.5654-7.7031-17.5654-17.854Z" transform="translate(-8 -12.5)" fill="#fd786b"/><path d="M320.98,77.771a.911.911,0,0,1,1.0078,1.0078V115.998a.9112.9112,0,0,1-1.0078,1.0079h-6.3359a.9113.9113,0,0,1-1.0079-1.0079V101.7437l.36-10.7266-.4316-.0718-5.76,14.83-4.4629,10.5107a1.17,1.17,0,0,1-1.1523.72h-4.8956a1.1682,1.1682,0,0,1-1.1513-.72l-4.2481-10.5107L285.9912,90.873l-.4316.0723.36,10.7984V115.998a.9112.9112,0,0,1-1.0078,1.0079h-6.0478a.9113.9113,0,0,1-1.0079-1.0079V78.7788a.911.911,0,0,1,1.0079-1.0078h8.4228a1.2342,1.2342,0,0,1,1.1524.7915l5.7587,13.1743,5.76,14.5425h.2881l5.6865-14.5425,5.4717-13.1743A1.2936,1.2936,0,0,1,312.7,77.771Z" transform="translate(-8 -12.5)" fill="#fd786b"/></svg>