<svg id="Layer_1" data-name="Layer 1" xmlns="http://www.w3.org/2000/svg" xmlns:xlink="http://www.w3.org/1999/xlink" width="735.6888" height="115.992" viewBox="0 0 735.6888 115.992"><defs><linearGradient id="linear-gradient" x1="444.9991" y1="217.998" x2="561.3157" y2="217.998" gradientTransform="translate(987.3227 475.0982) rotate(-175.4641)" gradientUnits="userSpaceOnUse"><stop offset="0" stop-color="#f15f79"/><stop offset="1" stop-color="#b24592"/></linearGradient><linearGradient id="linear-gradient-2" x1="1114.9229" y1="1487.0941" x2="1134.1525" y2="1487.0941" gradientTransform="translate(1506.2304 1789.2199) rotate(-175.4641)" xlink:href="#linear-gradient"/><linearGradient id="linear-gradient-3" x1="1115.4947" y1="1500.6988" x2="1119.3336" y2="1500.6988" gradientTransform="translate(1506.2304 1789.2199) rotate(-175.4641)" xlink:href="#linear-gradient"/><linearGradient id="linear-gradient-4" x1="1120.4253" y1="1471.9455" x2="1124.2648" y2="1471.9455" gradientTransform="translate(1506.2304 1789.2199) rotate(-175.4641)" xlink:href="#linear-gradient"/><linearGradient id="linear-gradient-5" x1="1133.4876" y1="1498.2241" x2="1137.3398" y2="1498.2241" gradientTransform="translate(1506.2304 1789.2199) rotate(-175.4641)" xlink:href="#linear-gradient"/><linearGradient id="linear-gradient-6" x1="1107.4053" y1="1484.4397" x2="1111.2442" y2="1484.4397" gradientTransform="translate(1506.2304 1789.2199) rotate(-175.4641)" xlink:href="#linear-gradient"/><linearGradient id="linear-gradient-7" x1="1136.5624" y1="1480.4014" x2="1140.4156" y2="1480.4014" gradientTransform="translate(1506.2304 1789.2199) rotate(-175.4641)" xlink:href="#linear-gradient"/><linearGradient id="linear-gradient-8" x1="503.3023" y1="190.5978" x2="532.1127" y2="190.5978" xlink:href="#linear-gradient"/><linearGradient id="linear-gradient-9" x1="519.8622" y1="224.5257" x2="548.7139" y2="224.5257" xlink:href="#linear-gradient"/><linearGradient id="linear-gradient-10" x1="465.9969" y1="196.3442" x2="494.8471" y2="196.3442" xlink:href="#linear-gradient"/><linearGradient id="linear-gradient-11" x1="459.4484" y1="232.9276" x2="488.2858" y2="232.9276" xlink:href="#linear-gradient"/><linearGradient id="linear-gradient-12" x1="493.6621" y1="250.9896" x2="522.4916" y2="250.9896" xlink:href="#linear-gradient"/></defs><title>logo_dockerplex_purple2</title><path d="M594.7319,188.229c17.0645,0,30.3487,12.0962,30.3487,29.3765,0,17.4961-13.2842,29.4843-30.3487,29.4843h-22.14a1.3665,1.3665,0,0,1-1.5122-1.5117V189.7407a1.3665,1.3665,0,0,1,1.5122-1.5117Zm-13.8242,49.5728h13.8242c11.7725,0,20.3047-8.3164,20.3047-20.1963,0-11.7725-8.5322-20.1963-20.3047-20.1963H580.9077Z" transform="translate(-445.019 -159.9942)" fill="#df5780"/><path d="M664.0669,187.3647c17.0644,0,30.3491,12.7442,30.3491,30.3487,0,17.4966-13.2847,30.2407-30.3491,30.2407s-30.3481-12.7441-30.3481-30.2407C633.7188,200.1089,647.0029,187.3647,664.0669,187.3647Zm-20.4121,30.3487c0,12.0962,8.3159,21.06,20.4121,21.06s20.4126-8.9638,20.4126-21.06c0-12.2041-8.3164-21.1685-20.4126-21.1685S643.6548,205.5093,643.6548,217.7134Z" transform="translate(-445.019 -159.9942)" fill="#df5780"/><path d="M758.3516,200.1089a1.1714,1.1714,0,0,1-.2159,1.8364l-5.0761,3.9961a1.3651,1.3651,0,0,1-1.9444-.3242c-4.6445-6.0479-10.26-9.0723-17.6045-9.0723-11.9873,0-20.5205,9.0723-20.5205,21.0606,0,12.0957,8.5332,21.1679,20.5205,21.1679,7.3448,0,13.1768-3.24,17.82-9.288.54-.6475,1.08-.6475,1.8359-.1075l5.0762,4.1035a1.17,1.17,0,0,1,.2158,1.836,29.8508,29.8508,0,0,1-24.9483,12.6367c-17.28,0-30.456-12.7441-30.456-30.3486,0-17.3882,13.1758-30.2408,30.456-30.2408A29.7537,29.7537,0,0,1,758.3516,200.1089Z" transform="translate(-445.019 -159.9942)" fill="#df5780"/><path d="M777.5732,188.229a1.3666,1.3666,0,0,1,1.5127,1.5117v25.92L806.95,189.417a4.321,4.321,0,0,1,3.1318-1.188h9.7207a.9556.9556,0,0,1,.6475,1.728l-25.92,23.6524,27.3242,31.6445c.7559.7559.3242,1.8359-.8643,1.8359h-8.64a4.1031,4.1031,0,0,1-3.24-1.4043l-21.709-25.7041-8.3155,6.6963v18.9a1.3666,1.3666,0,0,1-1.5127,1.5117H770.77a1.3664,1.3664,0,0,1-1.5117-1.5117V189.7407a1.3664,1.3664,0,0,1,1.5117-1.5117Z" transform="translate(-445.019 -159.9942)" fill="#df5780"/><path d="M874.7725,188.229a1.5453,1.5453,0,0,1,1.5127,1.5117v6.1563a1.53,1.53,0,0,1-1.5127,1.4043h-34.128v14.58H871.749a1.3665,1.3665,0,0,1,1.5117,1.5123v6.1557c0,.9722-.54,1.4043-1.5117,1.4043H840.6445V237.91h35.208c.9727,0,1.4043.4316,1.4043,1.2959v6.372c0,.9717-.4316,1.5117-1.4043,1.5117H832.22c-.9717,0-1.4033-.54-1.4033-1.5117V189.7407c0-.9717.4316-1.5117,1.4033-1.5117Z" transform="translate(-445.019 -159.9942)" fill="#df5780"/><path d="M917.6475,188.229c12.8525,0,22.249,9.2881,22.249,21.06a20.5147,20.5147,0,0,1-11.2324,18.5761l9.8281,17.4961c.54.9727,0,1.7285-1.1885,1.7285H929.42a2.67,2.67,0,0,1-2.16-1.5117L919.376,230.35a5.7185,5.7185,0,0,1-1.5117.1084h-18.9v15.12c0,.9717-.4326,1.5117-1.4043,1.5117h-6.8037a1.445,1.445,0,0,1-1.62-1.5117V189.7407a1.3664,1.3664,0,0,1,1.5118-1.5117Zm0,33.0483c7.8847,0,12.4209-5.0761,12.4209-11.9882,0-6.8037-4.5362-11.88-12.4209-11.88H898.9639v23.8681Z" transform="translate(-445.019 -159.9942)" fill="#df5780"/><path d="M980.1787,188.229c12.6358,0,21.8164,8.9639,21.8164,20.6284,0,11.772-9.1806,20.628-21.8164,20.628H958.9023v16.2c0,.9727-.4326,1.4043-1.4043,1.4043h-4.32c-.9716,0-1.4033-.4316-1.4033-1.4043V189.6328c0-.9717.4317-1.4038,1.4033-1.4038Zm0,34.7764c9.5039,0,14.6885-5.94,14.6885-14.148,0-8.1-5.1846-14.1484-14.6885-14.1484H958.9023v28.2964Z" transform="translate(-445.019 -159.9942)" fill="#df5780"/><path d="M1018.5166,188.229c.9717,0,1.4043.4321,1.4043,1.4038v50.9766h37.6924a1.3666,1.3666,0,0,1,1.5117,1.5127v3.456a1.3663,1.3663,0,0,1-1.5117,1.5117h-43.3086a1.4737,1.4737,0,0,1-1.5117-1.5117V189.6328c0-.9717.4316-1.4038,1.4033-1.4038Z" transform="translate(-445.019 -159.9942)" fill="#df5780"/><path d="M1113.2324,188.229c.9717,0,1.4033.4321,1.4033,1.4038v3.6724c0,.9717-.4316,1.4038-1.4033,1.4038h-36.1806v18.1445H1111.18c.9726,0,1.4043.4317,1.4043,1.4038v3.6719c0,.9722-.4317,1.4043-1.4043,1.4043h-34.1279v21.2759h37.2607c.9717,0,1.4033.4326,1.4033,1.2969v3.7792c0,.9727-.4316,1.4043-1.4033,1.4043h-42.9854c-.9716,0-1.4033-.4316-1.4033-1.4043V189.6328c0-.9717.4317-1.4038,1.4033-1.4038Z" transform="translate(-445.019 -159.9942)" fill="#df5780"/><path d="M1132.8887,188.229a2.1788,2.1788,0,0,1,1.9433.9722l17.1729,22.248h.54l16.6319-22.248a2.5075,2.5075,0,0,1,2.0517-.9722h6.0488c.7559,0,1.08.7559.54,1.5117l-20.9531,26.2447,23.6533,29.8085c.4316.54.1074,1.2959-.7569,1.2959h-6.2636a2.26,2.26,0,0,1-1.836-.9716l-19.44-25.4888h-.54l-18.792,25.38a2.2909,2.2909,0,0,1-1.9444,1.08h-6.2636c-.7569,0-1.08-.54-.6485-1.2959l23.2207-29.7006-20.8447-26.46a.8311.8311,0,0,1,.6484-1.4038Z" transform="translate(-445.019 -159.9942)" fill="#df5780"/><g id="Layer_5" data-name="Layer 5"><g id="Layer_7" data-name="Layer 7"><g id="Layer_6_copy" data-name="Layer 6 copy"><g id="_Group_" data-name=" Group "><g id="_Group_2" data-name=" Group 2"><path d="M498.7188,269.5619a51.7081,51.7081,0,0,1-23.5308-7.8263c-24.2091-15.0945-31.3738-47.3426-16.28-71.5512a51.8388,51.8388,0,0,1,71.4688-16.3316l.0823.0518a51.9005,51.9005,0,0,1-31.7407,95.6594m-.4945,6.2339h0A58.2592,58.2592,0,0,0,559.6657,205.08c-3.4889-15.3322-12.4988-28.28-25.6716-36.2254a56.9943,56.9943,0,0,0-26.287-8.6721,58.2176,58.2176,0,0,0-35.4852,107.2792,58.3821,58.3821,0,0,0,26,8.3357Z" transform="translate(-445.019 -159.9942)" fill="url(#linear-gradient)"/></g><path id="_Path_" data-name=" Path " d="M494.7541,212.7882a9.51,9.51,0,0,1,16.1391,10.0626h0a9.7037,9.7037,0,0,1-13.384,3.0316l-.0285-.0181A9.5937,9.5937,0,0,1,494.7541,212.7882Z" transform="translate(-445.019 -159.9942)" fill="url(#linear-gradient-2)"/><path id="_Path_2" data-name=" Path 2" d="M509.26,203.9025a1.969,1.969,0,0,1,2.5677-.7376,1.8893,1.8893,0,1,1-2.5679.7381Z" transform="translate(-445.019 -159.9942)" fill="url(#linear-gradient-3)"/><path id="_Path_3" data-name=" Path 3" d="M502.3094,232.2075a1.97,1.97,0,0,1,2.5681-.7375,1.8893,1.8893,0,0,1-1.83,3.3036,1.5741,1.5741,0,0,1-.7377-2.5661Z" transform="translate(-445.019 -159.9942)" fill="url(#linear-gradient-4)"/><path id="_Path_4" data-name=" Path 4" d="M491.2955,204.9864a1.8893,1.8893,0,1,1,.7378,2.5681l-.0007,0a1.5742,1.5742,0,0,1-.7371-2.5677Z" transform="translate(-445.019 -159.9942)" fill="url(#linear-gradient-5)"/><path id="_Path_5" data-name=" Path 5" d="M516.0784,220.7536a1.9692,1.9692,0,0,1,2.5676-.7376,1.8893,1.8893,0,1,1-2.5679.7381Z" transform="translate(-445.019 -159.9942)" fill="url(#linear-gradient-6)"/><path id="_Path_6" data-name=" Path 6" d="M486.7688,222.5059a1.8888,1.8888,0,1,1,.7376,2.5677,1.5742,1.5742,0,0,1-.7376-2.5677Z" transform="translate(-445.019 -159.9942)" fill="url(#linear-gradient-7)"/><path id="_Compound_Path_" data-name=" Compound Path " d="M478.75,256.3722c4.7643,3.2007,10.7607,2.7357,15.3717-.0353a13.0388,13.0388,0,0,0,4.4477-4.6655c.3611-.599.6979-.8859.7474-1.5091h0a14.3672,14.3672,0,0,0-24.2091-15.0945h0c-.3364.2874-.6974.8859-1.0338,1.1728a14.2283,14.2283,0,0,0-2.0531,6.11A14.0122,14.0122,0,0,0,478.75,256.3722Zm-1.396-17.9915c.3364-.2869.698-.8859,1.0343-1.1728a43.5837,43.5837,0,0,0,7.8963,7.2158,23.3933,23.3933,0,0,0,9.727,3.908c-.361.5985-.3858.9106-.7469,1.5091a10.7831,10.7831,0,0,1-6.9664,4.78h0a43.3772,43.3772,0,0,1-11.9484-7.5352,9.6215,9.6215,0,0,1,1.004-8.7026Z" transform="translate(-445.019 -159.9942)" fill="url(#linear-gradient-8)"/><path id="_Compound_Path_2" data-name=" Compound Path 2" d="M463.4414,220.0276a6.8134,6.8134,0,0,0,1.4839,1.059,14.3376,14.3376,0,0,0,15.4061-24.1844,14.1572,14.1572,0,0,0-9.2522-1.9883,15.0481,15.0481,0,0,0-10.5678,6.6891C456.2769,207.5407,457.8406,215.5057,463.4414,220.0276Zm4.4618-20.6609a11.6469,11.6469,0,0,1,9.7121.1433c-.361.5985-.6974.8854-1.0589,1.4839a29.8514,29.8514,0,0,0-4.5757,18.1433,9.9053,9.9053,0,0,1-4.8885-1.6427,9.1946,9.1946,0,0,1-3.4931-3.4139A36.9468,36.9468,0,0,1,467.9032,199.3667Z" transform="translate(-445.019 -159.9942)" fill="url(#linear-gradient-9)"/><path id="_Compound_Path_3" data-name=" Compound Path 3" d="M516.287,253.7041c.5985.3611.8859.6975,1.5092.7469a14.4872,14.4872,0,0,0,18.3127-5.4448,13.6013,13.6013,0,0,0,1.3007-12.443,13.98,13.98,0,0,0-6.0015-7.3769,14.3608,14.3608,0,0,0-19.7952,4.3891A14.833,14.833,0,0,0,516.287,253.7041Zm12.8286-19.37c.3611-.5985.6975-.8859,1.0585-1.4844a11.4209,11.4209,0,0,1,4.3445,8.5A45.54,45.54,0,0,1,523.03,251.73a8.8226,8.8226,0,0,1-4.5763-1.6185,9.947,9.947,0,0,1-3.4685-3.7239A28.1387,28.1387,0,0,0,529.1156,234.3341Z" transform="translate(-445.019 -159.9942)" fill="url(#linear-gradient-10)"/><path id="_Compound_Path_4" data-name=" Compound Path 4" d="M525.75,217.4434a14.1873,14.1873,0,0,0,19.6332-4.1349q.0824-.1263.162-.2543a14.36,14.36,0,0,0-4.3891-19.7952,13.9173,13.9173,0,0,0-9.2522-1.9888,13.587,13.587,0,0,0-10.5678,6.69A13.7484,13.7484,0,0,0,525.75,217.4434Zm9.3107-22.4724a42.8865,42.8865,0,0,1,6.843,16.54,10.59,10.59,0,0,1-7.8765,4.3939,30.6308,30.6308,0,0,0-7.6293-18.486A10.6143,10.6143,0,0,1,535.0611,194.971Z" transform="translate(-445.019 -159.9942)" fill="url(#linear-gradient-11)"/><path id="_Compound_Path_5" data-name=" Compound Path 5" d="M493.1849,196.9812a14.2076,14.2076,0,0,0,19.82-4.7007,13.6187,13.6187,0,0,0,1.3008-12.4436,13.9778,13.9778,0,0,0-6.0015-7.3764,14.3608,14.3608,0,0,0-19.7952,4.3892,13.8377,13.8377,0,0,0-1.929,4.5516C485.4616,187.5857,487.7974,193.7306,493.1849,196.9812Zm-1.7813-17.0792a36.8658,36.8658,0,0,1,14.56-1.6676l3.4272.2719a11.0124,11.0124,0,0,1,1.49,8.9,32.5293,32.5293,0,0,0-19.86,1.2478C489.662,186.0375,489.9093,182.92,491.4036,179.902Z" transform="translate(-445.019 -159.9942)" fill="url(#linear-gradient-12)"/></g></g></g></g></svg>