<svg xmlns="http://www.w3.org/2000/svg" viewBox="0 0 468.78 227.29"><title>Asset 1</title><path d="M238.37,225.49a20.44,20.44,0,0,1-6.3-6.2c-5.8-8.6-3-33,5.2-44.4l2.6-3.7h-5.4c-6.6,0-12.7-4.7-14.9-11.5-1.2-3.6-2.1-4.5-3.8-3.8-7.6,3-22.4,4.8-37.5,4.5-15.9-.3-17.2-.1-27.3,3.9-5.9,2.3-12,4.2-13.7,4.2-8.5,0-14.5-10.6-13.3-23.8,1.2-13.7,12.1-35.9,20.8-42.6,3.3-2.5,6.5-3.6,12.3-4,5.5-.4,7.9-.1,7.9,1,0,.9-2.4,5.2-5.4,9.6-9.4,13.8-15.2,27.5-15.2,35.8,0,5.8.4,7.4,2.3,7.8,3.7.7,11.3-3.6,22.2-12.7,5.6-4.7,15.5-12.1,21.9-16.5s11.7-8.2,11.7-8.4-4.9,1.3-11,3.4c-12.5,4.2-15.5,4.5-19,1.9-2.9-2.1-3.2-9.3-.6-15.6,1.6-3.7,1.8-3.8,4.1-1.7,2.7,2.4,2.4,2.4,30.1-1.6,15.4-2.2,16.4-2.2,19.7,0,2.8,1.8,3.4,3.2,3.1,6.6-.2,2.3-.9,4.1-1.4,3.9-4.1-1.4-42.3,26.2-42.3,30.6,0,.6,2.3,1.6,5,2.4,15.2,4.2,27.2-1.8,34.9-17.7,4.3-9,12.7-17.6,20.7-21.6,6.3-3.1,8.3-3.4,15.6-2.7,10.5,1,13.5,1.1,21.4.5,4.6-.3,6.9.2,8.6,1.9,2.1,2.1,2.1,2.5.2,4.7-2.5,2.8-10.8,23.1-9.8,24,1.6,1.6,10.8-7.8,22.6-23,5.4-7,11-10,18.5-10,3.8,0,6.3.6,6.3,1.5s-3.3,6.8-7.4,13.2c-7.5,11.8-13.8,27.1-13.9,33.5,0,4,3,7.2,5.8,6.1,1-.4,3.8-4.4,6.2-8.9,4.4-8.2,12.2-15.4,18.4-16.9,2.4-.6,2.9-1.4,2.2-3.6-5.4-17.3,1.3-27.5,17.9-27.5,5.6,0,7.5.6,10.2,3.4,2.5,2.5,3.1,4.1,2.4,6.3-1.3,4.3-4.6,7.6-7.5,7.6-1.9,0-2.4-.8-2.1-3.7s-.2-3.7-2.1-3.7c-3.8,0-5.7,3.9-3.7,7.6,4.1,7.6,4.1,7.6,14.2,5.6a103.76,103.76,0,0,1,16.3-1.8c7.3-.1,10.2,2.1,11.3,8.6.4,2.5-.2,2.6-13.1,2.2-7.4-.3-14.7-.1-16.2.4-2.7.9-2.7.9.5,6.5,6.8,12,2.8,27.6-8.7,34.1-11,6.2-29.4,2.8-36.3-6.6l-2.8-3.8-3.9,3.9c-5.4,5.4-12.9,7.3-18.9,4.8s-9.2-8.7-9.2-18.5c0-4.2-.4-7.7-.8-7.6a42.77,42.77,0,0,0-6,3l-5.2,3-3.7,17.3c-8.3,39.1-18.4,60.7-28.4,60.6a19.41,19.41,0,0,1-6.3-1.8Zm8.1-18.1c2.1-5.5,10.5-39.3,9.9-39.9-1.3-1.3-11.7,22.6-14.6,33.8-2.6,10.2,1.3,15.2,4.7,6.1Zm104.6-51.3c2.7-3.8,2.5-8-.7-14.3s-5.3-6.6-9.8-1.3-5.4,8.8-3.5,13.6C339.77,160.69,347.07,161.69,351.07,156.09Zm-98.3-2.6c3.5-3.2,7.4-11.1,8.9-18,.8-4,.6-4.3-2.5-4.3-4.4,0-4.4-2.2,0-5.6,6.6-5.2,7.4-14.4,1.3-14.4-6.8,0-19.9,21-22.7,36.4-2,9.9,6.9,13.4,15,5.9Zm-160.6,27.7c-8.2-4.1-19-15.1-23.5-24.1-13.9-27.5-15.3-76.9-3-107.6,1.7-4.2,2.8-7.7,2.4-7.7-2.3,0-20.3,15-29.8,24.9-13,13.5-17.2,20.9-17.2,30.5,0,6.5,3.6,16.7,6.5,18.5,2.7,1.7,1.5,3.4-2.2,3.4-5.6,0-13.9-4.4-18.6-9.7-17-19.4-.9-55,36.1-79.8,29-19.4,53.1-26.8,64.5-19.8,6.3,3.8,15.3,18.7,11.3,18.6a44.24,44.24,0,0,1-6.6-2c-7.7-2.7-10.8-1.2-16.2,7.8-14.2,23.6-22.8,76.2-16.9,102.9a104.67,104.67,0,0,0,5.8,17.9l3.4,7.3,1-14.7c2.3-32.4,18.4-77.1,39.5-108.9,24.3-36.7,62.9-50.7,74.2-27,1.9,4,3,11.5,1.7,11.5a38.06,38.06,0,0,1-4.8-2.2c-5.7-2.8-12.2-1-21,6-26.1,20.7-58,70.5-71.9,112.2-3.3,9.9-3.8,13.4-3.8,28-.1,19.2-.2,19.3-10.9,14Zm316.5-55a17.65,17.65,0,0,1-2.9-6c-.8-3.3-.3-3.9,4.8-6.5,14.7-7.5,29.5-29.5,33.9-50.5,2.6-12.2,1.8-30-1.9-43-1.6-5.5-2.1-9.3-1.3-9.8,2.1-1.3,3.6,1.2,7,11,13.1,37.9.3,82.8-29.2,102.4a87.8,87.8,0,0,1-7.8,4.8,13.94,13.94,0,0,1-2.6-2.4Zm-83.4-35c-4-1.6-4.1-7.3-.2-9.4,4.2-2.3,11.6-2.1,14,.3,3,3,1.2,7.2-3.7,9s-6,1.7-10.1.1ZM160,87.89c-3.9-2.8-3.8-5.4.2-8.1,4.2-2.8,14-2.1,16,1C179.67,86.39,166.07,92.29,160,87.89Zm303-37.4c2.1-6.1,2.3-21.5.3-30-1.1-4.8-1.8-8.9-1.5-9.2s1.9,2.4,3.5,6c5.1,11.5,4.6,25.3-1.2,33.2l-2,2.7Zm-29-15.4a56,56,0,0,0-6.3-13c-4.6-6.3-3.5-7.2,2.5-2.1,4.6,3.9,7.2,11,6.6,17.9C436.27,42.49,436.27,42.39,434,35.09Z" style="fill:#877862"/></svg>