<?xml version="1.0" encoding="utf-8"?>
<!-- Generator: Adobe Illustrator 23.0.3, SVG Export Plug-In . SVG Version: 6.00 Build 0)  -->
<svg version="1.1"
	 id="svg3777" xmlns:cc="http://creativecommons.org/ns#" xmlns:dc="http://purl.org/dc/elements/1.1/" xmlns:inkscape="http://www.inkscape.org/namespaces/inkscape" xmlns:rdf="http://www.w3.org/1999/02/22-rdf-syntax-ns#" xmlns:sodipodi="http://sodipodi.sourceforge.net/DTD/sodipodi-0.dtd" xmlns:svg="http://www.w3.org/2000/svg"
	 xmlns="http://www.w3.org/2000/svg" xmlns:xlink="http://www.w3.org/1999/xlink" x="0px" y="0px" viewBox="0 0 482.7 241.3"
	 style="enable-background:new 0 0 482.7 241.3;" xml:space="preserve">
<style type="text/css">
	.st0{fill:#FFB600;}
</style>
<path id="path3787" inkscape:connector-curvature="0" class="st0" d="M245.9,231c-1.8-0.9-4.7-3.7-6.3-6.2c-5.8-8.6-3-33,5.2-44.4
	l2.6-3.7H242c-6.6,0-12.7-4.7-14.9-11.5c-1.2-3.6-2.1-4.5-3.8-3.8c-7.6,3-22.4,4.8-37.5,4.5c-15.9-0.3-17.2-0.1-27.3,3.9
	c-5.9,2.3-12,4.2-13.7,4.2c-8.5,0-14.5-10.6-13.3-23.8c1.2-13.7,12.1-35.9,20.8-42.6c3.3-2.5,6.5-3.6,12.3-4c5.5-0.4,7.9-0.1,7.9,1
	c0,0.9-2.4,5.2-5.4,9.6c-9.4,13.8-15.2,27.5-15.2,35.8c0,5.8,0.4,7.4,2.3,7.8c3.7,0.7,11.3-3.6,22.2-12.7
	c5.6-4.7,15.5-12.1,21.9-16.5c6.4-4.4,11.7-8.2,11.7-8.4c0-0.2-4.9,1.3-11,3.4c-12.5,4.2-15.5,4.5-19,1.9c-2.9-2.1-3.2-9.3-0.6-15.6
	c1.6-3.7,1.8-3.8,4.1-1.7c2.7,2.4,2.4,2.4,30.1-1.6c15.4-2.2,16.4-2.2,19.7,0c2.8,1.8,3.4,3.2,3.1,6.6c-0.2,2.3-0.9,4.1-1.4,3.9
	c-4.1-1.4-42.3,26.2-42.3,30.6c0,0.6,2.3,1.6,5,2.4c15.2,4.2,27.2-1.8,34.9-17.7c4.3-9,12.7-17.6,20.7-21.6
	c6.3-3.1,8.3-3.4,15.6-2.7c10.5,1,13.5,1.1,21.4,0.5c4.6-0.3,6.9,0.2,8.6,1.9c2.1,2.1,2.1,2.5,0.2,4.7c-2.5,2.8-10.8,23.1-9.8,24
	c1.6,1.6,10.8-7.8,22.6-23c5.4-7,11-10,18.5-10c3.8,0,6.3,0.6,6.3,1.5c0,0.8-3.3,6.8-7.4,13.2c-7.5,11.8-13.8,27.1-13.9,33.5
	c0,4,3,7.2,5.8,6.1c1-0.4,3.8-4.4,6.2-8.9c4.4-8.2,12.2-15.4,18.4-16.9c2.4-0.6,2.9-1.4,2.2-3.6c-5.4-17.3,1.3-27.5,17.9-27.5
	c5.6,0,7.5,0.6,10.2,3.4c2.5,2.5,3.1,4.1,2.4,6.3c-1.3,4.3-4.6,7.6-7.5,7.6c-1.9,0-2.4-0.8-2.1-3.7c0.3-2.8-0.2-3.7-2.1-3.7
	c-3.8,0-5.7,3.9-3.7,7.6c4.1,7.6,4.1,7.6,14.2,5.6c5.1-1,12.4-1.8,16.3-1.8c7.3-0.1,10.2,2.1,11.3,8.6c0.4,2.5-0.2,2.6-13.1,2.2
	c-7.4-0.3-14.7-0.1-16.2,0.4c-2.7,0.9-2.7,0.9,0.5,6.5c6.8,12,2.8,27.6-8.7,34.1c-11,6.2-29.4,2.8-36.3-6.6l-2.8-3.8l-3.9,3.9
	c-5.4,5.4-12.9,7.3-18.9,4.8c-6.1-2.6-9.2-8.7-9.2-18.5c0-4.2-0.4-7.7-0.8-7.6c-0.4,0-3.1,1.4-6,3l-5.2,3l-3.7,17.3
	c-8.3,39.1-18.4,60.7-28.4,60.6C250.5,232.7,247.7,231.9,245.9,231L245.9,231z M254,212.9c2.1-5.5,10.5-39.3,9.9-39.9
	c-1.3-1.3-11.7,22.6-14.6,33.8C246.7,217,250.6,222,254,212.9L254,212.9z M358.6,161.6c2.7-3.8,2.5-8-0.7-14.3
	c-3.2-6.3-5.3-6.6-9.8-1.3c-4.6,5.4-5.4,8.8-3.5,13.6C347.3,166.2,354.6,167.2,358.6,161.6z M260.3,159c3.5-3.2,7.4-11.1,8.9-18
	c0.8-4,0.6-4.3-2.5-4.3c-4.4,0-4.4-2.2,0-5.6c6.6-5.2,7.4-14.4,1.3-14.4c-6.8,0-19.9,21-22.7,36.4C243.3,163,252.2,166.5,260.3,159
	L260.3,159z M99.7,186.7c-8.2-4.1-19-15.1-23.5-24.1c-13.9-27.5-15.3-76.9-3-107.6c1.7-4.2,2.8-7.7,2.4-7.7
	c-2.3,0-20.3,15-29.8,24.9c-13,13.5-17.2,20.9-17.2,30.5c0,6.5,3.6,16.7,6.5,18.5c2.7,1.7,1.5,3.4-2.2,3.4c-5.6,0-13.9-4.4-18.6-9.7
	c-17-19.4-0.9-55,36.1-79.8c29-19.4,53.1-26.8,64.5-19.8c6.3,3.8,15.3,18.7,11.3,18.6c-0.6,0-3.5-0.9-6.6-2
	c-7.7-2.7-10.8-1.2-16.2,7.8c-14.2,23.6-22.8,76.2-16.9,102.9c1.3,5.8,3.9,13.9,5.8,17.9l3.4,7.3l1-14.7
	C99,120.7,115.1,76,136.2,44.2c24.3-36.7,62.9-50.7,74.2-27c1.9,4,3,11.5,1.7,11.5c-0.3,0-2.4-1-4.8-2.2c-5.7-2.8-12.2-1-21,6
	c-26.1,20.7-58,70.5-71.9,112.2c-3.3,9.9-3.8,13.4-3.8,28C110.5,191.9,110.4,192,99.7,186.7L99.7,186.7z M416.2,131.7
	c-1.1-1.3-2.4-4-2.9-6c-0.8-3.3-0.3-3.9,4.8-6.5c14.7-7.5,29.5-29.5,33.9-50.5c2.6-12.2,1.8-30-1.9-43c-1.6-5.5-2.1-9.3-1.3-9.8
	c2.1-1.3,3.6,1.2,7,11c13.1,37.9,0.3,82.8-29.2,102.4c-4,2.6-7.5,4.8-7.8,4.8C418.5,134,417.4,133,416.2,131.7L416.2,131.7z
	 M332.8,96.7c-4-1.6-4.1-7.3-0.2-9.4c4.2-2.3,11.6-2.1,14,0.3c3,3,1.2,7.2-3.7,9C338.1,98.3,336.9,98.3,332.8,96.7L332.8,96.7z
	 M167.5,93.4c-3.9-2.8-3.8-5.4,0.2-8.1c4.2-2.8,14-2.1,16,1C187.2,91.9,173.6,97.8,167.5,93.4z M470.5,56c2.1-6.1,2.3-21.5,0.3-30
	c-1.1-4.8-1.8-8.9-1.5-9.2s1.9,2.4,3.5,6c5.1,11.5,4.6,25.3-1.2,33.2l-2,2.7L470.5,56z M441.5,40.6c-1.3-4.1-4.1-9.9-6.3-13
	c-4.6-6.3-3.5-7.2,2.5-2.1c4.6,3.9,7.2,11,6.6,17.9C443.8,48,443.8,47.9,441.5,40.6z"/>
</svg>
