<svg xmlns="http://www.w3.org/2000/svg" viewBox="0 0 1353.82 751.51"><title>docker-container</title><path d="M676.19,55.93V194h0v0L557.43,262.52l6.09,3.53a19.47,19.47,0,0,0-11.28-.54,19,19,0,0,0-5.11,2.06l-77.72,44.86-31.52,18.21V193.51Z" style="fill:#f39424"/><path d="M914.47,193.51V330.65L883,312.44l-77.72-44.86A19.79,19.79,0,0,0,789,266l6-3.46L676.2,194v-138L914.46,193.51Z" style="fill:#e04c30"/><path d="M498.69,75.61h0a13.17,13.17,0,0,1,13.17,13.17V194a13.18,13.18,0,0,1-14.11,13.14c-7-.48-12.23-6.61-12.23-13.6V88.78A13.16,13.16,0,0,1,498.69,75.61Z" style="fill:#802468"/><path d="M564.43,15.7A44.58,44.58,0,1,0,609,60.28H564.43Z" style="fill:#4b153e"/><path d="M603.94,261.19h0A13.17,13.17,0,0,0,617.11,248V142.82A13.18,13.18,0,0,0,603,129.68c-7,.48-12.23,6.61-12.23,13.6V248A13.17,13.17,0,0,0,603.94,261.19Z" style="fill:#4b153e"/><path d="M543.14,143.28v50.44a13.17,13.17,0,0,0,13.17,13.17h0a13.17,13.17,0,0,0,13.17-13.17v-50.9a13.17,13.17,0,0,0-14.1-13.14C548.4,130.15,543.14,136.28,543.14,143.28Z" style="fill:#4b153e"/><path d="M557.25,336.76c7-.48,12.23-6.61,12.23-13.6V246.4a13.17,13.17,0,0,0-13.17-13.17h0a13.17,13.17,0,0,0-13.17,13.17v77.22a13.18,13.18,0,0,0,14.11,13.14Z" style="fill:#4b153e"/><path d="M580.13,0V44.58h44.58A44.58,44.58,0,0,0,580.13,0Z" style="fill:#4b153e"/><path d="M564.43,15.7A44.58,44.58,0,1,0,609,60.28H564.43Z" style="fill:#4b153e"/><path d="M543.14,143.28v50.44a13.17,13.17,0,0,0,13.17,13.17h0a13.17,13.17,0,0,0,13.17-13.17v-50.9a13.17,13.17,0,0,0-14.1-13.14C548.4,130.15,543.14,136.28,543.14,143.28Z" style="fill:#802468"/><path d="M580.13,0V44.58h44.58A44.58,44.58,0,0,0,580.13,0Z" style="fill:#802468"/><path d="M853.65,75.61h0a13.17,13.17,0,0,0-13.17,13.17V194a13.18,13.18,0,0,0,14.11,13.14c7-.48,12.23-6.61,12.23-13.6V88.78A13.16,13.16,0,0,0,853.65,75.61Z" style="fill:#802468"/><path d="M743.33,44.58a44.58,44.58,0,1,1,44.58,44.58V44.58Z" style="fill:#802468"/><path d="M809.2,143.28v50.44A13.17,13.17,0,0,1,796,206.89h0a13.17,13.17,0,0,1-13.17-13.17v-50.9A13.17,13.17,0,0,1,797,129.68C803.94,130.15,809.2,136.28,809.2,143.28Z" style="fill:#802468"/><path d="M795.62,233.23c-7.21.22-12.77,6.51-12.77,13.72h0a5,5,0,0,1-7.45,4.3l-11.35-6.55a5,5,0,0,1-2.49-4.32V143.27c0-7-5.25-13.12-12.23-13.6a13.18,13.18,0,0,0-14.11,13.14v76.6a5,5,0,0,1-7.48,4.32l-36.46-21a4.9,4.9,0,0,1-2.36-5.42,13.18,13.18,0,0,0,.42-3.29V89.33c0-7.21-5.56-13.5-12.77-13.72A13.18,13.18,0,0,0,663,88.77V193.51a13.8,13.8,0,0,0,.49,3.65,4.94,4.94,0,0,1-2.41,5.51l-36.5,21.07a5,5,0,0,1-7.48-4.32V142.81A13.18,13.18,0,0,0,603,129.67c-7,.48-12.23,6.61-12.23,13.6v97.11a5,5,0,0,1-2.49,4.32l-11.34,6.55a5,5,0,0,1-7.45-4.3h0c0-7.21-5.56-13.5-12.77-13.72a13.18,13.18,0,0,0-13.58,13.16v77.22a13.18,13.18,0,0,0,14.11,13.14c7-.48,12.23-6.61,12.23-13.6V269.5l106.67,61.57v0h0l106.69-61.6v53.67c0,7,5.25,13.12,12.23,13.6a13.18,13.18,0,0,0,14.11-13.14V246.4A13.18,13.18,0,0,0,795.62,233.23Z" style="fill:#4b153e"/><path d="M727.63,60.28h44.58v44.58A44.58,44.58,0,0,1,727.63,60.28Z" style="fill:#4b153e"/><path d="M676.19,331.09V606.25l0,0h0l-61.53-35.52L507.77,509l-62.44-36-6.78-3.92-.67-.39V331.54l109.25,63.07a3.78,3.78,0,0,0,.63.33,3.25,3.25,0,0,0,.52.28,10.57,10.57,0,0,0,1.08.5,19.46,19.46,0,0,0,2.47.85,19.75,19.75,0,0,0,14.79-1.82l.32-.17,109.23-63.47v0Z" style="fill:#f39424"/><path d="M914.47,331.54V468.67l-.65.37L907,473l-62.42,36L737.73,570.71l-61.54,35.54V331.09l33.31,19.38,48,27.87,1.52.87,26.45,15.38.33.19a19.73,19.73,0,0,0,14.77,1.8c.41-.11.8-.24,1.21-.37s.95-.35,1.41-.56a18.34,18.34,0,0,0,2.08-1l69.2-39.94,27.94-16.14,1.52-.87,10.44-6Z" style="fill:#e04c30"/><path d="M676.17,331.07v0L566.94,394.59l-.32.17a19.7,19.7,0,0,1-14.79,1.82,19.46,19.46,0,0,1-2.47-.85c-.37-.15-.72-.32-1.08-.5a2.61,2.61,0,0,1-.52-.28,3.78,3.78,0,0,1-.63-.33L437.88,331.55h0L348.23,279.8a19.73,19.73,0,0,1,0-34.14l89.11-51.79.58-.33,119.54,69,6.09,3.53Z" style="fill:#e04c30"/><path d="M1004.12,279.78l-89.65,51.75h0l-10.57,6.11-98.66,57a3.78,3.78,0,0,1-.63.33s0,0,0,0l-.61.33c-.26.11-.52.24-.8.35-.46.2-.93.39-1.41.56s-.8.26-1.21.37a19.79,19.79,0,0,1-14.77-1.8l-.33-.19-109.23-63.5L789,266l6-3.46,119.5-69h0l.56.32,89.13,51.81A19.74,19.74,0,0,1,1004.12,279.78Z" style="fill:#f39424"/><path d="M0,664.36H25A29.59,29.59,0,0,1,37.49,667a33.94,33.94,0,0,1,10.18,7.12,33.21,33.21,0,0,1,6.86,10.35,31.92,31.92,0,0,1,0,24.67,32.87,32.87,0,0,1-6.82,10.4,33.65,33.65,0,0,1-10.18,7.16A29.76,29.76,0,0,1,25,729.4H0ZM16.91,715.1h3.88a21,21,0,0,0,7.85-1.38,16.75,16.75,0,0,0,5.82-3.8,16.17,16.17,0,0,0,3.62-5.74,20.58,20.58,0,0,0,1.25-7.29A20.11,20.11,0,0,0,38,689.64a16.29,16.29,0,0,0-9.49-9.58,20.77,20.77,0,0,0-7.77-1.38H16.91Zm47.71-8.2a21.59,21.59,0,0,1,2-9.19,22.48,22.48,0,0,1,5.52-7.42,26.29,26.29,0,0,1,8.41-5,30.31,30.31,0,0,1,10.66-1.81,30.73,30.73,0,0,1,10.57,1.77,26.22,26.22,0,0,1,8.46,4.92,22.1,22.1,0,0,1,5.57,7.51,23,23,0,0,1,2,9.62,22.53,22.53,0,0,1-2,9.62,22.77,22.77,0,0,1-5.57,7.51,25.08,25.08,0,0,1-8.5,4.88,32.51,32.51,0,0,1-10.74,1.73,31.1,31.1,0,0,1-10.53-1.73,24.3,24.3,0,0,1-8.33-4.92,22.73,22.73,0,0,1-5.48-7.64A24.22,24.22,0,0,1,64.62,706.9Zm16.48.17a10,10,0,0,0,.82,4.1,10.87,10.87,0,0,0,2.16,3.24,9.48,9.48,0,0,0,3.19,2.16,10.29,10.29,0,0,0,7.86,0,9.48,9.48,0,0,0,3.19-2.16,11.06,11.06,0,0,0,2.16-3.24,9.75,9.75,0,0,0,.82-4,9.58,9.58,0,0,0-.82-3.93A11.2,11.2,0,0,0,98.32,700a9.58,9.58,0,0,0-3.19-2.16,10.29,10.29,0,0,0-7.86,0A9.48,9.48,0,0,0,84.08,700a11.22,11.22,0,0,0-2.16,3.19A9.33,9.33,0,0,0,81.1,707.07Zm79-7.59a14.46,14.46,0,0,0-8.2-2.76,11.15,11.15,0,0,0-4.19.78,10.47,10.47,0,0,0-3.41,2.2,10.18,10.18,0,0,0-2.29,3.36,11,11,0,0,0-.82,4.36,10.8,10.8,0,0,0,.82,4.27,10.41,10.41,0,0,0,2.24,3.36,9.78,9.78,0,0,0,3.41,2.2,11.44,11.44,0,0,0,4.23.78,12.91,12.91,0,0,0,8.2-3V728.3a27.59,27.59,0,0,1-11,2.5,25.93,25.93,0,0,1-9.19-1.64,23,23,0,0,1-13-12,22.42,22.42,0,0,1-2-9.53,23.74,23.74,0,0,1,1.9-9.62,23,23,0,0,1,5.18-7.51,23.49,23.49,0,0,1,7.81-4.92,26.46,26.46,0,0,1,9.71-1.77,23.25,23.25,0,0,1,10.53,2.42Zm26.66-41.67v43.31l16.39-16h21.4l-22.17,20.45,23.47,23.81H204l-17.17-18v18H171.17V657.81Zm56,52.11q0,10.1,9.49,10.1a8.49,8.49,0,0,0,7.68-4.14h15.1q-4.57,15.18-22.86,15.19a30.1,30.1,0,0,1-10.27-1.68,22.83,22.83,0,0,1-8-4.79,21.24,21.24,0,0,1-5.13-7.42,24.71,24.71,0,0,1-1.81-9.66,27.1,27.1,0,0,1,1.73-10,21,21,0,0,1,4.92-7.55,21.78,21.78,0,0,1,7.72-4.79,29.25,29.25,0,0,1,10.22-1.68,28.59,28.59,0,0,1,10.09,1.68,20.39,20.39,0,0,1,7.59,4.88,21.3,21.3,0,0,1,4.75,7.81,31,31,0,0,1,1.64,10.4V710H242.79Zm18.29-9.06a9.38,9.38,0,0,0-3.19-5.26,9.91,9.91,0,0,0-11.78-.08,8.62,8.62,0,0,0-2.89,5.35h17.86Zm23.47-15.7h15.62v7.25a17.89,17.89,0,0,1,6.13-6.08,16.47,16.47,0,0,1,8.46-2.11h1.34a9.94,9.94,0,0,1,1.68.17v14.93a14.76,14.76,0,0,0-6.73-1.55q-5.43,0-8.15,3.24t-2.72,9.45v19H284.56V685.16Zm39.17-17a8.52,8.52,0,0,1,.69-3.41,8.84,8.84,0,0,1,1.9-2.8,9.13,9.13,0,0,1,2.8-1.9,8.77,8.77,0,0,1,6.82,0,8.84,8.84,0,0,1,2.8,1.9,9.13,9.13,0,0,1,1.9,2.8,8.77,8.77,0,0,1,0,6.82,8.84,8.84,0,0,1-1.9,2.8,9,9,0,0,1-2.8,1.9,8.77,8.77,0,0,1-6.82,0,9,9,0,0,1-4.7-4.7A8.48,8.48,0,0,1,323.72,668.16Zm16.65,17v44.26H324.75V685.16Zm33.48,31.23h18.64v13H347.62l20.88-31.23h-18v-13h44.09ZM416,709.92q0,10.1,9.49,10.1a8.49,8.49,0,0,0,7.68-4.14h15.1q-4.58,15.18-22.86,15.19a30.1,30.1,0,0,1-10.27-1.68,22.83,22.83,0,0,1-8-4.79,21.24,21.24,0,0,1-5.13-7.42,24.71,24.71,0,0,1-1.81-9.66,27.1,27.1,0,0,1,1.73-10,21,21,0,0,1,4.92-7.55,21.78,21.78,0,0,1,7.72-4.79,29.25,29.25,0,0,1,10.22-1.68,28.59,28.59,0,0,1,10.09,1.68,20.39,20.39,0,0,1,7.59,4.88,21.3,21.3,0,0,1,4.75,7.81,31,31,0,0,1,1.64,10.4V710H416Zm18.29-9.06a9.38,9.38,0,0,0-3.19-5.26,9.91,9.91,0,0,0-11.78-.08,8.62,8.62,0,0,0-2.89,5.35h17.86Zm57.63-43.05h15.7v71.61h-15.7V724.5a16.39,16.39,0,0,1-13.55,6.3,21.54,21.54,0,0,1-8.89-1.81,22.26,22.26,0,0,1-7.08-5,22.92,22.92,0,0,1-4.7-7.51,26.46,26.46,0,0,1-.08-18.34,22.43,22.43,0,0,1,4.53-7.46,21.45,21.45,0,0,1,16.05-6.91,18.06,18.06,0,0,1,13.72,5.78V657.81Zm-19.67,49.35a10.2,10.2,0,0,0,.78,4,10.37,10.37,0,0,0,2.11,3.24,9.48,9.48,0,0,0,3.19,2.16,10.24,10.24,0,0,0,4,.78,10.06,10.06,0,0,0,3.93-.78,9.48,9.48,0,0,0,3.19-2.16,11.22,11.22,0,0,0,2.16-3.19,9.25,9.25,0,0,0,.82-3.88,9.58,9.58,0,0,0-.82-3.93,11.06,11.06,0,0,0-2.16-3.24,9.58,9.58,0,0,0-3.19-2.16,10.29,10.29,0,0,0-7.86,0,9.48,9.48,0,0,0-3.19,2.16,11.46,11.46,0,0,0-2.16,3.15A9.12,9.12,0,0,0,472.21,707.16Zm93.7,22.26H549V664.36h26.92q11,0,16.78,5.69t5.82,16.05q0,10.35-5.82,16t-16.78,5.69h-10Zm0-35.2h5.61q9.32,0,9.32-8.11T571.52,678h-5.61Zm57.55,4v31.23H607.84V698.19h-5.18v-13h5.18V671.87h15.62v13.29h8.89v13Zm29.68,11.73q0,10.1,9.49,10.1a8.49,8.49,0,0,0,7.68-4.14h15.1q-4.57,15.18-22.86,15.19a30.1,30.1,0,0,1-10.27-1.68,22.83,22.83,0,0,1-8-4.79,21.24,21.24,0,0,1-5.13-7.42,24.71,24.71,0,0,1-1.81-9.66,27.1,27.1,0,0,1,1.73-10A21,21,0,0,1,644,690a21.78,21.78,0,0,1,7.72-4.79A29.25,29.25,0,0,1,662,683.54,28.59,28.59,0,0,1,672,685.22a20.39,20.39,0,0,1,7.59,4.88,21.3,21.3,0,0,1,4.75,7.81,31,31,0,0,1,1.64,10.4V710H653.14Zm18.29-9.06a9.38,9.38,0,0,0-3.19-5.26,9.91,9.91,0,0,0-11.78-.08,8.62,8.62,0,0,0-2.89,5.35h17.86Zm23.47-15.7h15.62v7.25a17.89,17.89,0,0,1,6.13-6.08,16.47,16.47,0,0,1,8.46-2.11h1.34a9.94,9.94,0,0,1,1.68.17v14.93a14.76,14.76,0,0,0-6.73-1.55q-5.43,0-8.15,3.24t-2.72,9.45v19H694.91V685.16Zm38.83,21.74a21.59,21.59,0,0,1,2-9.19,22.48,22.48,0,0,1,5.52-7.42,26.29,26.29,0,0,1,8.41-5,30.31,30.31,0,0,1,10.66-1.81,30.73,30.73,0,0,1,10.57,1.77,26.22,26.22,0,0,1,8.46,4.92,22.1,22.1,0,0,1,5.57,7.51,23,23,0,0,1,2,9.62,22.53,22.53,0,0,1-2,9.62,22.77,22.77,0,0,1-5.57,7.51,25.08,25.08,0,0,1-8.5,4.88A32.51,32.51,0,0,1,760,731.08a31.1,31.1,0,0,1-10.53-1.73,24.3,24.3,0,0,1-8.33-4.92,22.73,22.73,0,0,1-5.48-7.64A24.22,24.22,0,0,1,733.73,706.9Zm16.47.17a10,10,0,0,0,.82,4.1,10.87,10.87,0,0,0,2.16,3.24,9.58,9.58,0,0,0,3.19,2.16,10.29,10.29,0,0,0,7.86,0,9.48,9.48,0,0,0,3.19-2.16,11.06,11.06,0,0,0,2.16-3.24,9.75,9.75,0,0,0,.82-4,9.58,9.58,0,0,0-.82-3.93,11.2,11.2,0,0,0-2.16-3.24,9.58,9.58,0,0,0-3.19-2.16,10.29,10.29,0,0,0-7.86,0,9.48,9.48,0,0,0-3.19,2.16,11.22,11.22,0,0,0-2.16,3.19A9.49,9.49,0,0,0,750.2,707.07ZM830,657.81h15.7v71.61H830V724.5a16.39,16.39,0,0,1-13.55,6.3,21.54,21.54,0,0,1-8.89-1.81,22.26,22.26,0,0,1-7.08-5,22.92,22.92,0,0,1-4.7-7.51,26.46,26.46,0,0,1-.08-18.34,22.43,22.43,0,0,1,4.53-7.46,21.45,21.45,0,0,1,16-6.91A18,18,0,0,1,830,689.55Zm-19.68,49.35a10.2,10.2,0,0,0,.78,4,10.37,10.37,0,0,0,2.11,3.24,9.58,9.58,0,0,0,3.19,2.16,10.24,10.24,0,0,0,4,.78,10.06,10.06,0,0,0,3.93-.78,9.48,9.48,0,0,0,3.19-2.16,11.22,11.22,0,0,0,2.16-3.19,9.25,9.25,0,0,0,.82-3.88,9.58,9.58,0,0,0-.82-3.93,11.06,11.06,0,0,0-2.16-3.24,9.58,9.58,0,0,0-3.19-2.16,10.29,10.29,0,0,0-7.86,0,9.48,9.48,0,0,0-3.19,2.16,11.46,11.46,0,0,0-2.16,3.15A9.27,9.27,0,0,0,810.34,707.16Zm80.16-22h15.7v44.26H890.5V724.5A16.39,16.39,0,0,1,877,730.8a22,22,0,0,1-8.89-1.77,21.54,21.54,0,0,1-7.08-5,22.92,22.92,0,0,1-4.7-7.51,25.7,25.7,0,0,1-1.68-9.4,25,25,0,0,1,1.64-9,23.2,23.2,0,0,1,4.57-7.46,21.57,21.57,0,0,1,7-5,21.24,21.24,0,0,1,9-1.86,18,18,0,0,1,13.72,5.78v-4.39Zm-19.67,22a10.2,10.2,0,0,0,.78,4,10.37,10.37,0,0,0,2.11,3.24,9.58,9.58,0,0,0,3.19,2.16,10.24,10.24,0,0,0,4,.78,10.06,10.06,0,0,0,3.93-.78,9.48,9.48,0,0,0,3.19-2.16,11.22,11.22,0,0,0,2.16-3.19,9.25,9.25,0,0,0,.82-3.88,9.58,9.58,0,0,0-.82-3.93,11.06,11.06,0,0,0-2.16-3.24,9.58,9.58,0,0,0-3.19-2.16,10,10,0,0,0-3.93-.78,10.2,10.2,0,0,0-4,.78,9.48,9.48,0,0,0-3.19,2.16,10.49,10.49,0,0,0-2.11,3.15A9.25,9.25,0,0,0,870.83,707.16Zm79.37-7.68a14.46,14.46,0,0,0-8.2-2.76,11.06,11.06,0,0,0-4.18.78,10.47,10.47,0,0,0-3.41,2.2,10.18,10.18,0,0,0-2.29,3.36,11,11,0,0,0-.82,4.36,10.8,10.8,0,0,0,.82,4.27,10.41,10.41,0,0,0,2.24,3.36,9.92,9.92,0,0,0,3.41,2.2A11.44,11.44,0,0,0,942,718a12.89,12.89,0,0,0,8.2-3V728.3a27.59,27.59,0,0,1-11,2.5,25.93,25.93,0,0,1-9.19-1.64,23,23,0,0,1-13-12,22.42,22.42,0,0,1-2-9.53A23.74,23.74,0,0,1,917,698a23,23,0,0,1,5.18-7.51,23.49,23.49,0,0,1,7.81-4.92,26.42,26.42,0,0,1,9.71-1.77,23.25,23.25,0,0,1,10.53,2.42v13.28Zm26.32-1.29v31.23H960.9V698.19h-5.18v-13h5.18V671.87h15.62v13.29h8.89v13Zm30.8,25.19-21.4-38.22H1004l11.82,22.69,11.48-22.69h18l-35.55,66.35H992.23Zm59.79-65.57v71.61h-15.62V657.81Zm58.42,71.61h-16.91V664.36h26.92q10.95,0,16.78,5.69t5.82,16.05q0,10.35-5.82,16t-16.78,5.69h-10Zm0-35.2h5.61q9.31,0,9.32-8.11t-9.32-8.11h-5.61Zm73.25-9.06h15.7v44.26h-15.7V724.5a16.39,16.39,0,0,1-13.55,6.3,22,22,0,0,1-8.89-1.77,21.54,21.54,0,0,1-7.08-5,22.92,22.92,0,0,1-4.7-7.51,25.7,25.7,0,0,1-1.68-9.4,25,25,0,0,1,1.64-9,23.2,23.2,0,0,1,4.57-7.46,21.57,21.57,0,0,1,7-5,21.24,21.24,0,0,1,9-1.86,18,18,0,0,1,13.72,5.78v-4.39Zm-19.67,22a10.2,10.2,0,0,0,.78,4,10.37,10.37,0,0,0,2.11,3.24,9.58,9.58,0,0,0,3.19,2.16,10.24,10.24,0,0,0,4,.78,10.06,10.06,0,0,0,3.93-.78,9.48,9.48,0,0,0,3.19-2.16,11.22,11.22,0,0,0,2.16-3.19,9.25,9.25,0,0,0,.82-3.88,9.58,9.58,0,0,0-.82-3.93,11.06,11.06,0,0,0-2.16-3.24,9.58,9.58,0,0,0-3.19-2.16,10,10,0,0,0-3.93-.78,10.2,10.2,0,0,0-4,.78,9.48,9.48,0,0,0-3.19,2.16,10.49,10.49,0,0,0-2.11,3.15A9.42,9.42,0,0,0,1179.11,707.16Zm46-22h15.62v5.61a17,17,0,0,1,6.47-5.22,20.31,20.31,0,0,1,7.68-1.34,19.1,19.1,0,0,1,8,1.51,16,16,0,0,1,5.65,4.27,12.36,12.36,0,0,1,2.59,5,26.07,26.07,0,0,1,.69,6.3v28.13h-15.62V707.07a24.56,24.56,0,0,0-.47-5.31,6.69,6.69,0,0,0-1.68-3.24,6,6,0,0,0-2.33-1.47,8.58,8.58,0,0,0-2.76-.43,7.71,7.71,0,0,0-6.08,2.37q-2.11,2.37-2.11,6.77V729.4H1225.1V685.16Zm71.36,24.76q0,10.1,9.49,10.1a8.49,8.49,0,0,0,7.68-4.14h15.1q-4.58,15.18-22.86,15.19a30.1,30.1,0,0,1-10.27-1.68,22.83,22.83,0,0,1-8-4.79,21.24,21.24,0,0,1-5.13-7.42,24.71,24.71,0,0,1-1.81-9.66,27.1,27.1,0,0,1,1.73-10,21,21,0,0,1,4.92-7.55,21.78,21.78,0,0,1,7.72-4.79,29.25,29.25,0,0,1,10.22-1.68,28.68,28.68,0,0,1,10.1,1.68,20.39,20.39,0,0,1,7.59,4.88,21.3,21.3,0,0,1,4.75,7.81,31,31,0,0,1,1.64,10.4V710h-32.89Zm18.29-9.06a9.38,9.38,0,0,0-3.19-5.26,9.91,9.91,0,0,0-11.78-.08,8.62,8.62,0,0,0-2.89,5.35h17.86Zm39.08-43.05v71.61H1338.2V657.81Z" style="fill:#4b153e"/></svg>