<?xml version="1.0" encoding="utf-8"?>
<!-- Generator: Adobe Illustrator 24.1.3, SVG Export Plug-In . SVG Version: 6.00 Build 0)  -->
<svg version="1.1" id="Layer_1" xmlns="http://www.w3.org/2000/svg" xmlns:xlink="http://www.w3.org/1999/xlink" x="0px" y="0px"
	 viewBox="0 0 1366 1366" style="enable-background:new 0 0 1366 1366;" xml:space="preserve">
<style type="text/css">
	.st0{display:none;opacity:0.2;}
	.st1{display:inline;}
	.st2{fill:#1B170E;}
	.st3{fill:#F39424;}
	.st4{fill:#E04C30;}
	.st5{fill:#802468;}
	.st6{fill:#4B153E;}
</style>
<g class="st0">
	<g class="st1">
		<path class="st2" d="M232.15,328.05l157.16,90.73v59.89l191.51,110.56c10.74,6.2,23.99,6.18,34.71-0.05l191.54-111.3V418
			l-417.76-181.3L232.15,328.05z"/>
	</g>
	<g class="st1">
		<path class="st2" d="M1382,328.05l-157.16,90.73v59.89l-191.51,110.56c-10.74,6.2-23.99,6.18-34.71-0.05l-191.54-111.3V418
			l417.76-181.3L1382,328.05z"/>
	</g>
</g>
<g>
	<g>
		<path class="st3" d="M683.02,189.8v275.39h-0.04v0.04L446.06,602l12.16,7.04c-7.26-2.59-15.09-2.93-22.5-1.07
			c-3.52,0.85-6.97,2.22-10.19,4.11l-155.08,89.51l-62.9,36.32V464.3L683.02,189.8z"/>
		<path class="st4" d="M1158.45,464.3v273.61l-62.9-36.32l-155.08-89.51c-3.22-1.85-6.63-3.22-10.16-4.11
			c-7.34-1.85-15.12-1.52-22.31,0.93l11.97-6.89L683.02,465.19V189.8l475.39,274.5H1158.45z"/>
	</g>
	<g>
		<g>
			<g>
				<g>
					<path class="st5" d="M328.86,229.05L328.86,229.05c14.51,0,26.28,11.77,26.28,26.28v209.9c0,7.26-2.93,13.83-7.71,18.57
						c-5.15,5.19-12.44,8.2-20.45,7.64c-13.92-0.96-24.4-13.19-24.4-27.14V255.33C302.59,240.81,314.35,229.05,328.86,229.05z"/>
				</g>
			</g>
			<g>
				<path class="st6" d="M460.03,109.52c-49.15,0-88.96,39.81-88.96,88.96c0,49.11,39.81,88.96,88.96,88.96
					c49.11,0,88.96-39.84,88.96-88.96h-88.96V109.52z"/>
				<g>
					<path class="st6" d="M538.87,599.32L538.87,599.32c14.51,0,26.28-11.77,26.28-26.28v-209.9c0-7.26-2.93-13.83-7.71-18.57
						c-5.15-5.19-12.44-8.2-20.45-7.64c-13.92,0.96-24.4,13.19-24.4,27.14v208.97C512.59,587.56,524.36,599.32,538.87,599.32z"/>
					<path class="st6" d="M417.56,364.07v100.63c0,14.51,11.77,26.28,26.28,26.28h0c14.51,0,26.28-11.77,26.28-26.28V363.15
						c0-7.26-2.93-13.83-7.67-18.57c-5.18-5.18-12.46-8.19-20.45-7.65C428.06,337.88,417.56,350.11,417.56,364.07z"/>
					<path class="st6" d="M445.71,750.11c13.92-0.96,24.4-13.19,24.4-27.14V569.82c0-14.51-11.77-26.28-26.28-26.28h0
						c-14.51,0-26.28,11.77-26.28,26.28V723.9c0,7.26,2.93,13.83,7.71,18.57C430.42,747.66,437.71,750.66,445.71,750.11z"/>
				</g>
				<path class="st6" d="M491.35,78.19v88.96h88.96C580.31,118,540.47,78.19,491.35,78.19z"/>
			</g>
		</g>
		<g>
			<g>
				<path class="st6" d="M460.03,109.52c-49.15,0-88.96,39.81-88.96,88.96c0,49.11,39.81,88.96,88.96,88.96
					c49.11,0,88.96-39.84,88.96-88.96h-88.96V109.52z"/>
				<g>
					<path class="st5" d="M417.56,364.07v100.63c0,14.51,11.77,26.28,26.28,26.28h0c14.51,0,26.28-11.77,26.28-26.28V363.15
						c0-7.26-2.93-13.83-7.67-18.57c-5.18-5.18-12.46-8.19-20.45-7.65C428.06,337.88,417.56,350.11,417.56,364.07z"/>
				</g>
				<path class="st5" d="M491.35,78.19v88.96h88.96C580.31,118,540.47,78.19,491.35,78.19z"/>
			</g>
		</g>
		<g>
			<g>
				<g>
					<path class="st5" d="M1037.1,229.05L1037.1,229.05c-14.51,0-26.28,11.77-26.28,26.28v209.9c0,7.26,2.93,13.83,7.71,18.57
						c5.15,5.19,12.44,8.2,20.45,7.64c13.92-0.96,24.4-13.19,24.4-27.14V255.33C1063.38,240.81,1051.61,229.05,1037.1,229.05z"/>
				</g>
			</g>
			<g>
				<path class="st5" d="M816.97,167.15c0-49.15,39.81-88.96,88.96-88.96c49.11,0,88.96,39.81,88.96,88.96
					c0,49.11-39.84,88.96-88.96,88.96v-88.96H816.97z"/>
				<g>
					<path class="st5" d="M948.4,364.07v100.63c0,14.51-11.77,26.28-26.28,26.28h0c-14.51,0-26.28-11.77-26.28-26.28V363.15
						c0-7.26,2.93-13.83,7.67-18.57c5.18-5.18,12.46-8.19,20.45-7.65C937.9,337.88,948.4,350.11,948.4,364.07z"/>
					<path class="st6" d="M921.32,543.55c-14.38,0.43-25.47,12.98-25.47,27.37v0c0,7.63-8.26,12.4-14.87,8.58l-22.64-13.07
						c-3.08-1.78-4.97-5.06-4.97-8.61V364.07c0-13.95-10.48-26.18-24.4-27.14c-8.01-0.55-15.3,2.45-20.45,7.64
						c-4.78,4.74-7.71,11.3-7.71,18.57v152.84c0,7.66-8.29,12.44-14.92,8.61l-72.74-42c-3.78-2.18-5.81-6.59-4.71-10.81
						c0.55-2.1,0.84-4.3,0.84-6.57l0-208.8c0-14.39-11.09-26.94-25.47-27.37c-14.88-0.45-27.09,11.48-27.09,26.27V464.3
						c0,2.5,0.34,4.95,0.98,7.29c1.17,4.27-0.96,8.77-4.8,10.99l-72.83,42.04c-6.63,3.83-14.92-0.96-14.92-8.61V363.15
						c0-7.26-2.93-13.83-7.71-18.57c-5.15-5.19-12.44-8.2-20.45-7.64c-13.92,0.96-24.4,13.19-24.4,27.14l0,193.75
						c0,3.55-1.9,6.84-4.97,8.61l-22.64,13.07c-6.61,3.81-14.87-0.95-14.87-8.58v0c0-14.39-11.09-26.94-25.47-27.37
						c-14.88-0.45-27.09,11.48-27.09,26.27V723.9c0,7.26,2.93,13.83,7.71,18.57c5.15,5.19,12.44,8.2,20.44,7.64
						c13.92-0.96,24.4-13.19,24.4-27.14l0-107.05l212.83,122.84v0.04h0.04l212.86-122.91v107.09c0,13.95,10.48,26.18,24.4,27.14
						c8.01,0.55,15.29-2.46,20.44-7.64c4.78-4.74,7.71-11.3,7.71-18.57V569.82C948.4,555.04,936.2,543.11,921.32,543.55z"/>
				</g>
				<path class="st6" d="M785.65,198.47h88.96v88.96C825.46,287.43,785.65,247.58,785.65,198.47z"/>
			</g>
		</g>
	</g>
	<g>
		<path class="st3" d="M683.02,738.8v549l-0.04-0.04h-0.04l-122.76-70.87l-213.2-123.09l-124.57-71.91l-13.53-7.82l-1.33-0.78
			V739.69l217.98,125.84c0.41,0.26,0.82,0.48,1.26,0.67c0.33,0.22,0.67,0.41,1.04,0.56c0.7,0.37,1.41,0.7,2.15,1
			c1.59,0.67,3.26,1.26,4.93,1.71c9.79,2.67,20.39,1.45,29.5-3.63c0.22-0.11,0.41-0.22,0.63-0.33l217.94-126.65v-0.04H683.02z"/>
		<path class="st4" d="M1158.45,739.69v273.61l-1.3,0.74l-13.53,7.82l-124.54,71.91L805.81,1216.9l-122.8,70.9v-549l66.46,38.66
			l95.66,55.6l3.04,1.74l52.78,30.69c0.22,0.11,0.44,0.26,0.67,0.37c9.12,5.04,19.68,6.26,29.47,3.6c0.82-0.22,1.59-0.48,2.41-0.74
			c0.96-0.33,1.89-0.7,2.82-1.11c1.41-0.59,2.82-1.3,4.15-2.08l138.07-79.69l55.75-32.21l3.04-1.74l20.83-12.01L1158.45,739.69z"/>
	</g>
	<g>
		<path class="st4" d="M682.98,738.77v0.07L465.04,865.49c-0.22,0.11-0.41,0.22-0.63,0.33c-9.12,5.08-19.72,6.3-29.5,3.63
			c-1.67-0.44-3.34-1.04-4.93-1.71c-0.74-0.3-1.45-0.63-2.15-1c-0.37-0.15-0.7-0.33-1.04-0.56c-0.44-0.19-0.85-0.41-1.26-0.67
			L207.55,739.69h-0.04L28.68,636.43C2.47,621.31,2.43,583.5,28.6,568.3l177.8-103.34l1.15-0.67L446.06,602l12.16,7.04
			L682.98,738.77z"/>
		<path class="st3" d="M1337.32,636.43l-178.87,103.26h-0.04l-21.09,12.19L940.47,865.53c-0.41,0.26-0.82,0.48-1.26,0.67
			c0,0-0.04,0.07-0.07,0.04l-1.22,0.67c-0.52,0.22-1.04,0.48-1.59,0.7c-0.93,0.41-1.85,0.78-2.82,1.11
			c-0.82,0.26-1.59,0.52-2.41,0.74c-9.79,2.67-20.35,1.45-29.47-3.6c-0.22-0.11-0.44-0.26-0.67-0.37L683.02,738.8L908,608.89
			l11.97-6.89l238.44-137.7h0.04l1.11,0.63L1337.4,568.3C1363.57,583.5,1363.53,621.31,1337.32,636.43z"/>
	</g>
</g>
</svg>
