<svg version="1.1"
      xmlns="http://www.w3.org/2000/svg"
      xmlns:xlink="http://www.w3.org/1999/xlink"  id="snapshot-49181" width="150" height="150" viewBox="0 0 150 150"><desc>This image was made on Patterninja.com</desc><defs>
<!-- image 52459 -->
<g id="transformed-52459" data-image="52459" transform="translate(130.5, 125) rotate(45, 16.5, 21)"><g><svg version="1.1" width="33px" height="42px" viewBox="0 0 33 42"><g id="original-52459"><svg xmlns="http://www.w3.org/2000/svg" viewBox="0 0 93.9 119" xmlns:xlink="http://www.w3.org/1999/xlink" version="1.1" preserveAspectRatio="xMidYMid meet">
  <path d="M24.72 76.37H5.2C1.6 76.37 0 78 0 81.57v16.8c0 3.6 1.6 5.2 5.2 5.2h1.6v-14.3c0-3.6 1.6-5.2 5.2-5.2h38.7a3.42 3.42 0 0 0 3.22-2l-18-2.5a37.93 37.93 0 0 1-11.2-3.2z" fill="rgba(255, 255, 255, 0.05)" stroke="none"/>
  <path d="M9.1 60a27.19 27.19 0 0 1-2.3-11.9V33c0-16.4 11.1-25.3 29.8-25.3h38.6V5.2C75.2 1.6 73.6 0 70 0H29.7C11.1.1 0 9 0 25.4v15.1C0 50.4 3.3 56.4 9.1 60z" fill="rgba(255, 255, 255, 0.05)" stroke="none"/>
  <path d="M71.5 54.7l-21.4-2.9c-2.5-.3-3.9-2-3.9-4.6s1.5-4.3 3.9-4.3h33.6c3.6 0 5.2-1.6 5.2-5.2V20.6c0-3.6-1.6-5.2-5.2-5.2H43.4c-18.7 0-29.8 8.9-29.8 25.3v15c0 11.06 4.15 17.25 11.12 20.7a37.93 37.93 0 0 0 11.18 3.2l18 2.5 3.58.5c2.4.3 3.7 1.6 3.7 4.9 0 2.3-1.3 4.2-3.7 4.2H18.8c-3.6 0-5.2 1.6-5.2 5.2v16.8c0 3.6 1.6 5.2 5.2 5.2l45.3.1c18.6 0 29.8-8.9 29.8-25.3V78.6c0-16.1-8.9-21.9-22.4-23.9z" fill="rgba(255, 255, 255, 0.05)" stroke="none"/>
</svg>
</g></svg></g></g>
<!-- /image 52459 -->

<!-- image 27167 -->
<g id="transformed-27167" data-image="27167" transform="translate(44, 43) rotate(10, 28, 25)"><g><svg version="1.1" width="56px" height="50px" viewBox="0 0 56 50"><g id="original-27167"><svg xmlns="http://www.w3.org/2000/svg" data-prefix="fas" data-icon="comments" viewBox="0 0 576 512" xmlns:xlink="http://www.w3.org/1999/xlink" version="1.1" preserveAspectRatio="xMidYMid meet">
  <path d="M416 192c0-88.4-93.1-160-208-160S0 103.6 0 192c0 34.3 14.1 65.9 38 92-13.4 30.2-35.5 54.2-35.8 54.5-2.2 2.3-2.8 5.7-1.5 8.7S4.8 352 8 352c36.6 0 66.9-12.3 88.7-25 32.2 15.7 70.3 25 111.3 25 114.9 0 208-71.6 208-160zm122 220c23.9-26 38-57.7 38-92 0-66.9-53.5-124.2-129.3-148.1.9 6.6 1.3 13.3 1.3 20.1 0 105.9-107.7 192-240 192-10.8 0-21.3-.8-31.7-1.9C207.8 439.6 281.8 480 368 480c41 0 79.1-9.2 111.3-25 21.8 12.7 52.1 25 88.7 25 3.2 0 6.1-1.9 7.3-4.8 1.3-2.9.7-6.3-1.5-8.7-.3-.3-22.4-24.2-35.8-54.5z" fill="rgba(255, 255, 255, 0.05)" stroke="none"/>
</svg>
</g></svg></g></g>
<!-- /image 27167 -->
</defs><rect x="0" y="0" width="150" height="150" fill="rgba(0, 0, 0, 0)"></rect><use xlink:href="#transformed-52459" transform="translate(-150, -150)"></use><use xlink:href="#transformed-52459" transform="translate(0, -150)"></use><use xlink:href="#transformed-52459" transform="translate(150, -150)"></use><use xlink:href="#transformed-52459" transform="translate(-150, 0)"></use><use xlink:href="#transformed-52459" transform="translate(0, 0)"></use><use xlink:href="#transformed-52459" transform="translate(150, 0)"></use><use xlink:href="#transformed-52459" transform="translate(-150, 150)"></use><use xlink:href="#transformed-52459" transform="translate(0, 150)"></use><use xlink:href="#transformed-52459" transform="translate(150, 150)"></use><use xlink:href="#transformed-27167" transform="translate(-150, -150)"></use><use xlink:href="#transformed-27167" transform="translate(0, -150)"></use><use xlink:href="#transformed-27167" transform="translate(150, -150)"></use><use xlink:href="#transformed-27167" transform="translate(-150, 0)"></use><use xlink:href="#transformed-27167" transform="translate(0, 0)"></use><use xlink:href="#transformed-27167" transform="translate(150, 0)"></use><use xlink:href="#transformed-27167" transform="translate(-150, 150)"></use><use xlink:href="#transformed-27167" transform="translate(0, 150)"></use><use xlink:href="#transformed-27167" transform="translate(150, 150)"></use></svg>