<svg version="1.1"
      xmlns="http://www.w3.org/2000/svg"
      xmlns:xlink="http://www.w3.org/1999/xlink"  id="snapshot-47556" width="150" height="150" viewBox="0 0 150 150"><desc>This image was made on Patterninja.com</desc><defs>
<!-- image 52459 -->
<g id="transformed-52459" data-image="52459" transform="translate(130.5, 125) rotate(45, 16.5, 21)"><g><svg version="1.1" width="33px" height="42px" viewBox="0 0 33 42"><g id="original-52459"><svg xmlns="http://www.w3.org/2000/svg" viewBox="0 0 93.9 119" xmlns:xlink="http://www.w3.org/1999/xlink" version="1.1" preserveAspectRatio="xMidYMid meet">
  <path d="M24.72 76.37H5.2C1.6 76.37 0 78 0 81.57v16.8c0 3.6 1.6 5.2 5.2 5.2h1.6v-14.3c0-3.6 1.6-5.2 5.2-5.2h38.7a3.42 3.42 0 0 0 3.22-2l-18-2.5a37.93 37.93 0 0 1-11.2-3.2z" fill="rgba(255, 255, 255, 0.05)" stroke="none"/>
  <path d="M9.1 60a27.19 27.19 0 0 1-2.3-11.9V33c0-16.4 11.1-25.3 29.8-25.3h38.6V5.2C75.2 1.6 73.6 0 70 0H29.7C11.1.1 0 9 0 25.4v15.1C0 50.4 3.3 56.4 9.1 60z" fill="rgba(255, 255, 255, 0.05)" stroke="none"/>
  <path d="M71.5 54.7l-21.4-2.9c-2.5-.3-3.9-2-3.9-4.6s1.5-4.3 3.9-4.3h33.6c3.6 0 5.2-1.6 5.2-5.2V20.6c0-3.6-1.6-5.2-5.2-5.2H43.4c-18.7 0-29.8 8.9-29.8 25.3v15c0 11.06 4.15 17.25 11.12 20.7a37.93 37.93 0 0 0 11.18 3.2l18 2.5 3.58.5c2.4.3 3.7 1.6 3.7 4.9 0 2.3-1.3 4.2-3.7 4.2H18.8c-3.6 0-5.2 1.6-5.2 5.2v16.8c0 3.6 1.6 5.2 5.2 5.2l45.3.1c18.6 0 29.8-8.9 29.8-25.3V78.6c0-16.1-8.9-21.9-22.4-23.9z" fill="rgba(255, 255, 255, 0.05)" stroke="none"/>
</svg>
</g></svg></g></g>
<!-- /image 52459 -->

<!-- image 73796 -->
<g id="transformed-73796" data-image="73796" transform="translate(42, 45.5) rotate(48, 33, 26.5)"><g><svg version="1.1" width="66px" height="53px" viewBox="0 0 66 53"><g id="original-73796"><svg xmlns="http://www.w3.org/2000/svg" data-prefix="fas" data-icon="gamepad" viewBox="0 0 640 512" xmlns:xlink="http://www.w3.org/1999/xlink" version="1.1" preserveAspectRatio="xMidYMid meet">
  <path d="M480.07 96H160a160 160 0 1 0 114.24 272h91.52A160 160 0 1 0 480.07 96zM248 268a12 12 0 0 1-12 12h-52v52a12 12 0 0 1-12 12h-24a12 12 0 0 1-12-12v-52H84a12 12 0 0 1-12-12v-24a12 12 0 0 1 12-12h52v-52a12 12 0 0 1 12-12h24a12 12 0 0 1 12 12v52h52a12 12 0 0 1 12 12zm216 76a40 40 0 1 1 40-40 40 40 0 0 1-40 40zm64-96a40 40 0 1 1 40-40 40 40 0 0 1-40 40z" fill="rgba(255, 255, 255, 0.05)" stroke="none"/>
</svg>
</g></svg></g></g>
<!-- /image 73796 -->
</defs><rect x="0" y="0" width="150" height="150" fill="rgba(255, 255, 255, 0)"></rect><use xlink:href="#transformed-52459" transform="translate(-150, -150)"></use><use xlink:href="#transformed-52459" transform="translate(0, -150)"></use><use xlink:href="#transformed-52459" transform="translate(150, -150)"></use><use xlink:href="#transformed-52459" transform="translate(-150, 0)"></use><use xlink:href="#transformed-52459" transform="translate(0, 0)"></use><use xlink:href="#transformed-52459" transform="translate(150, 0)"></use><use xlink:href="#transformed-52459" transform="translate(-150, 150)"></use><use xlink:href="#transformed-52459" transform="translate(0, 150)"></use><use xlink:href="#transformed-52459" transform="translate(150, 150)"></use><use xlink:href="#transformed-73796" transform="translate(-150, -150)"></use><use xlink:href="#transformed-73796" transform="translate(0, -150)"></use><use xlink:href="#transformed-73796" transform="translate(150, -150)"></use><use xlink:href="#transformed-73796" transform="translate(-150, 0)"></use><use xlink:href="#transformed-73796" transform="translate(0, 0)"></use><use xlink:href="#transformed-73796" transform="translate(150, 0)"></use><use xlink:href="#transformed-73796" transform="translate(-150, 150)"></use><use xlink:href="#transformed-73796" transform="translate(0, 150)"></use><use xlink:href="#transformed-73796" transform="translate(150, 150)"></use></svg>