<svg version="1.1"
      xmlns="http://www.w3.org/2000/svg"
      xmlns:xlink="http://www.w3.org/1999/xlink"  id="snapshot-07638" width="150" height="150" viewBox="0 0 150 150"><desc>This image was made on Patterninja.com</desc><defs>
<!-- image 52459 -->
<g id="transformed-52459" data-image="52459" transform="translate(130.5, 125) rotate(45, 16.5, 21)"><g><svg version="1.1" width="33px" height="42px" viewBox="0 0 33 42"><g id="original-52459"><svg xmlns="http://www.w3.org/2000/svg" viewBox="0 0 93.9 119" xmlns:xlink="http://www.w3.org/1999/xlink" version="1.1" preserveAspectRatio="xMidYMid meet">
  <path d="M24.72 76.37H5.2C1.6 76.37 0 78 0 81.57v16.8c0 3.6 1.6 5.2 5.2 5.2h1.6v-14.3c0-3.6 1.6-5.2 5.2-5.2h38.7a3.42 3.42 0 0 0 3.22-2l-18-2.5a37.93 37.93 0 0 1-11.2-3.2z" fill="rgba(255, 255, 255, 0.05)" stroke="none"/>
  <path d="M9.1 60a27.19 27.19 0 0 1-2.3-11.9V33c0-16.4 11.1-25.3 29.8-25.3h38.6V5.2C75.2 1.6 73.6 0 70 0H29.7C11.1.1 0 9 0 25.4v15.1C0 50.4 3.3 56.4 9.1 60z" fill="rgba(255, 255, 255, 0.05)" stroke="none"/>
  <path d="M71.5 54.7l-21.4-2.9c-2.5-.3-3.9-2-3.9-4.6s1.5-4.3 3.9-4.3h33.6c3.6 0 5.2-1.6 5.2-5.2V20.6c0-3.6-1.6-5.2-5.2-5.2H43.4c-18.7 0-29.8 8.9-29.8 25.3v15c0 11.06 4.15 17.25 11.12 20.7a37.93 37.93 0 0 0 11.18 3.2l18 2.5 3.58.5c2.4.3 3.7 1.6 3.7 4.9 0 2.3-1.3 4.2-3.7 4.2H18.8c-3.6 0-5.2 1.6-5.2 5.2v16.8c0 3.6 1.6 5.2 5.2 5.2l45.3.1c18.6 0 29.8-8.9 29.8-25.3V78.6c0-16.1-8.9-21.9-22.4-23.9z" fill="rgba(255, 255, 255, 0.05)" stroke="none"/>
</svg>
</g></svg></g></g>
<!-- /image 52459 -->

<!-- image 10747 -->
<g id="transformed-10747" data-image="10747" transform="translate(48.19686012258215, 42.89865194988681) rotate(44, 20.803139877417845, 27.86134805011319)"><g><svg version="1.1" width="41.60627975483569px" height="55.72269610022638px" viewBox="0 0 41.60627975483569 55.72269610022638"><g id="original-10747"><svg xmlns="http://www.w3.org/2000/svg" data-prefix="fas" data-icon="question" viewBox="0 0 384 512" xmlns:xlink="http://www.w3.org/1999/xlink" version="1.1" preserveAspectRatio="xMidYMid meet">
  <path d="M202.021 0C122.202 0 70.503 32.703 29.914 91.026c-7.363 10.58-5.093 25.086 5.178 32.874l43.138 32.709c10.373 7.865 25.132 6.026 33.253-4.148 25.049-31.381 43.63-49.449 82.757-49.449 30.764 0 68.816 19.799 68.816 49.631 0 22.552-18.617 34.134-48.993 51.164-35.423 19.86-82.299 44.576-82.299 106.405V320c0 13.255 10.745 24 24 24h72.471c13.255 0 24-10.745 24-24v-5.773c0-42.86 125.268-44.645 125.268-160.627C377.504 66.256 286.902 0 202.021 0zM192 373.459c-38.196 0-69.271 31.075-69.271 69.271 0 38.195 31.075 69.27 69.271 69.27s69.271-31.075 69.271-69.271-31.075-69.27-69.271-69.27z" fill="rgba(255, 255, 255, 0.05)" stroke="none"/>
</svg>
</g></svg></g></g>
<!-- /image 10747 -->
</defs><rect x="0" y="0" width="150" height="150" fill="rgba(0, 0, 0, 0)"></rect><use xlink:href="#transformed-52459" transform="translate(-150, -150)"></use><use xlink:href="#transformed-52459" transform="translate(0, -150)"></use><use xlink:href="#transformed-52459" transform="translate(150, -150)"></use><use xlink:href="#transformed-52459" transform="translate(-150, 0)"></use><use xlink:href="#transformed-52459" transform="translate(0, 0)"></use><use xlink:href="#transformed-52459" transform="translate(150, 0)"></use><use xlink:href="#transformed-52459" transform="translate(-150, 150)"></use><use xlink:href="#transformed-52459" transform="translate(0, 150)"></use><use xlink:href="#transformed-52459" transform="translate(150, 150)"></use><use xlink:href="#transformed-10747" transform="translate(-150, -150)"></use><use xlink:href="#transformed-10747" transform="translate(0, -150)"></use><use xlink:href="#transformed-10747" transform="translate(150, -150)"></use><use xlink:href="#transformed-10747" transform="translate(-150, 0)"></use><use xlink:href="#transformed-10747" transform="translate(0, 0)"></use><use xlink:href="#transformed-10747" transform="translate(150, 0)"></use><use xlink:href="#transformed-10747" transform="translate(-150, 150)"></use><use xlink:href="#transformed-10747" transform="translate(0, 150)"></use><use xlink:href="#transformed-10747" transform="translate(150, 150)"></use></svg>