<svg xmlns="http://www.w3.org/2000/svg" viewBox="0 0 734.31 734.7"><title>Asset 1</title><path d="M725.9,717.5H652.3a312.09,312.09,0,0,0,28.4-111.7,8.57,8.57,0,0,0-17.1-1.1,293.58,293.58,0,0,1-26.2,104.4V634a8.6,8.6,0,0,0-8.6-8.6H595.9a8.6,8.6,0,0,0-8.6,8.6v50h-8.5V377.2a296.63,296.63,0,0,1,35.5,43.6,8.45,8.45,0,0,0,7.1,3.8,8.89,8.89,0,0,0,4.7-1.4,8.64,8.64,0,0,0,2.4-11.9,318.9,318.9,0,0,0-49.7-57.8V206.9h8.5a8.5,8.5,0,0,0,0-17H566v-35a8.49,8.49,0,0,0-8.5-8.5h-19v-35a8.49,8.49,0,0,0-8.5-8.5H519.1V59.6a8.5,8.5,0,0,0-17,0v43.3H491.2a8.49,8.49,0,0,0-8.5,8.5v35h-19a8.49,8.49,0,0,0-8.5,8.5v35H433.8a8.5,8.5,0,0,0,0,17h8.6v73.6a315.34,315.34,0,0,0-149.6,0V206.9h8.6a8.5,8.5,0,0,0,0-17H280v-35a8.49,8.49,0,0,0-8.5-8.5h-19v-35a8.49,8.49,0,0,0-8.5-8.5H233.1V8.5a8.5,8.5,0,0,0-17,0v94.1H205.2a8.49,8.49,0,0,0-8.5,8.5v35h-19a8.49,8.49,0,0,0-8.5,8.5v35h-22a8.5,8.5,0,0,0,0,17h8.5V353.3A315,315,0,0,0,106,411.1a8.58,8.58,0,0,0,2.4,11.9,8.55,8.55,0,0,0,11.8-2.4A296.63,296.63,0,0,1,155.7,377V683.8h-8.5V577.3a8.51,8.51,0,0,0-8.6-8.5H105.7a8.58,8.58,0,0,0-8.6,8.5V709.1A293.05,293.05,0,0,1,70.9,604.7a8.57,8.57,0,0,0-17.1,1.1A309.5,309.5,0,0,0,82.2,717.5H8.5a8.55,8.55,0,0,0,0,17.1h97a8.49,8.49,0,0,0,8.5-8.5V585.9h15.8V726.2a8.49,8.49,0,0,0,8.5,8.5h26a8.49,8.49,0,0,0,8.5-8.5V206.9h21.4V491.5a8.5,8.5,0,0,0,17,0V206.9h25.6V331.7a8.5,8.5,0,0,0,17,0V206.9h21.4V452.8a8.51,8.51,0,0,0,8.6,8.5H441.9v25.6h-158a8.6,8.6,0,0,0-8.6,8.6V726.1a8.51,8.51,0,0,0,8.6,8.5h24.8a8.49,8.49,0,0,0,8.5-8.5V604.9H333V726.2a8.49,8.49,0,0,0,8.5,8.5,8.58,8.58,0,0,0,8.6-8.5V662.3h34.2v63.9a8.55,8.55,0,0,0,17.1,0V561.6h15.9V726a8.58,8.58,0,0,0,8.5,8.6h24.8a8.58,8.58,0,0,0,8.6-8.5V452.8a8.6,8.6,0,0,0-8.6-8.6H292.5V418.6H450.7a8.6,8.6,0,0,0,8.6-8.6V206.9h21.4V331.7a8.5,8.5,0,0,0,17,0V206.9h25.6V491.5a8.5,8.5,0,0,0,17,0V206.9h21.4V726.1a8.49,8.49,0,0,0,8.5,8.5h25.6a8.49,8.49,0,0,0,8.5-8.5V642.5h16v75h0v8.6a8.49,8.49,0,0,0,8.5,8.5h97a8.49,8.49,0,0,0,8.5-8.5A8.25,8.25,0,0,0,725.9,717.5Zm-283.8,0h-7.7V553a8.6,8.6,0,0,0-8.6-8.6H392.9a8.6,8.6,0,0,0-8.6,8.6v92.1H350.1V596.4a8.51,8.51,0,0,0-8.6-8.5H308.6a8.58,8.58,0,0,0-8.6,8.5V717.5h-7.7V504.1H442V717.5Zm57.5-597.8h21.8v26.5H499.6ZM472,163.3h76.9v26.5H472ZM213.2,119.7H235v26.5H213.2Zm-27.6,43.6h76.9v26.5H185.6ZM147.2,717.5V701.1h8.5v16.4Zm145.3-316V298.1a299.23,299.23,0,0,1,149.6,0V401.5Zm286.4,316V701.1h8.5v16.4Z" style="fill:#161414"/><path d="M202.7,544.5a8.49,8.49,0,0,0-8.5,8.5v72.7a8.5,8.5,0,0,0,17,0V553A8.37,8.37,0,0,0,202.7,544.5Z" style="fill:#161414"/><path d="M245.5,350.5A8.49,8.49,0,0,0,237,359v83.8a8.5,8.5,0,0,0,17,0V359A8.49,8.49,0,0,0,245.5,350.5Z" style="fill:#161414"/><path d="M531.9,544.5a8.49,8.49,0,0,0-8.5,8.5v72.7a8.5,8.5,0,0,0,17,0V553A8.49,8.49,0,0,0,531.9,544.5Z" style="fill:#161414"/><path d="M489.1,350.5a8.49,8.49,0,0,0-8.5,8.5v83.8a8.5,8.5,0,1,0,17,0V359A8.37,8.37,0,0,0,489.1,350.5Z" style="fill:#161414"/><path d="M62.4,564.2h.8a8.56,8.56,0,0,0,8.5-7.7A295.84,295.84,0,0,1,98,460.1a8.57,8.57,0,1,0-15.5-7.3,311.2,311.2,0,0,0-27.8,102A8.69,8.69,0,0,0,62.4,564.2Z" style="fill:#161414"/><path d="M662.8,556.5a8.49,8.49,0,0,0,8.5,7.7h.8a8.59,8.59,0,0,0,7.7-9.3,311.2,311.2,0,0,0-27.8-102,8.57,8.57,0,1,0-15.5,7.3A291.49,291.49,0,0,1,662.8,556.5Z" style="fill:#161414"/></svg>