<?xml version="1.0" encoding="utf-8"?>
<!-- Generator: Adobe Illustrator 23.0.3, SVG Export Plug-In . SVG Version: 6.00 Build 0)  -->
<svg version="1.1" id="Layer_1" xmlns="http://www.w3.org/2000/svg" xmlns:xlink="http://www.w3.org/1999/xlink" x="0px" y="0px"
	 viewBox="0 0 169.8 85.1" style="enable-background:new 0 0 169.8 85.1;" xml:space="preserve">
<g transform="translate(-13.578 -94.313)">
	<g transform="translate(-5.4846 -15.014)">
		<path d="M23.7,194.3c-0.8-0.1-1.9-0.4-2.6-0.7c-0.7-0.3-2-1.1-2-1.2c0,0,0.2-0.4,0.5-0.8l0.5-0.7l0.2,0.2c0.6,0.5,2.4,1.3,3.6,1.5
			c1,0.2,2.8,0.1,3.5-0.2c1.5-0.5,2.2-1.3,2.2-2.6c0-1.6-1.1-2.3-4.7-2.7c-1.8-0.2-2.4-0.4-3.4-0.9c-1.5-0.8-2.1-1.9-2-3.7
			c0-0.8,0.1-1,0.4-1.6c0.4-0.8,1.2-1.6,2-2.1c1.7-0.9,4.6-1,6.8-0.3c0.7,0.2,1.8,0.8,2.2,1.1l0.3,0.2l-0.4,0.7
			c-0.2,0.4-0.5,0.7-0.5,0.7c0,0-0.3-0.1-0.6-0.3c-1.6-1-4-1.4-5.7-1c-1.9,0.5-3,1.8-2.5,3.3c0.1,0.5,0.6,1.1,1.1,1.3
			c0.5,0.3,1.6,0.5,3.3,0.8c2.5,0.3,3.7,0.8,4.6,1.7c1.1,1.1,1.3,3.1,0.5,4.6c-0.6,1.1-2,2.1-3.5,2.5
			C26.8,194.4,24.5,194.4,23.7,194.3L23.7,194.3z M92.2,194.2c-2.8-0.6-5-2.5-5.9-5.1c-0.8-2.3-0.5-5.2,0.7-7.2
			c1-1.7,2.6-2.9,4.6-3.5c0.8-0.2,1-0.3,2.4-0.3c1.2,0,1.7,0,2.2,0.2c1.3,0.4,2.8,1.2,3.7,2.1l0.3,0.4l-0.6,0.6
			c-0.6,0.6-0.9,0.8-0.9,0.5c0-0.2-1.2-1.1-1.9-1.4c-2.3-1.1-5.1-0.7-7.1,1c-0.6,0.5-1.3,1.6-1.6,2.6c-0.3,0.8-0.3,1-0.3,2.2
			c0,1.2,0,1.4,0.3,2.1c0.4,1.1,0.8,1.8,1.5,2.5c1.8,1.8,4.8,2.3,7.1,1.2c0.7-0.3,1.6-1.1,2-1.8c0.4-0.6,0.8-1.8,0.8-2.4l0-0.4
			l-4.9-0.1v-1.7h7l-0.1,1.1c-0.1,1.4-0.3,2.4-0.9,3.5c-0.9,1.9-2.6,3.2-4.6,3.8C95.3,194.4,93.2,194.5,92.2,194.2L92.2,194.2z
			 M44.3,186.3v-8h1.9v15.9h-1.9V186.3z M59.9,186.3v-8h1.6l9.8,12.7l0-6.3l0-6.3h1.9v15.9l-1.7-0.1l-4.8-6.3
			c-2.7-3.4-4.9-6.3-4.9-6.3c-0.1,0-0.1,2.2-0.1,6.3v6.3h-1.8L59.9,186.3z M114.5,186.3v-8h1.9v14.2h9.2v1.8h-11.1L114.5,186.3z
			 M137.4,186.3v-8l3.8,0c4.3,0,4.7,0.1,5.9,0.7c0.8,0.4,1.4,1,1.8,1.7c0.3,0.5,0.3,0.6,0.3,1.7c0,1.1,0,1.2-0.3,1.8
			c-0.3,0.7-0.9,1.2-1.5,1.6L147,186l0.6,0.3c0.7,0.4,1.5,1.2,1.8,1.9c0.3,0.7,0.3,1.7,0.2,2.5c-0.3,1.7-1.3,2.8-3.3,3.3
			c-0.7,0.2-1.1,0.2-4.8,0.2l-4,0L137.4,186.3z M145.9,192.2c1.2-0.5,1.7-1.1,1.7-2.2c0.1-1.4-0.5-2.3-1.8-2.7
			c-0.6-0.2-0.9-0.2-3.7-0.3l-3,0v5.5l3.1,0C145.2,192.4,145.4,192.4,145.9,192.2L145.9,192.2z M145.3,185.1c1.3-0.4,1.8-0.9,2-2
			c0.1-0.4,0.1-0.7-0.1-1.1c-0.2-0.7-0.4-1.1-1-1.4c-0.9-0.5-1.5-0.5-4.4-0.5l-2.7,0v2.6c0,1.4,0,2.6,0.1,2.7
			C139.4,185.4,144.8,185.3,145.3,185.1L145.3,185.1z M162.4,186.3v-8h1.9v15.9h-1.9V186.3z M181.5,187.1V180h-5.5v-1.8h12.8v1.8
			h-5.5v14.2h-1.9L181.5,187.1z M69.2,163.1V156h55.3v-9.1H69.2v-37.6h69.4v14.2H83.4v9.2h55.3v37.5H69.2L69.2,163.1z M120.2,163.1
			v-3.3l-45.3,0l0,3.3l0,3.3h45.4L120.2,163.1z M120.2,139.7v-3.2H74.8v6.5h45.4L120.2,139.7z M120.2,116.4v-3.3l-45.3,0l0,3.1
			c0,1.7,0,3.2,0,3.3c0,0.1,4.6,0.1,22.7,0.1h22.6L120.2,116.4z"/>
	</g>
</g>
</svg>
