<?xml version="1.0" encoding="utf-8"?>
<!-- Generator: Adobe Illustrator 24.1.3, SVG Export Plug-In . SVG Version: 6.00 Build 0)  -->
<svg version="1.1" id="Layer_1" xmlns="http://www.w3.org/2000/svg" xmlns:xlink="http://www.w3.org/1999/xlink" x="0px" y="0px"
	 viewBox="0 0 452 136" style="enable-background:new 0 0 452 136;" xml:space="preserve">
<style type="text/css">
	.st0{fill:#6A4ECF;}
	.st1{fill:#AE9BF3;}
</style>
<g>
	<g>
		<g>
			<path class="st0" d="M15.7,97.8c0-3.6,1.6-5.2,5.2-5.2h38.7c2.4,0,3.7-1.9,3.7-4.2c0-3.3-1.3-4.6-3.7-4.9L56,83
				c-0.6,1.1-1.7,1.9-3.2,1.9H14.1c-3.6,0-5.2,1.6-5.2,5.2v16.8c0,3.6,1.6,5.2,5.2,5.2h1.6C15.7,112.1,15.7,97.8,15.7,97.8z"/>
			<path class="st0" d="M18,68.5c-1.5-3.1-2.3-7-2.3-11.9V41.5c0-16.4,11.1-25.3,29.8-25.3h38.6v-2.5c0-3.6-1.6-5.2-5.2-5.2H38.6
				C20,8.6,8.9,17.5,8.9,33.9V49C8.9,58.9,12.2,64.9,18,68.5z"/>
		</g>
		<g>
			<path class="st1" d="M27.7,127.4c-3.6,0-5.2-1.6-5.2-5.2v-16.8c0-3.6,1.6-5.2,5.2-5.2h38.7c2.4,0,3.7-1.9,3.7-4.2
				c0-3.3-1.3-4.6-3.7-4.9l-21.6-3c-13.5-2-22.3-7.8-22.3-23.9v-15c0-16.4,11.1-25.3,29.8-25.3h40.3c3.6,0,5.2,1.6,5.2,5.2v17.1
				c0,3.6-1.6,5.2-5.2,5.2H59c-2.4,0-3.9,1.7-3.9,4.3s1.4,4.3,3.9,4.6l21.4,2.9c13.5,2,22.4,7.8,22.4,23.9v15.1
				c0,16.4-11.2,25.3-29.8,25.3L27.7,127.4L27.7,127.4z"/>
		</g>
	</g>
	<g>
		<path class="st0" d="M165.2,62.2c0.6,0.4,0.6,0.9,0.2,1.4l-4,5c-0.5,0.6-1,0.6-1.7,0.1c-3.6-2.9-8.2-4.5-13.8-4.5
			c-5.4,0-8.4,1.5-8.4,4c0,2.6,2.4,3.8,9.7,4.6c11.2,1,19.3,4.8,19.3,13.9c0,8.7-8.2,13.8-19.1,13.8c-8,0-14.2-1.9-20-6.7
			c-0.6-0.4-0.6-1-0.1-1.6l3.8-5c0.5-0.6,1-0.7,1.6-0.2c4.4,3.4,8.6,5,14.9,5c6.7,0,9.8-2,9.8-5c0-3.1-3-4.5-11.1-5.2
			c-10.7-0.9-17.8-4.1-17.8-13.1c0-7.9,7.6-13,18.1-13C153.5,55.6,160.1,58,165.2,62.2z"/>
		<path class="st0" d="M183.5,56.2c0.7,0,1.1,0.4,1.1,1.1v41.4c0,0.7-0.4,1.1-1.1,1.1h-7c-0.7,0-1.1-0.4-1.1-1.1V57.3
			c0-0.7,0.4-1.1,1.1-1.1H183.5z"/>
		<path class="st0" d="M227.1,99.8c-0.6,0-1-0.2-1.2-0.6l-11-13.8l-11-15.6l-0.4,0.1l0.6,13.4v15.4c0,0.7-0.4,1.1-1.1,1.1h-6.8
			c-0.7,0-1.1-0.4-1.1-1.1V57.3c0-0.7,0.4-1.1,1.1-1.1h6.2c0.6,0,1.1,0.2,1.5,0.6l12,15.2L226,86.2l0.4-0.1l-0.6-13.5V57.3
			c0-0.7,0.4-1.1,1.1-1.1h6.8c0.7,0,1.1,0.4,1.1,1.1v41.4c0,0.7-0.4,1.1-1.1,1.1C233.7,99.8,227.1,99.8,227.1,99.8z"/>
		<path class="st0" d="M284.6,76.1c0.7,0,1.1,0.4,1.1,1.1v21.4c0,0.7-0.4,1.1-1.1,1.1h-4.7c-0.7,0-1.1-0.2-1.3-0.8l-0.9-2.6
			c-3.1,2.8-7.3,4.1-12.3,4.1c-12.8,0-21.8-9.4-21.8-22.6c0-12.9,9.8-22.3,22.6-22.3c7.5,0,15.1,3.8,19,10.1c0.3,0.6,0.2,1-0.2,1.3
			l-5,3.7c-0.6,0.6-1.2,0.2-1.5-0.2c-3.2-4.1-7-6.1-12.3-6.1c-8,0-13.3,5.6-13.3,13.5s5,13.8,12.9,13.8c5.1,0,7.9-1.3,10.7-3.8V77.3
			c0-0.7,0.4-1.1,1.1-1.1h7V76.1z"/>
		<path class="st0" d="M303.4,56.2c0.7,0,1.1,0.4,1.1,1.1V91h24.9c0.7,0,1.1,0.4,1.1,1.1v6.6c0,0.7-0.4,1.1-1.1,1.1h-33
			c-0.7,0-1.1-0.4-1.1-1.1V57.3c0-0.7,0.4-1.1,1.1-1.1H303.4z"/>
		<path class="st1" d="M371,76.5c4.8,1.7,7.5,5.4,7.5,10.1c0,7.9-6,13.3-15,13.3h-23c-0.7,0-1.1-0.4-1.1-1.1V57.3
			c0-0.7,0.4-1.1,1.1-1.1h21.4c8.2,0,13.8,5.2,13.8,11.9c0,3.4-1.7,6.2-4.6,7.8L371,76.5L371,76.5z M348.6,73.2H362
			c2.6,0,4.5-1.7,4.5-4.2c0-2.6-1.7-4.2-4.5-4.2h-13.4V73.2z M348.6,91.1h14.7c3.8,0,5.9-1.8,5.9-4.6c0-3.1-2-4.6-5.9-4.6h-14.7
			V91.1z"/>
		<path class="st1" d="M395.4,56.2c0.7,0,1.1,0.4,1.1,1.1v41.4c0,0.7-0.4,1.1-1.1,1.1h-7c-0.7,0-1.1-0.4-1.1-1.1V57.3
			c0-0.7,0.4-1.1,1.1-1.1H395.4z"/>
		<path class="st1" d="M442,56.2c0.7,0,1.1,0.4,1.1,1.1v6.6c0,0.7-0.4,1.1-1.1,1.1h-13.9v33.7c0,0.7-0.4,1.1-1.1,1.1h-7
			c-0.7,0-1.1-0.4-1.1-1.1V65H405c-0.7,0-1.1-0.4-1.1-1.1v-6.6c0-0.7,0.4-1.1,1.1-1.1C405,56.2,442,56.2,442,56.2z"/>
	</g>
</g>
</svg>
