<svg xmlns="http://www.w3.org/2000/svg" viewBox="0 0 93.9 119"><defs><style>.cls-1{fill:#4338ca;}.cls-2{fill:#6366f1;}</style></defs><title>Asset 1</title><g id="Layer_2" data-name="Layer 2"><g id="Layer_1-2" data-name="Layer 1"><g id="Layer_1-2-2" data-name="Layer 1-2"><path class="cls-1" d="M6.8,89.3c0-3.6,1.6-5.2,5.2-5.2H50.7c2.4,0,3.7-1.9,3.7-4.2,0-3.3-1.3-4.6-3.7-4.9l-3.6-.5a3.54,3.54,0,0,1-3.2,1.9H5.2C1.6,76.4,0,78,0,81.6V98.4c0,3.6,1.6,5.2,5.2,5.2H6.8Z"/><path class="cls-1" d="M9.1,60A27.19,27.19,0,0,1,6.8,48.1V33C6.8,16.6,17.9,7.7,36.6,7.7H75.2V5.2C75.2,1.6,73.6,0,70,0H29.7C11.1.1,0,9,0,25.4V40.5C0,50.4,3.3,56.4,9.1,60Z"/><path class="cls-2" d="M18.8,118.9c-3.6,0-5.2-1.6-5.2-5.2V96.9c0-3.6,1.6-5.2,5.2-5.2H57.5c2.4,0,3.7-1.9,3.7-4.2,0-3.3-1.3-4.6-3.7-4.9l-21.6-3c-13.5-2-22.3-7.8-22.3-23.9v-15c0-16.4,11.1-25.3,29.8-25.3H83.7c3.6,0,5.2,1.6,5.2,5.2V37.7c0,3.6-1.6,5.2-5.2,5.2H50.1c-2.4,0-3.9,1.7-3.9,4.3s1.4,4.3,3.9,4.6l21.4,2.9c13.5,2,22.4,7.8,22.4,23.9V93.7c0,16.4-11.2,25.3-29.8,25.3Z"/></g></g></g></svg>