<svg version="1.1" viewBox="0 0 169.7 16.341" xml:space="preserve" xmlns="http://www.w3.org/2000/svg">
<g transform="translate(-13.615 -163.03)">
	<g transform="translate(-5.4846,-15.014)">
		<path d="m23.7 194.3c-0.8-0.1-1.9-0.4-2.6-0.7s-2-1.1-2-1.2c0 0 0.2-0.4 0.5-0.8l0.5-0.7 0.2 0.2c0.6 0.5 2.4 1.3 3.6 1.5 1 0.2 2.8 0.1 3.5-0.2 1.5-0.5 2.2-1.3 2.2-2.6 0-1.6-1.1-2.3-4.7-2.7-1.8-0.2-2.4-0.4-3.4-0.9-1.5-0.8-2.1-1.9-2-3.7 0-0.8 0.1-1 0.4-1.6 0.4-0.8 1.2-1.6 2-2.1 1.7-0.9 4.6-1 6.8-0.3 0.7 0.2 1.8 0.8 2.2 1.1l0.3 0.2-0.4 0.7c-0.2 0.4-0.5 0.7-0.5 0.7s-0.3-0.1-0.6-0.3c-1.6-1-4-1.4-5.7-1-1.9 0.5-3 1.8-2.5 3.3 0.1 0.5 0.6 1.1 1.1 1.3 0.5 0.3 1.6 0.5 3.3 0.8 2.5 0.3 3.7 0.8 4.6 1.7 1.1 1.1 1.3 3.1 0.5 4.6-0.6 1.1-2 2.1-3.5 2.5-0.7 0.3-3 0.3-3.8 0.2zm68.5-0.1c-2.8-0.6-5-2.5-5.9-5.1-0.8-2.3-0.5-5.2 0.7-7.2 1-1.7 2.6-2.9 4.6-3.5 0.8-0.2 1-0.3 2.4-0.3 1.2 0 1.7 0 2.2 0.2 1.3 0.4 2.8 1.2 3.7 2.1l0.3 0.4-0.6 0.6c-0.6 0.6-0.9 0.8-0.9 0.5 0-0.2-1.2-1.1-1.9-1.4-2.3-1.1-5.1-0.7-7.1 1-0.6 0.5-1.3 1.6-1.6 2.6-0.3 0.8-0.3 1-0.3 2.2s0 1.4 0.3 2.1c0.4 1.1 0.8 1.8 1.5 2.5 1.8 1.8 4.8 2.3 7.1 1.2 0.7-0.3 1.6-1.1 2-1.8 0.4-0.6 0.8-1.8 0.8-2.4v-0.4l-4.9-0.1v-1.7h7l-0.1 1.1c-0.1 1.4-0.3 2.4-0.9 3.5-0.9 1.9-2.6 3.2-4.6 3.8-0.7 0.3-2.8 0.4-3.8 0.1zm-47.9-7.9v-8h1.9v15.9h-1.9zm15.6 0v-8h1.6l9.8 12.7v-12.6h1.9v15.9l-1.7-0.1-4.8-6.3c-2.7-3.4-4.9-6.3-4.9-6.3-0.1 0-0.1 2.2-0.1 6.3v6.3h-1.8zm54.6 0v-8h1.9v14.2h9.2v1.8h-11.1zm22.9 0v-8h3.8c4.3 0 4.7 0.1 5.9 0.7 0.8 0.4 1.4 1 1.8 1.7 0.3 0.5 0.3 0.6 0.3 1.7s0 1.2-0.3 1.8c-0.3 0.7-0.9 1.2-1.5 1.6l-0.4 0.2 0.6 0.3c0.7 0.4 1.5 1.2 1.8 1.9s0.3 1.7 0.2 2.5c-0.3 1.7-1.3 2.8-3.3 3.3-0.7 0.2-1.1 0.2-4.8 0.2h-4zm8.5 5.9c1.2-0.5 1.7-1.1 1.7-2.2 0.1-1.4-0.5-2.3-1.8-2.7-0.6-0.2-0.9-0.2-3.7-0.3h-3v5.5h3.1c3-0.1 3.2-0.1 3.7-0.3zm-0.6-7.1c1.3-0.4 1.8-0.9 2-2 0.1-0.4 0.1-0.7-0.1-1.1-0.2-0.7-0.4-1.1-1-1.4-0.9-0.5-1.5-0.5-4.4-0.5h-2.7v2.6c0 1.4 0 2.6 0.1 2.7 0.2 0 5.6-0.1 6.1-0.3zm17.1 1.2v-8h1.9v15.9h-1.9zm19.1 0.8v-7.1h-5.5v-1.8h12.8v1.8h-5.5v14.2h-1.9z"/>
	</g>
</g>
</svg>
