<svg xmlns="http://www.w3.org/2000/svg" viewBox="0 0 434.21 119"><title>logo2</title><path d="M6.8,89.3c0-3.6,1.6-5.2,5.2-5.2H50.7c2.4,0,3.7-1.9,3.7-4.2,0-3.3-1.3-4.6-3.7-4.9l-3.6-.5a3.54,3.54,0,0,1-3.2,1.9H5.2C1.6,76.4,0,78,0,81.6V98.4c0,3.6,1.6,5.2,5.2,5.2H6.8Z" style="fill:#d1d5db"/><path d="M9.1,60A27.11,27.11,0,0,1,6.8,48.1V33C6.8,16.6,17.9,7.7,36.6,7.7H75.2V5.2C75.2,1.6,73.6,0,70,0H29.7C11.1.1,0,9,0,25.4V40.5C0,50.4,3.3,56.4,9.1,60Z" style="fill:#d1d5db"/><path d="M18.8,118.9c-3.6,0-5.2-1.6-5.2-5.2V96.9c0-3.6,1.6-5.2,5.2-5.2H57.5c2.4,0,3.7-1.9,3.7-4.2,0-3.3-1.3-4.6-3.7-4.9l-21.6-3c-13.5-2-22.3-7.8-22.3-23.9v-15c0-16.4,11.1-25.3,29.8-25.3H83.7c3.6,0,5.2,1.6,5.2,5.2V37.7c0,3.6-1.6,5.2-5.2,5.2H50.1c-2.4,0-3.9,1.7-3.9,4.3s1.4,4.3,3.9,4.6l21.4,2.9c13.5,2,22.4,7.8,22.4,23.9V93.7c0,16.4-11.2,25.3-29.8,25.3Z" style="fill:#fff"/><path d="M156.3,53.7a.85.85,0,0,1,.2,1.4l-4,5c-.5.6-1,.6-1.7.1A21.38,21.38,0,0,0,137,55.7c-5.4,0-8.4,1.5-8.4,4s2.4,3.8,9.7,4.6c11.2,1,19.3,4.8,19.3,13.9,0,8.7-8.2,13.8-19.1,13.8-8,0-14.2-1.9-20-6.7-.6-.4-.6-1-.1-1.6l3.8-5a1,1,0,0,1,1.6-.2,22.2,22.2,0,0,0,14.9,5c6.7,0,9.8-2,9.8-5s-3-4.5-11.1-5.2c-10.7-.9-17.8-4.1-17.8-13.1,0-7.9,7.6-13,18.1-13A28.68,28.68,0,0,1,156.3,53.7Z" style="fill:#fff"/><path d="M174.6,47.7a1,1,0,0,1,1.1,1.1V90.2a1,1,0,0,1-.89,1.1H167.6a1,1,0,0,1-1.1-1.1V48.8a1,1,0,0,1,.89-1.1h7.21Z" style="fill:#fff"/><path d="M218.2,91.3a1.21,1.21,0,0,1-1.2-.6L206,76.9,195,61.3l-.4.1.6,13.4V90.2a1,1,0,0,1-.89,1.1h-7a1,1,0,0,1-1.1-1.1V48.8a1,1,0,0,1,.89-1.1h6.41a2,2,0,0,1,1.5.6l12,15.2,10.1,14.2.4-.1-.6-13.5V48.8a1,1,0,0,1,.89-1.1h7a1,1,0,0,1,1.1,1.1V90.2a1,1,0,0,1-.89,1.1H218.2Z" style="fill:#fff"/><path d="M275.7,67.6a1,1,0,0,1,1.1,1.1V90.1a1,1,0,0,1-.89,1.1H271c-.7,0-1.1-.2-1.3-.8l-.9-2.6c-3.1,2.8-7.3,4.1-12.3,4.1-12.8,0-21.8-9.4-21.8-22.6,0-12.9,9.8-22.3,22.6-22.3,7.5,0,15.1,3.8,19,10.1.3.6.2,1-.2,1.3l-5,3.7a.93.93,0,0,1-1.5-.2,14.5,14.5,0,0,0-12.3-6.1c-8,0-13.3,5.6-13.3,13.5s5,13.8,12.9,13.8c5.1,0,7.9-1.3,10.7-3.8V68.8a1,1,0,0,1,.89-1.1h7.21v-.1Z" style="fill:#fff"/><path d="M294.5,47.7a1,1,0,0,1,1.1,1.1V82.5h24.9a1,1,0,0,1,1.1,1.1v6.6a1,1,0,0,1-.89,1.1H287.5a1,1,0,0,1-1.1-1.1V48.8a1,1,0,0,1,.89-1.1h7.21Z" style="fill:#fff"/><path d="M362.1,68c4.8,1.7,7.5,5.4,7.5,10.1,0,7.9-6,13.3-15,13.3h-23a1,1,0,0,1-1.1-1.1V48.8a1,1,0,0,1,.89-1.1H353c8.2,0,13.8,5.2,13.8,11.9a8.65,8.65,0,0,1-4.6,7.8l-.1.6Zm-22.4-3.3h13.4a4.18,4.18,0,0,0,4.49-3.85q0-.18,0-.35c0-2.6-1.7-4.2-4.5-4.2H339.7Zm0,17.9h14.7c3.8,0,5.9-1.8,5.9-4.6,0-3.1-2-4.6-5.9-4.6H339.7Z" style="fill:#d1d5db"/><path d="M386.5,47.7a1,1,0,0,1,1.1,1.1V90.2a1,1,0,0,1-.89,1.1H379.5a1,1,0,0,1-1.1-1.1V48.8a1,1,0,0,1,.89-1.1h7.21Z" style="fill:#d1d5db"/><path d="M433.1,47.7a1,1,0,0,1,1.1,1.1v6.6a1,1,0,0,1-.89,1.1H419.2V90.2a1,1,0,0,1-.89,1.1H411.1a1,1,0,0,1-1.1-1.1V56.5H396.1a1,1,0,0,1-1.1-1.1V48.8a1,1,0,0,1,.89-1.1H433.1Z" style="fill:#d1d5db"/></svg>