<svg xmlns="http://www.w3.org/2000/svg" viewBox="0 0 261.63 294.95"><title>Asset 3</title><path d="M132.28,155.7c11.21,1.21,21.09-2.42,30.55-7.73,11.59-6.52,19.24-16.36,23.81-28.68.66-1.78,1.51-2.2,3.29-2.19,16.73.07,33.46,0,50.2.05,12.33,0,21.46,9.14,21.48,21.52q0,25.46,0,50.92c0,12.52-9.12,21.65-21.6,21.67q-25.33,0-50.69,0c-7.21,0-11.51,4.34-11.52,11.59,0,16.65-.28,33.31.09,50A21.54,21.54,0,0,1,157,294.94h-1.24c-16.72-.37-33.46-.08-50.2-.1-13,0-21.91-8.95-21.92-22v-50c0-7.47-4.15-11.58-11.66-11.58H21.76C9,211.24,0,202.25,0,189.56V138.64c0-12.44,9-21.49,21.43-21.51H71.87c7.62,0,11.74-4.14,11.75-11.78V81.46c0-12.85,9-21.8,21.9-21.82,14.82,0,29.52,1.52,44.21,3.27a118.23,118.23,0,0,1,14,2.36c8.54,2.07,13.39,7.79,14.48,16.54,1.27,10.23-1,20-3.78,29.66-2.31,8.15-5,16.11-10.3,22.93-7.76,10-18.4,15.83-29.93,20.28-.52.2-1.07.35-1.59.56A3,3,0,0,0,132.28,155.7Z" style="fill:#877862"/><path d="M140.38,46.56A44.93,44.93,0,0,1,124,42.94c-8.4-3.7-12.42-10.65-11.1-19.74,1.43-9.82,6.43-17.31,15.64-21.29,13.44-5.85,28.37,2.31,31.73,17a28.6,28.6,0,0,1,.26,12.42C158.34,41.72,151.39,47,140.38,46.56Z" style="fill:#fdc712"/><path d="M87.53,53.45c-9.33,0-14.62-4.58-16.15-13.76A25.23,25.23,0,0,1,72.64,26.2c4.88-12.71,19-15.48,28.35-5.6a25.8,25.8,0,0,1,7.24,17.13c.3,6.84-2.51,11.11-8.92,13.52A32.31,32.31,0,0,1,87.53,53.45Z" style="fill:#fdc712"/><path d="M201,41a26.25,26.25,0,0,1-6.05,17.06c-3.49,4.34-8,6.07-13.47,4.5a29.72,29.72,0,0,1-15.17-9.67,13.19,13.19,0,0,1-2.6-12.66c2.5-8.75,11.39-16.3,19.77-16.85a16,16,0,0,1,17.42,15.13C200.93,39.4,200.94,40.29,201,41Z" style="fill:#fdc712"/></svg>