<svg xmlns="http://www.w3.org/2000/svg" viewBox="0 0 579.51 294.95"><title>Asset 1</title><path d="M132.28,155.7c11.21,1.21,21.09-2.42,30.55-7.73,11.59-6.52,19.24-16.36,23.81-28.68.66-1.78,1.51-2.2,3.29-2.19,16.73.07,33.46,0,50.2.05,12.33,0,21.46,9.14,21.48,21.52q0,25.46,0,50.92c0,12.52-9.12,21.65-21.6,21.67q-25.33,0-50.69,0c-7.21,0-11.51,4.34-11.52,11.59,0,16.65-.28,33.31.09,50A21.54,21.54,0,0,1,157,294.94h-1.24c-16.72-.37-33.46-.08-50.2-.1-13,0-21.91-8.95-21.92-22v-50c0-7.47-4.15-11.58-11.66-11.58H21.76C9,211.24,0,202.25,0,189.56V138.64c0-12.44,9-21.49,21.43-21.51H71.87c7.62,0,11.74-4.14,11.75-11.78V81.46c0-12.85,9-21.8,21.9-21.82,14.82,0,29.52,1.52,44.21,3.27a118.23,118.23,0,0,1,14,2.36c8.54,2.07,13.39,7.79,14.48,16.54,1.27,10.23-1,20-3.78,29.66-2.31,8.15-5,16.11-10.3,22.93-7.76,10-18.4,15.83-29.93,20.28-.52.2-1.07.35-1.59.56A3,3,0,0,0,132.28,155.7Z" style="fill:#877862"/><path d="M140.38,46.56A44.93,44.93,0,0,1,124,42.94c-8.4-3.7-12.42-10.65-11.1-19.74,1.43-9.82,6.43-17.31,15.64-21.29,13.44-5.85,28.37,2.31,31.73,17a28.6,28.6,0,0,1,.26,12.42C158.34,41.72,151.39,47,140.38,46.56Z" style="fill:#fdc712"/><path d="M87.53,53.45c-9.33,0-14.62-4.58-16.15-13.76A25.23,25.23,0,0,1,72.64,26.2c4.88-12.71,19-15.48,28.35-5.6a25.8,25.8,0,0,1,7.24,17.13c.3,6.84-2.51,11.11-8.92,13.52A32.31,32.31,0,0,1,87.53,53.45Z" style="fill:#fdc712"/><path d="M201,41a26.25,26.25,0,0,1-6.05,17.06c-3.49,4.34-8,6.07-13.47,4.5a29.72,29.72,0,0,1-15.17-9.67,13.19,13.19,0,0,1-2.6-12.66c2.5-8.75,11.39-16.3,19.77-16.85a16,16,0,0,1,17.42,15.13C200.93,39.4,200.94,40.29,201,41Z" style="fill:#fdc712"/><path d="M366.57,149c5.94,2.08,9.31,6.63,9.31,12.48,0,9.8-7.43,16.43-18.51,16.43H328.85a1.25,1.25,0,0,1-1.38-1.39V125.38a1.25,1.25,0,0,1,1.38-1.39h26.44c10.09,0,17,6.44,17,14.76a10.37,10.37,0,0,1-5.74,9.6ZM338.85,145h16.54c3.16,0,5.54-2.08,5.54-5.15s-2.08-5.14-5.54-5.14H338.85Zm0,22.18h18.22c4.65,0,7.32-2.28,7.32-5.74,0-3.86-2.47-5.75-7.32-5.75H338.85Z" style="fill:#877862;stroke:#877862;stroke-miterlimit:10;stroke-width:2px"/><path d="M395.88,124a1.25,1.25,0,0,1,1.38,1.39v51.18a1.25,1.25,0,0,1-1.38,1.39h-8.72a1.25,1.25,0,0,1-1.38-1.39V125.38a1.25,1.25,0,0,1,1.38-1.39Z" style="fill:#877862;stroke:#877862;stroke-miterlimit:10;stroke-width:2px"/><path d="M434.88,124c12,0,21.19,8.52,21.19,19.71a19.05,19.05,0,0,1-9.51,16.53l8.52,16.33a.92.92,0,0,1-.89,1.39h-9.71a1.89,1.89,0,0,1-1.78-1l-6.63-13.46a11.24,11.24,0,0,1-1.58.09H420.63v13a1.26,1.26,0,0,1-1.39,1.39h-8.71a1.26,1.26,0,0,1-1.39-1.39V125.38a1.26,1.26,0,0,1,1.39-1.39Zm0,28.71c6.24,0,9.7-4,9.7-9s-3.46-8.82-9.7-8.82H420.63V152.7Z" style="fill:#877862;stroke:#877862;stroke-miterlimit:10;stroke-width:2px"/><path d="M466.86,125.38a1.25,1.25,0,0,1,1.38-1.39h40.89c.89,0,1.29.5,1.29,1.39l.29,7a2.39,2.39,0,0,1-.59,1.58l-29.5,33,.1.59,14.25-.39h14.36a1.24,1.24,0,0,1,1.38,1.38v8a1.41,1.41,0,0,1-1.38,1.39H467a1.39,1.39,0,0,1-1.49-1.39l-.49-6.83a1.9,1.9,0,0,1,.39-1.48l30.2-33.46-.1-.6-14,.6H468.24a1.25,1.25,0,0,1-1.38-1.39ZM499.73,103a1.21,1.21,0,0,1,1.78.39l3.66,5.15a1.08,1.08,0,0,1-.39,1.58l-14,8.82a4,4,0,0,1-4.16,0l-14-8.82a1.09,1.09,0,0,1-.4-1.58L476,103.4a1.21,1.21,0,0,1,1.78-.39l11,5.54Z" style="fill:#877862;stroke:#877862;stroke-miterlimit:10;stroke-width:2px"/><path d="M520.12,125.38a1.26,1.26,0,0,1,1.39-1.39h8.71a1.25,1.25,0,0,1,1.38,1.39v28.71c0,8,4.46,13.76,12.68,13.76,8,0,12.77-5.44,12.77-13.76V125.38a1.25,1.25,0,0,1,1.38-1.39h8.72a1.25,1.25,0,0,1,1.38,1.39v28.81c0,12.67-7.62,22.67-20.2,24.25a8.13,8.13,0,0,0-.59,3.27q0,4.31,5.64,5.35c.9.1,1.19.59.9,1.28L552.59,194a1.41,1.41,0,0,1-1.48,1.09c-6.44-.3-13.47-4.46-13.47-12.68a9,9,0,0,1,1-4.25c-11.48-2.38-18.51-11.68-18.51-24Z" style="fill:#877862;stroke:#877862;stroke-miterlimit:10;stroke-width:2px"/><path d="M325.89,249a.63.63,0,0,1-.62-.39l-8.89-20.24c-.16-.35,0-.63.42-.63h3.63a1,1,0,0,1,.94.55l3,7.1,3.35,8.77H328l3.31-8.81,2.89-7.1a.72.72,0,0,1,.74-.51h3.94c.35,0,.47.2.35.55l-9.05,20.32a.58.58,0,0,1-.58.39Z" style="fill:#877862"/><path d="M358.93,227.69a.49.49,0,0,1,.54.55v3.12a.49.49,0,0,1-.54.55H347.11v4h10.37a.5.5,0,0,1,.55.55v3.12a.5.5,0,0,1-.55.55H347.11v4.6h12.13a.49.49,0,0,1,.54.54v3.16a.49.49,0,0,1-.54.55H343.13a.5.5,0,0,1-.55-.55V228.24a.57.57,0,0,1,.55-.55Z" style="fill:#877862"/><path d="M381.16,227.69a.49.49,0,0,1,.54.55v3.2a.49.49,0,0,1-.54.54h-6.79V248.4a.5.5,0,0,1-.55.55h-3.43a.5.5,0,0,1-.55-.55V232h-6.78a.49.49,0,0,1-.55-.54v-3.2a.5.5,0,0,1,.55-.55Z" style="fill:#877862"/><path d="M401.16,227.69a.5.5,0,0,1,.55.55v3.12a.5.5,0,0,1-.55.55H389.34v4h10.38a.49.49,0,0,1,.54.55v3.12a.49.49,0,0,1-.54.55H389.34v4.6h12.13a.49.49,0,0,1,.55.54v3.16a.5.5,0,0,1-.55.55h-16.1a.5.5,0,0,1-.55-.55V228.24a.56.56,0,0,1,.55-.55Z" style="fill:#877862"/><path d="M416.45,227.69c4.72,0,8.35,3.36,8.35,7.77a7.53,7.53,0,0,1-3.75,6.51l3.36,6.43a.37.37,0,0,1-.36.55h-3.82a.75.75,0,0,1-.7-.39l-2.61-5.31a4,4,0,0,1-.63,0h-5.46v5.11a.49.49,0,0,1-.54.55h-3.44a.49.49,0,0,1-.54-.55V228.24a.49.49,0,0,1,.54-.55Zm0,11.31a3.47,3.47,0,0,0,3.82-3.54c0-2-1.36-3.48-3.82-3.48h-5.62v7Z" style="fill:#877862"/><path d="M433.06,227.69a.5.5,0,0,1,.55.55V248.4a.5.5,0,0,1-.55.55h-3.43a.5.5,0,0,1-.55-.55V228.24a.5.5,0,0,1,.55-.55Z" style="fill:#877862"/><path d="M453.93,249a.64.64,0,0,1-.59-.27L448,241.93l-5.38-7.61-.2,0,.28,6.55v7.49a.5.5,0,0,1-.55.55h-3.32a.49.49,0,0,1-.54-.55V228.24a.49.49,0,0,1,.54-.55h3a1,1,0,0,1,.74.28l5.85,7.41,4.91,6.94.2,0-.27-6.59v-7.45a.49.49,0,0,1,.54-.55h3.32a.49.49,0,0,1,.54.55V248.4a.49.49,0,0,1-.54.55Z" style="fill:#877862"/><path d="M478.46,244.74H467.85l-1.48,3.74a.67.67,0,0,1-.66.47h-3.87c-.38,0-.5-.2-.38-.55l9.2-20.39a.49.49,0,0,1,.51-.32h4.44a.49.49,0,0,1,.51.32l8.77,20.32a.44.44,0,0,1-.42.62h-3.71a.85.85,0,0,1-.82-.55Zm-9-4.1h7.41l-3.43-8.73H473Z" style="fill:#877862"/><path d="M498.78,227.69c4.72,0,8.34,3.36,8.34,7.77a7.52,7.52,0,0,1-3.74,6.51l3.35,6.43a.36.36,0,0,1-.35.55h-3.82a.74.74,0,0,1-.7-.39l-2.61-5.31a4,4,0,0,1-.63,0h-5.46v5.11a.49.49,0,0,1-.54.55h-3.44a.49.49,0,0,1-.54-.55V228.24a.49.49,0,0,1,.54-.55Zm0,11.31a3.48,3.48,0,0,0,3.82-3.54c0-2-1.37-3.48-3.82-3.48h-5.62v7Z" style="fill:#877862"/><path d="M515.39,227.69a.5.5,0,0,1,.55.55V248.4a.5.5,0,0,1-.55.55H512a.5.5,0,0,1-.55-.55V228.24a.5.5,0,0,1,.55-.55Z" style="fill:#877862"/><path d="M531.11,227.69a.5.5,0,0,1,.55.55V241c0,5.11-2.81,7.92-7.92,7.92h-3.32c-.43,0-.58-.2-.54-.59l.23-3.15a.5.5,0,0,1,.55-.51h3.08c2.22,0,3.39-1.33,3.39-3.67V228.24a.5.5,0,0,1,.55-.55Z" style="fill:#877862"/><path d="M546.75,227.38a10.94,10.94,0,1,1-11.2,11A11,11,0,0,1,546.75,227.38Zm-6.63,11a6.61,6.61,0,1,0,6.63-6.71A6.4,6.4,0,0,0,540.12,238.34Z" style="fill:#877862"/><path d="M578.84,230.62a.44.44,0,0,1,.12.7l-2,2.42a.51.51,0,0,1-.82,0,10.44,10.44,0,0,0-6.71-2.19c-2.65,0-4.09.74-4.09,1.95s1.17,1.88,4.72,2.23c5.46.5,9.4,2.34,9.4,6.78,0,4.25-4,6.71-9.32,6.71a14.2,14.2,0,0,1-9.75-3.27c-.28-.2-.28-.47,0-.78l1.83-2.46a.49.49,0,0,1,.78-.12,10.66,10.66,0,0,0,7.25,2.42c3.28,0,4.76-1,4.76-2.42s-1.48-2.18-5.42-2.53c-5.22-.43-8.7-2-8.7-6.4,0-3.86,3.71-6.32,8.82-6.32A14.21,14.21,0,0,1,578.84,230.62Z" style="fill:#877862"/><path d="M386.46,264.69a.5.5,0,0,1,.55.55v8.42l8.77-8.65a1.56,1.56,0,0,1,1-.32h4.76c.35,0,.47.32.2.59L392.43,274l9.9,11.35c.28.28.12.59-.23.59h-4.68a1.21,1.21,0,0,1-1-.39l-7.13-8.89-2.3,1.79v6.94a.5.5,0,0,1-.55.55H383a.5.5,0,0,1-.55-.55V265.24a.5.5,0,0,1,.55-.55Z" style="fill:#877862"/><path d="M409.59,264.69a.49.49,0,0,1,.54.55v16.42h12.13a.5.5,0,0,1,.55.55v3.19a.5.5,0,0,1-.55.55H406.15a.49.49,0,0,1-.54-.55V265.24a.49.49,0,0,1,.54-.55Z" style="fill:#877862"/><path d="M430.68,264.69a.5.5,0,0,1,.55.55V285.4a.5.5,0,0,1-.55.55h-3.43a.49.49,0,0,1-.54-.55V265.24a.49.49,0,0,1,.54-.55Z" style="fill:#877862"/><path d="M451.55,286a.64.64,0,0,1-.59-.27l-5.34-6.75-5.38-7.61-.2,0,.28,6.55v7.49a.5.5,0,0,1-.55.55h-3.31a.5.5,0,0,1-.55-.55V265.24a.5.5,0,0,1,.55-.55h3a1,1,0,0,1,.74.28l5.85,7.41,4.91,6.94.2,0-.27-6.59v-7.45a.49.49,0,0,1,.54-.55h3.32a.49.49,0,0,1,.54.55V285.4a.49.49,0,0,1-.54.55Z" style="fill:#877862"/><path d="M464,264.69a.5.5,0,0,1,.55.55V285.4a.5.5,0,0,1-.55.55h-3.43a.5.5,0,0,1-.55-.55V265.24a.5.5,0,0,1,.55-.55Z" style="fill:#877862"/><path d="M473.16,264.69a.49.49,0,0,1,.54.55v8.42l8.78-8.65a1.53,1.53,0,0,1,1-.32h4.76c.35,0,.47.32.19.59L479.12,274,489,285.36c.27.28.12.59-.24.59h-4.68a1.19,1.19,0,0,1-1-.39L476,276.67l-2.3,1.79v6.94a.49.49,0,0,1-.54.55h-3.44a.49.49,0,0,1-.54-.55V265.24a.49.49,0,0,1,.54-.55Z" style="fill:#877862"/><path d="M508,281.74H497.41l-1.48,3.74a.67.67,0,0,1-.66.47h-3.86c-.39,0-.51-.2-.39-.55l9.2-20.39a.5.5,0,0,1,.51-.32h4.44a.49.49,0,0,1,.51.32l8.78,20.32a.45.45,0,0,1-.43.62h-3.71a.85.85,0,0,1-.82-.55Zm-9-4.1h7.41L503,268.91h-.43Z" style="fill:#877862"/><rect x="321" y="206.95" width="254" height="5" style="fill:#fdc712"/></svg>