<?xml version="1.0" encoding="utf-8"?>
<!-- Generator: Adobe Illustrator 19.0.0, SVG Export Plug-In . SVG Version: 6.00 Build 0)  -->
<svg version="1.1" id="Layer_8" xmlns="http://www.w3.org/2000/svg" xmlns:xlink="http://www.w3.org/1999/xlink" x="0px" y="0px"
	 viewBox="0 0 368.7 228.7" style="enable-background:new 0 0 368.7 228.7;" xml:space="preserve">
<style type="text/css">
	.st0{fill:url(#XMLID_41_);}
	.st1{fill:url(#XMLID_42_);}
	.st2{fill:url(#XMLID_43_);}
	.st3{fill:url(#XMLID_44_);}
	.st4{fill:url(#XMLID_45_);}
	.st5{fill:url(#XMLID_46_);}
	.st6{fill:url(#XMLID_47_);}
	.st7{fill:url(#XMLID_48_);}
</style>
<g id="XMLID_122_">
	<linearGradient id="XMLID_41_" gradientUnits="userSpaceOnUse" x1="14" y1="114.3333" x2="354.6667" y2="114.3333">
		<stop  offset="0" style="stop-color:#FF9068"/>
		<stop  offset="1" style="stop-color:#FD746C"/>
	</linearGradient>
	<path id="XMLID_175_" class="st0" d="M350.4,12.5H18.3c-2.4,0-4.3,1.9-4.3,4.3v195c0,2.4,1.9,4.3,4.3,4.3h332.1
		c2.4,0,4.3-1.9,4.3-4.3v-195C354.7,14.5,352.8,12.5,350.4,12.5z M283.9,35c0-2.4,1.9-4.3,4.3-4.3h6.7c2.4,0,4.3,1.9,4.3,4.3v19.4
		c0,2.4-1.9,4.3-4.3,4.3h-6.7c-2.4,0-4.3-1.9-4.3-4.3V35z M253.3,35c0-2.4,1.9-4.3,4.3-4.3h6.8c2.4,0,4.3,1.9,4.3,4.3v19.4
		c0,2.4-1.9,4.3-4.3,4.3h-6.8c-2.4,0-4.3-1.9-4.3-4.3V35z M222.6,35c0-2.4,1.9-4.3,4.3-4.3h6.8c2.4,0,4.3,1.9,4.3,4.3v19.4
		c0,2.4-1.9,4.3-4.3,4.3h-6.8c-2.4,0-4.3-1.9-4.3-4.3V35z M192,35c0-2.4,1.9-4.3,4.3-4.3h6.7c2.4,0,4.3,1.9,4.3,4.3v19.4
		c0,2.4-1.9,4.3-4.3,4.3h-6.7c-2.4,0-4.3-1.9-4.3-4.3V35z M161.4,35c0-2.4,1.9-4.3,4.3-4.3h6.7c2.4,0,4.3,1.9,4.3,4.3v19.4
		c0,2.4-1.9,4.3-4.3,4.3h-6.7c-2.4,0-4.3-1.9-4.3-4.3V35z M130.7,35c0-2.4,1.9-4.3,4.3-4.3h6.8c2.4,0,4.3,1.9,4.3,4.3v19.4
		c0,2.4-1.9,4.3-4.3,4.3H135c-2.4,0-4.3-1.9-4.3-4.3V35z M100.1,35c0-2.4,1.9-4.3,4.3-4.3h6.8c2.4,0,4.3,1.9,4.3,4.3v19.4
		c0,2.4-1.9,4.3-4.3,4.3h-6.8c-2.4,0-4.3-1.9-4.3-4.3V35z M69.4,35c0-2.4,1.9-4.3,4.3-4.3h6.7c2.4,0,4.3,1.9,4.3,4.3v19.4
		c0,2.4-1.9,4.3-4.3,4.3h-6.7c-2.4,0-4.3-1.9-4.3-4.3V35z M34.8,35c0-2.4,1.9-4.3,4.3-4.3h6.8c2.4,0,4.3,1.9,4.3,4.3v19.4
		c0,2.4-1.9,4.3-4.3,4.3h-6.8c-2.4,0-4.3-1.9-4.3-4.3V35z M50.1,193.6c0,2.4-1.9,4.3-4.3,4.3h-6.8c-2.4,0-4.3-1.9-4.3-4.3v-19.4
		c0-2.4,1.9-4.3,4.3-4.3h6.8c2.4,0,4.3,1.9,4.3,4.3V193.6z M84.8,193.6c0,2.4-1.9,4.3-4.3,4.3h-6.7c-2.4,0-4.3-1.9-4.3-4.3v-19.4
		c0-2.4,1.9-4.3,4.3-4.3h6.7c2.4,0,4.3,1.9,4.3,4.3V193.6z M115.4,193.6c0,2.4-1.9,4.3-4.3,4.3h-6.8c-2.4,0-4.3-1.9-4.3-4.3v-19.4
		c0-2.4,1.9-4.3,4.3-4.3h6.8c2.4,0,4.3,1.9,4.3,4.3V193.6z M146,193.6c0,2.4-1.9,4.3-4.3,4.3H135c-2.4,0-4.3-1.9-4.3-4.3v-19.4
		c0-2.4,1.9-4.3,4.3-4.3h6.8c2.4,0,4.3,1.9,4.3,4.3V193.6z M176.7,193.6c0,2.4-1.9,4.3-4.3,4.3h-6.7c-2.4,0-4.3-1.9-4.3-4.3v-19.4
		c0-2.4,1.9-4.3,4.3-4.3h6.7c2.4,0,4.3,1.9,4.3,4.3V193.6z M207.3,193.6c0,2.4-1.9,4.3-4.3,4.3h-6.7c-2.4,0-4.3-1.9-4.3-4.3v-19.4
		c0-2.4,1.9-4.3,4.3-4.3h6.7c2.4,0,4.3,1.9,4.3,4.3V193.6z M238,193.6c0,2.4-1.9,4.3-4.3,4.3h-6.8c-2.4,0-4.3-1.9-4.3-4.3v-19.4
		c0-2.4,1.9-4.3,4.3-4.3h6.8c2.4,0,4.3,1.9,4.3,4.3V193.6z M268.6,193.6c0,2.4-1.9,4.3-4.3,4.3h-6.8c-2.4,0-4.3-1.9-4.3-4.3v-19.4
		c0-2.4,1.9-4.3,4.3-4.3h6.8c2.4,0,4.3,1.9,4.3,4.3V193.6z M299.2,193.6c0,2.4-1.9,4.3-4.3,4.3h-6.7c-2.4,0-4.3-1.9-4.3-4.3v-19.4
		c0-2.4,1.9-4.3,4.3-4.3h6.7c2.4,0,4.3,1.9,4.3,4.3V193.6z M333.9,193.6c0,2.4-1.9,4.3-4.3,4.3h-6.8c-2.4,0-4.3-1.9-4.3-4.3v-19.4
		c0-2.4,1.9-4.3,4.3-4.3h6.8c2.4,0,4.3,1.9,4.3,4.3V193.6z M333.9,150.1c0,2.4-1.9,4.3-4.3,4.3H39.1c-2.4,0-4.3-1.9-4.3-4.3V78.5
		c0-2.4,1.9-4.3,4.3-4.3h290.6c2.4,0,4.3,1.9,4.3,4.3V150.1z M333.9,54.4c0,2.4-1.9,4.3-4.3,4.3h-6.8c-2.4,0-4.3-1.9-4.3-4.3V35
		c0-2.4,1.9-4.3,4.3-4.3h6.8c2.4,0,4.3,1.9,4.3,4.3V54.4z"/>
	<linearGradient id="XMLID_42_" gradientUnits="userSpaceOnUse" x1="44.4108" y1="114.3332" x2="76.1923" y2="114.3332">
		<stop  offset="0" style="stop-color:#FF9068"/>
		<stop  offset="1" style="stop-color:#FD746C"/>
	</linearGradient>
	<path id="XMLID_236_" class="st1" d="M72.1,98.1c-1.3-1.2-2.9-2.2-4.8-2.8c-1.9-0.7-4.1-1-6.5-1H44.4v40.1h8.8v-12H60
		c2.2,0,4.4-0.3,6.3-0.9c2-0.6,3.7-1.5,5.2-2.7c1.5-1.2,2.7-2.7,3.5-4.4c0.8-1.7,1.2-3.8,1.2-6.1v-0.1c0-2.1-0.3-3.9-1-5.7
		C74.4,100.8,73.4,99.3,72.1,98.1z M67.3,108.4c0,1.7-0.6,3.2-1.8,4.3c-1.2,1.2-2.9,1.7-5.2,1.7h-7v-12.3h6.8c2.2,0,4,0.5,5.3,1.5
		c1.2,1,1.9,2.5,1.9,4.5V108.4z"/>
	<linearGradient id="XMLID_43_" gradientUnits="userSpaceOnUse" x1="82.7565" y1="114.3332" x2="111.5885" y2="114.3332">
		<stop  offset="0" style="stop-color:#FF9068"/>
		<stop  offset="1" style="stop-color:#FD746C"/>
	</linearGradient>
	<polygon id="XMLID_237_" class="st2" points="91.6,94.3 82.8,94.3 82.8,134.4 111.6,134.4 111.6,126.4 91.6,126.4 	"/>
	<linearGradient id="XMLID_44_" gradientUnits="userSpaceOnUse" x1="118.2358" y1="114.3332" x2="148.7711" y2="114.3332">
		<stop  offset="0" style="stop-color:#FF9068"/>
		<stop  offset="1" style="stop-color:#FD746C"/>
	</linearGradient>
	<polygon id="XMLID_238_" class="st3" points="127,118.1 145.9,118.1 145.9,110.3 127,110.3 127,102.1 148.5,102.1 148.5,94.3 
		118.2,94.3 118.2,134.4 148.8,134.4 148.8,126.5 127,126.5 	"/>
	<linearGradient id="XMLID_45_" gradientUnits="userSpaceOnUse" x1="153.6317" y1="114.3332" x2="192.0606" y2="114.3332">
		<stop  offset="0" style="stop-color:#FF9068"/>
		<stop  offset="1" style="stop-color:#FD746C"/>
	</linearGradient>
	<polygon id="XMLID_239_" class="st4" points="191.5,94.3 181.5,94.3 173,107.3 164.6,94.3 154.2,94.3 167.6,114 153.6,134.4 
		163.7,134.4 172.7,120.6 181.8,134.4 192.1,134.4 178.1,113.9 	"/>
	<linearGradient id="XMLID_46_" gradientUnits="userSpaceOnUse" x1="198.6663" y1="114.3332" x2="232.733" y2="114.3332">
		<stop  offset="0" style="stop-color:#FF9068"/>
		<stop  offset="1" style="stop-color:#FD746C"/>
	</linearGradient>
	<path id="XMLID_242_" class="st5" d="M225.3,113.4c0.7-0.4,1.4-0.8,2-1.4c0.6-0.5,1.2-1.2,1.7-1.9c0.5-0.7,0.8-1.5,1.1-2.4
		c0.3-0.9,0.5-1.9,0.5-3.1v-0.1c0-2.7-1-5-2.8-6.9c-2.4-2.4-5.9-3.5-10.5-3.5h-18.6v40.1h19.1c2.2,0,4.3-0.2,6.1-0.7
		c1.9-0.5,3.4-1.2,4.8-2.1c1.3-0.9,2.3-2.1,3-3.4c0.7-1.4,1-3,1-4.8v-0.1c0-2.7-0.7-4.7-2-6.3C229.4,115.5,227.6,114.3,225.3,113.4z
		 M207.3,102h8.7c1.9,0,3.3,0.4,4.3,1.1c1,0.7,1.5,1.7,1.5,3.1v0.1c0,1.5-0.6,2.6-1.7,3.2c-1.1,0.7-2.7,1-4.7,1h-8.1V102z
		 M224,122.3c0,1.5-0.5,2.6-1.7,3.3c-1.1,0.7-2.6,1.1-4.6,1.1h-10.5v-8.8h10.2c2.3,0,3.9,0.4,5,1.2c1,0.8,1.5,1.9,1.5,3.2V122.3z"/>
	<linearGradient id="XMLID_47_" gradientUnits="userSpaceOnUse" x1="238.2999" y1="114.3333" x2="281.008" y2="114.3333">
		<stop  offset="0" style="stop-color:#FF9068"/>
		<stop  offset="1" style="stop-color:#FD746C"/>
	</linearGradient>
	<path id="XMLID_246_" class="st6" d="M275,99.6c-1.9-1.9-4.1-3.3-6.7-4.4c-2.6-1.1-5.4-1.7-8.6-1.7c-3.1,0-5.9,0.5-8.6,1.7
		c-2.6,1.1-4.9,2.6-6.8,4.4c-1.9,1.9-3.4,4.1-4.4,6.6c-1.1,2.5-1.6,5.2-1.6,8.1v0.1c0,2.9,0.5,5.5,1.6,8.1c1.1,2.5,2.5,4.7,4.4,6.5
		c1.9,1.9,4.1,3.3,6.7,4.4c2.6,1.1,5.4,1.7,8.6,1.7c3.1,0,5.9-0.5,8.6-1.7c2.6-1.1,4.9-2.6,6.8-4.4c1.9-1.9,3.4-4.1,4.4-6.6
		c1.1-2.5,1.6-5.2,1.6-8.1v-0.1c0-2.9-0.5-5.5-1.6-8.1C278.3,103.7,276.9,101.5,275,99.6z M271.7,114.5c0,1.7-0.3,3.3-0.9,4.8
		c-0.6,1.5-1.4,2.9-2.5,4c-1,1.2-2.3,2.1-3.8,2.7c-1.5,0.7-3.1,1-4.9,1c-1.8,0-3.4-0.3-4.9-1c-1.5-0.7-2.7-1.6-3.8-2.7
		c-1.1-1.2-2-2.5-2.5-4c-0.6-1.5-0.9-3.2-0.9-4.9v-0.1c0-1.7,0.3-3.3,0.9-4.8c0.6-1.5,1.4-2.9,2.5-4c1.1-1.2,2.3-2.1,3.8-2.7
		c1.5-0.7,3.1-1,4.9-1c1.7,0,3.4,0.3,4.9,1c1.5,0.7,2.8,1.6,3.9,2.7c1.1,1.2,2,2.5,2.5,4c0.6,1.5,0.9,3.2,0.9,4.9V114.5z"/>
	<linearGradient id="XMLID_48_" gradientUnits="userSpaceOnUse" x1="285.8271" y1="114.3332" x2="324.2559" y2="114.3332">
		<stop  offset="0" style="stop-color:#FF9068"/>
		<stop  offset="1" style="stop-color:#FD746C"/>
	</linearGradient>
	<polygon id="XMLID_247_" class="st7" points="323.7,94.3 313.6,94.3 305.1,107.3 296.7,94.3 286.4,94.3 299.8,114 285.8,134.4 
		295.8,134.4 304.9,120.6 313.9,134.4 324.3,134.4 310.3,113.9 	"/>
</g>
</svg>
