<svg xmlns="http://www.w3.org/2000/svg" viewBox="0 0 456.02 288.1"><title>Asset 1</title><path d="M35.82,45.7c-9.5,2.5,60.8-4.8,102.6,35,38.3,36.5,71.8,61.3,97.2,72,121.1,50.8,216.2-6.7,179-45.9C349.92,38.7,183,7.1,35.82,45.7Z" style="fill:#eac1c1"/><path d="M303.22,208.3v72.4H303c-.9,0-1.8-.1-2.8-.2-1.7-.1-3.3-.3-4.9-.4s-3.1-.3-4.6-.5c-2-.2-3.9-.4-5.8-.7h-.4c-2.5-.3-4.9-.6-7.2-1l-7.2-1.2c-2.3-.5-4.6-.9-6.9-1.4-2-.4-4-.9-6-1.3-3.7-.9-7.3-1.8-10.7-2.8-2.8-.8-5.4-1.6-8-2.5-1.6-.5-3.2-1.1-4.7-1.6-2.2-.8-4.3-1.6-6.4-2.4-.9-.3-1.8-.7-2.8-1.1-1.4-.5-2.6-1.1-3.9-1.7-3.2-1.4-6.3-2.8-9.3-4.3-2.5-1.2-4.9-2.5-7.2-3.8-.1,0-.2-.1-.4-.2-2.2-1.3-4.4-2.5-6.5-3.8-2.3-1.4-4.4-2.8-6.6-4.2-1.6-1-3.1-2.1-4.6-3.1-.5-.4-1.1-.8-1.7-1.2h0c-3.4-2.4-6.8-4.9-10-7.4-.2-.2-.5-.4-.7-.6h0c-1.8-1.5-3.7-3-5.5-4.5q-3.15-2.55-6-5.1l-2.4-2.1c-7.3-6.5-14.2-13.1-21-19.7-3.3-3.2-6.6-6.4-9.9-9.5-.1-.2-.3-.3-.5-.5-.6-.5-1.1-1.1-1.7-1.6-1.4-1.4-2.9-2.8-4.4-4.2-2.3-2.3-4.6-4.5-6.9-6.7-.3-.3-.6-.5-.9-.8-1-.9-1.9-1.9-2.9-2.8-.3-.3-.6-.5-.9-.8-.9-.9-1.9-1.8-2.8-2.7a277.32,277.32,0,0,0-22.2-18.6.35.35,0,0,0-.2-.1c-1-.8-2-1.4-3-2.1-.2-.2-.5-.3-.7-.5a25,25,0,0,1-2.4-1.6L77,147.9a14,14,0,0,0-1.6-1c-.5-.3-1-.5-1.5-.8-1-.6-2-1.1-3-1.6s-1.9-1-2.9-1.5a.76.76,0,0,0-.5-.2c-.1,0-.2-.1-.3-.1-.5-.2-1-.5-1.5-.7V92.9a26.2,26.2,0,0,1,.1-2.8,9.08,9.08,0,0,1,.3-2.3v-.1c.2-1.4.4-2.8.7-4.1.2-.6.3-1.3.5-1.9l.6-1.8a31.28,31.28,0,0,1,4.8-8.6,7.27,7.27,0,0,1,.8-.9c.2-.3.5-.5.7-.8a.78.78,0,0,1,.4-.4l.7-.7a4.62,4.62,0,0,1,.7-.7,24.28,24.28,0,0,1,3.2-2.4,20.61,20.61,0,0,1,4.2-2.1h0a13.85,13.85,0,0,1,3.3-1,17.66,17.66,0,0,1,2-.4,15.14,15.14,0,0,1,3.7-.1h.9a6.6,6.6,0,0,1,1.4.1c.3,0,.6.1.9.1h.1c.4.1.7.1,1,.2a1.69,1.69,0,0,1,1,.3,11.76,11.76,0,0,1,2,.7,6.12,6.12,0,0,1,1.2.5,33.72,33.72,0,0,1,3.2,1.7c.5.3.9.6,1.4.9.1,0,.2.1.3.2.7.5,1.4,1.1,2.1,1.7s1.4,1.3,2.1,2a19.58,19.58,0,0,1,1.8,2.1,54,54,0,0,1,8.7,17,22.88,22.88,0,0,1,.8,2.8c.2.7.4,1.4.6,2.2a15.54,15.54,0,0,1,.5,2.3c.2.9.4,1.9.6,2.9a26.8,26.8,0,0,1,.5,3,34.77,34.77,0,0,1,.5,3.6c.1.7.2,1.4.3,2.2.2,1.9.4,3.9.5,6,.1,1.3.1,2.5.2,3.8v3a38.14,38.14,0,0,1,.4-5.9,20.48,20.48,0,0,1,.5-2.4,13.32,13.32,0,0,1,.5-1.9c.1-.5.3-.9.4-1.4s.4-1.1.6-1.7a43.63,43.63,0,0,1,3.2-6.5,9.38,9.38,0,0,1,.9-1.2.35.35,0,0,1,.1-.2c.1-.1.2-.2.2-.3h0a12.17,12.17,0,0,1,1.5-1.7c.5-.5,1-1.1,1.5-1.6a20,20,0,0,1,1.6-1.4c.3-.3.7-.5,1-.8h0a12.75,12.75,0,0,1,2.5-1.5h0a29.54,29.54,0,0,1,3.7-1.6,10.93,10.93,0,0,1,1.7-.5h0c.6-.1,1.2-.3,1.8-.4.4-.1.7-.1,1.1-.2h.5a19.69,19.69,0,0,1,5.9.3,13.32,13.32,0,0,1,1.9.5,7.84,7.84,0,0,1,1.4.5,24.43,24.43,0,0,1,2.4,1,17.38,17.38,0,0,1,1.9,1c.6.3,1.2.7,1.7,1,.7.5,1.4,1,2,1.5h0c.6.5,1.2,1,1.8,1.6l1.5,1.5a2.65,2.65,0,0,1,.5.6c.5.6,1,1.2,1.5,1.9a14.29,14.29,0,0,1,1.4,2,54,54,0,0,1,3.4,5.9,4.05,4.05,0,0,0,.5.9.37.37,0,0,1,.1.3c0,.1.1.2.1.3a3.55,3.55,0,0,1,.4.9c.2.3.3.6.5.9.3.8.6,1.5.9,2.3a14.58,14.58,0,0,1,.7,1.9h0a4.33,4.33,0,0,0,.1.5c0,.1.1.2.1.3a2.35,2.35,0,0,1,.2.8c.2.6.4,1.3.6,1.9a16,16,0,0,1,.5,2.1,26.14,26.14,0,0,1,.6,2.7,28.37,28.37,0,0,1,.6,3.1c.2,1.3.5,2.6.6,3.9.2,1.1.3,2.3.5,3.4a155.56,155.56,0,0,1,.9,16v-2.3c0-1.2,0-2.3.1-3.5.1-.8.2-1.5.3-2.3a3,3,0,0,1,.2-1,34.13,34.13,0,0,1,4.1-11.5,21.42,21.42,0,0,1,3.2-4.5h0a15.27,15.27,0,0,1,1.8-1.8,16.32,16.32,0,0,1,2-1.7,11,11,0,0,1,1.4-.9h.1c.5-.3.9-.6,1.4-.9a12.44,12.44,0,0,1,2-1c.5-.2,1.1-.5,1.7-.7.1,0,.2-.1.3-.1a13.67,13.67,0,0,1,4-.9h.1a4.1,4.1,0,0,1,1.1-.1,14.77,14.77,0,0,1,2.1-.1,19,19,0,0,1,4.1.4,12.86,12.86,0,0,1,1.9.4,19.17,19.17,0,0,1,3.1,1.1c.5.2.9.5,1.4.7a25.18,25.18,0,0,1,6,4.2c.4.3.7.7,1.1,1a31.82,31.82,0,0,1,4,4.8,9.06,9.06,0,0,1,1.1,1.6c.4.6.8,1.3,1.2,1.9a56.63,56.63,0,0,1,4.1,8.9l.9,2.7a69.4,69.4,0,0,1,2.3,9h0c.1.7.3,1.4.4,2.1a.75.75,0,0,0,.1.5c.2,1.2.4,2.5.6,3.8.2,1.6.4,3.2.5,4.9,0,.5.1,1.1.1,1.7.1,1.1.2,2.3.3,3.5a17.7,17.7,0,0,0,.1,2.3c.1,2,.1,4.1.1,6.2v-2.1c0-1,0-2.1.1-3.1s.2-1.8.3-2.6a27.31,27.31,0,0,1,1.4-5.8,12.66,12.66,0,0,1,.6-1.8c.2-.5.4-1.1.6-1.6a10.93,10.93,0,0,1,.8-1.5v-.1a.76.76,0,0,1,.2-.4,3.51,3.51,0,0,1,.5-.8c0-.2.1-.3.2-.5s.1-.2.2-.3v-.1a10.54,10.54,0,0,1,.7-1.1,17,17,0,0,1,1-1.4c.5-.6.9-1.2,1.4-1.8a13.65,13.65,0,0,1,1.7-1.7,16.32,16.32,0,0,1,2-1.7l2.1-1.5c.9-.5,1.8-1,2.7-1.4l.6-.3h.1c.2-.1.5-.2.7-.3a21.24,21.24,0,0,1,5.4-1.3,20.9,20.9,0,0,1,2.5-.1,10.87,10.87,0,0,1,1.8.1,4.87,4.87,0,0,1,1.2.1,5,5,0,0,1,1.2.2,8.33,8.33,0,0,1,1.5.4,12.09,12.09,0,0,1,1.8.5l1.5.6c.5.2,1,.5,1.5.7a26.25,26.25,0,0,1,5.7,3.9c.4.4.8.7,1.2,1.1a43.58,43.58,0,0,1,9.1,13.6,24.43,24.43,0,0,1,1,2.4h0v.1a21.08,21.08,0,0,1,1,3,8.8,8.8,0,0,1,.5,1.5,14.13,14.13,0,0,1,.6,2.2c.4,1.3.7,2.6,1,3.9.2.9.4,1.8.6,2.8.3,1.3.5,2.5.7,3.9s.5,3,.6,4.6c.1,1.3.3,2.6.4,3.9l.3,4.2v.3c0,1.3.1,2.5.1,3.8A6.69,6.69,0,0,1,303.22,208.3Z" style="fill:#de8989"/><path d="M179.62,116.9c3,9,4.8,20.5,4.8,34.9v-2.3c0-9.5,3.1-17.3,8-22.8C188.32,123.6,184,120.4,179.62,116.9Z" style="fill:#f3dbd8"/><path d="M243.82,180v-2.3a35.85,35.85,0,0,1,5.6-19.8c-2.6-.9-5.3-2-7.9-3A124.12,124.12,0,0,1,243.82,180Z" style="fill:#f3dbd8"/><path d="M449.12,129.9a29.54,29.54,0,0,0-.2-4.2,24.52,24.52,0,0,0-.2-2.7,11.14,11.14,0,0,0-.2-1.7,46.74,46.74,0,0,0-1.3-6.5l-.9-3.3a20.94,20.94,0,0,0-.8-2.3,19.45,19.45,0,0,0-.8-2.2c-.4-.9-.7-1.8-1.1-2.7a6.11,6.11,0,0,0-.7-1.4c-.3-.7-.6-1.4-1-2.2s-1-1.9-1.5-2.8c-.3-.5-.5-.9-.8-1.4-1.2-1.9-2.4-3.8-3.7-5.6a39.19,39.19,0,0,0-2.5-3.2,107.37,107.37,0,0,0-17.3-17c-1-.8-2.1-1.7-3.2-2.5a190.7,190.7,0,0,0-30.6-18.4c-20.9-10.3-45.7-18.7-72.4-25.3-7-1.8-14.2-3.3-21.4-4.8a3,3,0,0,1-1-.2c-2.4-.5-4.8-.9-7.2-1.4s-5.1-.9-7.6-1.4-5.1-.9-7.7-1.3l-7.7-1.2L249,13c-5-.7-10-1.4-15.1-1.9-10.2-1.2-20.3-2.1-30.5-2.8-.7,0-1.3-.1-1.9-.1-3-.2-5.9-.4-8.8-.5l-5.8-.3c-17.6-.8-35.1-1-51.9-.5-5.8.2-11.5.4-17.1.8-7.5.5-14.9,1-22.1,1.8h-.5c-2.6.2-5.1.5-7.6.8-6,.7-11.8,1.5-17.5,2.4-1.8.3-3.4.5-5.1.9-9.7,1.7-18.8,3.6-27.3,5.9-2.1.6-4.2,1.2-6.2,1.8C14.42,26.4,7,34.3,7,42.8v58.7c0,4.6-.3,9.1.1,13.3a8.75,8.75,0,0,0,.2,1.6,18.25,18.25,0,0,0,2,6.1c.2.5.5.9.7,1.3a17.35,17.35,0,0,0,3.5,3.7,12.74,12.74,0,0,0,1.9,1.3,12.4,12.4,0,0,0,2.3,1.2,46.06,46.06,0,0,0,12.7,3.7c7.7,1.2,15.3,2.7,22.8,4.4a53.12,53.12,0,0,1,14.6,6c1,.6,2.1,1.2,3.1,1.8v-1c-1-.5-1.9-1-2.9-1.5a.76.76,0,0,0-.5-.2c-.1,0-.2-.1-.3-.1-.5-.2-1-.5-1.5-.7V93.3a26.2,26.2,0,0,1,.1-2.8,9.08,9.08,0,0,1,.3-2.3h0c.2-1.4.4-2.8.7-4.1.2-.6.3-1.3.5-1.9l.6-1.8a31.28,31.28,0,0,1,4.8-8.6,7.27,7.27,0,0,1,.8-.9c.1-.1.2-.3.3-.4l.4-.4a.78.78,0,0,1,.4-.4l.7-.7a4.62,4.62,0,0,1,.7-.7,24.28,24.28,0,0,1,3.2-2.4,20.61,20.61,0,0,1,4.2-2.1h0a13.85,13.85,0,0,1,3.3-1,17.66,17.66,0,0,1,2-.4,15.14,15.14,0,0,1,3.7-.1h.9a6.6,6.6,0,0,1,1.4.1c.3,0,.6.1.9.1h.1c.4.1.7.1,1,.2a1.69,1.69,0,0,1,1,.3,11.76,11.76,0,0,1,2,.7,6.12,6.12,0,0,1,1.2.5,33.72,33.72,0,0,1,3.2,1.7c.5.3.9.6,1.4.9.1,0,.2.1.3.2.7.5,1.4,1.1,2.1,1.7s1.4,1.3,2.1,2a19.58,19.58,0,0,1,1.8,2.1,54,54,0,0,1,8.7,17c.5,1.6,1,3.2,1.4,5a15.54,15.54,0,0,1,.5,2.3c.2.9.4,1.9.6,2.9a26.8,26.8,0,0,1,.5,3,34.77,34.77,0,0,1,.5,3.6c.1.7.2,1.4.3,2.2.2,1.9.4,3.9.5,6,.1,1.3.1,2.5.2,3.8v3a38.14,38.14,0,0,1,.4-5.9,20.48,20.48,0,0,1,.5-2.4,13.32,13.32,0,0,1,.5-1.9c.1-.5.3-.9.4-1.4s.4-1.1.6-1.7a43.63,43.63,0,0,1,3.2-6.5,9.38,9.38,0,0,1,.9-1.2.35.35,0,0,1,.1-.2c.1-.1.2-.2.2-.3h0a12.17,12.17,0,0,1,1.5-1.7c.5-.5,1-1.1,1.5-1.6a20,20,0,0,1,1.6-1.4c.3-.3.7-.5,1-.8h0a12.75,12.75,0,0,1,2.5-1.5h0a17.25,17.25,0,0,1,3.7-1.6,10.93,10.93,0,0,1,1.7-.5h0a11.63,11.63,0,0,1,1.8-.4c.4-.1.7-.1,1.1-.2-.3-.2-.5-.5-.8-.7h0c-3.1-2.8-6.1-5.7-9.2-8.7-1.1-1.1-2.3-2.2-3.5-3.2s-2.2-1.8-3.2-2.7c-.9-.7-1.9-1.4-2.8-2.2a1.38,1.38,0,0,0-.4-.3,15.26,15.26,0,0,0-1.6-1.1c-.5-.3-1-.7-1.5-1a13,13,0,0,0-1.5-1,25.86,25.86,0,0,0-3.1-1.9,11.25,11.25,0,0,0-2.1-1.2,119.14,119.14,0,0,0-10.7-5.4h-.1c-1.6-.7-3.2-1.4-4.9-2-1.2-.5-2.4-.9-3.6-1.4a6.12,6.12,0,0,1-1.2-.5h0l-.9-.3a14.16,14.16,0,0,0-2.2-.7c-1-.3-1.9-.6-2.9-.9-1.2-.4-2.4-.7-3.6-1l-2.1-.6a16,16,0,0,0-2.1-.5l-2.4-.6L78,51.6c-.7-.1-1.4-.3-2-.4a16,16,0,0,1-2.1-.5l-3.4-.6c-.8-.1-1.6-.3-2.3-.4-1.8-.3-3.7-.5-5.5-.8-2.4-.3-4.7-.6-6.9-.8-1.6-.1-3.2-.3-4.6-.4-.6,0-1.2-.1-1.8-.1-1.2-.1-2.3-.2-3.3-.2-.5,0-1-.1-1.5-.1-.8,0-1.5-.1-2.2-.1h-1c-1.4-.1-2.7-.1-3.7-.2H37c-.7,0-1.1-.1-1.4-.1-.1,0-.2-.1-.3-.1h-.1v-.1a2.71,2.71,0,0,0,.8-.3c3.1-.8,6.2-1.6,9.4-2.3,2.3-.6,4.7-1.1,7-1.6,2.7-.6,5.4-1.2,8-1.8,2.8-.6,5.6-1.2,8.5-1.7a47.14,47.14,0,0,1,5.2-.9c1.9-.4,3.9-.7,5.9-1,.8-.1,1.5-.3,2.3-.4,1.5-.2,3-.5,4.6-.7q7.65-1.2,15.3-2.1l2.1-.3c5.4-.6,10.8-1.2,16.2-1.7,4.4-.4,8.8-.7,13.2-1,1-.1,1.9-.1,2.9-.2,2.6-.2,5.2-.3,7.8-.4l7.8-.3c5.5-.2,11-.2,16.5-.2,3.6,0,7.1,0,10.6.1h1.2c2.1,0,4.1.1,6.1.2h1.7c2.7.1,5.3.2,7.9.4,3.2.1,6.3.3,9.5.5,3.7.3,7.4.5,11,.9l9.4.9c2.1.2,4.2.5,6.4.7.4,0,.8.1,1.1.1l4.3.6,6.7.9c3.1.5,6.1.9,9.1,1.4s6,1,9,1.6c3.3.6,6.7,1.3,10,1.9,2,.4,4.1.9,6.1,1.3a22.5,22.5,0,0,1,2.2.5l6.4,1.5c.5.1,1.1.3,1.7.4l8.3,2.1c2,.5,4.1,1.1,6.1,1.7,1.2.4,2.4.7,3.7,1.1l6,1.8c4.6,1.4,9.2,3,13.6,4.6a.31.31,0,0,1,.2.1c1.6.5,3.1,1.1,4.6,1.7,8.1,3,15.8,6.2,23.2,9.7,1.8.8,3.7,1.7,5.5,2.6,3.1,1.5,6.1,3.1,9.1,4.7s5.9,3.2,8.7,5h0c1.8,1.1,3.6,2.2,5.3,3.3.5.3,1.1.7,1.6,1l3.6,2.4c.5.3.9.6,1.4.9.9.6,1.9,1.3,2.8,2l.1.1c1.3.9,2.5,1.8,3.8,2.8,2,1.5,3.9,3,5.8,4.6a16.32,16.32,0,0,1,2,1.7c.6.5,1.3,1.1,1.9,1.7l3.9,3.6c1.5,1.4,3,2.9,4.4,4.4a18.62,18.62,0,0,1,1.9,2.2c.6.8,1.2,1.5,1.7,2.3a23.49,23.49,0,0,1,2.6,4.6c.3.8.6,1.5.9,2.3a12.09,12.09,0,0,1,.5,1.8,5.16,5.16,0,0,1,.2,1.1v.2a7.72,7.72,0,0,1,.2,1.5,18.48,18.48,0,0,1,.1,2.3v1.9a2.77,2.77,0,0,1-.1.9v.3h0a2.39,2.39,0,0,1-.2.9,2.92,2.92,0,0,1-.2.9,3,3,0,0,1-.2,1,15.46,15.46,0,0,1-.7,2.3,10.37,10.37,0,0,1-.4,1c0,.1,0,.1-.1.2a3.55,3.55,0,0,1-.4.9.37.37,0,0,1-.1.3,4.88,4.88,0,0,1-.3.7c0,.1-.1.2-.2.3a12.9,12.9,0,0,1-.9,1.6l-1.2,1.8a.31.31,0,0,1-.1.2c-.4.6-.8,1.1-1.2,1.7a3,3,0,0,0-.5.7c-.2.2-.3.4-.5.5a30,30,0,0,1-3,3.2c-.2.2-.4.5-.6.6l-.4.4c-.5.5-1.1,1-1.6,1.5l-.1.1c-.1.1-.3.2-.5.4l-1.8,1.5h0c-.2.1-.3.3-.5.4a37.12,37.12,0,0,1-3.2,2.3c-.5.3-.9.6-1.4.9a23.92,23.92,0,0,1-2.1,1.3c-1,.6-2,1.1-3,1.7-2,1.1-4.2,2.2-6.5,3.2h0c-2,.9-4.2,1.8-6.4,2.6-1.4.5-2.9,1.1-4.4,1.6s-3.1,1-4.6,1.4c-.2,0-.4.1-.6.1a1.42,1.42,0,0,0-.6.2,18,18,0,0,1-2.2.6c-2.1.5-4.2,1-6.4,1.5s-4.4.9-6.6,1.3h0c-.2,0-.4.1-.6.1a30.62,30.62,0,0,1-3.2.5l-2.2.3a3.4,3.4,0,0,1-1,.1c-2,.2-4,.5-6.1.6-.8.1-1.7.1-2.5.2h-.5c-.8,0-1.6.1-2.4.1-1,0-2.1.1-3.2.1s-2.3.1-3.4.1a58,58,0,0,1-5.9,0c-2,0-4,0-6-.1-1.2,0-2.3,0-3.5-.1H316a12.1,12.1,0,0,1-1.9-.1h-.4l-9.4-.9-2-.3-4.5-.6h0v.1a21.08,21.08,0,0,1,1,3,8.8,8.8,0,0,1,.5,1.5,14.13,14.13,0,0,1,.6,2.2c.4,1.3.7,2.6,1,3.9.2.9.4,1.8.6,2.8.3,1.3.5,2.5.7,3.9s.5,3,.6,4.6c.1,1.3.3,2.6.4,3.9l.3,4.2v.3c0,1.3.1,2.5.1,3.8v76h-.2v4.6h5.7c4.4-.1,8.8-.3,13.3-.5a28.28,28.28,0,0,0,4.1-.3c7.8-.5,15.6-1.4,23.1-2.6l3.6-.6a230.57,230.57,0,0,0,30-6.9c.8-.2,1.6-.5,2.4-.7,1.7-.5,3.4-1.1,5.1-1.7s3.3-1.2,5-1.8,3.3-1.3,4.9-2h.1c1.1-.4,2.1-.9,3.2-1.4a111.46,111.46,0,0,0,24.8-15.1c1.1-.9,2.2-1.9,3.2-2.8a59.08,59.08,0,0,0,6-6.3,39.19,39.19,0,0,0,2.5-3.2,16.65,16.65,0,0,0,1.8-2.8,43.09,43.09,0,0,0,2.6-4.7,14.72,14.72,0,0,0,1-2.2,7.58,7.58,0,0,0,.6-1.6,30.05,30.05,0,0,0,1.1-3.2,27.92,27.92,0,0,0,1-3.9,1.76,1.76,0,0,1,.1-.6v-.1a3.71,3.71,0,0,0,.2-.9,37.93,37.93,0,0,0,.6-6.7c0-.9.1-1.8.1-2.8V138.2C449.42,135.5,449.12,132.8,449.12,129.9Z" style="fill:#f3dbd8"/><path d="M449.12,209.9c-.1.5-.7,8.2-.9,10.5a2.18,2.18,0,0,1-.1.6c-9.3,42.2-75.1,63.2-139.4,64.3H303v-81h.1l6.6,2.6C309.82,207,376.52,302.4,449.12,209.9Z" style="fill:#eac1c1"/><path d="M70.82,145.7c-1-.6-2.1-1.2-3.1-1.8a60.18,60.18,0,0,0-14.6-6c-7.5-1.8-15.1-3.2-22.8-4.4-26.7-4.4-23.4-18-23.4-32.3V63.7l4.1-.8c1.8,2,50.1,7.7,55,24.9h0c.5,2,1.2,36.6,1.8,38.6a60.17,60.17,0,0,1,2.9,18.1A4.87,4.87,0,0,1,70.82,145.7Z" style="fill:#eac1c1"/><path d="M47.32,25c-4.2,2-8.5,3.7-12.8,5.6-5.9,2.5-8.1,5.6-7.9,11.3.2,5.3,8.1,7.1,12.3,8.9,10,4.2,20.3,2.8,30.9,3,6.8.2,12,2.5,18.3,4.6,14.5,4.8,29,6.9,42.6,14,6,3.2,12.9,6.6,12.8,14.4-.1,8.2-9.7,8-13.9,13.1-7.2-2.1-7.7-11.8-10.7-17.5-2.6-4.9-5-10.9-10.4-12.5a107.87,107.87,0,0,0-22.6-3.8,26.73,26.73,0,0,0-10.2,1.1c-3.2,1.2-3.6,2.9-6.2,4.9-3.1,2.6-9.2,1.6-13.7,1.6a126.74,126.74,0,0,1-31.2-4.2c-7.9-1.9-16.3-7.3-18.7-15.8-3.1-11.1,1.9-16.8,10.4-22.9,9.8-7.1,24.2-8.4,35.5-11.6a99.86,99.86,0,0,1,17.2-3c4.1-.4,10.6-2.4,15.6-1.9-8.6-.5-19.6,3-27.5,6.4C54.12,22,50.62,23.4,47.32,25Z" style="fill:#eac1c1"/><path d="M248.72,242c0,9.2,5.1,28.7-4.1,28.7-1.6,0-12.1-3.9-17.2-6-.9-.3-1.8-.7-2.8-1.1-1.4-.5-2.6-1.1-3.9-1.7-3.2-1.4-6.3-2.8-9.3-4.3-2.5-1.2-4.9-2.5-7.2-3.8-.1,0-.2-.1-.4-.2-2.2-1.3-4.4-2.5-6.5-3.8-2.3-1.4-4.4-2.8-6.6-4.2-1.6-1-3.1-2.1-4.6-3.1,2.9-5.8,3.1-11.7,3.8-11.7.5,0,19.6,14,28.4,14,12.6,0,11.8-18.2,12-27.5.4-18.9,1.5-36.1-.5-54.8A43.73,43.73,0,0,0,226,148a25.71,25.71,0,0,0-15.2-13.8,11.29,11.29,0,0,0-7.7,0c-7.4,2.7-11.8,13.4-12.8,23.1-.3-3.7-.5-7.4-.5-11a40.57,40.57,0,0,1,4.2-18.6,25.92,25.92,0,0,1,3.7-5.6h.1c3.7-4.5,8.2-6.8,11.7-6.8,4.3,0,26.9,3.7,28.9,27.9.1,1.2.2,2.4.2,3.7v6.8C238.72,171.3,248.72,197.9,248.72,242Z" style="fill:#cc7272"/><path d="M130.92,153.3c0,19.5,3.1,36-4.9,36.4-.3-.3-11.1-10.7-11.4-10.9-1-.9-1.9-1.9-2.9-2.8-.3-.3-.6-.5-.9-.8-.9-.9-1.9-1.8-2.8-2.7a277.32,277.32,0,0,0-22.2-18.6c-.5-.7-.9-1.3-1.2-1.7-5.2-6.1-14.8-5.2-14.8-12.7,0-18.9,15.9,6.1,30.5,6.1,9.9,0,11.2-21.2,11.2-31.3,0-22.2-14-37.8-24.2-37.8s-16.1,10-16.1,19.2c0,1.1.1,2.2.2,3.2a.75.75,0,0,0-.5-.1c-1.1,0-1.2-6.5-1.2-7.5,0-12.5,6.6-22.2,13.9-28.1,5.2-4.2,10.6-6.5,14.2-6.5h.4a15.7,15.7,0,0,1,9.8,3.9h0c10.6,8.8,16.5,30.4,19.5,47.4q.6,3,.9,5.7c.6,3.8,1,7.3,1.3,10,.3,3,.4,5.2.4,6.4C129.92,137,130.92,145.3,130.92,153.3Z" style="fill:#cc7272"/><path d="M305.42,258.9a22.31,22.31,0,0,1-2.2,8.3.76.76,0,0,1-.2.4,73.68,73.68,0,0,1-7.7,12.6c-1.6-.1-3.1-.3-4.6-.5-2-.2-3.9-.4-5.8-.7h-.4c-2.5-.3-4.9-.6-7.2-1l-7.2-1.2c-2.3-.5-4.6-.9-6.9-1.4-2-.4-4-.9-6-1.3-3.7-.9-7.3-1.8-10.7-2.8.1-5.1,2.6-8.8,8.9-8.8,35.4,0,35.3-12.7,35.3-48.2,0-14.6.5-34.4-5.7-46.3-3.3-6.3-8.4-10.5-16.5-10.5-4.6,0-7.8,1.2-10.3,3.4-3.3,2.8-5.4,7.3-8.1,12.7a1.09,1.09,0,0,0-.1.5c0,.4.1.8.1,1.2a15.09,15.09,0,0,1-3.4,6.5c-.1-2.4-.3-5.1-.3-7.7a42.93,42.93,0,0,1,2.2-14.7c0-.1,0-.1.1-.2v-.1a6.12,6.12,0,0,1,.5-1.2h0c3.4-7.7,10.3-12,21.9-12,14.7,0,28.3,9.5,30.5,24.8h0c.1.9.2,1.7.3,2.6l1.1,26.8v.3l.2,3.8Z" style="fill:#cc7272"/><path d="M188.52,210.5c0,8.1-1.7,13.7-4,17.3-2.6,4.1-.9,11.4-3.5,11.4l-7.2-5.7c-1.8-1.5-3.7-3-5.5-4.5q-3.15-2.55-6-5.1l-2.4-2.1c-7.3-6.5-14.2-13.1-21-19.7-3.3-3.2-8.4-8.1-11.7-11.2h0c0-3-.4-8-.4-10.4,0-14.4,14.9,21.6,30.6,21.6,7.4,0,14.5-3.1,14.5-43.8,0-22.7-2.4-51-24.5-51-11.6,0-15.7,7.4-17.6,16.4h0c-1.2,5.7-1.5,12-2.2,17.2a111.93,111.93,0,0,1-1.4-16.8,56.59,56.59,0,0,1,1.7-14.5,32.9,32.9,0,0,1,3.8-9.3.35.35,0,0,1,.1-.2c.1-.1.2-.2.2-.3h0a22.6,22.6,0,0,1,15.8-10.5h0a23.08,23.08,0,0,1,3.7-.3c10.4,0,21.2,7.9,25.7,21.2a.37.37,0,0,1,.1.3c0,.1.1.2.1.3a31.8,31.8,0,0,1,1.4,5.3,43.18,43.18,0,0,1,.7,8.2c0,9.7,5.1,20.1,5.1,29.9C184.42,174,188.52,176.7,188.52,210.5Z" style="fill:#cc7272"/><path d="M67.92,86.7a11,11,0,0,1-1.8-.2c-3.1-.8-6-1.6-8.9-2.3l-5.8-1.5c-7.5-2-15-3.7-22.4-5.1A35.63,35.63,0,0,1,.12,42.5a6.8,6.8,0,0,1,13.6,0,21.85,21.85,0,0,0,17.9,21.8c7.7,1.4,15.5,3.2,23.3,5.3l5.7,1.4c2.9.7,6,1.5,9.1,2.3a6.79,6.79,0,0,1,4.8,8.3A6.9,6.9,0,0,1,67.92,86.7Z" style="fill:#a86060"/><path d="M329.22,178.3a216.64,216.64,0,0,1-32.7-2.5,5.61,5.61,0,1,1,1.7-11.1c34,5.1,66,1.9,90.1-8.8a5.66,5.66,0,1,1,4.7,10.3C374.82,174.1,352.92,178.3,329.22,178.3Z" style="fill:#a86060"/><path d="M403,159.8a5.75,5.75,0,0,1-4.7-2.5,5.63,5.63,0,0,1,1.6-7.8c10.1-6.7,16.2-14.6,17.1-22.3.6-5.7-1.6-11.2-6.5-16.4-9.9-10.4-22.5-20.1-37.4-28.9a5.63,5.63,0,0,1,5.7-9.7c15.9,9.3,29.3,19.7,39.9,30.9,7.3,7.6,10.6,16.5,9.6,25.5-1.3,11.1-9.1,21.9-22,30.5A9.76,9.76,0,0,1,403,159.8Z" style="fill:#a86060"/><path d="M360,74a5.73,5.73,0,0,1-2.5-.6,321.27,321.27,0,0,0-46.3-18.3,5.66,5.66,0,1,1,3.4-10.8,339,339,0,0,1,47.9,18.9A5.69,5.69,0,0,1,360,74Z" style="fill:#a86060"/><path d="M264.72,43.4a3.4,3.4,0,0,1-1-.1C212.92,33.7,158,32,104.82,38.4a5.64,5.64,0,0,1-1.4-11.2c54.4-6.5,110.5-4.7,162.3,5a5.65,5.65,0,0,1-1,11.2Z" style="fill:#a86060"/><path d="M148.42,95.7a5.54,5.54,0,0,1-3.8-1.5c-2.4-2.2-4.7-4.4-7.2-6.7l-2.9-2.8C103.42,55,55.42,52.8,39.62,52c-5.5-.3-9.8-.5-10.3-5.5-.1-.8-.3-5,5.1-6.4,15.2-4,30.9-7.3,46.9-9.9a5.67,5.67,0,1,1,1.8,11.2c-4.4.7-8.8,1.5-13.2,2.3,22.2,3.7,50.7,12.2,72.4,32.8l2.9,2.7c2.4,2.2,4.7,4.4,7.1,6.6a5.68,5.68,0,0,1,.3,8A5.35,5.35,0,0,1,148.42,95.7Z" style="fill:#a86060"/><path d="M331.72,208.8c-5.2,0-10.5-.1-15.8-.4-4.5-.2-9-.6-13.5-1.1a6.74,6.74,0,1,1,1.4-13.4c4.3.4,8.6.8,12.9,1a246.86,246.86,0,0,0,29.8,0,6.73,6.73,0,0,1,7.1,6.4,6.88,6.88,0,0,1-6.4,7.2C342.12,208.7,336.92,208.8,331.72,208.8Z" style="fill:#a86060"/><path d="M381.42,203.6a6.72,6.72,0,0,1-6.6-5.3,6.83,6.83,0,0,1,5.1-8.1c12.6-2.9,23.7-6.9,32.8-12a6.76,6.76,0,1,1,6.6,11.8,136.5,136.5,0,0,1-36.4,13.3A2.7,2.7,0,0,1,381.42,203.6Z" style="fill:#a86060"/><path d="M416,191a6.73,6.73,0,0,1-5.9-3.5,6.82,6.82,0,0,1,2.6-9.2c18.2-10.1,28.2-23.8,29.7-40.7a36.84,36.84,0,0,0,0-4.7c0-1-.1-2-.1-3.1,0-13.8-5.1-26.8-15-38.9a6.75,6.75,0,0,1,10.4-8.6c12,14.6,18.1,30.6,18.1,47.5v2.7a43.22,43.22,0,0,1-.1,6.2c-1.8,21.4-14.5,39.2-36.6,51.4A5.38,5.38,0,0,1,416,191Z" style="fill:#a86060"/><path d="M416,77.4a6.55,6.55,0,0,1-4.2-1.5c-9.1-7.3-20.4-14.2-33.3-20.5a6.73,6.73,0,1,1,5.9-12.1,188.15,188.15,0,0,1,35.9,22.1,6.81,6.81,0,0,1,1.1,9.5A7.24,7.24,0,0,1,416,77.4Z" style="fill:#a86060"/><path d="M309.82,31.2a8.75,8.75,0,0,1-1.6-.2c-37-9.1-79.1-15-121.8-17a6.76,6.76,0,1,1,.7-13.5c43.6,2.1,86.6,8.1,124.4,17.4a6.75,6.75,0,0,1-1.7,13.3Z" style="fill:#a86060"/><path d="M6.92,96.7a6.81,6.81,0,0,1-6.8-6.8V42.5c0-7.2,3.8-20.4,29.4-28,28-8.3,64.3-13.3,105.1-14.5a6.8,6.8,0,1,1,.4,13.6c-39.6,1.2-74.8,6-101.6,14-12.5,3.7-19.7,9.2-19.7,15V90A6.85,6.85,0,0,1,6.92,96.7Z" style="fill:#a86060"/><path d="M81.52,157.8a6.82,6.82,0,0,1-3.8-1.2c-9.3-6.2-17.8-10.2-26.1-12.1-6.7-1.6-14-3-22.4-4.3C1.82,135.7-.28,121.3,0,107a6.75,6.75,0,0,1,13.5.3c-.2,10.3-.3,16.6,17.8,19.5,8.6,1.4,16.3,2.9,23.3,4.5,10,2.3,20,6.9,30.7,14.1a6.79,6.79,0,0,1-3.8,12.4Z" style="fill:#a86060"/><path d="M322.22,288.1c-6.4,0-12.9-.2-19.4-.6l-2.9-.2c-3.5-.2-6.7-.6-9.9-.9l-2.7-.3a6.79,6.79,0,1,1,1.5-13.5l2.5.3c3.1.3,6.2.6,9.4.8l2.7.2a290.5,290.5,0,0,0,47.8-.9,6.74,6.74,0,0,1,1.4,13.4A274.57,274.57,0,0,1,322.22,288.1Z" style="fill:#a86060"/><path d="M381.42,281.5a6.8,6.8,0,0,1-1.6-13.4c14.1-3.4,26.1-8.1,35.7-13.9a6.77,6.77,0,1,1,7,11.6c-10.8,6.5-24.1,11.7-39.5,15.4A4.15,4.15,0,0,1,381.42,281.5Z" style="fill:#a86060"/><path d="M432.52,256.7a6.66,6.66,0,0,1-4.9-2.1,6.79,6.79,0,0,1,.2-9.6,43.6,43.6,0,0,0,13.6-25,64.91,64.91,0,0,0,1-10.1V194a6.8,6.8,0,1,1,13.6,0v15.9a77.73,77.73,0,0,1-1.1,12.1c-1.9,12.4-7.8,23.4-17.6,32.8A7,7,0,0,1,432.52,256.7Z" style="fill:#a86060"/><path d="M449.12,200.8a6.81,6.81,0,0,1-6.8-6.8V138.1a6.8,6.8,0,1,1,13.6,0V194A6.74,6.74,0,0,1,449.12,200.8Z" style="fill:#a86060"/><path d="M303.22,283a6.81,6.81,0,0,1-6.8-6.8V208.3c0-23.9-5.3-37.1-9.7-44-4.6-7.2-10.7-11.1-17-11.1-9.4,0-19.2,9.2-19.2,24.6V266a6.8,6.8,0,0,1-13.6,0V180.1c0-23.9-5.3-37.1-9.7-44-4.6-7.2-10.7-11.1-17-11.1-9.4,0-19.2,9.2-19.2,24.6v87.5a6.8,6.8,0,0,1-13.6,0V151.9c0-33.1-9.8-46-15.6-50.8a6.75,6.75,0,0,1,8.6-10.4c6.3,5.2,13.4,14.4,17.4,31a31.24,31.24,0,0,1,22.4-10.1c11.1,0,21.2,6.2,28.4,17.4a69,69,0,0,1,8.6,21,31.24,31.24,0,0,1,22.4-10.1c11.1,0,21.2,6.2,28.4,17.4,7.8,12.2,11.8,29.4,11.8,51.3v67.9A6.45,6.45,0,0,1,303.22,283Z" style="fill:#a86060"/><path d="M166.32,102.5A7,7,0,0,1,162,101c-4.9-4-10.6-5.3-16.1-3.4a6.8,6.8,0,0,1-4.3-12.9c9.9-3.3,20.4-1.2,28.9,5.8a6.7,6.7,0,0,1,.9,9.5A6.35,6.35,0,0,1,166.32,102.5Z" style="fill:#a86060"/><path d="M125,191.1a6.81,6.81,0,0,1-6.8-6.8V123.5c0-23.9-5.3-37.1-9.7-44-4.6-7.2-10.7-11.1-17-11.1-9.4,0-19.2,9.2-19.2,24.6v44.6a6.8,6.8,0,1,1-13.6,0V93c0-23.8,16.6-38.1,32.7-38.1,11.1,0,21.2,6.2,28.4,17.4a69.86,69.86,0,0,1,8.6,20.9,32,32,0,0,1,13.1-8.5,6.8,6.8,0,1,1,4.3,12.9c-8.6,2.9-14.2,12.2-14.2,23.7v63.1A6.49,6.49,0,0,1,125,191.1Z" style="fill:#a86060"/><polygon points="90.42 116.6 89.12 116.9 87.92 117.4 87.22 116.2 86.42 115.2 87.22 114.2 88.02 113.1 89.22 113.6 90.52 114 90.42 115.3 90.42 116.6" style="fill:#cc7272"/><polygon points="99.42 128.3 98.12 128.6 96.82 129.1 96.12 127.9 95.32 126.9 96.22 125.9 96.92 124.8 98.22 125.3 99.52 125.7 99.32 127 99.42 128.3" style="fill:#cc7272"/><polygon points="150.52 118.8 149.22 119.1 148.02 119.5 147.32 118.4 146.52 117.3 147.32 116.3 148.12 115.2 149.32 115.8 150.62 116.1 150.52 117.5 150.52 118.8" style="fill:#cc7272"/><polygon points="153.22 151.8 151.92 152.1 150.62 152.5 150.02 151.4 149.12 150.3 150.02 149.3 150.82 148.2 152.02 148.8 153.32 149.1 153.22 150.5 153.22 151.8" style="fill:#cc7272"/><polygon points="140.42 172.6 139.12 172.9 137.82 173.3 137.12 172.2 136.32 171.1 137.22 170.1 138.02 169 139.22 169.5 140.52 169.9 140.32 171.3 140.42 172.6" style="fill:#cc7272"/><polygon points="160.12 185.2 158.82 185.5 157.62 185.9 156.92 184.8 156.12 183.7 156.92 182.7 157.72 181.6 158.92 182.2 160.22 182.5 160.12 183.9 160.12 185.2" style="fill:#cc7272"/><polygon points="265.82 196.3 264.52 196.6 263.32 197 262.62 195.9 261.82 194.8 262.72 193.8 263.42 192.7 264.72 193.2 265.92 193.6 265.82 194.9 265.82 196.3" style="fill:#cc7272"/><polygon points="206.42 151 205.12 151.3 203.82 151.8 203.12 150.6 202.32 149.5 203.22 148.5 203.92 147.4 205.22 148 206.42 148.3 206.32 149.7 206.42 151" style="fill:#cc7272"/><polygon points="222.32 176.9 221.02 177.2 219.72 177.6 219.02 176.5 218.22 175.4 219.12 174.4 219.92 173.3 221.12 173.9 222.42 174.2 222.22 175.6 222.32 176.9" style="fill:#cc7272"/><polygon points="287.62 212.3 286.32 212.6 285.12 213 284.42 211.9 283.62 210.8 284.52 209.8 285.22 208.7 286.42 209.2 287.72 209.6 287.62 210.9 287.62 212.3" style="fill:#cc7272"/><polygon points="275.82 178.9 274.52 179.2 273.32 179.6 272.62 178.5 271.82 177.4 272.72 176.4 273.42 175.3 274.62 175.8 275.92 176.2 275.82 177.5 275.82 178.9" style="fill:#cc7272"/><polygon points="265.82 254.4 264.52 254.7 263.32 255.2 262.62 254 261.82 253 262.72 252 263.42 250.9 264.72 251.4 265.92 251.8 265.82 253.1 265.82 254.4" style="fill:#cc7272"/><polygon points="202.22 197.4 200.92 197.7 199.62 198.1 199.02 197 198.22 195.9 199.02 194.9 199.82 193.8 201.02 194.3 202.32 194.7 202.22 196 202.22 197.4" style="fill:#cc7272"/><polygon points="200.32 226.3 199.02 226.6 197.72 227 197.12 225.9 196.22 224.8 197.12 223.8 197.92 222.7 199.12 223.2 200.42 223.6 200.32 224.9 200.32 226.3" style="fill:#cc7272"/><polygon points="218.12 220.1 216.82 220.4 215.62 220.8 214.92 219.7 214.12 218.6 215.02 217.6 215.72 216.5 216.92 217 218.22 217.4 218.12 218.7 218.12 220.1" style="fill:#cc7272"/><polygon points="273.82 228.4 272.52 228.7 271.22 229.2 270.52 228 269.72 227 270.62 226 271.32 224.9 272.62 225.4 273.82 225.8 273.72 227.1 273.82 228.4" style="fill:#cc7272"/></svg>