<?xml version="1.0" encoding="utf-8"?>
<!-- Generator: Adobe Illustrator 21.0.0, SVG Export Plug-In . SVG Version: 6.00 Build 0)  -->
<svg version="1.1" id="Layer_1" xmlns="http://www.w3.org/2000/svg" xmlns:xlink="http://www.w3.org/1999/xlink" x="0px" y="0px"
	 viewBox="0 0 504 376" style="enable-background:new 0 0 504 376;" xml:space="preserve">
<style type="text/css">
	.st0{fill:#EAC1C1;}
	.st1{fill:#DE8989;}
	.st2{fill:#F3DBD8;}
	.st3{fill:#CC7272;}
	.st4{fill:#A86060;}
</style>
<g>
	<g>
		<g>
			<path class="st0" d="M59.8,68c-9.5,2.5,60.8-4.8,102.6,35c38.3,36.5,71.8,61.3,97.2,72c121.1,50.8,216.2-6.7,179-45.9
				C373.9,61,207,29.4,59.8,68z"/>
		</g>
		<g>
			<path class="st1" d="M327.2,230.6V303h-0.2c-0.9,0-1.8-0.1-2.8-0.2c-1.7-0.1-3.3-0.3-4.9-0.4c-1.6-0.1-3.1-0.3-4.6-0.5
				c-2-0.2-3.9-0.4-5.8-0.7c-0.1,0-0.2,0-0.4,0c-2.5-0.3-4.9-0.6-7.2-1c-2.4-0.4-4.8-0.8-7.2-1.2c-2.3-0.5-4.6-0.9-6.9-1.4
				c-2-0.4-4-0.9-6-1.3c-3.7-0.9-7.3-1.8-10.7-2.8c-2.8-0.8-5.4-1.6-8-2.5c-1.6-0.5-3.2-1.1-4.7-1.6c-2.2-0.8-4.3-1.6-6.4-2.4
				c-0.9-0.3-1.8-0.7-2.8-1.1c-1.4-0.5-2.6-1.1-3.9-1.7c-3.2-1.4-6.3-2.8-9.3-4.3c-2.5-1.2-4.9-2.5-7.2-3.8c-0.1,0-0.2-0.1-0.4-0.2
				c-2.2-1.3-4.4-2.5-6.5-3.8c-2.3-1.4-4.4-2.8-6.6-4.2c-1.6-1-3.1-2.1-4.6-3.1c-0.5-0.4-1.1-0.8-1.7-1.2v0c-3.4-2.4-6.8-4.9-10-7.4
				c-0.2-0.2-0.5-0.4-0.7-0.6h0c-1.8-1.5-3.7-3-5.5-4.5c-2.1-1.7-4.1-3.4-6-5.1c-0.8-0.7-1.6-1.4-2.4-2.1
				c-7.3-6.5-14.2-13.1-21-19.7c-3.3-3.2-6.6-6.4-9.9-9.5c-0.1-0.2-0.3-0.3-0.5-0.5c-0.6-0.5-1.1-1.1-1.7-1.6
				c-1.4-1.4-2.9-2.8-4.4-4.2c-2.3-2.3-4.6-4.5-6.9-6.7c-0.3-0.3-0.6-0.5-0.9-0.8c-1-0.9-1.9-1.9-2.9-2.8c-0.3-0.3-0.6-0.5-0.9-0.8
				c-0.9-0.9-1.9-1.8-2.8-2.7c-7.8-7.1-15.1-13.4-22.2-18.6c0,0-0.1-0.1-0.2-0.1c-1-0.8-2-1.4-3-2.1c-0.2-0.2-0.5-0.3-0.7-0.5
				c-0.9-0.5-1.7-1.1-2.4-1.6c-0.8-0.5-1.6-1-2.4-1.5c-0.5-0.4-1.1-0.7-1.6-1c-0.5-0.3-1-0.5-1.5-0.8c-1-0.6-2-1.1-3-1.6
				c-1-0.5-1.9-1-2.9-1.5c-0.1-0.1-0.3-0.2-0.5-0.2c-0.1,0-0.2-0.1-0.3-0.1c-0.5-0.2-1-0.5-1.5-0.7v-49.1c0-0.9,0-1.9,0.1-2.8
				c0-0.8,0.1-1.5,0.3-2.3v-0.1c0.2-1.4,0.4-2.8,0.7-4.1c0.2-0.6,0.3-1.3,0.5-1.9c0.2-0.6,0.4-1.2,0.6-1.8c1.2-3.2,2.8-6.1,4.8-8.6
				c0.3-0.3,0.5-0.7,0.8-0.9c0.2-0.3,0.5-0.5,0.7-0.8c0.1-0.2,0.2-0.3,0.4-0.4c0.2-0.2,0.5-0.5,0.7-0.7c0.2-0.3,0.5-0.5,0.7-0.7
				c1-0.9,2.1-1.7,3.2-2.4c1.3-0.9,2.7-1.5,4.2-2.1h0c1.1-0.5,2.2-0.8,3.3-1c0.7-0.2,1.4-0.3,2-0.4c1.2-0.2,2.4-0.2,3.7-0.1
				c0.3,0,0.6,0,0.9,0c0.5,0,0.9,0,1.4,0.1c0.3,0,0.6,0.1,0.9,0.1c0,0,0.1,0,0.1,0c0.4,0.1,0.7,0.1,1,0.2c0.4,0,0.7,0.1,1,0.3
				c0.7,0.2,1.4,0.4,2,0.7c0.4,0.1,0.8,0.3,1.2,0.5c1,0.5,2.1,1,3.2,1.7c0.5,0.3,0.9,0.6,1.4,0.9c0.1,0,0.2,0.1,0.3,0.2
				c0.7,0.5,1.4,1.1,2.1,1.7c0.7,0.6,1.4,1.3,2.1,2c0.6,0.6,1.2,1.3,1.8,2.1c3.4,4.3,6.4,9.9,8.7,17c0.3,0.9,0.6,1.8,0.8,2.8
				c0.2,0.7,0.4,1.4,0.6,2.2c0.2,0.7,0.4,1.5,0.5,2.3c0.2,0.9,0.4,1.9,0.6,2.9c0.2,1,0.4,1.9,0.5,3c0.2,1.1,0.4,2.3,0.5,3.6
				c0.1,0.7,0.2,1.4,0.3,2.2c0.2,1.9,0.4,3.9,0.5,6c0.1,1.3,0.1,2.5,0.2,3.8c0,0.9,0,1.7,0,2.6c0,0.9,0,1.8,0,2.7v-2.3
				c0-2,0.1-4,0.4-5.9c0.1-0.8,0.3-1.6,0.5-2.4c0.1-0.6,0.3-1.3,0.5-1.9c0.1-0.5,0.3-0.9,0.4-1.4c0.2-0.6,0.4-1.1,0.6-1.7
				c0.9-2.3,2-4.5,3.2-6.5c0.3-0.4,0.5-0.8,0.9-1.2c0-0.1,0.1-0.2,0.1-0.2c0.1-0.1,0.2-0.2,0.2-0.3c0,0,0,0,0,0
				c0.5-0.6,0.9-1.2,1.5-1.7c0.5-0.5,1-1.1,1.5-1.6c0.5-0.5,1.1-1,1.6-1.4c0.3-0.3,0.7-0.5,1-0.8c0,0,0,0,0,0
				c0.8-0.6,1.6-1.1,2.5-1.5c0,0,0,0,0,0c1.2-0.6,2.5-1.2,3.7-1.6c0.6-0.2,1.1-0.4,1.7-0.5c0,0,0,0,0,0c0.6-0.1,1.2-0.3,1.8-0.4
				c0.4-0.1,0.7-0.1,1.1-0.2c0,0,0,0,0,0c0.2,0,0.4,0,0.5,0c1.9-0.2,3.9-0.1,5.9,0.3c0.6,0.1,1.3,0.3,1.9,0.5
				c0.5,0.1,0.9,0.3,1.4,0.5c0.8,0.3,1.6,0.6,2.4,1c0.6,0.3,1.3,0.6,1.9,1c0.6,0.3,1.2,0.7,1.7,1c0.7,0.5,1.4,1,2,1.5l0,0
				c0.6,0.5,1.2,1,1.8,1.6c0.5,0.5,1,1,1.5,1.5c0.2,0.2,0.4,0.4,0.5,0.6c0.5,0.6,1,1.2,1.5,1.9c0.5,0.6,1,1.3,1.4,2
				c1.2,1.8,2.3,3.7,3.4,5.9c0.1,0.3,0.3,0.6,0.5,0.9c0.1,0.1,0.1,0.2,0.1,0.3c0,0.1,0.1,0.2,0.1,0.3c0.2,0.3,0.3,0.6,0.4,0.9
				c0.2,0.3,0.3,0.6,0.5,0.9c0.3,0.8,0.6,1.5,0.9,2.3c0.3,0.6,0.5,1.3,0.7,1.9v0h0c0,0.2,0.1,0.4,0.1,0.5c0,0.1,0.1,0.2,0.1,0.3
				c0.1,0.3,0.2,0.5,0.2,0.8c0.2,0.6,0.4,1.3,0.6,1.9c0.2,0.7,0.4,1.4,0.5,2.1c0.2,0.9,0.5,1.8,0.6,2.7c0.2,1,0.5,2,0.6,3.1
				c0.2,1.3,0.5,2.6,0.6,3.9c0.2,1.1,0.3,2.3,0.5,3.4c0.5,4.9,0.9,10.2,0.9,16v-2.3c0-1.2,0-2.3,0.1-3.5c0.1-0.8,0.2-1.5,0.3-2.3
				c0-0.4,0.1-0.7,0.2-1c0.7-4.3,2.2-8.2,4.1-11.5c0.9-1.7,2-3.2,3.2-4.5v0c0.6-0.7,1.2-1.3,1.8-1.8c0.6-0.6,1.3-1.2,2-1.7
				c0.5-0.3,0.9-0.7,1.4-0.9c0,0,0,0,0.1,0c0.5-0.3,0.9-0.6,1.4-0.9c0.6-0.4,1.3-0.7,2-1c0.5-0.2,1.1-0.5,1.7-0.7
				c0.1,0,0.2-0.1,0.3-0.1c1.3-0.5,2.6-0.8,4-0.9c0,0,0.1,0,0.1,0c0.4-0.1,0.7-0.1,1.1-0.1c0.7-0.1,1.4-0.1,2.1-0.1
				c1.4,0,2.7,0.1,4.1,0.4c0.6,0.1,1.3,0.2,1.9,0.4c1,0.3,2.1,0.6,3.1,1.1c0.5,0.2,0.9,0.5,1.4,0.7c2,1,4.1,2.4,6,4.2
				c0.4,0.3,0.7,0.7,1.1,1c1.4,1.4,2.8,3,4,4.8c0.4,0.5,0.8,1,1.1,1.6c0.4,0.6,0.8,1.3,1.2,1.9c1.5,2.6,2.9,5.6,4.1,8.9
				c0.3,0.9,0.6,1.8,0.9,2.7c0.9,2.8,1.7,5.7,2.3,9v0c0,0,0,0,0,0c0.1,0.7,0.3,1.4,0.4,2.1c0,0.2,0,0.4,0.1,0.5
				c0.2,1.2,0.4,2.5,0.6,3.8c0.2,1.6,0.4,3.2,0.5,4.9c0,0.5,0.1,1.1,0.1,1.7c0.1,1.1,0.2,2.3,0.3,3.5c0,0.8,0,1.5,0.1,2.3
				c0.1,2,0.1,4.1,0.1,6.2V200c0-1,0-2.1,0.1-3.1c0.1-0.9,0.2-1.8,0.3-2.6c0.3-2,0.7-4,1.4-5.8c0.1-0.6,0.4-1.2,0.6-1.8
				c0.2-0.5,0.4-1.1,0.6-1.6c0.2-0.5,0.5-1,0.8-1.5c0,0,0-0.1,0-0.1c0-0.1,0.1-0.3,0.2-0.4c0.1-0.3,0.3-0.5,0.5-0.8
				c0-0.2,0.1-0.3,0.2-0.5c0-0.1,0.1-0.2,0.2-0.3c0,0,0-0.1,0-0.1c0.2-0.4,0.5-0.8,0.7-1.1c0.3-0.5,0.7-1,1-1.4
				c0.5-0.6,0.9-1.2,1.4-1.8c0.5-0.6,1.1-1.2,1.7-1.7c0.6-0.6,1.3-1.2,2-1.7c0.7-0.5,1.4-1,2.1-1.5c0.9-0.5,1.8-1,2.7-1.4
				c0.2-0.1,0.4-0.2,0.6-0.3c0,0,0,0,0.1,0c0.2-0.1,0.5-0.2,0.7-0.3c1.8-0.7,3.6-1.1,5.4-1.3c0.8-0.1,1.7-0.1,2.5-0.1
				c0.6,0,1.2,0,1.8,0.1c0.4,0,0.8,0,1.2,0.1c0.4,0,0.8,0.1,1.2,0.2c0.5,0.1,1,0.2,1.5,0.4c0.6,0.1,1.2,0.3,1.8,0.5
				c0.5,0.2,1,0.4,1.5,0.6c0.5,0.2,1,0.5,1.5,0.7c2,1,3.9,2.3,5.7,3.9c0.4,0.4,0.8,0.7,1.2,1.1c3.4,3.3,6.5,7.8,9.1,13.6
				c0.4,0.8,0.7,1.6,1,2.4c0,0,0,0,0,0h0c0,0,0,0,0,0c0,0,0,0,0,0.1c0.4,0.9,0.7,1.9,1,3c0.2,0.5,0.4,1,0.5,1.5
				c0.2,0.7,0.5,1.4,0.6,2.2c0.4,1.3,0.7,2.6,1,3.9c0.2,0.9,0.4,1.8,0.6,2.8c0.3,1.3,0.5,2.5,0.7,3.9c0.2,1.4,0.5,3,0.6,4.6
				c0.1,1.3,0.3,2.6,0.4,3.9c0.1,1.4,0.2,2.8,0.3,4.2v0.3c0,1.3,0.1,2.5,0.1,3.8C327.2,228,327.2,229.3,327.2,230.6z"/>
		</g>
		<g>
			<g>
				<path class="st2" d="M203.6,139.2c3,9,4.8,20.5,4.8,34.9v-2.3c0-9.5,3.1-17.3,8-22.8C212.3,145.9,208,142.7,203.6,139.2z"/>
			</g>
			<g>
				<path class="st2" d="M267.8,202.3V200c0-7.9,2.2-14.6,5.6-19.8c-2.6-0.9-5.3-2-7.9-3C267,184.5,267.8,192.7,267.8,202.3z"/>
			</g>
			<g>
				<path class="st2" d="M473.1,152.2c0-1.4,0-2.8-0.2-4.2c0-0.9-0.1-1.8-0.2-2.7c0-0.5-0.1-1.1-0.2-1.7c-0.3-2.2-0.7-4.4-1.3-6.5
					c-0.3-1.1-0.6-2.2-0.9-3.3c-0.2-0.8-0.5-1.5-0.8-2.3c-0.2-0.7-0.5-1.5-0.8-2.2c-0.4-0.9-0.7-1.8-1.1-2.7c-0.2-0.5-0.4-1-0.7-1.4
					c-0.3-0.7-0.6-1.4-1-2.2c-0.5-0.9-1-1.9-1.5-2.8c-0.3-0.5-0.5-0.9-0.8-1.4c-1.2-1.9-2.4-3.8-3.7-5.6c-0.8-1.1-1.6-2.2-2.5-3.2
					c-4.8-6-10.6-11.7-17.3-17c-1-0.8-2.1-1.7-3.2-2.5c-8.9-6.7-19.2-12.8-30.6-18.4c-20.9-10.3-45.7-18.7-72.4-25.3
					c-7-1.8-14.2-3.3-21.4-4.8c-0.4,0-0.7-0.1-1-0.2c-2.4-0.5-4.8-0.9-7.2-1.4c-2.5-0.5-5.1-0.9-7.6-1.4c-2.6-0.5-5.1-0.9-7.7-1.3
					c-2.6-0.4-5.1-0.8-7.7-1.2c-2.8-0.4-5.5-0.8-8.3-1.2c-5-0.7-10-1.4-15.1-1.9c-10.2-1.2-20.3-2.1-30.5-2.8
					c-0.7,0-1.3-0.1-1.9-0.1c-3-0.2-5.9-0.4-8.8-0.5c-1.9-0.1-3.9-0.2-5.8-0.3c-17.6-0.8-35.1-1-51.9-0.5
					c-5.8,0.2-11.5,0.4-17.1,0.8c-7.5,0.5-14.9,1-22.1,1.8c-0.1,0-0.3,0-0.5,0c-2.6,0.2-5.1,0.5-7.6,0.8c-6,0.7-11.8,1.5-17.5,2.4
					c-1.8,0.3-3.4,0.5-5.1,0.9c-9.7,1.7-18.8,3.6-27.3,5.9c-2.1,0.6-4.2,1.2-6.2,1.8c-17.2,5.1-24.6,13-24.6,21.5v58.7
					c0,4.6-0.3,9.1,0.1,13.3c0,0.5,0.1,1.1,0.2,1.6c0.4,2.2,0.9,4.2,2,6.1c0.2,0.5,0.5,0.9,0.7,1.3c0.9,1.3,2.1,2.6,3.5,3.7
					c0.6,0.5,1.2,0.9,1.9,1.3c0.7,0.5,1.4,0.8,2.3,1.2c3.2,1.6,7.4,2.8,12.7,3.7c7.7,1.2,15.3,2.7,22.8,4.4c4.6,1,9.5,3.1,14.6,6
					c1,0.6,2.1,1.2,3.1,1.8c0-0.4,0-0.7,0-1c-1-0.5-1.9-1-2.9-1.5c-0.1-0.1-0.3-0.2-0.5-0.2c-0.1,0-0.2-0.1-0.3-0.1
					c-0.5-0.2-1-0.5-1.5-0.7v-49.1c0-0.9,0-1.9,0.1-2.8c0-0.8,0.1-1.5,0.3-2.3c0,0,0,0,0,0v0c0.2-1.4,0.4-2.8,0.7-4.1
					c0.2-0.6,0.3-1.3,0.5-1.9c0.2-0.6,0.4-1.2,0.6-1.8c1.2-3.2,2.8-6.1,4.8-8.6c0.3-0.3,0.5-0.7,0.8-0.9c0.1-0.1,0.2-0.3,0.3-0.4
					c0.1-0.1,0.3-0.3,0.4-0.4c0.1-0.2,0.2-0.3,0.4-0.4c0.2-0.2,0.5-0.5,0.7-0.7c0.2-0.3,0.5-0.5,0.7-0.7c1-0.9,2.1-1.7,3.2-2.4
					c1.3-0.9,2.7-1.5,4.2-2.1h0c1.1-0.5,2.2-0.8,3.3-1c0.7-0.2,1.4-0.3,2-0.4c1.2-0.2,2.4-0.2,3.7-0.1c0.3,0,0.6,0,0.9,0
					c0.5,0,0.9,0,1.4,0.1c0.3,0,0.6,0.1,0.9,0.1c0,0,0.1,0,0.1,0c0.4,0.1,0.7,0.1,1,0.2c0.4,0,0.7,0.1,1,0.3c0.7,0.2,1.4,0.4,2,0.7
					c0.4,0.1,0.8,0.3,1.2,0.5c1,0.5,2.1,1,3.2,1.7c0.5,0.3,0.9,0.6,1.4,0.9c0.1,0,0.2,0.1,0.3,0.2c0.7,0.5,1.4,1.1,2.1,1.7
					c0.7,0.6,1.4,1.3,2.1,2c0.6,0.6,1.2,1.3,1.8,2.1c3.4,4.3,6.4,9.9,8.7,17c0.5,1.6,1,3.2,1.4,5c0.2,0.7,0.4,1.5,0.5,2.3
					c0.2,0.9,0.4,1.9,0.6,2.9c0.2,1,0.4,1.9,0.5,3c0.2,1.1,0.4,2.3,0.5,3.6c0.1,0.7,0.2,1.4,0.3,2.2c0.2,1.9,0.4,3.9,0.5,6
					c0.1,1.3,0.1,2.5,0.2,3.8c0,0.9,0,1.7,0,2.6c0,0.9,0,1.8,0,2.7v-2.3c0-2,0.1-4,0.4-5.9c0.1-0.8,0.3-1.6,0.5-2.4
					c0.1-0.6,0.3-1.3,0.5-1.9c0.1-0.5,0.3-0.9,0.4-1.4c0.2-0.6,0.4-1.1,0.6-1.7c0.9-2.3,2-4.5,3.2-6.5c0.3-0.4,0.5-0.8,0.9-1.2
					c0-0.1,0.1-0.2,0.1-0.2c0.1-0.1,0.2-0.2,0.2-0.3c0,0,0,0,0,0c0.5-0.6,0.9-1.2,1.5-1.7c0.5-0.5,1-1.1,1.5-1.6
					c0.5-0.5,1.1-1,1.6-1.4c0.3-0.3,0.7-0.5,1-0.8c0,0,0,0,0,0c0.8-0.6,1.6-1.1,2.5-1.5c0,0,0,0,0,0c1.2-0.7,2.4-1.2,3.7-1.6
					c0.6-0.2,1.1-0.4,1.7-0.5c0,0,0,0,0,0c0.6-0.2,1.2-0.3,1.8-0.4c0.4-0.1,0.7-0.1,1.1-0.2c-0.3-0.2-0.5-0.5-0.8-0.7h0
					c-3.1-2.8-6.1-5.7-9.2-8.7c-1.1-1.1-2.3-2.2-3.5-3.2c-1.1-0.9-2.2-1.8-3.2-2.7c-0.9-0.7-1.9-1.4-2.8-2.2
					c-0.1-0.1-0.2-0.2-0.4-0.3c-0.5-0.4-1.1-0.8-1.6-1.1c-0.5-0.3-1-0.7-1.5-1c-0.5-0.4-1-0.7-1.5-1c-1-0.7-2.1-1.4-3.1-1.9
					c-0.7-0.5-1.4-0.9-2.1-1.2c-3.5-2-7.1-3.8-10.7-5.4h0c0,0,0,0-0.1,0c-1.6-0.7-3.2-1.4-4.9-2c-1.2-0.5-2.4-0.9-3.6-1.4
					c-0.4-0.1-0.8-0.3-1.2-0.5h0c-0.3-0.1-0.6-0.2-0.9-0.3c-0.7-0.3-1.4-0.5-2.2-0.7c-1-0.3-1.9-0.6-2.9-0.9c-1.2-0.4-2.4-0.7-3.6-1
					c-0.7-0.2-1.4-0.4-2.1-0.6c-0.7-0.2-1.4-0.4-2.1-0.5c-0.8-0.2-1.6-0.4-2.4-0.6c-1.3-0.3-2.5-0.6-3.8-0.9c-0.7-0.1-1.4-0.3-2-0.4
					c-0.7-0.1-1.4-0.3-2.1-0.5c-1.1-0.2-2.3-0.4-3.4-0.6c-0.8-0.1-1.6-0.3-2.3-0.4c-1.8-0.3-3.7-0.5-5.5-0.8
					c-2.4-0.3-4.7-0.6-6.9-0.8c-1.6-0.1-3.2-0.3-4.6-0.4c-0.6,0-1.2-0.1-1.8-0.1c-1.2-0.1-2.3-0.2-3.3-0.2c-0.5,0-1-0.1-1.5-0.1
					c-0.8,0-1.5-0.1-2.2-0.1c-0.4,0-0.7,0-1,0c-1.4-0.1-2.7-0.1-3.7-0.2c-0.3,0-0.5,0-0.7,0c-0.7,0-1.1-0.1-1.4-0.1
					c-0.1,0-0.2-0.1-0.3-0.1c0,0-0.1,0-0.1,0s0-0.1,0-0.1c0.1,0,0.4-0.1,0.8-0.3c3.1-0.8,6.2-1.6,9.4-2.3c2.3-0.6,4.7-1.1,7-1.6
					c2.7-0.6,5.4-1.2,8-1.8c2.8-0.6,5.6-1.2,8.5-1.7c1.7-0.4,3.5-0.7,5.2-0.9c1.9-0.4,3.9-0.7,5.9-1c0.8-0.1,1.5-0.3,2.3-0.4
					c1.5-0.2,3-0.5,4.6-0.7c5.1-0.8,10.2-1.5,15.3-2.1c0.7-0.1,1.4-0.2,2.1-0.3c5.4-0.6,10.8-1.2,16.2-1.7c4.4-0.4,8.8-0.7,13.2-1
					c1-0.1,1.9-0.1,2.9-0.2c2.6-0.2,5.2-0.3,7.8-0.4c2.6-0.1,5.2-0.2,7.8-0.3c5.5-0.2,11-0.2,16.5-0.2c3.6,0,7.1,0,10.6,0.1h1.2
					c2.1,0,4.1,0.1,6.1,0.2c0.3,0,0.6,0,0.9,0c0.3,0,0.5,0,0.8,0c2.7,0.1,5.3,0.2,7.9,0.4c3.2,0.1,6.3,0.3,9.5,0.5
					c3.7,0.3,7.4,0.5,11,0.9c3.2,0.3,6.3,0.6,9.4,0.9c2.1,0.2,4.2,0.5,6.4,0.7c0.4,0,0.8,0.1,1.1,0.1c1.4,0.2,2.9,0.4,4.3,0.6
					c2.3,0.3,4.5,0.6,6.7,0.9c3.1,0.5,6.1,0.9,9.1,1.4c3,0.5,6,1,9,1.6c3.3,0.6,6.7,1.3,10,1.9c2,0.4,4.1,0.9,6.1,1.3
					c0.7,0.1,1.4,0.3,2.2,0.5c2.1,0.5,4.3,1,6.4,1.5c0.5,0.1,1.1,0.3,1.7,0.4c2.8,0.7,5.5,1.4,8.3,2.1c2,0.5,4.1,1.1,6.1,1.7
					c1.2,0.4,2.4,0.7,3.7,1.1c2,0.6,4,1.2,6,1.8c4.6,1.4,9.2,3,13.6,4.6c0,0,0.1,0,0.2,0.1c1.6,0.5,3.1,1.1,4.6,1.7
					c8.1,3,15.8,6.2,23.2,9.7c1.8,0.8,3.7,1.7,5.5,2.6c3.1,1.5,6.1,3.1,9.1,4.7c3,1.6,5.9,3.2,8.7,5h0c1.8,1.1,3.6,2.2,5.3,3.3
					c0.5,0.3,1.1,0.7,1.6,1c1.2,0.8,2.4,1.6,3.6,2.4c0.5,0.3,0.9,0.6,1.4,0.9c0.9,0.6,1.9,1.3,2.8,2l0.1,0.1
					c1.3,0.9,2.5,1.8,3.8,2.8c2,1.5,3.9,3,5.8,4.6c0.7,0.5,1.4,1.1,2,1.7c0.6,0.5,1.3,1.1,1.9,1.7c1.3,1.2,2.6,2.4,3.9,3.6
					c1.5,1.4,3,2.9,4.4,4.4c0.7,0.7,1.4,1.5,1.9,2.2c0.6,0.8,1.2,1.5,1.7,2.3c1.1,1.5,1.9,3,2.6,4.6c0.3,0.8,0.6,1.5,0.9,2.3
					c0.2,0.6,0.4,1.2,0.5,1.8c0.1,0.4,0.2,0.8,0.2,1.1c0,0,0,0.1,0,0.2c0.1,0.5,0.2,1,0.2,1.5c0.1,0.8,0.1,1.6,0.1,2.3
					c0,0.5,0,1,0,1.6c0,0,0,0.1,0,0.1c0,0.1,0,0.1,0,0.2c0,0.3,0,0.6-0.1,0.9c0,0.1,0,0.2,0,0.3v0c0,0.4-0.1,0.6-0.2,0.9
					c0,0.3-0.1,0.6-0.2,0.9c0,0.4-0.1,0.7-0.2,1c-0.2,0.8-0.4,1.6-0.7,2.3c-0.1,0.4-0.3,0.7-0.4,1c0,0.1,0,0.1-0.1,0.2
					c-0.1,0.3-0.2,0.6-0.4,0.9c0,0.1,0,0.2-0.1,0.3c-0.1,0.3-0.2,0.5-0.3,0.7c0,0.1-0.1,0.2-0.2,0.3c-0.3,0.5-0.5,1.1-0.9,1.6
					c-0.4,0.6-0.8,1.2-1.2,1.8c0,0,0,0.1-0.1,0.2c-0.4,0.6-0.8,1.1-1.2,1.7c-0.2,0.2-0.4,0.5-0.5,0.7c-0.2,0.2-0.3,0.4-0.5,0.5
					c-0.9,1.1-1.9,2.2-3,3.2c-0.2,0.2-0.4,0.5-0.6,0.6c-0.1,0.1-0.3,0.3-0.4,0.4c-0.5,0.5-1.1,1-1.6,1.5c0,0-0.1,0.1-0.1,0.1
					c-0.1,0.1-0.3,0.2-0.5,0.4c-0.6,0.5-1.2,1-1.8,1.5l0,0c-0.2,0.1-0.3,0.3-0.5,0.4c-1,0.8-2.1,1.6-3.2,2.3
					c-0.5,0.3-0.9,0.6-1.4,0.9c-0.7,0.5-1.4,0.9-2.1,1.3c-1,0.6-2,1.1-3,1.7c-2,1.1-4.2,2.2-6.5,3.2c0,0,0,0,0,0
					c-2,0.9-4.2,1.8-6.4,2.6c-1.4,0.5-2.9,1.1-4.4,1.6c-1.5,0.5-3.1,1-4.6,1.4c-0.2,0-0.4,0.1-0.6,0.1c-0.2,0-0.4,0.1-0.6,0.2
					c-0.7,0.2-1.5,0.5-2.2,0.6c-2.1,0.5-4.2,1-6.4,1.5c-2.2,0.5-4.4,0.9-6.6,1.3c0,0,0,0,0,0c-0.2,0-0.4,0.1-0.6,0.1
					c-1,0.2-2.1,0.4-3.2,0.5c-0.7,0.1-1.4,0.2-2.2,0.3c-0.3,0.1-0.7,0.1-1,0.1c-2,0.2-4,0.5-6.1,0.6c-0.8,0.1-1.7,0.1-2.5,0.2
					c-0.1,0-0.3,0-0.5,0c-0.8,0-1.6,0.1-2.4,0.1c-1,0-2.1,0.1-3.2,0.1c-1.1,0-2.3,0.1-3.4,0.1c-1.9,0.1-3.9,0.1-5.9,0
					c-2,0-4,0-6-0.1c-1.2,0-2.3,0-3.5-0.1c-0.2,0-0.4,0-0.6,0c-0.2,0-0.4,0-0.5,0h-0.2c-0.1,0-0.2,0-0.4,0c-0.3,0-0.5,0-0.8,0
					c-0.6,0-1.3,0-1.9-0.1c-0.1,0-0.3,0-0.4,0c-3.1-0.3-6.2-0.6-9.4-0.9c-0.7-0.1-1.4-0.2-2-0.3c-1.5-0.2-3-0.4-4.5-0.6c0,0,0,0,0,0
					h0c0,0,0,0,0,0c0,0,0,0,0,0.1c0.4,0.9,0.7,1.9,1,3c0.2,0.5,0.4,1,0.5,1.5c0.2,0.7,0.5,1.4,0.6,2.2c0.4,1.3,0.7,2.6,1,3.9
					c0.2,0.9,0.4,1.8,0.6,2.8c0.3,1.3,0.5,2.5,0.7,3.9c0.2,1.4,0.5,3,0.6,4.6c0.1,1.3,0.3,2.6,0.4,3.9c0.1,1.4,0.2,2.8,0.3,4.2v0.3
					c0,1.3,0.1,2.5,0.1,3.8c0,1.3,0,2.6,0,3.9V303h-0.2v4.6c1.8,0,3.7,0,5.7,0c4.4-0.1,8.8-0.3,13.3-0.5c1.4,0,2.7-0.1,4.1-0.3
					c7.8-0.5,15.6-1.4,23.1-2.6c1.2-0.2,2.4-0.4,3.6-0.6c10.4-1.7,20.5-4,30-6.9c0.8-0.2,1.6-0.5,2.4-0.7c1.7-0.5,3.4-1.1,5.1-1.7
					s3.3-1.2,5-1.8c1.7-0.6,3.3-1.3,4.9-2c0,0,0.1,0,0.1,0c1.1-0.4,2.1-0.9,3.2-1.4c9.4-4.3,17.8-9.3,24.8-15.1
					c1.1-0.9,2.2-1.9,3.2-2.8c2.2-2,4.2-4.1,6-6.3c0.9-1,1.7-2.1,2.5-3.2c0.7-0.9,1.3-1.8,1.8-2.8c1-1.5,1.8-3.1,2.6-4.7
					c0.4-0.7,0.7-1.4,1-2.2c0.2-0.5,0.5-1,0.6-1.6c0.4-1,0.8-2.1,1.1-3.2c0.4-1.3,0.8-2.6,1-3.9c0-0.1,0-0.3,0.1-0.6v-0.1
					c0.1-0.4,0.2-0.6,0.2-0.9c0.4-2.2,0.6-4.5,0.6-6.7c0-0.9,0.1-1.8,0.1-2.8v-71.7C473.4,157.8,473.1,155.1,473.1,152.2z"/>
			</g>
		</g>
	</g>
	<g>
		<path class="st0" d="M473.1,232.2c-0.1,0.5-0.7,8.2-0.9,10.5c0,0.4-0.1,0.5-0.1,0.6c-9.3,42.2-75.1,63.2-139.4,64.3
			c-1.9,0-3.8,0-5.7,0v-81l0.1,0l6.6,2.6C333.8,229.3,400.5,324.7,473.1,232.2z"/>
	</g>
	<g>
		<path class="st0" d="M94.8,168c-1-0.6-2.1-1.2-3.1-1.8c-5.1-2.8-10-4.9-14.6-6c-7.5-1.8-15.1-3.2-22.8-4.4
			c-26.7-4.4-23.4-18-23.4-32.3V86l4.1-0.8c1.8,2,50.1,7.7,55,24.9v0c0.5,2,1.2,36.6,1.8,38.6c1.8,5.7,2.9,11.8,2.9,18.1
			C94.8,167.2,94.8,167.6,94.8,168z"/>
	</g>
	<path class="st0" d="M71.3,47.3c-4.2,2-8.5,3.7-12.8,5.6c-5.9,2.5-8.1,5.6-7.9,11.3c0.2,5.3,8.1,7.1,12.3,8.9
		c10,4.2,20.3,2.8,30.9,3c6.8,0.2,12,2.5,18.3,4.6c14.5,4.8,29,6.9,42.6,14c6,3.2,12.9,6.6,12.8,14.4c-0.1,8.2-9.7,8-13.9,13.1
		c-7.2-2.1-7.7-11.8-10.7-17.5c-2.6-4.9-5-10.9-10.4-12.5c-7-2-15.3-3.4-22.6-3.8c-3.4-0.2-7.1,0-10.2,1.1c-3.2,1.2-3.6,2.9-6.2,4.9
		C90.4,97,84.3,96,79.8,96c-10.8,0-20.7-1.6-31.2-4.2c-7.9-1.9-16.3-7.3-18.7-15.8c-3.1-11.1,1.9-16.8,10.4-22.9
		c9.8-7.1,24.2-8.4,35.5-11.6c5.6-1.6,11.4-2.4,17.2-3c4.1-0.4,10.6-2.4,15.6-1.9c-8.6-0.5-19.6,3-27.5,6.4
		C78.1,44.3,74.6,45.7,71.3,47.3z"/>
	<g>
		<g>
			<path class="st3" d="M272.7,264.3c0,9.2,5.1,28.7-4.1,28.7c-1.6,0-12.1-3.9-17.2-6c-0.9-0.3-1.8-0.7-2.8-1.1
				c-1.4-0.5-2.6-1.1-3.9-1.7c-3.2-1.4-6.3-2.8-9.3-4.3c-2.5-1.2-4.9-2.5-7.2-3.8c-0.1,0-0.2-0.1-0.4-0.2c-2.2-1.3-4.4-2.5-6.5-3.8
				c-2.3-1.4-4.4-2.8-6.6-4.2c-1.6-1-3.1-2.1-4.6-3.1c2.9-5.8,3.1-11.7,3.8-11.7c0.5,0,19.6,14,28.4,14c12.6,0,11.8-18.2,12-27.5
				c0.4-18.9,1.5-36.1-0.5-54.8c-0.5-5.1-1.7-10.1-3.8-14.5c-3-6.2-7.8-11.3-15.2-13.8c-2.8-0.9-5.4-0.9-7.7,0
				c-7.4,2.7-11.8,13.4-12.8,23.1c-0.3-3.7-0.5-7.4-0.5-11c0-7.5,1.7-13.7,4.2-18.6c1.1-2.2,2.3-4,3.7-5.6c0,0,0,0,0.1,0
				c3.7-4.5,8.2-6.8,11.7-6.8c4.3,0,26.9,3.7,28.9,27.9c0.1,1.2,0.2,2.4,0.2,3.7c0,2.1,0,4.2,0,6.3v0.5
				C262.7,193.6,272.7,220.2,272.7,264.3z"/>
		</g>
		<g>
			<path class="st3" d="M154.9,175.6c0,19.5,3.1,36-4.9,36.4c-0.3-0.3-11.1-10.7-11.4-10.9c-1-0.9-1.9-1.9-2.9-2.8
				c-0.3-0.3-0.6-0.5-0.9-0.8c-0.9-0.9-1.9-1.8-2.8-2.7c-7.8-7.1-15.1-13.4-22.2-18.6c-0.5-0.7-0.9-1.3-1.2-1.7
				c-5.2-6.1-14.8-5.2-14.8-12.7c0-18.9,15.9,6.1,30.5,6.1c9.9,0,11.2-21.2,11.2-31.3c0-22.2-14-37.8-24.2-37.8
				c-10.3,0-16.1,10-16.1,19.2c0,1.1,0.1,2.2,0.2,3.2c-0.1-0.1-0.3-0.1-0.5-0.1c-1.1,0-1.2-6.5-1.2-7.5c0-12.5,6.6-22.2,13.9-28.1
				c5.2-4.2,10.6-6.5,14.2-6.5h0.4c3.7,0.1,6.9,1.5,9.8,3.9h0c10.6,8.8,16.5,30.4,19.5,47.4c0.4,2,0.7,3.9,0.9,5.7
				c0.6,3.8,1,7.3,1.3,10c0.3,3,0.4,5.2,0.4,6.4C153.9,159.3,154.9,167.6,154.9,175.6z"/>
		</g>
		<g>
			<path class="st3" d="M329.4,281.2c0,2.2-0.8,5.1-2.2,8.3c0,0.1-0.1,0.3-0.2,0.4c-1.8,3.9-4.5,8.3-7.7,12.6
				c-1.6-0.1-3.1-0.3-4.6-0.5c-2-0.2-3.9-0.4-5.8-0.7c-0.1,0-0.2,0-0.4,0c-2.5-0.3-4.9-0.6-7.2-1c-2.4-0.4-4.8-0.8-7.2-1.2
				c-2.3-0.5-4.6-0.9-6.9-1.4c-2-0.4-4-0.9-6-1.3c-3.7-0.9-7.3-1.8-10.7-2.8c0.1-5.1,2.6-8.8,8.9-8.8c35.4,0,35.3-12.7,35.3-48.2
				c0-14.6,0.5-34.4-5.7-46.3c-3.3-6.3-8.4-10.5-16.5-10.5c-4.6,0-7.8,1.2-10.3,3.4c-3.3,2.8-5.4,7.3-8.1,12.7
				c-0.1,0.2-0.1,0.4-0.1,0.5c0,0.4,0.1,0.8,0.1,1.2c-0.6,2.5-1.7,4.5-3.4,6.5c-0.1-2.4-0.3-5.1-0.3-7.7c0-5.7,0.7-10.6,2.2-14.7
				c0-0.1,0-0.1,0.1-0.2c0,0,0-0.1,0-0.1c0.1-0.4,0.3-0.8,0.5-1.2h0c3.4-7.7,10.3-12,21.9-12c14.7,0,28.3,9.5,30.5,24.8v0
				c0.1,0.9,0.2,1.7,0.3,2.6l1.1,26.8v0.3l0.2,3.8L329.4,281.2z"/>
		</g>
		<g>
			<path class="st3" d="M212.5,232.8c0,8.1-1.7,13.7-4,17.3c-2.6,4.1-0.9,11.4-3.5,11.4l-7.2-5.7c-1.8-1.5-3.7-3-5.5-4.5
				c-2.1-1.7-4.1-3.4-6-5.1c-0.8-0.7-1.6-1.4-2.4-2.1c-7.3-6.5-14.2-13.1-21-19.7c-3.3-3.2-8.4-8.1-11.7-11.2c0,0,0,0,0,0
				c0-3-0.4-8-0.4-10.4c0-14.4,14.9,21.6,30.6,21.6c7.4,0,14.5-3.1,14.5-43.8c0-22.7-2.4-51-24.5-51c-11.6,0-15.7,7.4-17.6,16.4v0
				c-1.2,5.7-1.5,12-2.2,17.2c-0.8-5.2-1.4-11-1.4-16.8c0-5.5,0.6-10.4,1.7-14.5c0.9-3.6,2.2-6.7,3.8-9.3c0-0.1,0.1-0.2,0.1-0.2
				c0.1-0.1,0.2-0.2,0.2-0.3c0,0,0,0,0,0c4.1-6.3,9.8-9.6,15.8-10.5h0c1.2-0.2,2.5-0.3,3.7-0.3c10.4,0,21.2,7.9,25.7,21.2
				c0.1,0.1,0.1,0.2,0.1,0.3c0,0.1,0.1,0.2,0.1,0.3c0.6,1.7,1.1,3.5,1.4,5.3c0.5,2.6,0.7,5.3,0.7,8.2c0,9.7,5.1,20.1,5.1,29.9
				C208.4,196.3,212.5,199,212.5,232.8z"/>
		</g>
	</g>
	<g>
		<g>
			<g>
				<path class="st4" d="M91.9,109c-0.6,0-1.2-0.1-1.8-0.2c-3.1-0.8-6-1.6-8.9-2.3l-5.8-1.5c-7.5-2-15-3.7-22.4-5.1
					C36.3,96.8,24.1,82,24.1,64.8c0-3.7,3-6.8,6.8-6.8s6.8,3,6.8,6.8c0,10.9,7.4,19.8,17.9,21.8c7.7,1.4,15.5,3.2,23.3,5.3l5.7,1.4
					c2.9,0.7,6,1.5,9.1,2.3c3.6,1,5.8,4.7,4.8,8.3C97.6,107,94.9,109,91.9,109z"/>
			</g>
			<g>
				<path class="st4" d="M353.2,200.6c-10.6,0-21.6-0.8-32.7-2.5c-3.1-0.5-5.2-3.3-4.7-6.4c0.5-3.1,3.3-5.2,6.4-4.7
					c34,5.1,66,1.9,90.1-8.8c2.8-1.3,6.2,0,7.5,2.8c1.3,2.8,0,6.2-2.8,7.5C398.8,196.4,376.9,200.6,353.2,200.6z"/>
			</g>
			<g>
				<path class="st4" d="M427,182.1c-1.8,0-3.6-0.9-4.7-2.5c-1.7-2.6-1-6.1,1.6-7.8c10.1-6.7,16.2-14.6,17.1-22.3
					c0.6-5.7-1.6-11.2-6.5-16.4c-9.9-10.4-22.5-20.1-37.4-28.9c-2.7-1.6-3.6-5-2-7.7c1.6-2.7,5-3.6,7.7-2
					c15.9,9.3,29.3,19.7,39.9,30.9c7.3,7.6,10.6,16.5,9.6,25.5c-1.3,11.1-9.1,21.9-22,30.5C429.2,181.8,428.1,182.1,427,182.1z"/>
			</g>
			<g>
				<path class="st4" d="M384,96.3c-0.8,0-1.7-0.2-2.5-0.6c-14-6.9-29.6-13.1-46.3-18.3c-3-0.9-4.6-4.1-3.7-7.1
					c0.9-3,4.1-4.6,7.1-3.7c17.3,5.4,33.4,11.8,47.9,18.9c2.8,1.4,3.9,4.8,2.6,7.6C388.1,95.1,386.1,96.3,384,96.3z"/>
			</g>
			<g>
				<path class="st4" d="M288.7,65.7c-0.3,0-0.7,0-1-0.1C236.9,56,182,54.3,128.8,60.7c-3.1,0.4-5.9-1.8-6.3-4.9
					c-0.4-3.1,1.8-5.9,4.9-6.3c54.4-6.5,110.5-4.7,162.3,5c3.1,0.6,5.1,3.5,4.5,6.6C293.7,63.8,291.3,65.7,288.7,65.7z"/>
			</g>
			<g>
				<path class="st4" d="M172.4,118c-1.4,0-2.7-0.5-3.8-1.5c-2.4-2.2-4.7-4.4-7.2-6.7l-2.9-2.8c-31.1-29.7-79.1-31.9-94.9-32.7
					c-5.5-0.3-9.8-0.5-10.3-5.5c-0.1-0.8-0.3-5,5.1-6.4c15.2-4,30.9-7.3,46.9-9.9c3.1-0.5,6,1.6,6.5,4.7c0.5,3.1-1.6,6-4.7,6.5
					c-4.4,0.7-8.8,1.5-13.2,2.3c22.2,3.7,50.7,12.2,72.4,32.8l2.9,2.7c2.4,2.2,4.7,4.4,7.1,6.6c2.3,2.1,2.4,5.7,0.3,8
					C175.5,117.4,174,118,172.4,118z"/>
			</g>
		</g>
		<g>
			<path class="st4" d="M355.7,231.1c-5.2,0-10.5-0.1-15.8-0.4c-4.5-0.2-9-0.6-13.5-1.1c-3.7-0.4-6.4-3.7-6-7.4
				c0.4-3.7,3.7-6.4,7.4-6c4.3,0.4,8.6,0.8,12.9,1c10.1,0.6,20.2,0.6,29.8,0c3.7-0.2,6.9,2.6,7.1,6.4c0.2,3.7-2.6,6.9-6.4,7.2
				C366.1,231,360.9,231.1,355.7,231.1z"/>
		</g>
		<g>
			<path class="st4" d="M405.4,225.9c-3.1,0-5.9-2.1-6.6-5.3c-0.8-3.6,1.5-7.3,5.1-8.1c12.6-2.9,23.7-6.9,32.8-12
				c3.3-1.8,7.4-0.6,9.2,2.6c1.8,3.3,0.6,7.4-2.6,9.2c-10.3,5.7-22.5,10.2-36.4,13.3C406.4,225.9,405.9,225.9,405.4,225.9z"/>
		</g>
		<g>
			<path class="st4" d="M440,213.3c-2.4,0-4.7-1.3-5.9-3.5c-1.8-3.3-0.6-7.4,2.6-9.2c18.2-10.1,28.2-23.8,29.7-40.7
				c0.1-1.5,0.1-3.1,0-4.7c0-1-0.1-2-0.1-3.1c0-13.8-5.1-26.8-15-38.9c-2.4-2.9-2-7.1,0.9-9.5c2.9-2.4,7.1-2,9.5,0.9
				c12,14.6,18.1,30.6,18.1,47.5c0,0.9,0,1.8,0,2.7c0.1,2,0.1,4-0.1,6.2c-1.8,21.4-14.5,39.2-36.6,51.4
				C442.3,213,441.1,213.3,440,213.3z"/>
		</g>
		<g>
			<path class="st4" d="M440,99.7c-1.5,0-3-0.5-4.2-1.5c-9.1-7.3-20.4-14.2-33.3-20.5c-3.4-1.6-4.8-5.7-3.1-9c1.6-3.4,5.7-4.8,9-3.1
				c13.9,6.7,25.9,14.1,35.9,22.1c2.9,2.3,3.4,6.6,1.1,9.5C444,98.8,442,99.7,440,99.7z"/>
		</g>
		<g>
			<path class="st4" d="M333.8,53.5c-0.5,0-1.1-0.1-1.6-0.2c-37-9.1-79.1-15-121.8-17c-3.7-0.2-6.6-3.3-6.4-7.1
				c0.2-3.7,3.3-6.5,7.1-6.4c43.6,2.1,86.6,8.1,124.4,17.4c3.6,0.9,5.8,4.6,4.9,8.2C339.6,51.5,336.9,53.5,333.8,53.5z"/>
		</g>
		<g>
			<path class="st4" d="M30.9,119c-3.7,0-6.8-3-6.8-6.8V64.8c0-7.2,3.8-20.4,29.4-28c28-8.3,64.3-13.3,105.1-14.5
				c3.7-0.1,6.9,2.8,7,6.6c0.1,3.7-2.8,6.9-6.6,7c-39.6,1.2-74.8,6-101.6,14c-12.5,3.7-19.7,9.2-19.7,15v47.4
				C37.7,115.9,34.6,119,30.9,119z"/>
		</g>
		<g>
			<path class="st4" d="M105.5,180.1c-1.3,0-2.6-0.4-3.8-1.2c-9.3-6.2-17.8-10.2-26.1-12.1c-6.7-1.6-14-3-22.4-4.3
				C25.8,158,23.7,143.6,24,129.3c0.1-3.7,3.2-6.8,6.9-6.6c3.7,0.1,6.7,3.2,6.6,6.9c-0.2,10.3-0.3,16.6,17.8,19.5
				c8.6,1.4,16.3,2.9,23.3,4.5c10,2.3,20,6.9,30.7,14.1c3.1,2.1,3.9,6.3,1.8,9.4C109.8,179,107.7,180.1,105.5,180.1z"/>
		</g>
		<g>
			<path class="st4" d="M346.2,310.4c-6.4,0-12.9-0.2-19.4-0.6l-2.9-0.2c-3.5-0.2-6.7-0.6-9.9-0.9c-0.9-0.1-1.8-0.2-2.7-0.3
				c-3.7-0.4-6.4-3.8-6-7.5c0.4-3.7,3.8-6.4,7.5-6c0.8,0.1,1.7,0.2,2.5,0.3c3.1,0.3,6.2,0.6,9.4,0.8l2.7,0.2
				c16.6,1,32.6,0.7,47.8-0.9c3.7-0.4,7,2.3,7.4,6c0.4,3.7-2.3,7-6,7.4C366.7,309.8,356.6,310.4,346.2,310.4z"/>
		</g>
		<g>
			<path class="st4" d="M405.4,303.8c-3.1,0-5.8-2.1-6.6-5.2c-0.9-3.6,1.3-7.3,5-8.2c14.1-3.4,26.1-8.1,35.7-13.9
				c3.2-1.9,7.4-0.9,9.3,2.3c1.9,3.2,0.9,7.4-2.3,9.3c-10.8,6.5-24.1,11.7-39.5,15.4C406.5,303.7,406,303.8,405.4,303.8z"/>
		</g>
		<g>
			<path class="st4" d="M456.5,279c-1.8,0-3.6-0.7-4.9-2.1c-2.6-2.7-2.5-7,0.2-9.6c7.6-7.2,12.1-15.7,13.6-25c0.6-3.8,1-7,1-10.1
				v-15.9c0-3.7,3-6.8,6.8-6.8c3.7,0,6.8,3,6.8,6.8v15.9c0,4.2-0.5,8.3-1.1,12.1c-1.9,12.4-7.8,23.4-17.6,32.8
				C459.9,278.4,458.2,279,456.5,279z"/>
		</g>
		<g>
			<path class="st4" d="M473.1,223.1c-3.7,0-6.8-3-6.8-6.8v-55.9c0-3.7,3-6.8,6.8-6.8c3.7,0,6.8,3,6.8,6.8v55.9
				C479.9,220.1,476.9,223.1,473.1,223.1z"/>
		</g>
		<g>
			<path class="st4" d="M327.2,305.3c-3.7,0-6.8-3-6.8-6.8v-67.9c0-23.9-5.3-37.1-9.7-44c-4.6-7.2-10.7-11.1-17-11.1
				c-9.4,0-19.2,9.2-19.2,24.6v88.2c0,3.7-3,6.8-6.8,6.8s-6.8-3-6.8-6.8v-85.9c0-23.9-5.3-37.1-9.7-44c-4.6-7.2-10.7-11.1-17-11.1
				c-9.4,0-19.2,9.2-19.2,24.6v87.5c0,3.7-3,6.8-6.8,6.8s-6.8-3-6.8-6.8v-85.2c0-33.1-9.8-46-15.6-50.8c-2.9-2.4-3.3-6.6-0.9-9.5
				c2.4-2.9,6.6-3.3,9.5-0.9c6.3,5.2,13.4,14.4,17.4,31c6.2-6.5,14.3-10.1,22.4-10.1c11.1,0,21.2,6.2,28.4,17.4
				c3.8,5.9,6.6,12.9,8.6,21c6.2-6.5,14.3-10.1,22.4-10.1c11.1,0,21.2,6.2,28.4,17.4c7.8,12.2,11.8,29.4,11.8,51.3v67.9
				C334,302.2,331,305.3,327.2,305.3z"/>
		</g>
		<g>
			<path class="st4" d="M190.3,124.8c-1.5,0-3-0.5-4.3-1.5c-4.9-4-10.6-5.3-16.1-3.4c-3.5,1.2-7.4-0.7-8.6-4.3s0.7-7.4,4.3-8.6
				c9.9-3.3,20.4-1.2,28.9,5.8c2.9,2.4,3.3,6.6,0.9,9.5C194.2,123.9,192.3,124.8,190.3,124.8z"/>
		</g>
		<g>
			<path class="st4" d="M149,213.4c-3.7,0-6.8-3-6.8-6.8v-60.8c0-23.9-5.3-37.1-9.7-44c-4.6-7.2-10.7-11.1-17-11.1
				c-9.4,0-19.2,9.2-19.2,24.6v44.6c0,3.7-3,6.8-6.8,6.8c-3.7,0-6.8-3-6.8-6.8v-44.6c0-23.8,16.6-38.1,32.7-38.1
				c11.1,0,21.2,6.2,28.4,17.4c3.7,5.8,6.6,12.8,8.6,20.9c3.6-3.8,8-6.8,13.1-8.5c3.6-1.2,7.4,0.7,8.6,4.3c1.2,3.5-0.7,7.4-4.3,8.6
				c-8.6,2.9-14.2,12.2-14.2,23.7v63.1C155.8,210.3,152.8,213.4,149,213.4z"/>
		</g>
	</g>
	<polygon class="st1" points="114.4,217.2 109,216 103.6,215.5 103.1,210 101.9,204.7 106.9,202.5 111.6,199.8 115.2,203.9 
		119.3,207.5 116.5,212.2 	"/>
	<polygon class="st1" points="161.7,255 158.9,259.6 156.6,264.6 151.3,263.3 145.9,262.7 145.5,257.3 144.4,252 149.4,249.9 
		154.1,247.2 157.7,251.3 	"/>
	<polygon class="st1" points="129.7,290.5 126.8,295.2 124.6,300.1 119.3,298.9 113.9,298.2 113.4,292.8 112.3,287.5 117.4,285.4 
		122.1,282.7 125.7,286.8 	"/>
	<polygon class="st0" points="185.7,286.3 182.9,291 180.6,295.9 175.3,294.7 169.9,294 169.5,288.6 168.4,283.3 173.4,281.2 
		178.1,278.5 181.7,282.6 	"/>
	<polygon class="st0" points="60,176.7 58.2,179.6 56.8,182.7 53.5,181.9 50.1,181.6 49.8,178.2 49.1,174.8 52.3,173.5 55.2,171.8 
		57.5,174.4 	"/>
	<polygon class="st1" points="264.2,315.6 262.4,318.5 261,321.6 257.7,320.8 254.3,320.4 254,317 253.4,313.7 256.5,312.4 
		259.5,310.7 261.7,313.3 	"/>
	<polygon class="st1" points="76.6,201.8 77,206 77.9,210 74.1,211.6 70.6,213.7 67.8,210.6 64.7,207.9 66.8,204.4 68.5,200.6 
		72.5,201.5 	"/>
	<polygon class="st1" points="277.6,346.6 275.3,350 273.4,353.7 269.4,352.5 265.4,351.9 265.2,347.7 264.6,343.7 268.5,342.3 
		272.2,340.4 274.7,343.7 	"/>
	<polygon class="st0" points="310.5,323.6 310.9,327.7 311.8,331.8 308.1,333.4 304.5,335.5 301.8,332.4 298.7,329.7 300.8,326.2 
		302.4,322.4 306.4,323.3 	"/>
	<polygon class="st1" points="227.6,289.6 228,293.7 228.9,297.7 225.1,299.4 221.6,301.5 218.8,298.4 215.7,295.7 217.8,292.1 
		219.5,288.3 223.5,289.2 	"/>
	<polygon class="st1" points="188.9,321.9 186.8,322.4 184.8,323.1 183.7,321.3 182.4,319.6 183.8,317.9 185,316.2 187,317 
		189.1,317.6 188.9,319.8 	"/>
	<polygon class="st1" points="287.7,312 285.6,312.5 283.6,313.2 282.5,311.4 281.2,309.6 282.6,308 283.8,306.2 285.8,307.1 
		287.9,307.7 287.7,309.8 	"/>
	<polygon class="st0" points="99,258.7 96.3,259.3 93.6,260.3 92.2,257.8 90.5,255.6 92.3,253.5 93.9,251.1 96.5,252.3 99.2,253.1 
		99,255.9 	"/>
	<polygon class="st1" points="128.4,237.6 126.3,238.1 124.3,238.8 123.2,237 121.8,235.2 123.3,233.6 124.5,231.8 126.5,232.7 
		128.5,233.3 128.3,235.4 	"/>
	<polygon class="st3" points="114.4,138.9 113.1,139.2 111.9,139.7 111.2,138.5 110.4,137.5 111.2,136.5 112,135.4 113.2,135.9 
		114.5,136.3 114.4,137.6 	"/>
	<polygon class="st3" points="123.4,150.6 122.1,150.9 120.8,151.4 120.1,150.2 119.3,149.2 120.2,148.2 120.9,147.1 122.2,147.6 
		123.5,148 123.3,149.3 	"/>
	<polygon class="st3" points="174.5,141.1 173.2,141.4 172,141.8 171.3,140.7 170.5,139.6 171.3,138.6 172.1,137.5 173.3,138.1 
		174.6,138.4 174.5,139.8 	"/>
	<polygon class="st3" points="177.2,174.1 175.9,174.4 174.6,174.8 174,173.7 173.1,172.6 174,171.6 174.8,170.5 176,171.1 
		177.3,171.4 177.2,172.8 	"/>
	<polygon class="st3" points="164.4,194.9 163.1,195.2 161.8,195.6 161.1,194.5 160.3,193.4 161.2,192.4 162,191.3 163.2,191.8 
		164.5,192.2 164.3,193.6 	"/>
	<polygon class="st3" points="184.1,207.5 182.8,207.8 181.6,208.2 180.9,207.1 180.1,206 180.9,205 181.7,203.9 182.9,204.5 
		184.2,204.8 184.1,206.2 	"/>
	<polygon class="st3" points="289.8,218.6 288.5,218.9 287.3,219.3 286.6,218.2 285.8,217.1 286.7,216.1 287.4,215 288.7,215.5 
		289.9,215.9 289.8,217.2 	"/>
	<polygon class="st3" points="230.4,173.3 229.1,173.6 227.8,174.1 227.1,172.9 226.3,171.8 227.2,170.8 227.9,169.7 229.2,170.3 
		230.4,170.6 230.3,172 	"/>
	<polygon class="st3" points="246.3,199.2 245,199.5 243.7,199.9 243,198.8 242.2,197.7 243.1,196.7 243.9,195.6 245.1,196.2 
		246.4,196.5 246.2,197.9 	"/>
	<polygon class="st3" points="311.6,234.6 310.3,234.9 309.1,235.3 308.4,234.2 307.6,233.1 308.5,232.1 309.2,231 310.4,231.5 
		311.7,231.9 311.6,233.2 	"/>
	<polygon class="st3" points="299.8,201.2 298.5,201.5 297.3,201.9 296.6,200.8 295.8,199.7 296.7,198.7 297.4,197.6 298.6,198.1 
		299.9,198.5 299.8,199.8 	"/>
	<polygon class="st3" points="289.8,276.7 288.5,277 287.3,277.5 286.6,276.3 285.8,275.3 286.7,274.3 287.4,273.2 288.7,273.7 
		289.9,274.1 289.8,275.4 	"/>
	<polygon class="st3" points="226.2,219.7 224.9,220 223.6,220.4 223,219.3 222.2,218.2 223,217.2 223.8,216.1 225,216.6 226.3,217 
		226.2,218.3 	"/>
	<polygon class="st3" points="224.3,248.6 223,248.9 221.7,249.3 221.1,248.2 220.2,247.1 221.1,246.1 221.9,245 223.1,245.5 
		224.4,245.9 224.3,247.2 	"/>
	<polygon class="st3" points="242.1,242.4 240.8,242.7 239.6,243.1 238.9,242 238.1,240.9 239,239.9 239.7,238.8 240.9,239.3 
		242.2,239.7 242.1,241 	"/>
	<polygon class="st3" points="297.8,250.7 296.5,251 295.2,251.5 294.5,250.3 293.7,249.3 294.6,248.3 295.3,247.2 296.6,247.7 
		297.8,248.1 297.7,249.4 	"/>
	<polygon class="st0" points="223.4,335.9 222.3,334.1 221,332.4 222.4,330.7 223.6,328.9 225.6,329.8 227.6,330.4 227.5,332.5 
		227.6,334.7 225.5,335.2 	"/>
	<polygon class="st0" points="155.5,339 154.4,337.2 153,335.5 154.4,333.8 155.6,332 157.6,332.9 159.7,333.4 159.5,335.6 
		159.6,337.8 157.5,338.3 	"/>
	<polygon class="st1" points="88.5,185.8 86.4,186.3 84.4,187 83.3,185.1 81.9,183.4 83.4,181.8 84.6,180 86.6,180.9 88.6,181.5 
		88.4,183.6 	"/>
</g>
</svg>
