<svg xmlns="http://www.w3.org/2000/svg" viewBox="0 0 377.47 129.61"><title>Asset 2</title><path d="M188.47,20.51c-4.3,1.1,27.3-2.2,46.2,15.7,17.3,16.4,32.3,27.6,43.7,32.4,54.5,22.9,97.3-3,80.5-20.6C329.77,17.41,254.77,3.11,188.47,20.51Z" style="fill:#eac1c1"/><path d="M308.87,93.71v32.6h-.1c-.4,0-.8-.1-1.3-.1-.8-.1-1.5-.1-2.2-.2s-1.4-.1-2.1-.2l-2.6-.3h-.2c-1.1-.1-2.2-.3-3.2-.4s-2.2-.3-3.2-.5-2.1-.4-3.1-.6l-2.7-.6c-1.7-.4-3.3-.8-4.8-1.3-1.2-.3-2.4-.7-3.6-1.1-.7-.2-1.4-.5-2.1-.7-1-.3-1.9-.7-2.9-1.1a6.12,6.12,0,0,1-1.2-.5,14.17,14.17,0,0,1-1.8-.8c-1.4-.6-2.8-1.3-4.2-1.9a32.39,32.39,0,0,1-3.2-1.7c-.1,0-.1-.1-.2-.1-1-.6-2-1.1-2.9-1.7s-2-1.2-3-1.9c-.7-.5-1.4-.9-2.1-1.4a5.58,5.58,0,0,0-.8-.5h0l-4.5-3.3-.3-.3h0c-.8-.7-1.7-1.3-2.5-2s-1.8-1.5-2.7-2.3c-.4-.3-.7-.6-1.1-.9-3.3-2.9-6.4-5.9-9.5-8.9-1.5-1.4-3-2.9-4.5-4.3l-.2-.2c-.3-.2-.5-.5-.8-.7-.6-.6-1.3-1.3-2-1.9-1.1-1-2.1-2-3.1-3-.1-.1-.3-.2-.4-.4a14.2,14.2,0,0,0-1.3-1.2c-.1-.1-.3-.2-.4-.4-.4-.4-.9-.8-1.3-1.2-3.5-3.2-6.8-6-10-8.4a.1.1,0,0,1-.1-.1,12.13,12.13,0,0,1-1.4-1c-.1-.1-.2-.1-.3-.2a10.54,10.54,0,0,1-1.1-.7c-.4-.2-.7-.5-1.1-.7a2.51,2.51,0,0,0-.7-.4,5.74,5.74,0,0,1-.7-.4,9.14,9.14,0,0,0-1.4-.7c-.4-.2-.9-.5-1.3-.7-.1,0-.1-.1-.2-.1a.1.1,0,0,1-.1-.1,4.88,4.88,0,0,0-.7-.3V40.51c0-.3.1-.7.1-1h0l.3-1.8c.1-.3.1-.6.2-.9s.2-.5.3-.8a12.36,12.36,0,0,1,2.2-3.9c.1-.1.2-.3.4-.4a1.38,1.38,0,0,0,.3-.4l.2-.2.3-.3.3-.3a7.55,7.55,0,0,1,1.4-1.1,11.4,11.4,0,0,1,1.9-1h0a8.33,8.33,0,0,1,1.5-.4c.3-.1.6-.1.9-.2a8.6,8.6,0,0,1,1.6-.1h.4a1.27,1.27,0,0,1,.6.1.6.6,0,0,1,.4.1h.1c.2,0,.3.1.5.1s.3.1.5.1l.9.3c.2.1.4.1.5.2a3.92,3.92,0,0,1,1.4.8c.2.1.4.3.6.4a.1.1,0,0,1,.1.1,6.47,6.47,0,0,1,.9.8l.9.9c.3.3.5.6.8.9a23,23,0,0,1,3.9,7.7c.1.4.3.8.4,1.2s.2.6.3,1a3.55,3.55,0,0,1,.2,1c.1.4.2.9.3,1.3a5.85,5.85,0,0,1,.2,1.3,8.75,8.75,0,0,1,.2,1.6,3.08,3.08,0,0,1,.1,1,24.52,24.52,0,0,1,.2,2.7c0,.6.1,1.1.1,1.7v1.4a21.12,21.12,0,0,1,.2-2.6c.1-.4.1-.7.2-1.1s.1-.6.2-.9.1-.4.2-.6.2-.5.3-.8a13.23,13.23,0,0,1,1.5-2.9,1,1,0,0,1,.4-.5,829303603207.09,829303603207.09,0,0,1,.2-.2h0a5,5,0,0,1,.7-.8,4.62,4.62,0,0,1,.7-.7c.2-.2.5-.4.7-.6s.3-.2.4-.3h0a6.73,6.73,0,0,1,1.1-.7h0a8.65,8.65,0,0,1,1.7-.7,2.35,2.35,0,0,1,.8-.2h0c.3-.1.5-.1.8-.2s.3-.1.5-.1h.2a11.33,11.33,0,0,1,2.6.1,2.92,2.92,0,0,1,.9.2c.2.1.4.1.6.2.4.1.7.3,1.1.4s.6.3.9.4a3.51,3.51,0,0,1,.8.5,5.5,5.5,0,0,1,.9.7h0c.3.2.5.5.8.7l.7.7c.1.1.2.2.2.3a7.05,7.05,0,0,1,.7.9l.6.9a17.25,17.25,0,0,1,1.5,2.7c.1.1.1.3.2.4s.1.1,0,.1v.1c.1.1.1.3.2.4s.1.3.2.4c.1.3.3.7.4,1.1l.3.9h0c0,.1,0,.2.1.2v.1c0,.1.1.2.1.4l.3.9a2.92,2.92,0,0,1,.2.9l.3,1.2c.1.4.2.9.3,1.4s.2,1.2.3,1.7.1,1,.2,1.5c.2,2.2.4,4.6.4,7.2v-1a8.6,8.6,0,0,1,.1-1.6c0-.3.1-.7.1-1a.9.9,0,0,1,.1-.5,16.83,16.83,0,0,1,1.8-5.2,7.49,7.49,0,0,1,1.5-2h0a6,6,0,0,1,.8-.8c.3-.3.6-.5.9-.8.2-.1.4-.3.6-.4h0c.2-.1.4-.3.6-.4s.6-.3.9-.5a6.89,6.89,0,0,1,.8-.3h.1a11.63,11.63,0,0,1,1.8-.4h0c.2,0,.3-.1.5-.1s.6-.1.9-.1a5.54,5.54,0,0,1,1.8.2,2.92,2.92,0,0,1,.9.2,7.84,7.84,0,0,1,1.4.5l.6.3a14.83,14.83,0,0,1,2.7,1.9c.2.1.3.3.5.5a14.16,14.16,0,0,1,1.8,2.2c.2.2.3.5.5.7a4.05,4.05,0,0,1,.5.9,21,21,0,0,1,1.8,4c.1.4.3.8.4,1.2a23.39,23.39,0,0,1,1,4h0c.1.3.1.6.2,1v.2c.1.5.2,1.1.3,1.7a15,15,0,0,1,.2,2.2,2.49,2.49,0,0,0,.1.8c0,.5.1,1,.1,1.6v1.1c0,.9.1,1.8.1,2.8v-2.4c0-.4.1-.8.1-1.2a11,11,0,0,1,.6-2.6c.1-.3.2-.5.3-.8s.2-.5.3-.7.2-.5.3-.7v-.1c0-.1,0-.1.1-.2s.1-.2.2-.3.1-.1.1-.2a.1.1,0,0,1,.1-.1h0c.1-.2.2-.3.3-.5s.3-.4.4-.6.4-.5.6-.8a6,6,0,0,1,.8-.8c.3-.3.6-.5.9-.8a8.65,8.65,0,0,1,1-.7l1.2-.6c.1,0,.2-.1.3-.1h0c.1,0,.2-.1.3-.1a10.55,10.55,0,0,1,2.4-.6c.4,0,.8-.1,1.1-.1h.8a.9.9,0,0,1,.5.1.75.75,0,0,1,.5.1,1.85,1.85,0,0,1,.7.2c.3.1.5.1.8.2a43170720256858,43170720256858,0,0,1,1.4.6,10.17,10.17,0,0,1,2.6,1.8c.2.2.4.3.5.5a20.92,20.92,0,0,1,4.1,6.1,3.58,3.58,0,0,1,.4,1.1h0c.2.4.3.9.5,1.3a1.45,1.45,0,0,1,.2.7c.1.3.2.6.3,1a11.63,11.63,0,0,1,.4,1.8c.1.4.2.8.3,1.3s.2,1.1.3,1.7.2,1.3.3,2.1c.1.6.1,1.2.2,1.7a12.1,12.1,0,0,1,.1,1.9v.1a9.7,9.7,0,0,0,.1,1.7C308.87,92.51,308.87,93.11,308.87,93.71Z" style="fill:#de8989"/><path d="M253.17,52.51a51.45,51.45,0,0,1,2.2,15.7v-1a15.3,15.3,0,0,1,3.6-10.3C257.07,55.61,255.17,54.11,253.17,52.51Z" style="fill:#f3dbd8"/><path d="M282.07,81V80a16.38,16.38,0,0,1,2.5-8.9c-1.2-.4-2.4-.9-3.6-1.3A51.07,51.07,0,0,1,282.07,81Z" style="fill:#f3dbd8"/><path d="M374.47,58.41a12.1,12.1,0,0,0-.1-1.9,4.87,4.87,0,0,0-.1-1.2,2.49,2.49,0,0,0-.1-.8,13.56,13.56,0,0,0-.6-2.9c-.1-.5-.3-1-.4-1.5-.1-.3-.2-.7-.3-1a4.18,4.18,0,0,0-.4-1c-.2-.4-.3-.8-.5-1.2l-.3-.6a9.25,9.25,0,0,0-.5-1,8.26,8.26,0,0,0-.7-1.3,2.09,2.09,0,0,0-.4-.6,22,22,0,0,0-1.7-2.5c-.4-.5-.7-1-1.1-1.5a51.75,51.75,0,0,0-7.8-7.7c-.5-.4-1-.8-1.4-1.1a82.66,82.66,0,0,0-13.8-8.3,165.68,165.68,0,0,0-32.6-11.4c-3.1-.8-6.4-1.5-9.6-2.2-.2,0-.3-.1-.5-.1-1.1-.2-2.2-.4-3.2-.6l-3.4-.6-3.5-.6c-1.2-.2-2.3-.4-3.5-.5s-2.5-.4-3.7-.5l-6.8-.9c-4.6-.5-9.2-1-13.7-1.3a2.77,2.77,0,0,1-.9-.1c-1.3-.1-2.7-.2-4-.2a22.6,22.6,0,0,0-2.6-.1c-7.9-.4-15.8-.4-23.4-.2l-7.7.3c-3.4.2-6.7.5-9.9.8h-.2c-1.2.1-2.3.2-3.4.4-2.7.3-5.3.7-7.9,1.1a18.46,18.46,0,0,0-2.3.4c-4.3.8-8.5,1.6-12.3,2.7-1,.3-1.9.5-2.8.8-7.7,2.3-11.1,5.9-11.1,9.7v26.3c0,2.1-.1,4.1,0,6,0,.2.1.5.1.7a7.82,7.82,0,0,0,.9,2.7l.3.6a6.37,6.37,0,0,0,1.6,1.7,7,7,0,0,0,.9.6,3.13,3.13,0,0,0,1,.5,20.43,20.43,0,0,0,5.7,1.7c3.5.5,6.9,1.2,10.3,2a25.56,25.56,0,0,1,6.6,2.7c.5.3.9.5,1.4.8V65c-.4-.2-.9-.5-1.3-.7-.1,0-.1-.1-.2-.1a.1.1,0,0,1-.1-.1,4.88,4.88,0,0,0-.7-.3V40.51c0-.3.1-.7.1-1h0l.3-1.8c.1-.3.1-.6.2-.9s.2-.5.3-.8a12.36,12.36,0,0,1,2.2-3.9c.1-.1.2-.3.4-.4,0-.1.1-.1.1-.2l.2-.2.2-.2.3-.3.3-.3a7.55,7.55,0,0,1,1.4-1.1,11.4,11.4,0,0,1,1.9-1h0a8.33,8.33,0,0,1,1.5-.4c.3-.1.6-.1.9-.2a8.6,8.6,0,0,1,1.6-.1h.4a1.27,1.27,0,0,1,.6.1.6.6,0,0,1,.4.1h.1c.2,0,.3.1.5.1s.3.1.5.1l.9.3c.2.1.4.1.5.2a3.92,3.92,0,0,1,1.4.8c.2.1.4.3.6.4a.1.1,0,0,1,.1.1,6.47,6.47,0,0,1,.9.8l.9.9c.3.3.5.6.8.9a23,23,0,0,1,3.9,7.7c.2.7.4,1.4.6,2.2a3.55,3.55,0,0,1,.2,1c.1.4.2.9.3,1.3a5.85,5.85,0,0,1,.2,1.3,8.75,8.75,0,0,1,.2,1.6,3.08,3.08,0,0,1,.1,1,24.52,24.52,0,0,1,.2,2.7c0,.6.1,1.1.1,1.7v1.4a21.12,21.12,0,0,1,.2-2.6c.1-.4.1-.7.2-1.1s.1-.6.2-.9.1-.4.2-.6.2-.5.3-.8a13.23,13.23,0,0,1,1.5-2.9,1,1,0,0,1,.4-.5,829303603207.09,829303603207.09,0,0,1,.2-.2h0a5,5,0,0,1,.7-.8,4.62,4.62,0,0,1,.7-.7c.2-.2.5-.4.7-.6s.3-.2.4-.3h0a6.73,6.73,0,0,1,1.1-.7h0a8.65,8.65,0,0,1,1.7-.7,2.35,2.35,0,0,1,.8-.2h0c.3-.1.5-.1.8-.2s.3-.1.5-.1l-.3-.3h0c-1.4-1.3-2.7-2.6-4.2-3.9a10.7,10.7,0,0,0-1.6-1.4l-1.5-1.2a11.32,11.32,0,0,1-1.3-1c-.1,0-.1-.1-.2-.1-.2-.2-.5-.3-.7-.5a3,3,0,0,1-.7-.5,2.51,2.51,0,0,0-.7-.4c-.5-.3-.9-.6-1.4-.9a4.05,4.05,0,0,0-.9-.5q-2.4-1.35-4.8-2.4h0c-.7-.3-1.5-.6-2.2-.9-.5-.2-1.1-.4-1.6-.6-.2-.1-.4-.1-.5-.2h0c-.1,0-.3-.1-.4-.1-.3-.1-.6-.2-1-.3s-.9-.3-1.3-.4-1.1-.3-1.6-.5c-.3-.1-.6-.2-1-.3a3,3,0,0,0-1-.2l-1.1-.3c-.6-.1-1.1-.3-1.7-.4-.3-.1-.6-.1-.9-.2s-.6-.1-1-.2l-1.5-.3c-.3-.1-.7-.1-1.1-.2a21.66,21.66,0,0,1-2.5-.4c-1.1-.1-2.1-.3-3.1-.4-.7-.1-1.4-.1-2.1-.2a2.2,2.2,0,0,1-.8-.1c-.5,0-1-.1-1.5-.1h-.7a3.4,3.4,0,0,1-1-.1h-.5c-.6,0-1.2-.1-1.6-.1h-.3c-.3,0-.5,0-.6-.1h-.1v-.1a1,1,0,0,1,.4-.1c1.4-.4,2.8-.7,4.2-1.1,1.1-.3,2.1-.5,3.2-.7s2.4-.5,3.6-.8,2.5-.5,3.8-.8a20,20,0,0,1,2.4-.4c.9-.2,1.7-.3,2.6-.5.3-.1.7-.1,1-.2l2.1-.3c2.3-.4,4.6-.7,6.9-1,.3,0,.6-.1.9-.1,2.4-.3,4.9-.5,7.3-.8,2-.2,4-.3,5.9-.4.4,0,.9-.1,1.3-.1,1.2-.1,2.3-.1,3.5-.2s2.4-.1,3.5-.1c2.5-.1,5-.1,7.4-.1,1.6,0,3.2,0,4.8.1h.5a27.15,27.15,0,0,1,2.8.1h.8c1.2,0,2.4.1,3.6.2,1.4.1,2.8.1,4.3.2,1.7.1,3.3.2,5,.4,1.4.1,2.8.3,4.2.4l2.9.3a.9.9,0,0,1,.5.1l1.9.3c1,.1,2,.3,3,.4l4.1.6c1.4.2,2.7.4,4,.7l4.5.9,2.7.6c.3.1.6.1,1,.2,1,.2,1.9.4,2.9.7.2.1.5.1.8.2,1.3.3,2.5.6,3.7,1a27.59,27.59,0,0,1,2.7.8c.5.2,1.1.3,1.6.5.9.3,1.8.5,2.7.8a62.63,62.63,0,0,1,6.1,2.1h.1a18,18,0,0,1,2.1.8,108.17,108.17,0,0,1,10.4,4.4c.8.4,1.6.8,2.5,1.2,1.4.7,2.8,1.4,4.1,2.1s2.6,1.5,3.9,2.2h0l2.4,1.5a3,3,0,0,1,.7.5,15.26,15.26,0,0,1,1.6,1.1c.2.1.4.3.6.4.4.3.9.6,1.3.9l.1.1a19.23,19.23,0,0,1,1.7,1.3c.9.7,1.8,1.4,2.6,2.1a6.47,6.47,0,0,1,.9.8,6.47,6.47,0,0,1,.9.8c.6.5,1.2,1.1,1.7,1.6.7.6,1.3,1.3,2,2,.3.3.6.7.9,1s.5.7.8,1a11.25,11.25,0,0,1,1.2,2.1c.1.3.3.7.4,1a2.35,2.35,0,0,1,.2.8c0,.2.1.3.1.5v.1a1.7,1.7,0,0,1,.1.7c0,.3.1.7.1,1.1v1.4h0c0,.2,0,.3-.1.4s-.1.3-.1.4,0,.3-.1.4c-.1.4-.2.7-.3,1.1,0,.2-.1.3-.2.5V61c-.1.1-.1.3-.2.4s0,.1-.1.1-.1.2-.1.3a.1.1,0,0,1-.1.1,2.51,2.51,0,0,1-.4.7c-.2.3-.3.5-.5.8a.1.1,0,0,1-.1.1c-.2.3-.3.5-.5.8-.1.1-.2.2-.2.3s-.1.2-.2.2a19.2,19.2,0,0,1-1.4,1.5l-.3.3-.2.2-.7.7-.1.1-.2.2a5,5,0,0,0-.8.7h0l-.2.2a13,13,0,0,1-1.5,1c-.2.1-.4.3-.6.4a8.79,8.79,0,0,1-1,.6c-.4.3-.9.5-1.4.8a25.91,25.91,0,0,1-2.9,1.4h0c-.9.4-1.9.8-2.9,1.2-.6.2-1.3.5-2,.7l-2.1.6a.37.37,0,0,0-.3.1c-.1,0-.2.1-.3.1l-1,.3c-.9.2-1.9.5-2.9.7l-3,.6h-.3a7.84,7.84,0,0,1-1.4.2c-.3,0-.6.09-1,.09a4.33,4.33,0,0,1-.5.1l-2.7.31c-.4,0-.8.09-1.1.09H326a4.1,4.1,0,0,0-1.1.1,6.15,6.15,0,0,0-1.4.1h-4.1a24.37,24.37,0,0,1-2.7-.1,8.6,8.6,0,0,1-1.6-.1h-2.3c-1.4-.09-2.8-.3-4.2-.4-.3,0-.6-.1-.9-.1-.7-.09-1.3-.19-2-.3h0c.2.4.3.9.5,1.3a1.48,1.48,0,0,1,.2.7c.1.3.2.6.3,1a11.63,11.63,0,0,1,.4,1.8c.1.41.2.81.3,1.31s.2,1.1.3,1.69.2,1.31.3,2.1c.1.6.1,1.2.2,1.7a12.1,12.1,0,0,1,.1,1.9v.1a9.7,9.7,0,0,0,.1,1.7v34.3h-.1v2.1h2.6c2,0,4-.1,6-.2.6,0,1.2-.1,1.8-.1a89.44,89.44,0,0,0,10.4-1.2l1.6-.3a111,111,0,0,0,13.5-3.1l1.1-.3a20.94,20.94,0,0,0,2.3-.8c.8-.3,1.5-.5,2.2-.8s1.5-.6,2.2-.9h0c.5-.2,1-.4,1.4-.6a48.38,48.38,0,0,0,11.1-6.8,17.88,17.88,0,0,0,1.4-1.3,23.67,23.67,0,0,0,2.7-2.8,14.31,14.31,0,0,0,1.1-1.5,8.34,8.34,0,0,0,.8-1.2l1.2-2.1a9.29,9.29,0,0,0,.5-1c.1-.2.2-.5.3-.7a7.84,7.84,0,0,0,.5-1.4c.2-.6.3-1.2.5-1.7v-.4c0-.2.1-.3.1-.4a15.26,15.26,0,0,0,.3-3V62.11A6.76,6.76,0,0,0,374.47,58.41Z" style="fill:#f3dbd8"/><path d="M374.47,94.41c0,.2-.3,3.7-.4,4.7v.3c-4.2,19-33.8,28.4-62.7,28.9h-2.6V91.91h.1l3,1.2C311.77,93.11,341.77,136,374.47,94.41Z" style="fill:#eac1c1"/><path d="M204.27,65.51c-.5-.3-.9-.5-1.4-.8a25.56,25.56,0,0,0-6.6-2.7c-3.4-.8-6.8-1.4-10.3-2-12-2-10.5-8.1-10.5-14.5V28.61l1.8-.3c.8.9,22.5,3.5,24.8,11.2h0c.2.9.5,16.5.8,17.4a27.6,27.6,0,0,1,1.3,8.2C204.27,65.21,204.27,65.31,204.27,65.51Z" style="fill:#eac1c1"/><path d="M193.67,11.21c-1.9.9-3.8,1.7-5.8,2.5-2.6,1.1-3.7,2.5-3.6,5.1.1,2.4,3.6,3.2,5.5,4,4.5,1.9,9.1,1.2,13.9,1.4,3.1.1,5.4,1.1,8.2,2.1,6.5,2.2,13,3.1,19.2,6.3,2.7,1.4,5.8,3,5.8,6.5-.1,3.7-4.4,3.6-6.2,5.9-3.3-.9-3.5-5.3-4.8-7.9-1.2-2.2-2.2-4.9-4.7-5.6a50.55,50.55,0,0,0-10.2-1.7,11.87,11.87,0,0,0-4.6.5c-1.4.5-1.6,1.3-2.8,2.2-1.4,1.1-4.2.7-6.2.7a55,55,0,0,1-14-1.9c-3.5-.9-7.4-3.3-8.4-7.1-1.4-5,.9-7.6,4.7-10.3,4.4-3.2,10.9-3.8,16-5.2a49.7,49.7,0,0,1,7.7-1.4c1.8-.2,4.8-1.1,7-.8-3.9-.2-8.8,1.4-12.4,2.9A44.87,44.87,0,0,0,193.67,11.21Z" style="fill:#eac1c1"/><path d="M284.27,108.81c0,4.1,2.3,12.9-1.8,12.9-.7,0-5.4-1.8-7.8-2.7a6.12,6.12,0,0,1-1.2-.5,14.17,14.17,0,0,1-1.8-.8c-1.4-.6-2.8-1.3-4.2-1.9a32.39,32.39,0,0,1-3.2-1.7c-.1,0-.1-.1-.2-.1-1-.6-2-1.1-2.9-1.7s-2-1.2-3-1.9c-.7-.5-1.4-.9-2.1-1.4,1.3-2.6,1.4-5.3,1.7-5.3s8.8,6.3,12.8,6.3c5.7,0,5.3-8.2,5.4-12.4.2-8.5.7-16.2-.2-24.7a20.12,20.12,0,0,0-1.7-6.5,11.32,11.32,0,0,0-6.8-6.2,5.25,5.25,0,0,0-3.5,0c-3.3,1.2-5.3,6-5.8,10.4-.1-1.7-.2-3.3-.2-4.9a18.62,18.62,0,0,1,1.9-8.4,12.14,12.14,0,0,1,1.7-2.5h0a7.51,7.51,0,0,1,5.3-3c1.9,0,12.1,1.6,13,12.6a8.6,8.6,0,0,1,.1,1.6v3C279.77,77,284.27,89,284.27,108.81Z" style="fill:#cc7272"/><path d="M231.27,68.91c0,8.8,1.4,16.2-2.2,16.4l-5.1-4.9a14.2,14.2,0,0,0-1.3-1.2c-.1-.1-.3-.2-.4-.4-.4-.4-.9-.8-1.3-1.2-3.5-3.2-6.8-6-10-8.4a9.22,9.22,0,0,1-.5-.8c-2.3-2.7-6.7-2.3-6.7-5.7,0-8.5,7.2,2.8,13.7,2.8,4.5,0,5-9.5,5-14.1,0-10-6.3-17-10.9-17s-7.2,4.5-7.2,8.6a6.15,6.15,0,0,0,.1,1.4c0-.1-.1-.1-.2-.1-.5,0-.5-2.9-.5-3.4a16.16,16.16,0,0,1,6.3-12.6c2.3-1.9,4.8-2.9,6.4-2.9h.2a6.87,6.87,0,0,1,4.4,1.8h0c4.8,4,7.4,13.7,8.8,21.3a23.36,23.36,0,0,1,.4,2.6c.3,1.7.4,3.3.6,4.5.1,1.4.2,2.4.2,2.9C230.87,61.61,231.27,65.31,231.27,68.91Z" style="fill:#cc7272"/><path d="M309.87,116.41a10.29,10.29,0,0,1-1,3.7c0,.1,0,.1-.1.2a30.3,30.3,0,0,1-3.5,5.7c-.7-.1-1.4-.1-2.1-.2l-2.6-.3h-.2c-1.1-.1-2.2-.3-3.2-.4s-2.2-.3-3.2-.5-2.1-.4-3.1-.6l-2.7-.6c-1.7-.4-3.3-.8-4.8-1.3,0-2.3,1.2-4,4-4,15.9,0,15.9-5.7,15.9-21.7,0-6.6.2-15.5-2.6-20.8-1.5-2.8-3.8-4.7-7.4-4.7a6.37,6.37,0,0,0-4.6,1.5c-1.5,1.3-2.4,3.3-3.7,5.7a.31.31,0,0,0-.1.2c0,.2.1.3.1.5a8,8,0,0,1-1.5,2.9c-.1-1.1-.1-2.3-.1-3.5a18.34,18.34,0,0,1,1-6.6v-.1h0a.76.76,0,0,1,.2-.5h0c1.5-3.5,4.6-5.4,9.9-5.4,6.6,0,12.7,4.3,13.7,11.2h0a4.87,4.87,0,0,1,.1,1.2l.5,12.1v.1l.1,1.7Z" style="fill:#cc7272"/><path d="M257.17,94.61a14.62,14.62,0,0,1-1.8,7.8c-1.2,1.8-.4,5.1-1.6,5.1l-3.2-2.6c-.8-.7-1.7-1.3-2.5-2s-1.8-1.5-2.7-2.3c-.4-.3-.7-.6-1.1-.9-3.3-2.9-6.4-5.9-9.5-8.9-1.5-1.4-3.8-3.7-5.3-5.1h0c0-1.3-.2-3.6-.2-4.7,0-6.5,6.7,9.7,13.8,9.7,3.3,0,6.5-1.4,6.5-19.7,0-10.2-1.1-22.9-11-22.9-5.2,0-7.1,3.3-7.9,7.4h0c-.5,2.6-.7,5.4-1,7.8a61.58,61.58,0,0,1-.6-7.6,24.56,24.56,0,0,1,.8-6.5,16,16,0,0,1,1.7-4.2,829303603207.09,829303603207.09,0,0,1,.2-.2h0a10.12,10.12,0,0,1,7.1-4.7h0a9.15,9.15,0,0,1,1.7-.1c4.7,0,9.5,3.6,11.6,9.6,0,0,.1.1,0,.1v.1a10.55,10.55,0,0,1,.6,2.4,22.18,22.18,0,0,1,.3,3.7c0,4.4,2.3,9,2.3,13.4C255.37,78.21,257.17,79.41,257.17,94.61Z" style="fill:#cc7272"/><path d="M203,38.91a2.2,2.2,0,0,1-.8-.1c-1.4-.4-2.7-.7-4-1l-2.6-.7c-3.4-.9-6.8-1.7-10.1-2.3a16.08,16.08,0,0,1-13-15.8,3,3,0,1,1,6,0,9.8,9.8,0,0,0,8,9.8,99.24,99.24,0,0,1,10.5,2.4l2.5.6c1.3.3,2.7.7,4.1,1.1a3.09,3.09,0,0,1,2.2,3.7A2.77,2.77,0,0,1,203,38.91Z" style="fill:#a86060"/><path d="M320.47,80.21a106.14,106.14,0,0,1-14.7-1.1,2.53,2.53,0,0,1,.8-5c15.3,2.3,29.7.9,40.5-4a2.57,2.57,0,1,1,2.1,4.7C341.07,78.31,331.17,80.21,320.47,80.21Z" style="fill:#a86060"/><path d="M353.77,71.81a2.61,2.61,0,0,1-2.1-1.1,2.46,2.46,0,0,1,.7-3.5c4.6-3,7.3-6.6,7.7-10,.3-2.6-.7-5-2.9-7.4a73.94,73.94,0,0,0-16.8-13,2.56,2.56,0,1,1,2.6-4.4,81.6,81.6,0,0,1,17.9,13.9c3.3,3.4,4.8,7.4,4.3,11.5-.6,5-4.1,9.8-9.9,13.7A4.94,4.94,0,0,1,353.77,71.81Z" style="fill:#a86060"/><path d="M334.37,33.21a2,2,0,0,1-1.1-.3,140.8,140.8,0,0,0-20.8-8.2,2.56,2.56,0,0,1,1.5-4.9,151.83,151.83,0,0,1,21.6,8.5,2.41,2.41,0,0,1,1.1,3.4A2.57,2.57,0,0,1,334.37,33.21Z" style="fill:#a86060"/><path d="M291.47,19.51H291a237.14,237.14,0,0,0-71.5-2.2,2.44,2.44,0,0,1-2.8-2.2,2.44,2.44,0,0,1,2.2-2.8,243.79,243.79,0,0,1,73,2.3,2.52,2.52,0,0,1,2,3A2.4,2.4,0,0,1,291.47,19.51Z" style="fill:#a86060"/><path d="M239.17,43a2.34,2.34,0,0,1-1.7-.7c-1.1-1-2.1-2-3.2-3l-1.3-1.2c-14-13.3-35.6-14.4-42.7-14.7-2.5-.1-4.4-.2-4.6-2.5A2.71,2.71,0,0,1,188,18a202.05,202.05,0,0,1,21.1-4.4,2.53,2.53,0,0,1,.8,5c-2,.3-4,.7-5.9,1,10,1.7,22.8,5.5,32.6,14.8l1.3,1.2c1.1,1,2.1,2,3.2,3a2.63,2.63,0,0,1,.2,3.6A3.68,3.68,0,0,1,239.17,43Z" style="fill:#a86060"/><path d="M321.67,93.91c-2.3,0-4.7-.1-7.1-.2-2-.1-4.1-.3-6.1-.5a3,3,0,0,1,.6-6c1.9.2,3.9.3,5.8.5a119.77,119.77,0,0,0,13.4,0,3.09,3.09,0,0,1,3.2,2.9,3,3,0,0,1-2.9,3.2C326.37,93.81,324,93.91,321.67,93.91Z" style="fill:#a86060"/><path d="M344,91.61a3.19,3.19,0,0,1-3-2.4,3,3,0,0,1,2.3-3.6,57,57,0,0,0,14.8-5.4,3,3,0,0,1,2.9,5.3,59.58,59.58,0,0,1-16.4,6A3.54,3.54,0,0,1,344,91.61Z" style="fill:#a86060"/><path d="M359.57,85.91a3.15,3.15,0,0,1-2.7-1.6,3,3,0,0,1,1.2-4.1c8.2-4.5,12.7-10.7,13.3-18.3a14.72,14.72,0,0,0,0-2.1v-1.4c0-6.2-2.3-12.1-6.8-17.5a3.05,3.05,0,1,1,4.7-3.9c5.4,6.6,8.2,13.8,8.2,21.4v4C376.67,72,371,80,361,85.51A2.3,2.3,0,0,1,359.57,85.91Z" style="fill:#a86060"/><path d="M359.57,34.81a2.81,2.81,0,0,1-1.9-.7,78.53,78.53,0,0,0-15-9.2,3.06,3.06,0,0,1,2.7-5.5,87,87,0,0,1,16.1,9.9,3.13,3.13,0,0,1,.5,4.3A3,3,0,0,1,359.57,34.81Z" style="fill:#a86060"/><path d="M311.77,14a1.7,1.7,0,0,1-.7-.1,289.54,289.54,0,0,0-54.8-7.7,3,3,0,0,1-2.9-3.2,3.1,3.1,0,0,1,3.2-2.9,294.24,294.24,0,0,1,56,7.8,3.11,3.11,0,0,1-.8,6.1Z" style="fill:#a86060"/><path d="M175.47,43.41a3,3,0,0,1-3-3V19.11c0-3.2,1.7-9.2,13.2-12.6,12.6-3.7,28.9-6,47.3-6.5a3,3,0,0,1,3.1,3,3,3,0,0,1-3,3.1c-17.8.5-33.7,2.7-45.7,6.3-5.6,1.7-8.9,4.1-8.9,6.7v21.3A2.89,2.89,0,0,1,175.47,43.41Z" style="fill:#a86060"/><path d="M209.07,70.91a3.37,3.37,0,0,1-1.7-.5,34.13,34.13,0,0,0-11.8-5.4c-3-.7-6.3-1.3-10.1-2-12.3-2-13.3-8.5-13.1-14.9a3.05,3.05,0,1,1,6.1.1c-.1,4.7-.1,7.5,8,8.8,3.9.6,7.3,1.3,10.5,2a41.09,41.09,0,0,1,13.8,6.3,3,3,0,0,1,.8,4.2A2.76,2.76,0,0,1,209.07,70.91Z" style="fill:#a86060"/><path d="M317.37,129.61q-4.35,0-8.7-.3l-1.3-.1c-1.6-.1-3-.3-4.5-.4-.4,0-.8-.1-1.2-.1a3.07,3.07,0,1,1,.7-6.1c.4,0,.8.1,1.1.1,1.4.1,2.8.3,4.2.4l1.2.1a127.46,127.46,0,0,0,21.5-.4,3.11,3.11,0,0,1,3.4,2.7,3,3,0,0,1-2.7,3.4C326.57,129.31,322.07,129.61,317.37,129.61Z" style="fill:#a86060"/><path d="M344,126.61a3,3,0,0,1-.8-6,58.16,58.16,0,0,0,16.1-6.2,3.05,3.05,0,1,1,3.2,5.2,61.79,61.79,0,0,1-17.8,6.9A1.48,1.48,0,0,1,344,126.61Z" style="fill:#a86060"/><path d="M367,115.41a3.1,3.1,0,0,1-2.2-.9,3,3,0,0,1,.1-4.3,19.24,19.24,0,0,0,6.1-11.3,25,25,0,0,0,.4-4.5v-7.1a3,3,0,0,1,6,0v7.1a33.08,33.08,0,0,1-.5,5.5,25.48,25.48,0,0,1-7.9,14.7A2.32,2.32,0,0,1,367,115.41Z" style="fill:#a86060"/><path d="M374.47,90.31a3,3,0,0,1-3-3V62.11a3,3,0,0,1,6,0v25.1A3,3,0,0,1,374.47,90.31Z" style="fill:#a86060"/><path d="M308.87,127.31a3,3,0,0,1-3-3V93.81c0-10.8-2.4-16.7-4.3-19.8-2.1-3.2-4.8-5-7.7-5-4.2,0-8.6,4.1-8.6,11v39.7a3,3,0,0,1-6,0V81c0-10.8-2.4-16.7-4.3-19.8-2.1-3.2-4.8-5-7.7-5-4.2,0-8.6,4.1-8.6,11v39.4a3,3,0,0,1-6,0V68.21c0-14.9-4.4-20.7-7-22.9a3.05,3.05,0,0,1,3.9-4.7c2.8,2.3,6,6.5,7.8,14a14.07,14.07,0,0,1,10.1-4.5c5,0,9.6,2.8,12.8,7.8a30.91,30.91,0,0,1,3.9,9.4,14.25,14.25,0,0,1,10.1-4.5c5,0,9.5,2.8,12.8,7.8,3.5,5.5,5.3,13.2,5.3,23.1v30.5A4,4,0,0,1,308.87,127.31Z" style="fill:#a86060"/><path d="M247.27,46.11a2.64,2.64,0,0,1-1.9-.7,7.21,7.21,0,0,0-7.2-1.5,3.13,3.13,0,0,1-3.9-1.9,3,3,0,0,1,1.9-3.9,13.52,13.52,0,0,1,13,2.6,3,3,0,0,1,.4,4.3A3.15,3.15,0,0,1,247.27,46.11Z" style="fill:#a86060"/><path d="M228.67,85.91a3,3,0,0,1-3-3V55.51c0-10.8-2.4-16.7-4.3-19.8-2.1-3.2-4.8-5-7.7-5-4.2,0-8.6,4.1-8.6,11v20.1a3,3,0,0,1-6,0v-20c0-10.7,7.5-17.1,14.7-17.1,5,0,9.6,2.8,12.8,7.8a30.91,30.91,0,0,1,3.9,9.4,14.67,14.67,0,0,1,5.9-3.8,3.07,3.07,0,0,1,2,5.8c-3.9,1.3-6.4,5.5-6.4,10.7V83A3.42,3.42,0,0,1,228.67,85.91Z" style="fill:#a86060"/><polygon points="213.07 52.41 212.47 52.6 211.87 52.8 211.57 52.2 211.27 51.8 211.67 51.3 211.97 50.8 212.57 51.1 213.07 51.2 213.07 51.8 213.07 52.41" style="fill:#cc7272"/><polygon points="217.07 57.7 216.47 57.8 215.97 58.01 215.67 57.51 215.27 57.01 215.67 56.6 215.97 56.1 216.57 56.3 217.17 56.51 217.07 57.1 217.07 57.7" style="fill:#cc7272"/><polygon points="240.07 53.41 239.57 53.51 238.97 53.7 238.67 53.2 238.27 52.7 238.67 52.3 239.07 51.8 239.57 52.01 240.17 52.2 240.07 52.8 240.07 53.41" style="fill:#cc7272"/><polygon points="241.37 68.2 240.77 68.41 240.17 68.61 239.87 68.11 239.47 67.61 239.87 67.11 240.27 66.61 240.77 66.91 241.37 67 241.27 67.61 241.37 68.2" style="fill:#cc7272"/><polygon points="235.57 77.61 234.97 77.7 234.37 77.91 234.07 77.41 233.77 76.91 234.17 76.5 234.47 76 234.97 76.2 235.57 76.41 235.57 77 235.57 77.61" style="fill:#cc7272"/><polygon points="244.47 83.31 243.87 83.41 243.27 83.61 242.97 83.11 242.57 82.61 242.97 82.2 243.37 81.7 243.87 81.91 244.47 82.11 244.37 82.7 244.47 83.31" style="fill:#cc7272"/><polygon points="291.97 88.31 291.47 88.41 290.87 88.61 290.57 88.11 290.17 87.61 290.57 87.2 290.87 86.7 291.47 86.91 292.07 87.11 291.97 87.7 291.97 88.31" style="fill:#cc7272"/><polygon points="265.27 67.91 264.67 68 264.07 68.2 263.77 67.7 263.37 67.2 263.77 66.81 264.17 66.31 264.67 66.5 265.27 66.7 265.27 67.31 265.27 67.91" style="fill:#cc7272"/><polygon points="272.37 79.5 271.87 79.7 271.27 79.91 270.97 79.41 270.57 78.91 270.97 78.41 271.27 77.91 271.87 78.2 272.47 78.31 272.37 78.91 272.37 79.5" style="fill:#cc7272"/><polygon points="301.77 95.5 301.27 95.61 300.67 95.81 300.37 95.31 299.97 94.81 300.37 94.31 300.77 93.91 301.27 94.11 301.87 94.31 301.77 94.91 301.77 95.5" style="fill:#cc7272"/><polygon points="296.47 80.41 295.87 80.61 295.37 80.81 295.07 80.2 294.67 79.81 295.07 79.31 295.37 78.81 295.97 79.11 296.57 79.2 296.47 79.81 296.47 80.41" style="fill:#cc7272"/><polygon points="291.97 114.41 291.47 114.61 290.87 114.81 290.57 114.2 290.17 113.81 290.57 113.31 290.87 112.81 291.47 113.11 292.07 113.2 291.97 113.81 291.97 114.41" style="fill:#cc7272"/><polygon points="263.37 88.81 262.77 88.91 262.27 89.11 261.87 88.61 261.57 88.11 261.97 87.61 262.27 87.11 262.87 87.41 263.37 87.61 263.37 88.2 263.37 88.81" style="fill:#cc7272"/><polygon points="262.47 101.81 261.97 101.91 261.37 102.11 261.07 101.61 260.67 101.11 261.07 100.61 261.47 100.2 261.97 100.41 262.57 100.61 262.47 101.2 262.47 101.81" style="fill:#cc7272"/><polygon points="270.57 99 269.97 99.11 269.37 99.31 269.07 98.81 268.67 98.31 269.07 97.91 269.47 97.41 269.97 97.61 270.57 97.81 270.57 98.41 270.57 99" style="fill:#cc7272"/><polygon points="295.57 102.7 294.97 102.91 294.37 103.11 294.07 102.5 293.77 102.11 294.17 101.61 294.47 101.11 295.07 101.41 295.57 101.5 295.57 102.11 295.57 102.7" style="fill:#cc7272"/><path d="M28.2,52.23c4.2,1.5,6.6,4.7,6.6,8.8,0,6.9-5.3,11.7-13.1,11.7H1.5a.94.94,0,0,1-1-1V35.53a.94.94,0,0,1,1-1H20.2c7.2,0,12.1,4.6,12.1,10.5a7.35,7.35,0,0,1-4.1,6.8ZM8.5,49.43H20.2a3.68,3.68,0,0,0,3.9-3.7c0-2.2-1.5-3.6-3.9-3.6H8.5Zm0,15.7H21.4c3.3,0,5.2-1.6,5.2-4.1,0-2.7-1.8-4.1-5.2-4.1H8.5Z" style="fill:#de8989"/><path d="M71.3,34.53a.94.94,0,0,1,1,1v5.6a.9.9,0,0,1-1,1H50v7.2H68.7a.9.9,0,0,1,1,1v5.6a.94.94,0,0,1-1,1H50v8.3H71.8a.9.9,0,0,1,1,1v5.7a.94.94,0,0,1-1,1h-29a.94.94,0,0,1-1-1V35.53a1,1,0,0,1,1-1Z" style="fill:#de8989"/><path d="M110,34.53a.94.94,0,0,1,1,1v5.6a.94.94,0,0,1-1,1H88.7v7.2h18.7a.9.9,0,0,1,1,1v5.6a.9.9,0,0,1-1,1H88.7v8.3h21.8a.9.9,0,0,1,1,1v5.7a.94.94,0,0,1-1,1h-29a.94.94,0,0,1-1-1V35.53a1,1,0,0,1,1-1Z" style="fill:#de8989"/><path d="M148.2,34.53a.94.94,0,0,1,1,1v5.8a.9.9,0,0,1-1,1H127.4v7.3h18.8a.94.94,0,0,1,1,1v5.8a.94.94,0,0,1-1,1H127.4v14.5a.94.94,0,0,1-1,1h-6.2a.94.94,0,0,1-1-1V35.53a.94.94,0,0,1,1-1Z" style="fill:#de8989"/><path d="M27.5,98.53c4.2,1.6,6.6,5,6.6,8.9,0,6.6-5.4,11.8-12.8,11.8H.9a1,1,0,0,1-.9-1V81.93c0-.6.3-1,.9-1H20.2c7,0,11.3,4.8,11.3,10.5a8.42,8.42,0,0,1-4,6.7ZM6.3,95.83H20.6a4.51,4.51,0,1,0-.2-9H6.4v9Zm0,17.4H21.1c3.9,0,6.6-2.2,6.6-5.8s-2.5-5.6-6.6-5.6H6.3Z" style="fill:#eac1c1"/><path d="M59.1,118.23a.94.94,0,0,1-1,1H53.6c-.6,0-.9-.4-.9-1v-8.6l-16-27.8c-.2-.4-.1-.8.4-.8H43a1,1,0,0,1,.9.6l11.8,21.6h.6L68,81.63a1,1,0,0,1,1-.6h5.7a.52.52,0,0,1,.5.8l-15.9,27.8v8.6Z" style="fill:#eac1c1"/><path d="M112.4,80.93a.94.94,0,0,1,1,1v4a.9.9,0,0,1-1,1h-13v31.3a.94.94,0,0,1-1,1H94a.94.94,0,0,1-1-1V86.93H80a.94.94,0,0,1-1-1v-4a.94.94,0,0,1,1-1Z" style="fill:#eac1c1"/><path d="M147.6,80.93a1,1,0,0,1,1,1v4a1,1,0,0,1-1,.9H125.4v9.5h20.2a.9.9,0,0,1,1,1v4c0,.6-.4.9-1,.9H125.4v11h22.9c.6,0,.9.3.9.8v4.1c0,.6-.3,1-.9,1H120c-.6,0-.9-.4-.9-1V81.93c0-.6.3-1,.9-1Z" style="fill:#eac1c1"/><path d="M188.7,86.33a.78.78,0,0,1,0,1.1l-2.7,3.4a.93.93,0,0,1-1.3.1,18.48,18.48,0,0,0-12.6-4.5c-5.9,0-9,1.6-9,4.6s4.1,4.2,10.1,5c9.8,1.1,16.8,4,16.8,12.1,0,7.7-7.7,11.7-17.1,11.7-7,0-13.1-1.9-17.8-6.4a.91.91,0,0,1,0-1.2l2.7-3.4c.4-.5.8-.6,1.3-.1a19.33,19.33,0,0,0,13.8,5.2c7,0,10.7-2.4,10.7-5.7,0-3.7-4.3-5.1-11.3-5.9-8.1-.9-15.6-3.2-15.6-11.2,0-6.4,6.1-10.6,15.4-10.6A24.23,24.23,0,0,1,188.7,86.33Z" style="fill:#eac1c1"/></svg>