<svg xmlns="http://www.w3.org/2000/svg" viewBox="0 0 332.14 106.45"><title>Asset 2</title><path d="M28.2,37.41c4.2,1.5,6.6,4.7,6.6,8.8,0,6.9-5.3,11.7-13.1,11.7H1.5a.94.94,0,0,1-1-1V20.71a.94.94,0,0,1,1-1H20.2c7.2,0,12.1,4.6,12.1,10.5A7.35,7.35,0,0,1,28.2,37ZM8.5,34.61H20.2a3.68,3.68,0,0,0,3.9-3.7c0-2.2-1.5-3.6-3.9-3.6H8.5Zm0,15.7H21.4c3.3,0,5.2-1.6,5.2-4.1,0-2.7-1.8-4.1-5.2-4.1H8.5Z" style="fill:#de8989"/><path d="M71.3,19.71a.94.94,0,0,1,1,1v5.6a.9.9,0,0,1-1,1H50v7.2H68.7a.9.9,0,0,1,1,1v5.6a.94.94,0,0,1-1,1H50v8.3H71.8a.9.9,0,0,1,1,1v5.7a.94.94,0,0,1-1,1h-29a.94.94,0,0,1-1-1V20.71a1,1,0,0,1,1-1Z" style="fill:#de8989"/><path d="M110,19.71a.94.94,0,0,1,1,1v5.6a.94.94,0,0,1-1,1H88.7v7.2h18.7a.9.9,0,0,1,1,1v5.6a.9.9,0,0,1-1,1H88.7v8.3h21.8a.9.9,0,0,1,1,1v5.7a.94.94,0,0,1-1,1h-29a.94.94,0,0,1-1-1V20.71a1,1,0,0,1,1-1Z" style="fill:#de8989"/><path d="M148.2,19.71a.94.94,0,0,1,1,1v5.8a.9.9,0,0,1-1,1H127.4v7.3h18.8a.94.94,0,0,1,1,1v5.8a.94.94,0,0,1-1,1H127.4v14.5a.94.94,0,0,1-1,1h-6.2a.94.94,0,0,1-1-1V20.71a.94.94,0,0,1,1-1Z" style="fill:#de8989"/><path d="M27.5,83.71c4.2,1.6,6.6,5,6.6,8.9,0,6.6-5.4,11.8-12.8,11.8H.9a1,1,0,0,1-.9-1V67.11c0-.6.3-1,.9-1H20.2c7,0,11.3,4.8,11.3,10.5a8.42,8.42,0,0,1-4,6.7ZM6.3,81H20.6a4.51,4.51,0,1,0-.2-9H6.4v9Zm0,17.4H21.1c3.9,0,6.6-2.2,6.6-5.8S25.2,87,21.1,87H6.3Z" style="fill:#eac1c1"/><path d="M59.1,103.41a.94.94,0,0,1-1,1H53.6c-.6,0-.9-.4-.9-1v-8.6L36.7,67c-.2-.4-.1-.8.4-.8H43a1,1,0,0,1,.9.6l11.8,21.6h.6L68,66.81a1,1,0,0,1,1-.6h5.7a.52.52,0,0,1,.5.8L59.3,94.81v8.6Z" style="fill:#eac1c1"/><path d="M112.4,66.11a.94.94,0,0,1,1,1v4a.9.9,0,0,1-1,1h-13v31.3a.94.94,0,0,1-1,1H94a.94.94,0,0,1-1-1V72.11H80a.94.94,0,0,1-1-1v-4a.94.94,0,0,1,1-1Z" style="fill:#eac1c1"/><path d="M147.6,66.11a1,1,0,0,1,1,1v4a1,1,0,0,1-1,.9H125.4v9.5h20.2a.9.9,0,0,1,1,1v4c0,.6-.4.9-1,.9H125.4v11h22.9c.6,0,.9.3.9.8v4.1c0,.6-.3,1-.9,1H120c-.6,0-.9-.4-.9-1V67.11c0-.6.3-1,.9-1Z" style="fill:#eac1c1"/><path d="M188.7,71.51a.78.78,0,0,1,0,1.1L186,76a.93.93,0,0,1-1.3.1,18.48,18.48,0,0,0-12.6-4.5c-5.9,0-9,1.6-9,4.6s4.1,4.2,10.1,5c9.8,1.1,16.8,4,16.8,12.1,0,7.7-7.7,11.7-17.1,11.7-7,0-13.1-1.9-17.8-6.4a.91.91,0,0,1,0-1.2l2.7-3.4c.4-.5.8-.6,1.3-.1a19.33,19.33,0,0,0,13.8,5.2c7,0,10.7-2.4,10.7-5.7,0-3.7-4.3-5.1-11.3-5.9-8.1-.9-15.6-3.2-15.6-11.2,0-6.4,6.1-10.6,15.4-10.6A24.23,24.23,0,0,1,188.7,71.51Z" style="fill:#eac1c1"/><path d="M176.88,16.89c-3.51.92,22.46-1.78,37.91,12.93,14.15,13.49,26.53,22.65,35.91,26.6,44.75,18.77,79.89-2.47,66.14-17C292.94,14.3,231.27,2.62,176.88,16.89Z" style="fill:#eac1c1"/><path d="M275.68,77v26.75h-.07a9.85,9.85,0,0,1-1-.08c-.62,0-1.22-.11-1.81-.14s-1.14-.11-1.7-.19c-.74-.07-1.44-.15-2.14-.26h-.15c-.92-.11-1.81-.22-2.66-.37l-2.66-.44c-.85-.18-1.7-.33-2.55-.52s-1.48-.33-2.21-.48c-1.37-.33-2.7-.66-4-1-1-.3-2-.59-2.95-.93-.6-.18-1.19-.4-1.74-.59-.81-.29-1.59-.59-2.37-.88-.33-.11-.66-.26-1-.41a15.64,15.64,0,0,1-1.44-.63c-1.18-.52-2.33-1-3.44-1.59-.92-.44-1.81-.92-2.66-1.4,0,0-.07,0-.15-.08-.81-.48-1.62-.92-2.4-1.4s-1.62-1-2.44-1.55c-.59-.37-1.14-.78-1.7-1.15-.18-.14-.4-.29-.62-.44h0c-1.26-.89-2.52-1.81-3.7-2.73-.07-.08-.18-.15-.26-.23h0c-.66-.55-1.36-1.1-2-1.66s-1.51-1.25-2.22-1.88l-.88-.78c-2.7-2.4-5.25-4.84-7.76-7.28-1.22-1.18-2.44-2.36-3.66-3.51a.83.83,0,0,0-.19-.18c-.22-.19-.4-.41-.62-.59-.52-.52-1.08-1-1.63-1.56-.85-.85-1.7-1.66-2.55-2.47-.11-.11-.22-.19-.33-.3-.37-.33-.7-.7-1.07-1-.11-.11-.22-.19-.34-.3-.33-.33-.7-.66-1-1a103.06,103.06,0,0,0-8.2-6.87.16.16,0,0,0-.08,0c-.37-.3-.74-.52-1.11-.78-.07-.07-.18-.11-.25-.19a7.23,7.23,0,0,1-.89-.59l-.89-.55a4.13,4.13,0,0,0-.59-.37c-.18-.11-.37-.18-.55-.3-.37-.22-.74-.4-1.11-.59s-.7-.37-1.07-.55a.28.28,0,0,0-.19-.08s-.07,0-.11,0-.37-.19-.55-.26V34.33c0-.34,0-.71,0-1a3.17,3.17,0,0,1,.12-.85v0c.07-.52.14-1,.25-1.52.08-.22.11-.48.19-.7l.22-.67a11.37,11.37,0,0,1,1.77-3.17,3.45,3.45,0,0,1,.3-.34c.07-.11.18-.18.26-.29a.25.25,0,0,1,.15-.15l.25-.26a3.18,3.18,0,0,1,.26-.26,8.3,8.3,0,0,1,1.19-.88,7,7,0,0,1,1.55-.78h0a5,5,0,0,1,1.22-.37c.26-.07.51-.11.74-.15a5.58,5.58,0,0,1,1.36,0h.34a2.91,2.91,0,0,1,.51,0c.11,0,.22,0,.34,0h0c.15,0,.26,0,.37.07a.65.65,0,0,1,.37.11,4.94,4.94,0,0,1,.74.26,1.89,1.89,0,0,1,.44.19,11.62,11.62,0,0,1,1.19.63l.51.33s.08,0,.11.07c.26.19.52.41.78.63s.52.48.78.74a6.73,6.73,0,0,1,.66.78A19.71,19.71,0,0,1,208.18,33a7.74,7.74,0,0,1,.29,1c.08.26.15.52.22.81a5.55,5.55,0,0,1,.19.85c.07.34.15.71.22,1.08a9.35,9.35,0,0,1,.18,1.1,12.15,12.15,0,0,1,.19,1.33c0,.26.07.52.11.82.07.7.15,1.44.18,2.21,0,.48,0,.93.08,1.41v1.11a14.17,14.17,0,0,1,.15-2.18,7,7,0,0,1,.18-.89,4.55,4.55,0,0,1,.19-.7c0-.19.11-.33.14-.52l.23-.63a15.29,15.29,0,0,1,1.18-2.4,3.15,3.15,0,0,1,.33-.44.14.14,0,0,1,0-.08s.07-.07.07-.11h0a4.76,4.76,0,0,1,.56-.63c.18-.18.36-.4.55-.59a6.7,6.7,0,0,1,.59-.51c.11-.11.26-.19.37-.3h0a4.57,4.57,0,0,1,.92-.55h0a10.77,10.77,0,0,1,1.37-.6,5,5,0,0,1,.63-.18h0l.66-.15c.15,0,.26,0,.41-.07h.19a7,7,0,0,1,2.18.11,6,6,0,0,1,.7.18,2.64,2.64,0,0,1,.51.19,7.6,7.6,0,0,1,.89.37,5.91,5.91,0,0,1,.7.37,7,7,0,0,1,.63.37c.26.18.52.37.74.55h0c.22.19.44.37.67.59l.55.56a.73.73,0,0,1,.18.22c.19.22.37.44.56.7a5.74,5.74,0,0,1,.52.74,19.26,19.26,0,0,1,1.25,2.18,1.4,1.4,0,0,0,.19.33.17.17,0,0,1,0,.11s0,.08,0,.11a1.26,1.26,0,0,1,.15.34c.07.11.11.22.18.33.11.29.23.55.34.85a6.61,6.61,0,0,1,.26.7h0c0,.07,0,.15,0,.19s0,.07,0,.11a.77.77,0,0,1,.07.29c.08.22.15.48.22.7a5.53,5.53,0,0,1,.19.78c.07.33.18.67.22,1a10,10,0,0,1,.22,1.14,14.32,14.32,0,0,1,.22,1.44c.08.41.12.85.19,1.26a58.89,58.89,0,0,1,.33,5.91v-.85c0-.44,0-.85,0-1.29l.11-.85a1.28,1.28,0,0,1,.07-.37,12.69,12.69,0,0,1,1.52-4.25,7.86,7.86,0,0,1,1.18-1.66h0a5.3,5.3,0,0,1,.67-.67,7.33,7.33,0,0,1,.73-.63c.19-.11.34-.25.52-.33h0c.18-.11.33-.22.52-.33a4.26,4.26,0,0,1,.74-.37c.18-.07.4-.18.62-.26,0,0,.08,0,.11,0a5.3,5.3,0,0,1,1.48-.33h0a1.89,1.89,0,0,1,.41,0,4.9,4.9,0,0,1,.77,0,7.12,7.12,0,0,1,1.52.15,4.34,4.34,0,0,1,.7.14,7.44,7.44,0,0,1,1.14.41c.19.07.34.19.52.26a9.41,9.41,0,0,1,2.22,1.55c.15.11.26.26.4.37a11.76,11.76,0,0,1,1.48,1.77,3.18,3.18,0,0,1,.41.6c.15.22.29.48.44.7a21,21,0,0,1,1.52,3.29l.33,1a26.06,26.06,0,0,1,.85,3.33h0c0,.26.11.52.15.77a.34.34,0,0,0,0,.19c.08.44.15.92.23,1.4s.14,1.19.18,1.81c0,.19,0,.41,0,.63,0,.41.07.85.11,1.3a6.12,6.12,0,0,0,0,.85c0,.73,0,1.51,0,2.29v-.78a11,11,0,0,1,0-1.15c0-.33.07-.66.11-1a10.14,10.14,0,0,1,.52-2.14,4.26,4.26,0,0,1,.22-.66l.22-.6a6.07,6.07,0,0,1,.3-.55v0a.23.23,0,0,1,.07-.14,1.08,1.08,0,0,1,.19-.3.34.34,0,0,1,.07-.18s0-.08.07-.12v0c.08-.15.19-.3.26-.41s.26-.37.37-.52.33-.44.52-.66a5.35,5.35,0,0,1,.63-.63,6.46,6.46,0,0,1,.74-.63l.77-.55c.33-.19.67-.37,1-.52l.22-.11h0c.07,0,.18-.07.26-.11a7.6,7.6,0,0,1,2-.48,7.23,7.23,0,0,1,.93,0,3.66,3.66,0,0,1,.66,0,1.6,1.6,0,0,1,.44,0,1.76,1.76,0,0,1,.45.07,2.81,2.81,0,0,1,.55.15,4.16,4.16,0,0,1,.67.18l.55.22c.19.08.37.19.56.26a9.82,9.82,0,0,1,2.1,1.44c.15.15.3.26.44.41a16,16,0,0,1,3.37,5,8.24,8.24,0,0,1,.37.88h0v0a8.48,8.48,0,0,1,.37,1.11,3.92,3.92,0,0,1,.18.55,4.19,4.19,0,0,1,.22.81c.15.48.26,1,.37,1.45.08.33.15.66.22,1s.19.92.26,1.44a16.72,16.72,0,0,1,.22,1.7c0,.48.12,1,.15,1.44l.11,1.55v.11c0,.49,0,.93,0,1.41A2.5,2.5,0,0,1,275.68,77Z" style="fill:#de8989"/><path d="M230,43.19a41,41,0,0,1,1.78,12.9v-.85a12.44,12.44,0,0,1,3-8.42C233.23,45.67,231.64,44.49,230,43.19Z" style="fill:#f3dbd8"/><path d="M253.73,66.51v-.85a13.33,13.33,0,0,1,2.07-7.32c-1-.33-2-.73-2.92-1.1A45.33,45.33,0,0,1,253.73,66.51Z" style="fill:#f3dbd8"/><path d="M329.59,48a11.42,11.42,0,0,0-.07-1.55,8.26,8.26,0,0,0-.08-1,3.68,3.68,0,0,0-.07-.63,17.28,17.28,0,0,0-.48-2.4l-.33-1.22c-.08-.3-.19-.55-.3-.85a6.56,6.56,0,0,0-.29-.81c-.15-.34-.26-.67-.41-1a2.11,2.11,0,0,0-.26-.52c-.11-.26-.22-.52-.37-.81s-.37-.7-.55-1l-.3-.51c-.44-.7-.89-1.41-1.37-2.07a13.3,13.3,0,0,0-.92-1.18,39.72,39.72,0,0,0-6.39-6.29c-.37-.29-.78-.62-1.18-.92a70.41,70.41,0,0,0-11.31-6.8,134.65,134.65,0,0,0-26.75-9.35c-2.59-.66-5.25-1.22-7.91-1.77a1.28,1.28,0,0,1-.37-.07c-.89-.19-1.77-.34-2.66-.52s-1.88-.33-2.81-.52-1.88-.33-2.84-.48l-2.85-.44-3.06-.45c-1.85-.25-3.7-.51-5.58-.7-3.77-.44-7.5-.77-11.27-1-.26,0-.48,0-.71,0-1.1-.07-2.18-.15-3.25-.18l-2.14-.11c-6.5-.3-13-.37-19.18-.19-2.14.07-4.25.15-6.32.3-2.77.18-5.5.37-8.16.66h-.19c-1,.08-1.88.19-2.8.3-2.22.26-4.36.55-6.47.88-.67.11-1.26.19-1.88.34-3.59.62-7,1.33-10.09,2.18l-2.29.66c-6.36,1.89-9.09,4.8-9.09,8V37.5c0,1.7-.11,3.37,0,4.92a3,3,0,0,0,.08.59,6.7,6.7,0,0,0,.74,2.25,3,3,0,0,0,.26.48,6.14,6.14,0,0,0,1.29,1.37,4.33,4.33,0,0,0,.7.48,4.54,4.54,0,0,0,.85.45,17,17,0,0,0,4.69,1.36c2.85.45,5.66,1,8.43,1.63a19.32,19.32,0,0,1,5.39,2.22l1.15.66v-.37c-.37-.18-.7-.37-1.07-.55a.28.28,0,0,0-.19-.08s-.07,0-.11,0-.37-.19-.55-.26V34.47c0-.33,0-.7,0-1a3.12,3.12,0,0,1,.12-.85h0c.07-.52.14-1,.25-1.51.08-.23.11-.48.19-.71l.22-.66a11.43,11.43,0,0,1,1.77-3.18,2.46,2.46,0,0,1,.3-.33s.07-.11.11-.15l.15-.15a.28.28,0,0,1,.15-.15l.25-.25a2.12,2.12,0,0,1,.26-.26,8.38,8.38,0,0,1,1.19-.89,8,8,0,0,1,1.55-.78h0a5,5,0,0,1,1.22-.36,4.42,4.42,0,0,1,.74-.15,5.12,5.12,0,0,1,1.36,0h.34a2.19,2.19,0,0,1,.51,0c.11,0,.22,0,.34,0h0c.15,0,.26,0,.37.08a.65.65,0,0,1,.37.11,4,4,0,0,1,.74.26,1.85,1.85,0,0,1,.44.18c.37.19.78.37,1.19.63l.51.33s.08,0,.11.08a8.62,8.62,0,0,1,.78.63c.26.22.52.48.78.73a7.69,7.69,0,0,1,.66.78,19.93,19.93,0,0,1,3.22,6.28c.18.59.37,1.18.51,1.85a5.3,5.3,0,0,1,.19.85c.07.33.15.7.22,1.07a9.19,9.19,0,0,1,.18,1.11,12.15,12.15,0,0,1,.19,1.33c0,.26.07.52.11.81.07.7.15,1.44.18,2.22,0,.48,0,.92.08,1.4v1.11a14.17,14.17,0,0,1,.15-2.18,7.39,7.39,0,0,1,.18-.89,4.55,4.55,0,0,1,.19-.7c0-.18.11-.33.14-.51s.15-.41.23-.63a14.87,14.87,0,0,1,1.18-2.4,3.22,3.22,0,0,1,.33-.45s0-.07,0-.07.07-.08.07-.11h0a4.2,4.2,0,0,1,.56-.63c.18-.19.36-.41.55-.59a6.87,6.87,0,0,1,.59-.52c.11-.11.26-.18.37-.29h0a4.62,4.62,0,0,1,.92-.56h0a6.59,6.59,0,0,1,1.37-.59,3.73,3.73,0,0,1,.63-.18h0a3.14,3.14,0,0,1,.66-.15c.15,0,.26,0,.41-.08-.11-.07-.18-.18-.29-.26h0c-1.15-1-2.26-2.1-3.4-3.21-.41-.41-.85-.81-1.3-1.18s-.81-.67-1.18-1-.7-.52-1-.81a.45.45,0,0,0-.15-.11,6.34,6.34,0,0,0-.59-.41c-.19-.11-.37-.26-.56-.37a4.42,4.42,0,0,0-.55-.37,8.85,8.85,0,0,0-1.15-.7,3.78,3.78,0,0,0-.77-.44c-1.3-.74-2.63-1.41-4-2h0c-.6-.26-1.19-.52-1.81-.74-.45-.18-.89-.33-1.33-.52a2.11,2.11,0,0,1-.45-.18h0l-.33-.11a5.11,5.11,0,0,0-.81-.26l-1.08-.33c-.44-.15-.88-.26-1.33-.37l-.77-.22a5.53,5.53,0,0,0-.78-.19l-.88-.22-1.41-.33c-.26,0-.52-.11-.74-.15a5.41,5.41,0,0,1-.77-.19l-1.26-.22c-.29,0-.59-.11-.85-.15-.66-.11-1.37-.18-2-.29-.89-.11-1.74-.22-2.55-.3-.59,0-1.18-.11-1.7-.14-.22,0-.44,0-.67,0-.44,0-.85-.07-1.21-.07-.19,0-.37,0-.56,0s-.55,0-.81,0H179c-.52,0-1,0-1.37-.07h-.26c-.26,0-.4,0-.51,0s-.08,0-.12,0h0v0a1.1,1.1,0,0,0,.29-.11c1.15-.3,2.29-.6,3.48-.85.85-.23,1.73-.41,2.58-.6l3-.66c1-.22,2.07-.44,3.14-.63a16.06,16.06,0,0,1,1.92-.33c.7-.15,1.44-.26,2.18-.37.3,0,.56-.11.85-.15.56-.07,1.11-.18,1.7-.26,1.88-.29,3.77-.55,5.65-.77l.78-.11c2-.23,4-.45,6-.63,1.62-.15,3.25-.26,4.87-.37.37,0,.7,0,1.07-.08,1-.07,1.93-.11,2.89-.14l2.88-.11c2-.08,4.06-.08,6.1-.08,1.33,0,2.62,0,3.91,0h.45c.77,0,1.51,0,2.25.07h.63c1,0,2,.08,2.92.15,1.18,0,2.32.11,3.51.19,1.36.11,2.73.18,4.06.33l3.47.33c.78.07,1.56.19,2.37.26.15,0,.29,0,.41,0l1.58.22L254,13c1.15.18,2.25.33,3.36.52s2.22.37,3.33.59,2.47.48,3.69.7l2.26.48a7.73,7.73,0,0,1,.81.19l2.36.55c.19,0,.41.11.63.15,1,.26,2,.52,3.07.77.74.19,1.51.41,2.25.63.45.15.89.26,1.37.41l2.22.66c1.7.52,3.4,1.11,5,1.7a.12.12,0,0,1,.08,0c.59.18,1.14.41,1.7.63,3,1.11,5.83,2.29,8.57,3.58.66.3,1.37.63,2,1,1.15.56,2.25,1.15,3.36,1.74s2.18,1.18,3.22,1.85h0c.66.4,1.33.81,2,1.22l.59.37,1.33.88c.18.11.33.22.51.34.34.22.71.48,1,.73l0,0c.48.33.92.67,1.4,1,.74.55,1.44,1.1,2.14,1.7a5.52,5.52,0,0,1,.74.62c.22.19.48.41.7.63L315.26,38c.55.52,1.1,1.07,1.62,1.63a6.31,6.31,0,0,1,.7.81c.22.3.45.55.63.85a8.48,8.48,0,0,1,1,1.7c.11.3.22.55.33.85a3.93,3.93,0,0,1,.19.67,1.61,1.61,0,0,1,.07.4V45a2.52,2.52,0,0,1,.08.55,8.43,8.43,0,0,1,0,.85v.7a1.23,1.23,0,0,1,0,.33v.11h0a.85.85,0,0,1-.08.34,1,1,0,0,1-.07.33,1.28,1.28,0,0,1-.07.37,6.52,6.52,0,0,1-.26.85,3.52,3.52,0,0,1-.15.37s0,0,0,.07a1.11,1.11,0,0,1-.15.34.17.17,0,0,1,0,.11c0,.11-.08.18-.11.25s0,.08-.08.12a5.07,5.07,0,0,1-.33.59L318,52a.12.12,0,0,1,0,.08c-.15.22-.3.4-.44.62a1.31,1.31,0,0,0-.19.26.83.83,0,0,1-.18.19,13.63,13.63,0,0,1-1.11,1.18c-.08.07-.15.18-.22.22l-.15.15c-.19.18-.41.37-.59.55l0,0a1.55,1.55,0,0,0-.18.15l-.67.55h0c-.07,0-.11.11-.18.15a12.79,12.79,0,0,1-1.19.85l-.51.33a6.57,6.57,0,0,1-.78.48c-.37.22-.74.41-1.11.63-.74.41-1.55.81-2.4,1.18h0c-.74.34-1.55.67-2.36,1-.52.19-1.08.41-1.63.6s-1.15.36-1.7.51c-.07,0-.15,0-.22,0a.57.57,0,0,0-.22.07,6.28,6.28,0,0,1-.82.23l-2.36.55c-.81.18-1.63.33-2.44.48h0c-.07,0-.15,0-.22,0-.37.07-.78.14-1.18.18s-.52.08-.82.11a1.17,1.17,0,0,1-.37,0c-.74.07-1.47.18-2.25.22-.3,0-.63,0-.92.07h-.19c-.29,0-.59,0-.89,0s-.77,0-1.18,0-.85,0-1.25,0c-.71,0-1.45,0-2.18,0s-1.48,0-2.22,0c-.44,0-.85,0-1.29,0h-.93a4.11,4.11,0,0,1-.7,0h-.15l-3.47-.33-.74-.11L273.69,63h0v0a8.48,8.48,0,0,1,.37,1.11,3.54,3.54,0,0,1,.18.55,4.19,4.19,0,0,1,.22.81c.15.48.26,1,.37,1.44s.15.67.22,1a12.68,12.68,0,0,1,.26,1.44,16.72,16.72,0,0,1,.22,1.7c0,.48.12,1,.15,1.44l.11,1.55v.11c0,.48,0,.93,0,1.41v28.08h-.07v1.7h2.1c1.63,0,3.25-.11,4.92-.19a9.68,9.68,0,0,0,1.51-.11c2.88-.18,5.77-.51,8.54-1l1.33-.22a85.77,85.77,0,0,0,11.08-2.55c.3-.07.59-.18.89-.26.63-.18,1.26-.4,1.88-.63l1.85-.66c.63-.22,1.22-.48,1.81-.74h0c.4-.15.77-.33,1.18-.52A40.87,40.87,0,0,0,322.05,93c.41-.33.82-.7,1.19-1a21.92,21.92,0,0,0,2.21-2.33c.34-.37.63-.78.93-1.18a5.7,5.7,0,0,0,.66-1,14.62,14.62,0,0,0,1-1.73,5.11,5.11,0,0,0,.37-.82,2.18,2.18,0,0,0,.22-.59A10.22,10.22,0,0,0,329,83.1a9.52,9.52,0,0,0,.37-1.44.59.59,0,0,1,0-.22v0a1.79,1.79,0,0,0,.07-.33,13.78,13.78,0,0,0,.22-2.48c0-.33,0-.66,0-1V51.07C329.7,50.07,329.59,49.07,329.59,48Z" style="fill:#f3dbd8"/><path d="M329.59,77.56c0,.18-.26,3-.33,3.88a.74.74,0,0,1,0,.22c-3.43,15.59-27.75,23.35-51.51,23.76h-2.1V75.49h0l2.43,1S302.77,111.74,329.59,77.56Z" style="fill:#eac1c1"/><path d="M189.81,53.84c-.37-.23-.77-.45-1.14-.67a22.7,22.7,0,0,0-5.4-2.22c-2.77-.66-5.58-1.18-8.42-1.62-9.87-1.63-8.65-6.65-8.65-11.94V23.54l1.52-.3c.66.74,18.51,2.85,20.32,9.2h0c.18.74.44,13.53.66,14.27a22,22,0,0,1,1.07,6.68A1.71,1.71,0,0,1,189.81,53.84Z" style="fill:#eac1c1"/><path d="M181.13,9.24c-1.55.74-3.14,1.37-4.73,2.07-2.18.92-3,2.07-2.92,4.17s3,2.63,4.54,3.29c3.7,1.55,7.51,1,11.42,1.11,2.51.07,4.44.92,6.76,1.7,5.36,1.77,10.72,2.55,15.74,5.17,2.22,1.18,4.77,2.44,4.73,5.32s-3.58,3-5.13,4.84c-2.66-.77-2.85-4.36-4-6.46-1-1.81-1.84-4-3.84-4.62a39.84,39.84,0,0,0-8.35-1.41,9.89,9.89,0,0,0-3.77.41c-1.18.44-1.33,1.07-2.29,1.81-1.14,1-3.4.59-5.06.59a46.88,46.88,0,0,1-11.53-1.55c-2.92-.7-6-2.7-6.91-5.84-1.14-4.1.7-6.2,3.84-8.46,3.63-2.62,9-3.1,13.12-4.28A35.87,35.87,0,0,1,189.15,6c1.51-.15,3.91-.89,5.76-.71-3.18-.18-7.24,1.11-10.16,2.37C183.64,8.13,182.35,8.65,181.13,9.24Z" style="fill:#eac1c1"/><path d="M255.54,89.42c0,3.4,1.89,10.6-1.51,10.6a49,49,0,0,1-6.36-2.21c-.33-.11-.66-.26-1-.41a15.64,15.64,0,0,1-1.44-.63c-1.18-.52-2.33-1-3.44-1.59-.92-.44-1.81-.92-2.66-1.4,0,0-.07,0-.15-.08-.81-.48-1.62-.92-2.4-1.4s-1.62-1-2.44-1.55c-.59-.37-1.14-.78-1.7-1.15,1.08-2.14,1.15-4.32,1.41-4.32s7.24,5.17,10.49,5.17c4.66,0,4.36-6.72,4.44-10.16.14-7,.55-13.34-.19-20.25a16.13,16.13,0,0,0-1.4-5.35,9.49,9.49,0,0,0-5.62-5.1,4.07,4.07,0,0,0-2.84,0c-2.74,1-4.36,4.95-4.73,8.53-.11-1.36-.19-2.73-.19-4.06a15,15,0,0,1,1.55-6.87,9.42,9.42,0,0,1,1.37-2.07h0a6.09,6.09,0,0,1,4.32-2.52c1.59,0,9.94,1.37,10.68,10.31,0,.45.07.89.07,1.37v2.51C251.85,63.3,255.54,73.12,255.54,89.42Z" style="fill:#cc7272"/><path d="M212,56.64c0,7.21,1.14,13.31-1.81,13.45-.11-.11-4.1-4-4.21-4-.37-.34-.71-.71-1.08-1-.11-.11-.22-.18-.33-.29-.33-.34-.7-.67-1-1a103.1,103.1,0,0,0-8.21-6.87l-.44-.63c-1.92-2.26-5.47-1.92-5.47-4.69,0-7,5.88,2.25,11.27,2.25,3.66,0,4.14-7.83,4.14-11.57,0-8.2-5.17-14-8.94-14S190,32,190,35.36c0,.41,0,.81.07,1.18,0,0-.11,0-.18,0-.41,0-.44-2.4-.44-2.77a13.39,13.39,0,0,1,5.13-10.39,9.54,9.54,0,0,1,5.25-2.4h.15a5.87,5.87,0,0,1,3.62,1.44h0c3.91,3.25,6.09,11.23,7.2,17.52q.23,1.11.33,2.1c.23,1.41.37,2.7.48,3.7a23,23,0,0,1,.15,2.36C211.65,50.62,212,53.69,212,56.64Z" style="fill:#cc7272"/><path d="M276.5,95.66a8.19,8.19,0,0,1-.82,3.07.26.26,0,0,1-.07.15,27.15,27.15,0,0,1-2.85,4.65c-.59,0-1.14-.11-1.7-.18-.74-.08-1.44-.15-2.14-.26h-.15c-.92-.11-1.81-.22-2.66-.37l-2.66-.44c-.85-.19-1.7-.34-2.55-.52s-1.48-.33-2.21-.48c-1.37-.33-2.7-.67-4-1A3,3,0,0,1,258,97c13.08,0,13-4.69,13-17.81,0-5.39.19-12.71-2.1-17.1a6.52,6.52,0,0,0-6.1-3.88,5.41,5.41,0,0,0-3.8,1.25c-1.22,1-2,2.7-3,4.7a.45.45,0,0,0,0,.18c0,.15,0,.3,0,.44a5.63,5.63,0,0,1-1.25,2.41c0-.89-.11-1.89-.11-2.85a15.69,15.69,0,0,1,.81-5.43s0,0,0-.08v0a2.88,2.88,0,0,1,.19-.45h0c1.26-2.84,3.81-4.43,8.09-4.43,5.43,0,10.46,3.51,11.27,9.16h0c0,.34.08.63.11,1l.41,9.91v.11l.07,1.4Z" style="fill:#cc7272"/><path d="M233.3,77.78a11.85,11.85,0,0,1-1.48,6.39c-1,1.52-.33,4.21-1.29,4.21l-2.66-2.1c-.67-.56-1.37-1.11-2-1.66s-1.52-1.26-2.22-1.89l-.89-.78c-2.69-2.4-5.24-4.84-7.76-7.27-1.21-1.19-3.1-3-4.32-4.14h0c0-1.11-.15-3-.15-3.85,0-5.32,5.51,8,11.31,8,2.73,0,5.36-1.15,5.36-16.19,0-8.39-.89-18.84-9-18.84-4.29,0-5.81,2.73-6.51,6.06h0c-.44,2.1-.55,4.43-.81,6.35a40.7,40.7,0,0,1-.52-6.2,20.7,20.7,0,0,1,.63-5.36,12.13,12.13,0,0,1,1.4-3.44.1.1,0,0,1,0-.07.2.2,0,0,0,.07-.11h0A8.36,8.36,0,0,1,218.26,33h0a8,8,0,0,1,1.37-.11c3.84,0,7.83,2.92,9.5,7.83a.15.15,0,0,1,0,.11s0,.07,0,.11a11.78,11.78,0,0,1,.52,2,16.36,16.36,0,0,1,.26,3c0,3.58,1.88,7.43,1.88,11C231.79,64.29,233.3,65.29,233.3,77.78Z" style="fill:#cc7272"/><path d="M188.74,32a3.72,3.72,0,0,1-.66-.08c-1.15-.29-2.22-.59-3.29-.85l-2.15-.55c-2.77-.74-5.54-1.37-8.27-1.89a13.16,13.16,0,0,1-10.68-13,2.52,2.52,0,0,1,2.51-2.51,2.49,2.49,0,0,1,2.51,2.51,8.08,8.08,0,0,0,6.62,8.06c2.84.52,5.72,1.18,8.61,2l2.1.52c1.07.25,2.22.55,3.37.84a2.51,2.51,0,0,1,1.77,3.07A2.55,2.55,0,0,1,188.74,32Z" style="fill:#a86060"/><path d="M285.29,65.88A79.71,79.71,0,0,1,273.21,65a2.07,2.07,0,1,1,.62-4.1c12.57,1.88,24.39.7,33.3-3.25a2.09,2.09,0,1,1,1.73,3.8A59.54,59.54,0,0,1,285.29,65.88Z" style="fill:#a86060"/><path d="M312.56,59.05a2.14,2.14,0,0,1-1.74-.93,2.08,2.08,0,0,1,.59-2.88c3.73-2.48,6-5.39,6.32-8.24a7.57,7.57,0,0,0-2.4-6.06,63.79,63.79,0,0,0-13.82-10.68,2.08,2.08,0,1,1,2.11-3.58A66.22,66.22,0,0,1,318.36,38.1a11.59,11.59,0,0,1,3.55,9.42c-.48,4.1-3.37,8.09-8.13,11.27A3.61,3.61,0,0,1,312.56,59.05Z" style="fill:#a86060"/><path d="M296.67,27.34a2,2,0,0,1-.92-.22,118.88,118.88,0,0,0-17.11-6.76,2.09,2.09,0,1,1,1.25-4,124.31,124.31,0,0,1,17.7,7,2.13,2.13,0,0,1,1,2.81A2.1,2.1,0,0,1,296.67,27.34Z" style="fill:#a86060"/><path d="M261.46,16a1.17,1.17,0,0,1-.37,0,194.63,194.63,0,0,0-58.72-1.81,2.09,2.09,0,0,1-.51-4.14,200.54,200.54,0,0,1,60,1.85,2.07,2.07,0,0,1,1.66,2.44A2.1,2.1,0,0,1,261.46,16Z" style="fill:#a86060"/><path d="M218.48,35.36a2.05,2.05,0,0,1-1.4-.55l-2.66-2.48-1.07-1c-11.49-11-29.23-11.79-35.07-12.09-2-.11-3.62-.18-3.8-2a2.17,2.17,0,0,1,1.88-2.36c5.62-1.48,11.42-2.7,17.33-3.66a2.1,2.1,0,0,1,.67,4.14c-1.63.26-3.26.55-4.88.85,8.2,1.37,18.73,4.51,26.75,12.12l1.07,1c.89.82,1.74,1.63,2.63,2.44a2.11,2.11,0,0,1,.11,3A2,2,0,0,1,218.48,35.36Z" style="fill:#a86060"/><path d="M286.21,77.15c-1.92,0-3.88,0-5.83-.15-1.67-.07-3.33-.22-5-.4a2.49,2.49,0,1,1,.51-4.95c1.59.14,3.18.29,4.77.37a91.9,91.9,0,0,0,11,0,2.47,2.47,0,0,1,2.62,2.36A2.53,2.53,0,0,1,291.94,77C290.06,77.11,288.13,77.15,286.21,77.15Z" style="fill:#a86060"/><path d="M304.58,75.23a2.49,2.49,0,0,1-2.44-2,2.51,2.51,0,0,1,1.88-3,45.72,45.72,0,0,0,12.12-4.44,2.5,2.5,0,0,1,2.44,4.37,50.68,50.68,0,0,1-13.45,4.91A1,1,0,0,1,304.58,75.23Z" style="fill:#a86060"/><path d="M317.36,70.57a2.48,2.48,0,0,1-2.18-1.29,2.53,2.53,0,0,1,1-3.4c6.73-3.73,10.42-8.79,11-15a16.63,16.63,0,0,0,0-1.73c0-.37,0-.74,0-1.15,0-5.1-1.89-9.9-5.54-14.37a2.49,2.49,0,0,1,3.84-3.18c4.43,5.4,6.69,11.31,6.69,17.55v1a17.71,17.71,0,0,1,0,2.29c-.66,7.91-5.36,14.48-13.52,19A2,2,0,0,1,317.36,70.57Z" style="fill:#a86060"/><path d="M317.36,28.6a2.41,2.41,0,0,1-1.55-.55,66.32,66.32,0,0,0-12.3-7.58A2.49,2.49,0,1,1,305.69,16,69.53,69.53,0,0,1,319,24.17a2.52,2.52,0,0,1,.41,3.51A2.69,2.69,0,0,1,317.36,28.6Z" style="fill:#a86060"/><path d="M278.12,11.53a4,4,0,0,1-.59-.07,238,238,0,0,0-45-6.29,2.49,2.49,0,1,1,.25-5,245.42,245.42,0,0,1,46,6.42,2.5,2.5,0,0,1-.63,4.92Z" style="fill:#a86060"/><path d="M166.2,35.73a2.51,2.51,0,0,1-2.51-2.51V15.7c0-2.66,1.4-7.53,10.86-10.34C184.9,2.29,198.31.44,213.39,0a2.52,2.52,0,0,1,.14,5C198.9,5.47,185.9,7.24,176,10.2c-4.62,1.37-7.28,3.4-7.28,5.54V33.26A2.52,2.52,0,0,1,166.2,35.73Z" style="fill:#a86060"/><path d="M193.77,58.31a2.48,2.48,0,0,1-1.41-.45,29.64,29.64,0,0,0-9.64-4.47c-2.48-.59-5.18-1.11-8.28-1.59-10.12-1.66-10.9-7-10.79-12.26a2.48,2.48,0,0,1,2.55-2.44,2.51,2.51,0,0,1,2.44,2.55c-.07,3.8-.11,6.13,6.58,7.2,3.17.52,6,1.07,8.61,1.67a34,34,0,0,1,11.34,5.21,2.51,2.51,0,0,1-1.4,4.58Z" style="fill:#a86060"/><path d="M282.7,106.45c-2.36,0-4.76-.07-7.17-.22l-1.07-.07c-1.29-.08-2.47-.22-3.65-.34l-1-.11a2.51,2.51,0,1,1,.55-5l.93.11c1.14.11,2.29.22,3.47.29l1,.08a107.39,107.39,0,0,0,17.66-.34,2.49,2.49,0,0,1,.52,4.95A100.65,100.65,0,0,1,282.7,106.45Z" style="fill:#a86060"/><path d="M304.58,104a2.51,2.51,0,0,1-.59-5,46.72,46.72,0,0,0,13.19-5.13,2.5,2.5,0,1,1,2.58,4.28,51.65,51.65,0,0,1-14.59,5.69A1.44,1.44,0,0,1,304.58,104Z" style="fill:#a86060"/><path d="M323.46,94.85a2.45,2.45,0,0,1-1.81-.78,2.5,2.5,0,0,1,.07-3.54,16.13,16.13,0,0,0,5-9.24,24.19,24.19,0,0,0,.37-3.73V71.68a2.51,2.51,0,0,1,5,0v5.88a27.81,27.81,0,0,1-.41,4.47,20.92,20.92,0,0,1-6.5,12.12A2.57,2.57,0,0,1,323.46,94.85Z" style="fill:#a86060"/><path d="M329.59,74.2a2.51,2.51,0,0,1-2.51-2.52V51a2.51,2.51,0,0,1,5,0V71.68A2.49,2.49,0,0,1,329.59,74.2Z" style="fill:#a86060"/><path d="M275.68,104.57a2.52,2.52,0,0,1-2.51-2.51V77c0-8.83-2-13.71-3.58-16.26s-4-4.1-6.29-4.1c-3.47,0-7.09,3.4-7.09,9.09V98.29a2.52,2.52,0,0,1-5,0V66.55c0-8.83-2-13.71-3.58-16.26s-3.95-4.1-6.28-4.1c-3.47,0-7.09,3.4-7.09,9.09V87.61a2.52,2.52,0,0,1-5,0V56.13c0-12.23-3.62-17-5.76-18.77a2.49,2.49,0,1,1,3.17-3.85c2.33,1.93,4.95,5.32,6.43,11.46a11.56,11.56,0,0,1,8.28-3.73c4.1,0,7.83,2.29,10.49,6.43A25.31,25.31,0,0,1,255,55.43a11.51,11.51,0,0,1,8.28-3.74c4.1,0,7.83,2.29,10.49,6.43,2.88,4.51,4.36,10.87,4.36,19v25.09A2.38,2.38,0,0,1,275.68,104.57Z" style="fill:#a86060"/><path d="M225.1,37.87a2.58,2.58,0,0,1-1.59-.55,6.06,6.06,0,0,0-5.95-1.26A2.51,2.51,0,1,1,216,31.3a11,11,0,0,1,10.68,2.14A2.47,2.47,0,0,1,227,37,2.33,2.33,0,0,1,225.1,37.87Z" style="fill:#a86060"/><path d="M209.84,70.61a2.51,2.51,0,0,1-2.51-2.51V45.63c0-8.83-2-13.7-3.59-16.25s-4-4.11-6.28-4.11c-3.47,0-7.09,3.4-7.09,9.09V50.84a2.52,2.52,0,1,1-5,0V34.36c0-8.79,6.13-14.07,12.08-14.07,4.1,0,7.84,2.29,10.5,6.43a25.63,25.63,0,0,1,3.17,7.72,11.78,11.78,0,0,1,4.85-3.14,2.51,2.51,0,0,1,1.58,4.76c-3.17,1.08-5.24,4.51-5.24,8.76V68.14A2.4,2.4,0,0,1,209.84,70.61Z" style="fill:#a86060"/><polygon points="197.05 43.08 196.57 43.2 196.13 43.38 195.87 42.94 195.58 42.57 195.87 42.2 196.17 41.79 196.61 41.98 197.09 42.12 197.05 42.6 197.05 43.08" style="fill:#cc7272"/><polygon points="200.38 47.41 199.9 47.52 199.42 47.7 199.16 47.26 198.86 46.89 199.2 46.52 199.46 46.11 199.94 46.3 200.42 46.45 200.34 46.93 200.38 47.41" style="fill:#cc7272"/><polygon points="219.26 43.9 218.78 44.01 218.34 44.16 218.08 43.75 217.78 43.34 218.08 42.97 218.37 42.57 218.82 42.79 219.3 42.9 219.26 43.42 219.26 43.9" style="fill:#cc7272"/><polygon points="220.26 56.09 219.78 56.2 219.3 56.35 219.08 55.94 218.74 55.54 219.08 55.17 219.37 54.76 219.81 54.98 220.29 55.09 220.26 55.61 220.26 56.09" style="fill:#cc7272"/><polygon points="215.53 63.78 215.05 63.89 214.57 64.03 214.31 63.63 214.01 63.22 214.35 62.85 214.64 62.45 215.09 62.63 215.57 62.78 215.49 63.3 215.53 63.78" style="fill:#cc7272"/><polygon points="222.81 68.43 222.33 68.54 221.88 68.69 221.63 68.28 221.33 67.88 221.63 67.51 221.92 67.1 222.36 67.32 222.84 67.43 222.81 67.95 222.81 68.43" style="fill:#cc7272"/><polygon points="261.86 72.53 261.38 72.64 260.94 72.79 260.68 72.39 260.38 71.98 260.72 71.61 260.98 71.2 261.46 71.39 261.9 71.53 261.86 72.02 261.86 72.53" style="fill:#cc7272"/><polygon points="239.91 55.8 239.44 55.91 238.96 56.09 238.7 55.65 238.4 55.24 238.73 54.87 238.99 54.47 239.47 54.69 239.91 54.8 239.88 55.31 239.91 55.8" style="fill:#cc7272"/><polygon points="245.79 65.36 245.31 65.47 244.83 65.62 244.57 65.22 244.28 64.81 244.61 64.44 244.9 64.03 245.35 64.26 245.83 64.37 245.75 64.88 245.79 65.36" style="fill:#cc7272"/><polygon points="269.92 78.44 269.44 78.56 269 78.7 268.74 78.3 268.44 77.89 268.77 77.52 269.03 77.11 269.48 77.3 269.95 77.45 269.92 77.93 269.92 78.44" style="fill:#cc7272"/><polygon points="265.56 66.1 265.08 66.21 264.63 66.36 264.38 65.96 264.08 65.55 264.41 65.18 264.67 64.77 265.12 64.96 265.6 65.11 265.56 65.59 265.56 66.1" style="fill:#cc7272"/><polygon points="261.86 94 261.38 94.11 260.94 94.3 260.68 93.85 260.38 93.48 260.72 93.11 260.98 92.71 261.46 92.89 261.9 93.04 261.86 93.52 261.86 94" style="fill:#cc7272"/><polygon points="238.36 72.94 237.88 73.05 237.4 73.2 237.18 72.79 236.88 72.39 237.18 72.02 237.48 71.61 237.92 71.79 238.4 71.94 238.36 72.42 238.36 72.94" style="fill:#cc7272"/><polygon points="237.66 83.62 237.18 83.73 236.7 83.88 236.48 83.47 236.15 83.06 236.48 82.69 236.78 82.29 237.22 82.47 237.7 82.62 237.66 83.1 237.66 83.62" style="fill:#cc7272"/><polygon points="244.24 81.33 243.76 81.44 243.31 81.58 243.06 81.18 242.76 80.77 243.09 80.4 243.35 80 243.79 80.18 244.28 80.33 244.24 80.81 244.24 81.33" style="fill:#cc7272"/><polygon points="264.82 84.39 264.34 84.5 263.86 84.69 263.6 84.25 263.3 83.88 263.64 83.51 263.9 83.1 264.38 83.28 264.82 83.43 264.78 83.91 264.82 84.39" style="fill:#cc7272"/></svg>