<svg width="1262" height="162.8" version="1.1" viewBox="0 0 1262 162.8" xmlns="http://www.w3.org/2000/svg"><style type="text/css">.st0{display:none;}
	.st1{display:inline;}
	.st2{fill:#EAC1C1;}
	.st3{fill:#DE8989;}
	.st4{fill:#F3DBD8;}
	.st5{display:inline;fill:#EAC1C1;}
	.st6{fill:#CC7272;}
	.st7{fill:#A86060;}
	.st8{display:inline;fill:#DE8989;}
	.st9{display:inline;fill:#CC7272;}</style><g class="st0" transform="translate(0 -2)" display="none"><g class="st1" display="inline"><path class="st2" d="m438.8-37.6c-9.5 2.5 60.8-4.8 102.6 35 38.3 36.5 71.8 61.3 97.2 72 121.1 50.8 216.2-6.7 179-45.9-64.7-68.1-231.6-99.7-378.8-61.1z" fill="#eac1c1"/><path class="st3" d="m706.2 125v72.4h-0.2c-0.9 0-1.8-0.1-2.8-0.2-1.7-0.1-3.3-0.3-4.9-0.4s-3.1-0.3-4.6-0.5c-2-0.2-3.9-0.4-5.8-0.7h-0.4c-2.5-0.3-4.9-0.6-7.2-1-2.4-0.4-4.8-0.8-7.2-1.2-2.3-0.5-4.6-0.9-6.9-1.4-2-0.4-4-0.9-6-1.3-3.7-0.9-7.3-1.8-10.7-2.8-2.8-0.8-5.4-1.6-8-2.5-1.6-0.5-3.2-1.1-4.7-1.6-2.2-0.8-4.3-1.6-6.4-2.4-0.9-0.3-1.8-0.7-2.8-1.1-1.4-0.5-2.6-1.1-3.9-1.7-3.2-1.4-6.3-2.8-9.3-4.3-2.5-1.2-4.9-2.5-7.2-3.8-0.1 0-0.2-0.1-0.4-0.2-2.2-1.3-4.4-2.5-6.5-3.8-2.3-1.4-4.4-2.8-6.6-4.2-1.6-1-3.1-2.1-4.6-3.1-0.5-0.4-1.1-0.8-1.7-1.2-3.4-2.4-6.8-4.9-10-7.4-0.2-0.2-0.5-0.4-0.7-0.6-1.8-1.5-3.7-3-5.5-4.5-2.1-1.7-4.1-3.4-6-5.1l-2.4-2.1c-7.3-6.5-14.2-13.1-21-19.7-3.3-3.2-6.6-6.4-9.9-9.5-0.1-0.2-0.3-0.3-0.5-0.5-0.6-0.5-1.1-1.1-1.7-1.6-1.4-1.4-2.9-2.8-4.4-4.2-2.3-2.3-4.6-4.5-6.9-6.7-0.3-0.3-0.6-0.5-0.9-0.8-1-0.9-1.9-1.9-2.9-2.8-0.3-0.3-0.6-0.5-0.9-0.8-0.9-0.9-1.9-1.8-2.8-2.7-7.8-7.1-15.1-13.4-22.2-18.6 0 0-0.1-0.1-0.2-0.1-1-0.8-2-1.4-3-2.1-0.2-0.2-0.5-0.3-0.7-0.5-0.9-0.5-1.7-1.1-2.4-1.6l-2.4-1.5c-0.5-0.4-1.1-0.7-1.6-1s-1-0.5-1.5-0.8c-1-0.6-2-1.1-3-1.6s-1.9-1-2.9-1.5c-0.1-0.1-0.3-0.2-0.5-0.2-0.1 0-0.2-0.1-0.3-0.1-0.5-0.2-1-0.5-1.5-0.7v-49c0-0.9 0-1.9 0.1-2.8 0-0.8 0.1-1.5 0.3-2.3v-0.1c0.2-1.4 0.4-2.8 0.7-4.1 0.2-0.6 0.3-1.3 0.5-1.9l0.6-1.8c1.2-3.2 2.8-6.1 4.8-8.6 0.3-0.3 0.5-0.7 0.8-0.9 0.2-0.3 0.5-0.5 0.7-0.8 0.1-0.2 0.2-0.3 0.4-0.4l0.7-0.7c0.2-0.3 0.5-0.5 0.7-0.7 1-0.9 2.1-1.7 3.2-2.4 1.3-0.9 2.7-1.5 4.2-2.1 1.1-0.5 2.2-0.8 3.3-1 0.7-0.2 1.4-0.3 2-0.4 1.2-0.2 2.4-0.2 3.7-0.1h0.9c0.5 0 0.9 0 1.4 0.1 0.3 0 0.6 0.1 0.9 0.1h0.1c0.4 0.1 0.7 0.1 1 0.2 0.4 0 0.7 0.1 1 0.3 0.7 0.2 1.4 0.4 2 0.7 0.4 0.1 0.8 0.3 1.2 0.5 1 0.5 2.1 1 3.2 1.7 0.5 0.3 0.9 0.6 1.4 0.9 0.1 0 0.2 0.1 0.3 0.2 0.7 0.5 1.4 1.1 2.1 1.7s1.4 1.3 2.1 2c0.6 0.6 1.2 1.3 1.8 2.1 3.4 4.3 6.4 9.9 8.7 17 0.3 0.9 0.6 1.8 0.8 2.8 0.2 0.7 0.4 1.4 0.6 2.2 0.2 0.7 0.4 1.5 0.5 2.3 0.2 0.9 0.4 1.9 0.6 2.9s0.4 1.9 0.5 3c0.2 1.1 0.4 2.3 0.5 3.6 0.1 0.7 0.2 1.4 0.3 2.2 0.2 1.9 0.4 3.9 0.5 6 0.1 1.3 0.1 2.5 0.2 3.8v2.6 2.7-2.3c0-2 0.1-4 0.4-5.9 0.1-0.8 0.3-1.6 0.5-2.4 0.1-0.6 0.3-1.3 0.5-1.9 0.1-0.5 0.3-0.9 0.4-1.4 0.2-0.6 0.4-1.1 0.6-1.7 0.9-2.3 2-4.5 3.2-6.5 0.3-0.4 0.5-0.8 0.9-1.2 0-0.1 0.1-0.2 0.1-0.2 0.1-0.1 0.2-0.2 0.2-0.3 0.5-0.6 0.9-1.2 1.5-1.7 0.5-0.5 1-1.1 1.5-1.6s1.1-1 1.6-1.4c0.3-0.3 0.7-0.5 1-0.8 0.8-0.6 1.6-1.1 2.5-1.5 1.2-0.6 2.5-1.2 3.7-1.6 0.6-0.2 1.1-0.4 1.7-0.5s1.2-0.3 1.8-0.4c0.4-0.1 0.7-0.1 1.1-0.2h0.5c1.9-0.2 3.9-0.1 5.9 0.3 0.6 0.1 1.3 0.3 1.9 0.5 0.5 0.1 0.9 0.3 1.4 0.5 0.8 0.3 1.6 0.6 2.4 1 0.6 0.3 1.3 0.6 1.9 1 0.6 0.3 1.2 0.7 1.7 1 0.7 0.5 1.4 1 2 1.5s1.2 1 1.8 1.6l1.5 1.5c0.2 0.2 0.4 0.4 0.5 0.6 0.5 0.6 1 1.2 1.5 1.9 0.5 0.6 1 1.3 1.4 2 1.2 1.8 2.3 3.7 3.4 5.9 0.1 0.3 0.3 0.6 0.5 0.9 0.1 0.1 0.1 0.2 0.1 0.3s0.1 0.2 0.1 0.3c0.2 0.3 0.3 0.6 0.4 0.9 0.2 0.3 0.3 0.6 0.5 0.9 0.3 0.8 0.6 1.5 0.9 2.3 0.3 0.6 0.5 1.3 0.7 1.9 0 0.2 0.1 0.4 0.1 0.5s0.1 0.2 0.1 0.3c0.1 0.3 0.2 0.5 0.2 0.8 0.2 0.6 0.4 1.3 0.6 1.9 0.2 0.7 0.4 1.4 0.5 2.1 0.2 0.9 0.5 1.8 0.6 2.7 0.2 1 0.5 2 0.6 3.1 0.2 1.3 0.5 2.6 0.6 3.9 0.2 1.1 0.3 2.3 0.5 3.4 0.5 4.9 0.9 10.2 0.9 16v-2.3c0-1.2 0-2.3 0.1-3.5 0.1-0.8 0.2-1.5 0.3-2.3 0-0.4 0.1-0.7 0.2-1 0.7-4.3 2.2-8.2 4.1-11.5 0.9-1.7 2-3.2 3.2-4.5 0.6-0.7 1.2-1.3 1.8-1.8 0.6-0.6 1.3-1.2 2-1.7 0.5-0.3 0.9-0.7 1.4-0.9h0.1c0.5-0.3 0.9-0.6 1.4-0.9 0.6-0.4 1.3-0.7 2-1 0.5-0.2 1.1-0.5 1.7-0.7 0.1 0 0.2-0.1 0.3-0.1 1.3-0.5 2.6-0.8 4-0.9h0.1c0.4-0.1 0.7-0.1 1.1-0.1 0.7-0.1 1.4-0.1 2.1-0.1 1.4 0 2.7 0.1 4.1 0.4 0.6 0.1 1.3 0.2 1.9 0.4 1 0.3 2.1 0.6 3.1 1.1 0.5 0.2 0.9 0.5 1.4 0.7 2 1 4.1 2.4 6 4.2 0.4 0.3 0.7 0.7 1.1 1 1.4 1.4 2.8 3 4 4.8 0.4 0.5 0.8 1 1.1 1.6 0.4 0.6 0.8 1.3 1.2 1.9 1.5 2.6 2.9 5.6 4.1 8.9l0.9 2.7c0.9 2.8 1.7 5.7 2.3 9 0.1 0.7 0.3 1.4 0.4 2.1 0 0.2 0 0.4 0.1 0.5 0.2 1.2 0.4 2.5 0.6 3.8 0.2 1.6 0.4 3.2 0.5 4.9 0 0.5 0.1 1.1 0.1 1.7 0.1 1.1 0.2 2.3 0.3 3.5 0 0.8 0 1.5 0.1 2.3 0.1 2 0.1 4.1 0.1 6.2v-2.2c0-1 0-2.1 0.1-3.1 0.1-0.9 0.2-1.8 0.3-2.6 0.3-2 0.7-4 1.4-5.8 0.1-0.6 0.4-1.2 0.6-1.8 0.2-0.5 0.4-1.1 0.6-1.6s0.5-1 0.8-1.5v-0.1c0-0.1 0.1-0.3 0.2-0.4 0.1-0.3 0.3-0.5 0.5-0.8 0-0.2 0.1-0.3 0.2-0.5 0-0.1 0.1-0.2 0.2-0.3v-0.1c0.2-0.4 0.5-0.8 0.7-1.1 0.3-0.5 0.7-1 1-1.4 0.5-0.6 0.9-1.2 1.4-1.8s1.1-1.2 1.7-1.7c0.6-0.6 1.3-1.2 2-1.7l2.1-1.5c0.9-0.5 1.8-1 2.7-1.4l0.6-0.3h0.1c0.2-0.1 0.5-0.2 0.7-0.3 1.8-0.7 3.6-1.1 5.4-1.3 0.8-0.1 1.7-0.1 2.5-0.1 0.6 0 1.2 0 1.8 0.1 0.4 0 0.8 0 1.2 0.1 0.4 0 0.8 0.1 1.2 0.2 0.5 0.1 1 0.2 1.5 0.4 0.6 0.1 1.2 0.3 1.8 0.5l1.5 0.6c0.5 0.2 1 0.5 1.5 0.7 2 1 3.9 2.3 5.7 3.9 0.4 0.4 0.8 0.7 1.2 1.1 3.4 3.3 6.5 7.8 9.1 13.6 0.4 0.8 0.7 1.6 1 2.4v0.1c0.4 0.9 0.7 1.9 1 3 0.2 0.5 0.4 1 0.5 1.5 0.2 0.7 0.5 1.4 0.6 2.2 0.4 1.3 0.7 2.6 1 3.9 0.2 0.9 0.4 1.8 0.6 2.8 0.3 1.3 0.5 2.5 0.7 3.9s0.5 3 0.6 4.6c0.1 1.3 0.3 2.6 0.4 3.9l0.3 4.2v0.3c0 1.3 0.1 2.5 0.1 3.8 0.9 1.4 0.9 2.7 0.9 4z" fill="#de8989"/><path class="st4" d="m582.6 33.6c3 9 4.8 20.5 4.8 34.9v-2.3c0-9.5 3.1-17.3 8-22.8-4.1-3.1-8.4-6.3-12.8-9.8z" fill="#f3dbd8"/><path class="st4" d="m646.8 96.7v-2.3c0-7.9 2.2-14.6 5.6-19.8-2.6-0.9-5.3-2-7.9-3 1.5 7.3 2.3 15.5 2.3 25.1z" fill="#f3dbd8"/><path class="st4" d="m852.1 46.6c0-1.4 0-2.8-0.2-4.2 0-0.9-0.1-1.8-0.2-2.7 0-0.5-0.1-1.1-0.2-1.7-0.3-2.2-0.7-4.4-1.3-6.5l-0.9-3.3c-0.2-0.8-0.5-1.5-0.8-2.3-0.2-0.7-0.5-1.5-0.8-2.2-0.4-0.9-0.7-1.8-1.1-2.7-0.2-0.5-0.4-1-0.7-1.4-0.3-0.7-0.6-1.4-1-2.2-0.5-0.9-1-1.9-1.5-2.8-0.3-0.5-0.5-0.9-0.8-1.4-1.2-1.9-2.4-3.8-3.7-5.6-0.8-1.1-1.6-2.2-2.5-3.2-4.8-6-10.6-11.7-17.3-17-1-0.8-2.1-1.7-3.2-2.5-8.9-6.7-19.2-12.8-30.6-18.4-20.9-10.3-45.7-18.7-72.4-25.3-7-1.8-14.2-3.3-21.4-4.8-0.4 0-0.7-0.1-1-0.2-2.4-0.5-4.8-0.9-7.2-1.4-2.5-0.5-5.1-0.9-7.6-1.4-2.6-0.5-5.1-0.9-7.7-1.3s-5.1-0.8-7.7-1.2c-2.8-0.4-5.5-0.8-8.3-1.2-5-0.7-10-1.4-15.1-1.9-10.2-1.2-20.3-2.1-30.5-2.8-0.7 0-1.3-0.1-1.9-0.1-3-0.2-5.9-0.4-8.8-0.5-1.9-0.1-3.9-0.2-5.8-0.3-17.6-0.8-35.1-1-51.9-0.5-5.8 0.2-11.5 0.4-17.1 0.8-7.5 0.5-14.9 1-22.1 1.8h-0.5c-2.6 0.2-5.1 0.5-7.6 0.8-6 0.7-11.8 1.5-17.5 2.4-1.8 0.3-3.4 0.5-5.1 0.9-9.7 1.7-18.8 3.6-27.3 5.9-2.1 0.6-4.2 1.2-6.2 1.8-17.2 5.1-24.6 13-24.6 21.5v58.7c0 4.6-0.3 9.1 0.1 13.3 0 0.5 0.1 1.1 0.2 1.6 0.4 2.2 0.9 4.2 2 6.1 0.2 0.5 0.5 0.9 0.7 1.3 0.9 1.3 2.1 2.6 3.5 3.7 0.6 0.5 1.2 0.9 1.9 1.3 0.7 0.5 1.4 0.8 2.3 1.2 3.2 1.6 7.4 2.8 12.7 3.7 7.7 1.2 15.3 2.7 22.8 4.4 4.6 1 9.5 3.1 14.6 6 1 0.6 2.1 1.2 3.1 1.8v-1c-1-0.5-1.9-1-2.9-1.5-0.1-0.1-0.3-0.2-0.5-0.2-0.1 0-0.2-0.1-0.3-0.1-0.5-0.2-1-0.5-1.5-0.7v-49.4c0-0.9 0-1.9 0.1-2.8 0-0.8 0.1-1.5 0.3-2.3 0.2-1.4 0.4-2.8 0.7-4.1 0.2-0.6 0.3-1.3 0.5-1.9l0.6-1.8c1.2-3.2 2.8-6.1 4.8-8.6 0.3-0.3 0.5-0.7 0.8-0.9 0.1-0.1 0.2-0.3 0.3-0.4l0.4-0.4c0.1-0.2 0.2-0.3 0.4-0.4l0.7-0.7c0.2-0.3 0.5-0.5 0.7-0.7 1-0.9 2.1-1.7 3.2-2.4 1.3-0.9 2.7-1.5 4.2-2.1 1.1-0.5 2.2-0.8 3.3-1 0.7-0.2 1.4-0.3 2-0.4 1.2-0.2 2.4-0.2 3.7-0.1h0.9c0.5 0 0.9 0 1.4 0.1 0.3 0 0.6 0.1 0.9 0.1h0.1c0.4 0.1 0.7 0.1 1 0.2 0.4 0 0.7 0.1 1 0.3 0.7 0.2 1.4 0.4 2 0.7 0.4 0.1 0.8 0.3 1.2 0.5 1 0.5 2.1 1 3.2 1.7 0.5 0.3 0.9 0.6 1.4 0.9 0.1 0 0.2 0.1 0.3 0.2 0.7 0.5 1.4 1.1 2.1 1.7s1.4 1.3 2.1 2c0.6 0.6 1.2 1.3 1.8 2.1 3.4 4.3 6.4 9.9 8.7 17 0.5 1.6 1 3.2 1.4 5 0.2 0.7 0.4 1.5 0.5 2.3 0.2 0.9 0.4 1.9 0.6 2.9s0.4 1.9 0.5 3c0.2 1.1 0.4 2.3 0.5 3.6 0.1 0.7 0.2 1.4 0.3 2.2 0.2 1.9 0.4 3.9 0.5 6 0.1 1.3 0.1 2.5 0.2 3.8v2.6 2.7-2.3c0-2 0.1-4 0.4-5.9 0.1-0.8 0.3-1.6 0.5-2.4 0.1-0.6 0.3-1.3 0.5-1.9 0.1-0.5 0.3-0.9 0.4-1.4 0.2-0.6 0.4-1.1 0.6-1.7 0.9-2.3 2-4.5 3.2-6.5 0.3-0.4 0.5-0.8 0.9-1.2 0-0.1 0.1-0.2 0.1-0.2 0.1-0.1 0.2-0.2 0.2-0.3 0.5-0.6 0.9-1.2 1.5-1.7 0.5-0.5 1-1.1 1.5-1.6s1.1-1 1.6-1.4c0.3-0.3 0.7-0.5 1-0.8 0.8-0.6 1.6-1.1 2.5-1.5 1.2-0.7 2.4-1.2 3.7-1.6 0.6-0.2 1.1-0.4 1.7-0.5 0.6-0.2 1.2-0.3 1.8-0.4 0.4-0.1 0.7-0.1 1.1-0.2-0.3-0.2-0.5-0.5-0.8-0.7-3.1-2.8-6.1-5.7-9.2-8.7-1.1-1.1-2.3-2.2-3.5-3.2-1.1-0.9-2.2-1.8-3.2-2.7-0.9-0.7-1.9-1.4-2.8-2.2-0.1-0.1-0.2-0.2-0.4-0.3-0.5-0.4-1.1-0.8-1.6-1.1s-1-0.7-1.5-1c-0.5-0.4-1-0.7-1.5-1-1-0.7-2.1-1.4-3.1-1.9-0.7-0.5-1.4-0.9-2.1-1.2-3.5-2-7.1-3.8-10.7-5.4h-0.1c-1.6-0.7-3.2-1.4-4.9-2-1.2-0.5-2.4-0.9-3.6-1.4-0.4-0.1-0.8-0.3-1.2-0.5-0.3-0.1-0.6-0.2-0.9-0.3-0.7-0.3-1.4-0.5-2.2-0.7-1-0.3-1.9-0.6-2.9-0.9-1.2-0.4-2.4-0.7-3.6-1l-2.1-0.6c-0.7-0.2-1.4-0.4-2.1-0.5l-2.4-0.6c-1.3-0.3-2.5-0.6-3.8-0.9-0.7-0.1-1.4-0.3-2-0.4-0.7-0.1-1.4-0.3-2.1-0.5-1.1-0.2-2.3-0.4-3.4-0.6-0.8-0.1-1.6-0.3-2.3-0.4-1.8-0.3-3.7-0.5-5.5-0.8-2.4-0.3-4.7-0.6-6.9-0.8-1.6-0.1-3.2-0.3-4.6-0.4-0.6 0-1.2-0.1-1.8-0.1-1.2-0.1-2.3-0.2-3.3-0.2-0.5 0-1-0.1-1.5-0.1-0.8 0-1.5-0.1-2.2-0.1h-1c-1.4-0.1-2.7-0.1-3.7-0.2h-0.7c-0.7 0-1.1-0.1-1.4-0.1-0.1 0-0.2-0.1-0.3-0.1h-0.1v-0.1c0.1 0 0.4-0.1 0.8-0.3 3.1-0.8 6.2-1.6 9.4-2.3 2.3-0.6 4.7-1.1 7-1.6 2.7-0.6 5.4-1.2 8-1.8 2.8-0.6 5.6-1.2 8.5-1.7 1.7-0.4 3.5-0.7 5.2-0.9 1.9-0.4 3.9-0.7 5.9-1 0.8-0.1 1.5-0.3 2.3-0.4 1.5-0.2 3-0.5 4.6-0.7 5.1-0.8 10.2-1.5 15.3-2.1 0.7-0.1 1.4-0.2 2.1-0.3 5.4-0.6 10.8-1.2 16.2-1.7 4.4-0.4 8.8-0.7 13.2-1 1-0.1 1.9-0.1 2.9-0.2 2.6-0.2 5.2-0.3 7.8-0.4l7.8-0.3c5.5-0.2 11-0.2 16.5-0.2 3.6 0 7.1 0 10.6 0.1h1.2c2.1 0 4.1 0.1 6.1 0.2h0.9 0.8c2.7 0.1 5.3 0.2 7.9 0.4 3.2 0.1 6.3 0.3 9.5 0.5 3.7 0.3 7.4 0.5 11 0.9 3.2 0.3 6.3 0.6 9.4 0.9 2.1 0.2 4.2 0.5 6.4 0.7 0.4 0 0.8 0.1 1.1 0.1 1.4 0.2 2.9 0.4 4.3 0.6 2.3 0.3 4.5 0.6 6.7 0.9 3.1 0.5 6.1 0.9 9.1 1.4s6 1 9 1.6c3.3 0.6 6.7 1.3 10 1.9 2 0.4 4.1 0.9 6.1 1.3 0.7 0.1 1.4 0.3 2.2 0.5 2.1 0.5 4.3 1 6.4 1.5 0.5 0.1 1.1 0.3 1.7 0.4 2.8 0.7 5.5 1.4 8.3 2.1 2 0.5 4.1 1.1 6.1 1.7 1.2 0.4 2.4 0.7 3.7 1.1l6 1.8c4.6 1.4 9.2 3 13.6 4.6 0 0 0.1 0 0.2 0.1 1.6 0.5 3.1 1.1 4.6 1.7 8.1 3 15.8 6.2 23.2 9.7 1.8 0.8 3.7 1.7 5.5 2.6 3.1 1.5 6.1 3.1 9.1 4.7s5.9 3.2 8.7 5c1.8 1.1 3.6 2.2 5.3 3.3 0.5 0.3 1.1 0.7 1.6 1l3.6 2.4c0.5 0.3 0.9 0.6 1.4 0.9 0.9 0.6 1.9 1.3 2.8 2l0.1 0.1c1.3 0.9 2.5 1.8 3.8 2.8 2 1.5 3.9 3 5.8 4.6 0.7 0.5 1.4 1.1 2 1.7 0.6 0.5 1.3 1.1 1.9 1.7l3.9 3.6c1.5 1.4 3 2.9 4.4 4.4 0.7 0.7 1.4 1.5 1.9 2.2 0.6 0.8 1.2 1.5 1.7 2.3 1.1 1.5 1.9 3 2.6 4.6 0.3 0.8 0.6 1.5 0.9 2.3 0.2 0.6 0.4 1.2 0.5 1.8 0.1 0.4 0.2 0.8 0.2 1.1v0.2c0.1 0.5 0.2 1 0.2 1.5 0.1 0.8 0.1 1.6 0.1 2.3v1.6 0.1 0.2c0 0.3 0 0.6-0.1 0.9v0.3c0 0.4-0.1 0.6-0.2 0.9 0 0.3-0.1 0.6-0.2 0.9 0 0.4-0.1 0.7-0.2 1-0.2 0.8-0.4 1.6-0.7 2.3-0.1 0.4-0.3 0.7-0.4 1 0 0.1 0 0.1-0.1 0.2-0.1 0.3-0.2 0.6-0.4 0.9 0 0.1 0 0.2-0.1 0.3-0.1 0.3-0.2 0.5-0.3 0.7 0 0.1-0.1 0.2-0.2 0.3-0.3 0.5-0.5 1.1-0.9 1.6l-1.2 1.8s0 0.1-0.1 0.2c-0.4 0.6-0.8 1.1-1.2 1.7-0.2 0.2-0.4 0.5-0.5 0.7-0.2 0.2-0.3 0.4-0.5 0.5-0.9 1.1-1.9 2.2-3 3.2-0.2 0.2-0.4 0.5-0.6 0.6l-0.4 0.4c-0.5 0.5-1.1 1-1.6 1.5l-0.1 0.1c-0.1 0.1-0.3 0.2-0.5 0.4l-1.8 1.5c-0.2 0.1-0.3 0.3-0.5 0.4-1 0.8-2.1 1.6-3.2 2.3-0.5 0.3-0.9 0.6-1.4 0.9-0.7 0.5-1.4 0.9-2.1 1.3-1 0.6-2 1.1-3 1.7-2 1.1-4.2 2.2-6.5 3.2-2 0.9-4.2 1.8-6.4 2.6-1.4 0.5-2.9 1.1-4.4 1.6s-3.1 1-4.6 1.4c-0.2 0-0.4 0.1-0.6 0.1s-0.4 0.1-0.6 0.2c-0.7 0.2-1.5 0.5-2.2 0.6-2.1 0.5-4.2 1-6.4 1.5s-4.4 0.9-6.6 1.3c-0.2 0-0.4 0.1-0.6 0.1-1 0.2-2.1 0.4-3.2 0.5-0.7 0.1-1.4 0.2-2.2 0.3-0.3 0.1-0.7 0.1-1 0.1-2 0.2-4 0.5-6.1 0.6-0.8 0.1-1.7 0.1-2.5 0.2h-0.5c-0.8 0-1.6 0.1-2.4 0.1-1 0-2.1 0.1-3.2 0.1s-2.3 0.1-3.4 0.1c-1.9 0.1-3.9 0.1-5.9 0-2 0-4 0-6-0.1-1.2 0-2.3 0-3.5-0.1h-0.6-0.5-0.2-0.4-0.8c-0.6 0-1.3 0-1.9-0.1h-0.4c-3.1-0.3-6.2-0.6-9.4-0.9-0.7-0.1-1.4-0.2-2-0.3-1.5-0.2-3-0.4-4.5-0.6v0.1c0.4 0.9 0.7 1.9 1 3 0.2 0.5 0.4 1 0.5 1.5 0.2 0.7 0.5 1.4 0.6 2.2 0.4 1.3 0.7 2.6 1 3.9 0.2 0.9 0.4 1.8 0.6 2.8 0.3 1.3 0.5 2.5 0.7 3.9s0.5 3 0.6 4.6c0.1 1.3 0.3 2.6 0.4 3.9l0.3 4.2v0.3c0 1.3 0.1 2.5 0.1 3.8v3.9 72.4h-0.2v4.6h5.7c4.4-0.1 8.8-0.3 13.3-0.5 1.4 0 2.7-0.1 4.1-0.3 7.8-0.5 15.6-1.4 23.1-2.6 1.2-0.2 2.4-0.4 3.6-0.6 10.4-1.7 20.5-4 30-6.9 0.8-0.2 1.6-0.5 2.4-0.7 1.7-0.5 3.4-1.1 5.1-1.7s3.3-1.2 5-1.8 3.3-1.3 4.9-2h0.1c1.1-0.4 2.1-0.9 3.2-1.4 9.4-4.3 17.8-9.3 24.8-15.1 1.1-0.9 2.2-1.9 3.2-2.8 2.2-2 4.2-4.1 6-6.3 0.9-1 1.7-2.1 2.5-3.2 0.7-0.9 1.3-1.8 1.8-2.8 1-1.5 1.8-3.1 2.6-4.7 0.4-0.7 0.7-1.4 1-2.2 0.2-0.5 0.5-1 0.6-1.6 0.4-1 0.8-2.1 1.1-3.2 0.4-1.3 0.8-2.6 1-3.9 0-0.1 0-0.3 0.1-0.6v-0.1c0.1-0.4 0.2-0.6 0.2-0.9 0.4-2.2 0.6-4.5 0.6-6.7 0-0.9 0.1-1.8 0.1-2.8v-71.7c-0.1-2.7-0.4-5.4-0.4-8.3z" fill="#f3dbd8"/></g><g class="st1" display="inline"><path class="st2" d="m852.1 126.6c-0.1 0.5-0.7 8.2-0.9 10.5 0 0.4-0.1 0.5-0.1 0.6-9.3 42.2-75.1 63.2-139.4 64.3h-5.7v-81h0.1l6.6 2.6c0.1 0.1 66.8 95.5 139.4 3z" fill="#eac1c1"/></g><g class="st1" display="inline"><path class="st2" d="m473.8 62.4c-1-0.6-2.1-1.2-3.1-1.8-5.1-2.8-10-4.9-14.6-6-7.5-1.8-15.1-3.2-22.8-4.4-26.7-4.4-23.4-18-23.4-32.3v-37.5l4.1-0.8c1.8 2 50.1 7.7 55 24.9 0.5 2 1.2 36.6 1.8 38.6 1.8 5.7 2.9 11.8 2.9 18.1 0.1 0.4 0.1 0.8 0.1 1.2z" fill="#eac1c1"/></g><path class="st5" d="m450.3-58.3c-4.2 2-8.5 3.7-12.8 5.6-5.9 2.5-8.1 5.6-7.9 11.3 0.2 5.3 8.1 7.1 12.3 8.9 10 4.2 20.3 2.8 30.9 3 6.8 0.2 12 2.5 18.3 4.6 14.5 4.8 29 6.9 42.6 14 6 3.2 12.9 6.6 12.8 14.4-0.1 8.2-9.7 8-13.9 13.1-7.2-2.1-7.7-11.8-10.7-17.5-2.6-4.9-5-10.9-10.4-12.5-7-2-15.3-3.4-22.6-3.8-3.4-0.2-7.1 0-10.2 1.1-3.2 1.2-3.6 2.9-6.2 4.9-3.1 2.6-9.2 1.6-13.7 1.6-10.8 0-20.7-1.6-31.2-4.2-7.9-1.9-16.3-7.3-18.7-15.8-3-11.2 2-16.9 10.4-22.9 9.8-7.1 24.2-8.4 35.5-11.6 5.6-1.6 11.4-2.4 17.2-3 4.1-0.4 10.6-2.4 15.6-1.9-8.6-0.5-19.6 3-27.5 6.4-3 1.3-6.5 2.7-9.8 4.3z" display="inline" fill="#eac1c1"/><g class="st1" display="inline"><path class="st6" d="m651.7 158.7c0 9.2 5.1 28.7-4.1 28.7-1.6 0-12.1-3.9-17.2-6-0.9-0.3-1.8-0.7-2.8-1.1-1.4-0.5-2.6-1.1-3.9-1.7-3.2-1.4-6.3-2.8-9.3-4.3-2.5-1.2-4.9-2.5-7.2-3.8-0.1 0-0.2-0.1-0.4-0.2-2.2-1.3-4.4-2.5-6.5-3.8-2.3-1.4-4.4-2.8-6.6-4.2-1.6-1-3.1-2.1-4.6-3.1 2.9-5.8 3.1-11.7 3.8-11.7 0.5 0 19.6 14 28.4 14 12.6 0 11.8-18.2 12-27.5 0.4-18.9 1.5-36.1-0.5-54.8-0.5-5.1-1.7-10.1-3.8-14.5-3-6.2-7.8-11.3-15.2-13.8-2.8-0.9-5.4-0.9-7.7 0-7.4 2.7-11.8 13.4-12.8 23.1-0.3-3.7-0.5-7.4-0.5-11 0-7.5 1.7-13.7 4.2-18.6 1.1-2.2 2.3-4 3.7-5.6h0.1c3.7-4.5 8.2-6.8 11.7-6.8 4.3 0 26.9 3.7 28.9 27.9 0.1 1.2 0.2 2.4 0.2 3.7v6.3 0.5c0.1 17.6 10.1 44.2 10.1 88.3z" fill="#cc7272"/><path class="st6" d="m533.9 70c0 19.5 3.1 36-4.9 36.4-0.3-0.3-11.1-10.7-11.4-10.9-1-0.9-1.9-1.9-2.9-2.8-0.3-0.3-0.6-0.5-0.9-0.8-0.9-0.9-1.9-1.8-2.8-2.7-7.8-7.1-15.1-13.4-22.2-18.6-0.5-0.7-0.9-1.3-1.2-1.7-5.2-6.1-14.8-5.2-14.8-12.7 0-18.9 15.9 6.1 30.5 6.1 9.9 0 11.2-21.2 11.2-31.3 0-22.2-14-37.8-24.2-37.8-10.3 0-16.1 10-16.1 19.2 0 1.1 0.1 2.2 0.2 3.2-0.1-0.1-0.3-0.1-0.5-0.1-1.1 0-1.2-6.5-1.2-7.5 0-12.5 6.6-22.2 13.9-28.1 5.2-4.2 10.6-6.5 14.2-6.5h0.4c3.7 0.1 6.9 1.5 9.8 3.9 10.6 8.8 16.5 30.4 19.5 47.4 0.4 2 0.7 3.9 0.9 5.7 0.6 3.8 1 7.3 1.3 10 0.3 3 0.4 5.2 0.4 6.4-0.2 6.9 0.8 15.2 0.8 23.2z" fill="#cc7272"/><path class="st6" d="m708.4 175.6c0 2.2-0.8 5.1-2.2 8.3 0 0.1-0.1 0.3-0.2 0.4-1.8 3.9-4.5 8.3-7.7 12.6-1.6-0.1-3.1-0.3-4.6-0.5-2-0.2-3.9-0.4-5.8-0.7h-0.4c-2.5-0.3-4.9-0.6-7.2-1-2.4-0.4-4.8-0.8-7.2-1.2-2.3-0.5-4.6-0.9-6.9-1.4-2-0.4-4-0.9-6-1.3-3.7-0.9-7.3-1.8-10.7-2.8 0.1-5.1 2.6-8.8 8.9-8.8 35.4 0 35.3-12.7 35.3-48.2 0-14.6 0.5-34.4-5.7-46.3-3.3-6.3-8.4-10.5-16.5-10.5-4.6 0-7.8 1.2-10.3 3.4-3.3 2.8-5.4 7.3-8.1 12.7-0.1 0.2-0.1 0.4-0.1 0.5 0 0.4 0.1 0.8 0.1 1.2-0.6 2.5-1.7 4.5-3.4 6.5-0.1-2.4-0.3-5.1-0.3-7.7 0-5.7 0.7-10.6 2.2-14.7 0-0.1 0-0.1 0.1-0.2v-0.1c0.1-0.4 0.3-0.8 0.5-1.2 3.4-7.7 10.3-12 21.9-12 14.7 0 28.3 9.5 30.5 24.8 0.1 0.9 0.2 1.7 0.3 2.6l1.1 26.8v0.3l0.2 3.8z" fill="#cc7272"/><path class="st6" d="m591.5 127.2c0 8.1-1.7 13.7-4 17.3-2.6 4.1-0.9 11.4-3.5 11.4l-7.2-5.7c-1.8-1.5-3.7-3-5.5-4.5-2.1-1.7-4.1-3.4-6-5.1l-2.4-2.1c-7.3-6.5-14.2-13.1-21-19.7-3.3-3.2-8.4-8.1-11.7-11.2 0-3-0.4-8-0.4-10.4 0-14.4 14.9 21.6 30.6 21.6 7.4 0 14.5-3.1 14.5-43.8 0-22.7-2.4-51-24.5-51-11.6 0-15.7 7.4-17.6 16.4-1.2 5.7-1.5 12-2.2 17.2-0.8-5.2-1.4-11-1.4-16.8 0-5.5 0.6-10.4 1.7-14.5 0.9-3.6 2.2-6.7 3.8-9.3 0-0.1 0.1-0.2 0.1-0.2 0.1-0.1 0.2-0.2 0.2-0.3 4.1-6.3 9.8-9.6 15.8-10.5 1.2-0.2 2.5-0.3 3.7-0.3 10.4 0 21.2 7.9 25.7 21.2 0.1 0.1 0.1 0.2 0.1 0.3s0.1 0.2 0.1 0.3c0.6 1.7 1.1 3.5 1.4 5.3 0.5 2.6 0.7 5.3 0.7 8.2 0 9.7 5.1 20.1 5.1 29.9-0.2 19.8 3.9 22.5 3.9 56.3z" fill="#cc7272"/></g><g class="st1" display="inline"><path class="st7" d="m470.9 3.4c-0.6 0-1.2-0.1-1.8-0.2-3.1-0.8-6-1.6-8.9-2.3l-5.8-1.5c-7.5-2-15-3.7-22.4-5.1-16.7-3.1-28.9-17.9-28.9-35.1 0-3.7 3-6.8 6.8-6.8s6.8 3 6.8 6.8c0 10.9 7.4 19.8 17.9 21.8 7.7 1.4 15.5 3.2 23.3 5.3l5.7 1.4c2.9 0.7 6 1.5 9.1 2.3 3.6 1 5.8 4.7 4.8 8.3-0.9 3.1-3.6 5.1-6.6 5.1z" fill="#a86060"/><path class="st7" d="m732.2 95c-10.6 0-21.6-0.8-32.7-2.5-3.1-0.5-5.2-3.3-4.7-6.4s3.3-5.2 6.4-4.7c34 5.1 66 1.9 90.1-8.8 2.8-1.3 6.2 0 7.5 2.8s0 6.2-2.8 7.5c-18.2 7.9-40.1 12.1-63.8 12.1z" fill="#a86060"/><path class="st7" d="m806 76.5c-1.8 0-3.6-0.9-4.7-2.5-1.7-2.6-1-6.1 1.6-7.8 10.1-6.8 16.2-14.7 17.1-22.4 0.6-5.7-1.6-11.2-6.5-16.4-9.9-10.4-22.5-20.2-37.5-29-2.7-1.6-3.6-5-2-7.7s5-3.6 7.7-2c15.9 9.3 29.3 19.7 39.9 30.9 7.3 7.6 10.6 16.5 9.6 25.5-1.3 11.1-9.1 21.9-22 30.5-1 0.6-2.1 0.9-3.2 0.9z" fill="#a86060"/><path class="st7" d="m763-9.3c-0.8 0-1.7-0.2-2.5-0.6-14-6.9-29.6-13.1-46.3-18.3-3-0.9-4.6-4.1-3.7-7.1s4.1-4.6 7.1-3.7c17.3 5.4 33.4 11.8 47.9 19 2.8 1.4 3.9 4.8 2.6 7.6-1 1.9-3 3.1-5.1 3.1z" fill="#a86060"/><path class="st7" d="m667.7-39.9c-0.3 0-0.7 0-1-0.1-50.8-9.6-105.7-11.3-158.9-4.9-3.1 0.4-5.9-1.8-6.3-4.9s1.8-5.9 4.9-6.3c54.4-6.5 110.5-4.7 162.3 5 3.1 0.6 5.1 3.5 4.5 6.6-0.5 2.7-2.9 4.6-5.5 4.6z" fill="#a86060"/><path class="st7" d="m551.4 12.4c-1.4 0-2.7-0.5-3.8-1.5-2.4-2.2-4.7-4.4-7.2-6.7l-2.9-2.8c-31.1-29.6-79.1-31.8-94.9-32.6-5.4-0.2-9.7-0.4-10.3-5.5-0.1-0.8-0.3-5 5.1-6.4 15.2-4 30.9-7.3 46.9-9.9 3.1-0.5 6 1.6 6.5 4.7s-1.6 6-4.7 6.5c-4.4 0.7-8.8 1.5-13.2 2.3 22.2 3.7 50.7 12.2 72.4 32.8l2.9 2.7c2.4 2.2 4.7 4.4 7.1 6.6 2.3 2.1 2.4 5.7 0.3 8-1.1 1.2-2.6 1.8-4.2 1.8z" fill="#a86060"/><path class="st7" d="m734.7 125.5c-5.2 0-10.5-0.1-15.8-0.4-4.5-0.2-9-0.6-13.5-1.1-3.7-0.4-6.4-3.7-6-7.4s3.7-6.4 7.4-6c4.3 0.4 8.6 0.8 12.9 1 10.1 0.6 20.2 0.6 29.8 0 3.7-0.2 6.9 2.6 7.1 6.4 0.2 3.7-2.6 6.9-6.4 7.2-5.1 0.2-10.3 0.3-15.5 0.3z" fill="#a86060"/><path class="st7" d="m784.4 120.3c-3.1 0-5.9-2.1-6.6-5.3-0.8-3.6 1.5-7.3 5.1-8.1 12.6-2.9 23.7-6.9 32.8-12 3.3-1.8 7.4-0.6 9.2 2.6 1.8 3.3 0.6 7.4-2.6 9.2-10.3 5.7-22.5 10.2-36.4 13.3-0.5 0.3-1 0.3-1.5 0.3z" fill="#a86060"/><path class="st7" d="m819 107.7c-2.4 0-4.7-1.3-5.9-3.5-1.8-3.3-0.6-7.4 2.6-9.2 18.2-10.1 28.2-23.8 29.7-40.7 0.1-1.5 0.1-3.1 0-4.7 0-1-0.1-2-0.1-3.1 0-13.8-5.1-26.8-15-38.9-2.4-2.9-2-7.1 0.9-9.5s7.1-2 9.5 0.9c12 14.6 18.1 30.6 18.1 47.5v2.7c0.1 2 0.1 4-0.1 6.2-1.8 21.4-14.5 39.2-36.6 51.4-0.8 0.6-2 0.9-3.1 0.9z" fill="#a86060"/><path class="st7" d="m819-5.9c-1.5 0-3-0.5-4.2-1.5-9.1-7.3-20.4-14.2-33.3-20.5-3.4-1.6-4.8-5.7-3.1-9 1.6-3.4 5.7-4.8 9-3.1 13.9 6.7 25.9 14.1 35.9 22.1 2.9 2.3 3.4 6.6 1.1 9.5-1.4 1.6-3.4 2.5-5.4 2.5z" fill="#a86060"/><path class="st7" d="m712.8-52.1c-0.5 0-1.1-0.1-1.6-0.2-37-9.1-79.1-15-121.8-17-3.7-0.2-6.6-3.3-6.4-7.1 0.2-3.7 3.3-6.5 7.1-6.4 43.6 2.1 86.6 8.1 124.4 17.4 3.6 0.9 5.8 4.6 4.9 8.2-0.8 3.1-3.5 5.1-6.6 5.1z" fill="#a86060"/><path class="st7" d="m409.9 13.4c-3.7 0-6.8-3-6.8-6.8v-47.4c0-7.2 3.8-20.4 29.4-28 28-8.3 64.3-13.3 105.1-14.5 3.7-0.1 6.9 2.8 7 6.6 0.1 3.7-2.8 6.9-6.6 7-39.6 1.2-74.8 6-101.6 14-12.6 3.6-19.7 9.1-19.7 14.9v47.4c0 3.7-3.1 6.8-6.8 6.8z" fill="#a86060"/><path class="st7" d="m484.5 74.5c-1.3 0-2.6-0.4-3.8-1.2-9.3-6.2-17.8-10.2-26.1-12.1-6.7-1.6-14-3-22.4-4.3-27.4-4.5-29.5-18.9-29.2-33.2 0.1-3.7 3.2-6.8 6.9-6.6 3.7 0.1 6.7 3.2 6.6 6.9-0.2 10.3-0.3 16.6 17.8 19.5 8.6 1.4 16.3 2.9 23.3 4.5 10 2.3 20 6.9 30.7 14.1 3.1 2.1 3.9 6.3 1.8 9.4-1.3 1.9-3.4 3-5.6 3z" fill="#a86060"/><path class="st7" d="m725.2 204.8c-6.4 0-12.9-0.2-19.4-0.6l-2.9-0.2c-3.5-0.2-6.7-0.6-9.9-0.9-0.9-0.1-1.8-0.2-2.7-0.3-3.7-0.4-6.4-3.8-6-7.5s3.8-6.4 7.5-6c0.8 0.1 1.7 0.2 2.5 0.3 3.1 0.3 6.2 0.6 9.4 0.8l2.7 0.2c16.6 1 32.6 0.7 47.8-0.9 3.7-0.4 7 2.3 7.4 6s-2.3 7-6 7.4c-9.9 1.1-20 1.7-30.4 1.7z" fill="#a86060"/><path class="st7" d="m784.4 198.2c-3.1 0-5.8-2.1-6.6-5.2-0.9-3.6 1.3-7.3 5-8.2 14.1-3.4 26.1-8.1 35.7-13.9 3.2-1.9 7.4-0.9 9.3 2.3s0.9 7.4-2.3 9.3c-10.8 6.5-24.1 11.7-39.5 15.4-0.5 0.2-1 0.3-1.6 0.3z" fill="#a86060"/><path class="st7" d="m835.5 173.4c-1.8 0-3.6-0.7-4.9-2.1-2.6-2.7-2.5-7 0.2-9.6 7.6-7.2 12.1-15.7 13.6-25 0.6-3.8 1-7 1-10.1v-15.9c0-3.7 3-6.8 6.8-6.8 3.7 0 6.8 3 6.8 6.8v15.9c0 4.2-0.5 8.3-1.1 12.1-1.9 12.4-7.8 23.4-17.6 32.8-1.4 1.3-3.1 1.9-4.8 1.9z" fill="#a86060"/><path class="st7" d="m852.1 117.5c-3.7 0-6.8-3-6.8-6.8v-55.8c0-3.7 3-6.8 6.8-6.8 3.7 0 6.8 3 6.8 6.8v55.9c0 3.7-3 6.7-6.8 6.7z" fill="#a86060"/><path class="st7" d="m706.2 199.7c-3.7 0-6.8-3-6.8-6.8v-67.9c0-23.9-5.3-37.1-9.7-44-4.6-7.2-10.7-11.1-17-11.1-9.4 0-19.2 9.2-19.2 24.6v88.2c0 3.7-3 6.8-6.8 6.8s-6.8-3-6.8-6.8v-85.9c0-23.9-5.3-37.1-9.7-44-4.6-7.2-10.7-11.1-17-11.1-9.4 0-19.2 9.2-19.2 24.6v87.5c0 3.7-3 6.8-6.8 6.8s-6.8-3-6.8-6.8v-85.2c0-33.1-9.8-46-15.6-50.8-2.9-2.4-3.3-6.6-0.9-9.5s6.6-3.3 9.5-0.9c6.3 5.2 13.4 14.4 17.4 31 6.2-6.5 14.3-10.1 22.4-10.1 11.1 0 21.2 6.2 28.4 17.4 3.8 5.9 6.6 12.9 8.6 21 6.2-6.5 14.3-10.1 22.4-10.1 11.1 0 21.2 6.2 28.4 17.4 7.8 12.2 11.8 29.4 11.8 51.3v67.9c0.2 3.4-2.8 6.5-6.6 6.5z" fill="#a86060"/><path class="st7" d="m569.3 19.2c-1.5 0-3-0.5-4.3-1.5-4.9-4-10.6-5.3-16.1-3.4-3.5 1.2-7.4-0.7-8.6-4.3-1.2-3.5 0.7-7.4 4.3-8.6 9.9-3.3 20.4-1.2 28.9 5.8 2.9 2.4 3.3 6.6 0.9 9.5-1.2 1.6-3.1 2.5-5.1 2.5z" fill="#a86060"/><path class="st7" d="m528 107.8c-3.7 0-6.8-3-6.8-6.8v-60.8c0-23.9-5.3-37.1-9.7-44-4.6-7.2-10.7-11.1-17-11.1-9.4 0-19.2 9.2-19.2 24.6v44.6c0 3.7-3 6.8-6.8 6.8-3.7 0-6.8-3-6.8-6.8v-44.6c0-23.8 16.6-38.1 32.7-38.1 11.1 0 21.2 6.2 28.4 17.4 3.7 5.8 6.6 12.8 8.6 20.9 3.6-3.8 8-6.8 13.1-8.5 3.6-1.2 7.4 0.7 8.6 4.3 1.2 3.5-0.7 7.4-4.3 8.6-8.6 2.9-14.2 12.2-14.2 23.7v63.1c0.2 3.6-2.8 6.7-6.6 6.7z" fill="#a86060"/></g><polygon class="st8" points="488 110.4 482.6 109.9 482.1 104.4 480.9 99.1 485.9 96.9 490.6 94.2 494.2 98.3 498.3 101.9 495.5 106.6 493.4 111.6" display="inline" fill="#de8989"/><polygon class="st8" points="537.9 154 535.6 159 530.3 157.7 524.9 157.1 524.5 151.7 523.4 146.4 528.4 144.3 533.1 141.6 536.7 145.7 540.7 149.4" display="inline" fill="#de8989"/><polygon class="st8" points="505.8 189.6 503.6 194.5 498.3 193.3 492.9 192.6 492.4 187.2 491.3 181.9 496.4 179.8 501.1 177.1 504.7 181.2 508.7 184.9" display="inline" fill="#de8989"/><polygon class="st5" points="561.9 185.4 559.6 190.3 554.3 189.1 548.9 188.4 548.5 183 547.4 177.7 552.4 175.6 557.1 172.9 560.7 177 564.7 180.7" display="inline" fill="#eac1c1"/><polygon class="st5" points="437.2 74 435.8 77.1 432.5 76.3 429.1 76 428.8 72.6 428.1 69.2 431.3 67.9 434.2 66.2 436.5 68.8 439 71.1" display="inline" fill="#eac1c1"/><polygon class="st8" points="641.4 212.9 640 216 636.7 215.2 633.3 214.8 633 211.4 632.4 208.1 635.5 206.8 638.5 205.1 640.7 207.7 643.2 210" display="inline" fill="#de8989"/><polygon class="st8" points="456 100.4 456.9 104.4 453.1 106 449.6 108.1 446.8 105 443.7 102.3 445.8 98.8 447.5 95 451.5 95.9 455.6 96.2" display="inline" fill="#de8989"/><polygon class="st8" points="654.3 244.4 652.4 248.1 648.4 246.9 644.4 246.3 644.2 242.1 643.6 238.1 647.5 236.7 651.2 234.8 653.7 238.1 656.6 241" display="inline" fill="#de8989"/><polygon class="st5" points="689.9 222.1 690.8 226.2 687.1 227.8 683.5 229.9 680.8 226.8 677.7 224.1 679.8 220.6 681.4 216.8 685.4 217.7 689.5 218" display="inline" fill="#eac1c1"/><polygon class="st8" points="607 188.1 607.9 192.1 604.1 193.8 600.6 195.9 597.8 192.8 594.7 190.1 596.8 186.5 598.5 182.7 602.5 183.6 606.6 184" display="inline" fill="#de8989"/><polygon class="st8" points="565.8 216.8 563.8 217.5 562.7 215.7 561.4 214 562.8 212.3 564 210.6 566 211.4 568.1 212 567.9 214.2 567.9 216.3" display="inline" fill="#de8989"/><polygon class="st8" points="664.6 206.9 662.6 207.6 661.5 205.8 660.2 204 661.6 202.4 662.8 200.6 664.8 201.5 666.9 202.1 666.7 204.2 666.7 206.4" display="inline" fill="#de8989"/><polygon class="st5" points="475.3 153.7 472.6 154.7 471.2 152.2 469.5 150 471.3 147.9 472.9 145.5 475.5 146.7 478.2 147.5 478 150.3 478 153.1" display="inline" fill="#eac1c1"/><polygon class="st8" points="505.3 132.5 503.3 133.2 502.2 131.4 500.8 129.6 502.3 128 503.5 126.2 505.5 127.1 507.5 127.7 507.3 129.8 507.4 132" display="inline" fill="#de8989"/><polygon class="st9" points="492.1 33.6 490.9 34.1 490.2 32.9 489.4 31.9 490.2 30.9 491 29.8 492.2 30.3 493.5 30.7 493.4 32 493.4 33.3" display="inline" fill="#cc7272"/><polygon class="st9" points="501.1 45.3 499.8 45.8 499.1 44.6 498.3 43.6 499.2 42.6 499.9 41.5 501.2 42 502.5 42.4 502.3 43.7 502.4 45" display="inline" fill="#cc7272"/><polygon class="st9" points="552.2 35.8 551 36.2 550.3 35.1 549.5 34 550.3 33 551.1 31.9 552.3 32.5 553.6 32.8 553.5 34.2 553.5 35.5" display="inline" fill="#cc7272"/><polygon class="st9" points="554.9 68.8 553.6 69.2 553 68.1 552.1 67 553 66 553.8 64.9 555 65.5 556.3 65.8 556.2 67.2 556.2 68.5" display="inline" fill="#cc7272"/><polygon class="st9" points="542.1 89.6 540.8 90 540.1 88.9 539.3 87.8 540.2 86.8 541 85.7 542.2 86.2 543.5 86.6 543.3 88 543.4 89.3" display="inline" fill="#cc7272"/><polygon class="st9" points="561.8 102.2 560.6 102.6 559.9 101.5 559.1 100.4 559.9 99.4 560.7 98.3 561.9 98.9 563.2 99.2 563.1 100.6 563.1 101.9" display="inline" fill="#cc7272"/><polygon class="st9" points="667.5 113.3 666.3 113.7 665.6 112.6 664.8 111.5 665.7 110.5 666.4 109.4 667.7 109.9 668.9 110.3 668.8 111.6 668.8 113" display="inline" fill="#cc7272"/><polygon class="st9" points="608.1 68 606.8 68.5 606.1 67.3 605.3 66.2 606.2 65.2 606.9 64.1 608.2 64.7 609.4 65 609.3 66.4 609.4 67.7" display="inline" fill="#cc7272"/><polygon class="st9" points="624 93.9 622.7 94.3 622 93.2 621.2 92.1 622.1 91.1 622.9 90 624.1 90.6 625.4 90.9 625.2 92.3 625.3 93.6" display="inline" fill="#cc7272"/><polygon class="st9" points="689.3 129.3 688.1 129.7 687.4 128.6 686.6 127.5 687.5 126.5 688.2 125.4 689.4 125.9 690.7 126.3 690.6 127.6 690.6 129" display="inline" fill="#cc7272"/><polygon class="st9" points="677.5 95.9 676.3 96.3 675.6 95.2 674.8 94.1 675.7 93.1 676.4 92 677.6 92.5 678.9 92.9 678.8 94.2 678.8 95.6" display="inline" fill="#cc7272"/><polygon class="st9" points="667.5 171.4 666.3 171.9 665.6 170.7 664.8 169.7 665.7 168.7 666.4 167.6 667.7 168.1 668.9 168.5 668.8 169.8 668.8 171.1" display="inline" fill="#cc7272"/><polygon class="st9" points="603.9 114.4 602.6 114.8 602 113.7 601.2 112.6 602 111.6 602.8 110.5 604 111 605.3 111.4 605.2 112.7 605.2 114.1" display="inline" fill="#cc7272"/><polygon class="st9" points="602 143.3 600.7 143.7 600.1 142.6 599.2 141.5 600.1 140.5 600.9 139.4 602.1 139.9 603.4 140.3 603.3 141.6 603.3 143" display="inline" fill="#cc7272"/><polygon class="st9" points="619.8 137.1 618.6 137.5 617.9 136.4 617.1 135.3 618 134.3 618.7 133.2 619.9 133.7 621.2 134.1 621.1 135.4 621.1 136.8" display="inline" fill="#cc7272"/><polygon class="st9" points="675.5 145.4 674.2 145.9 673.5 144.7 672.7 143.7 673.6 142.7 674.3 141.6 675.6 142.1 676.8 142.5 676.7 143.8 676.8 145.1" display="inline" fill="#cc7272"/><polygon class="st5" points="601.3 228.5 600 226.8 601.4 225.1 602.6 223.3 604.6 224.2 606.6 224.8 606.5 226.9 606.6 229.1 604.5 229.6 602.4 230.3" display="inline" fill="#eac1c1"/><polygon class="st5" points="533.4 231.6 532 229.9 533.4 228.2 534.6 226.4 536.6 227.3 538.7 227.8 538.5 230 538.6 232.2 536.5 232.7 534.5 233.4" display="inline" fill="#eac1c1"/><polygon class="st8" points="465.4 80.7 463.4 81.4 462.3 79.5 460.9 77.8 462.4 76.2 463.6 74.4 465.6 75.3 467.6 75.9 467.4 78 467.5 80.2" display="inline" fill="#de8989"/></g><g transform="translate(0 -2)"><g fill="#de8989"><path class="st3" d="m106.5 77.5c15.2 5.4 23.7 16.9 23.7 31.9 0 25-19 41.8-47.2 41.8h-72.6c-2.3 0-3.5-1.3-3.5-3.5v-130.6c0-2.3 1.3-3.5 3.5-3.5h67.5c25.8 0 43.4 16.4 43.4 37.6 0 10.9-5.4 19.7-14.6 24.5v1.7h-0.2zm-70.6-10.3h42.1c8.1 0 14.2-5.4 14.2-13.2 0-8.1-5.4-13.2-14.2-13.2h-42.1zm0 56.5h46.5c11.9 0 18.7-5.8 18.7-14.6 0-9.8-6.4-14.6-18.7-14.6h-46.5z"/><path class="st3" d="m261.5 13.6c2.3 0 3.5 1.3 3.5 3.5v20.1c0 2.3-1.3 3.5-3.5 3.5h-76.5v25.8h67.2c2.3 0 3.5 1.3 3.5 3.5v20.1c0 2.3-1.3 3.5-3.5 3.5h-67.2v29.8h78.5c2.3 0 3.5 1.3 3.5 3.5v20.4c0 2.3-1.3 3.5-3.5 3.5h-104.3c-2.3 0-3.5-1.3-3.5-3.5v-130.2c0-2 1.7-3.5 3.5-3.5z"/><path class="st3" d="m400.6 13.6c2.3 0 3.5 1.3 3.5 3.5v20.1c0 2.3-1.3 3.5-3.5 3.5h-76.4v25.8h67.2c2.3 0 3.5 1.3 3.5 3.5v20.1c0 2.3-1.3 3.5-3.5 3.5h-67.2v29.8h78.5c2.3 0 3.5 1.3 3.5 3.5v20.4c0 2.3-1.3 3.5-3.5 3.5h-104.3c-2.3 0-3.5-1.3-3.5-3.5v-130.2c0-2 1.7-3.5 3.5-3.5z"/><path class="st3" d="m538 13.6c2.3 0 3.5 1.3 3.5 3.5v20.7c0 2.3-1.3 3.5-3.5 3.5h-74.7v26.2h67.6c2.3 0 3.5 1.3 3.5 3.5v20.7c0 2.3-1.3 3.5-3.5 3.5h-67.6v52.3c0 2.3-1.3 3.5-3.5 3.5h-22.2c-2.3 0-3.5-1.3-3.5-3.5v-130.4c0-2.3 1.3-3.5 3.5-3.5z"/></g><g fill="#eac1c1"><path class="st2" d="m670.5 76.8c15.2 5.8 23.7 18 23.7 32 0 23.7-19.4 42.4-45.9 42.4h-73.4c-1.7 0-3.3-1.7-3.3-3.5v-130.4c0-2.3 1-3.5 3.3-3.5h69.3c25.2 0 40.7 17.4 40.7 37.6 0 9.1-6.4 20-14.3 24v1.3h-0.1zm-76.2-9.5h51.3c8.8 0 16.4-6.8 16.4-15.9s-6.6-16.4-17.5-16.4h-50.2zm0 62.5h53.3c14.2 0 23.7-8.1 23.7-21 0-13.3-8.8-20.1-23.7-20.1h-53.3z"/><path class="st2" d="m784.2 147.8c0 2.3-1.3 3.5-3.5 3.5h-16.2c-2.3 0-3.3-1.3-3.3-3.5v-31l-57.6-99.9c-0.7-1.3-0.3-3 1.4-3h21c1.4 0 2.5 0.7 3.3 2l42.4 77.5h2l41.8-77.5c0.7-1.3 1.7-2 3.5-2h20.4c1.7 0 2.5 1.3 1.7 3l-57.1 99.9v31z"/><path class="st2" d="m975.8 13.7c2.3 0 3.5 1.3 3.5 3.5v14.3c0 2.3-1.3 3.5-3.5 3.5h-46.6v112.6c0 1.7-1.3 3.5-3.5 3.5h-15.9c-2.3 0-3.5-1.3-3.5-3.5v-112.6h-46.8c-2.3 0-3.5-1.3-3.5-3.5v-14.3c0-2.3 1.3-3.5 3.5-3.5z"/><path class="st2" d="m1102.3 13.7c1.7 0 3.5 1.6 3.5 3.5v14.3c0 1.7-1.7 3.3-3.5 3.3h-79.8v34h72.7c2.3 0 3.5 1.3 3.5 3.5v14.3c0 2.3-1.3 3.3-3.5 3.3h-72.7v39.7h82.2c2.3 0 3.3 1 3.3 3v14.9c0 2.3-1 3.5-3.3 3.5h-101.7c-2.3 0-3.3-1.3-3.3-3.5v-130.3c0-2.3 1-3.5 3.3-3.5z"/><path class="st2" d="m1250.1 32.8c1.3 1.3 1.3 2.5 0 3.8l-9.8 12.3c-1.6 1.6-3 1.6-4.5 0.3-12.2-10.3-26.8-16.2-45.2-16.2-21.1 0-32.3 5.8-32.3 16.6 0 10.3 14.9 15.2 36.3 18 35 4.1 60.4 14.3 60.4 43.7 0 27.5-27.5 41.8-61.4 41.8-25.2 0-46.9-6.8-64.1-23-1.3-1.3-1.3-2.8 0-4.3l9.8-12.3c1.3-1.7 3-2 4.8-0.4 14.2 13.2 30 18.7 49.5 18.7 25.2 0 38.7-8.5 38.7-20.4 0-13.3-15.3-18.1-40.7-21.1-29.1-3.3-56-11.3-56-40.4 0-23 22-38.1 55.6-38.1 21.3-0.1 43.6 7 58.9 21z"/></g></g></svg>
