<?xml version="1.0" encoding="utf-8"?>
<!-- Generator: Adobe Illustrator 21.0.0, SVG Export Plug-In . SVG Version: 6.00 Build 0)  -->
<svg version="1.1" id="Layer_1" xmlns="http://www.w3.org/2000/svg" xmlns:xlink="http://www.w3.org/1999/xlink" x="0px" y="0px"
	 viewBox="0 0 1262 164.8" style="enable-background:new 0 0 1262 164.8;" xml:space="preserve">
<style type="text/css">
	.st0{display:none;}
	.st1{display:inline;}
	.st2{fill:#EAC1C1;}
	.st3{fill:#DE8989;}
	.st4{fill:#F3DBD8;}
	.st5{display:inline;fill:#EAC1C1;}
	.st6{fill:#CC7272;}
	.st7{fill:#A86060;}
	.st8{display:inline;fill:#DE8989;}
	.st9{display:inline;fill:#CC7272;}
</style>
<g class="st0">
	<g class="st1">
		<g>
			<path class="st2" d="M438.8-37.6c-9.5,2.5,60.8-4.8,102.6,35c38.3,36.5,71.8,61.3,97.2,72c121.1,50.8,216.2-6.7,179-45.9
				C752.9-44.6,586-76.2,438.8-37.6z"/>
		</g>
		<g>
			<path class="st3" d="M706.2,125v72.4H706c-0.9,0-1.8-0.1-2.8-0.2c-1.7-0.1-3.3-0.3-4.9-0.4c-1.6-0.1-3.1-0.3-4.6-0.5
				c-2-0.2-3.9-0.4-5.8-0.7c-0.1,0-0.2,0-0.4,0c-2.5-0.3-4.9-0.6-7.2-1c-2.4-0.4-4.8-0.8-7.2-1.2c-2.3-0.5-4.6-0.9-6.9-1.4
				c-2-0.4-4-0.9-6-1.3c-3.7-0.9-7.3-1.8-10.7-2.8c-2.8-0.8-5.4-1.6-8-2.5c-1.6-0.5-3.2-1.1-4.7-1.6c-2.2-0.8-4.3-1.6-6.4-2.4
				c-0.9-0.3-1.8-0.7-2.8-1.1c-1.4-0.5-2.6-1.1-3.9-1.7c-3.2-1.4-6.3-2.8-9.3-4.3c-2.5-1.2-4.9-2.5-7.2-3.8c-0.1,0-0.2-0.1-0.4-0.2
				c-2.2-1.3-4.4-2.5-6.5-3.8c-2.3-1.4-4.4-2.8-6.6-4.2c-1.6-1-3.1-2.1-4.6-3.1c-0.5-0.4-1.1-0.8-1.7-1.2l0,0
				c-3.4-2.4-6.8-4.9-10-7.4c-0.2-0.2-0.5-0.4-0.7-0.6l0,0c-1.8-1.5-3.7-3-5.5-4.5c-2.1-1.7-4.1-3.4-6-5.1c-0.8-0.7-1.6-1.4-2.4-2.1
				c-7.3-6.5-14.2-13.1-21-19.7c-3.3-3.2-6.6-6.4-9.9-9.5c-0.1-0.2-0.3-0.3-0.5-0.5c-0.6-0.5-1.1-1.1-1.7-1.6
				c-1.4-1.4-2.9-2.8-4.4-4.2c-2.3-2.3-4.6-4.5-6.9-6.7c-0.3-0.3-0.6-0.5-0.9-0.8c-1-0.9-1.9-1.9-2.9-2.8c-0.3-0.3-0.6-0.5-0.9-0.8
				c-0.9-0.9-1.9-1.8-2.8-2.7c-7.8-7.1-15.1-13.4-22.2-18.6c0,0-0.1-0.1-0.2-0.1c-1-0.8-2-1.4-3-2.1c-0.2-0.2-0.5-0.3-0.7-0.5
				c-0.9-0.5-1.7-1.1-2.4-1.6c-0.8-0.5-1.6-1-2.4-1.5c-0.5-0.4-1.1-0.7-1.6-1s-1-0.5-1.5-0.8c-1-0.6-2-1.1-3-1.6s-1.9-1-2.9-1.5
				c-0.1-0.1-0.3-0.2-0.5-0.2c-0.1,0-0.2-0.1-0.3-0.1c-0.5-0.2-1-0.5-1.5-0.7v-49c0-0.9,0-1.9,0.1-2.8c0-0.8,0.1-1.5,0.3-2.3V4.5
				c0.2-1.4,0.4-2.8,0.7-4.1c0.2-0.6,0.3-1.3,0.5-1.9c0.2-0.6,0.4-1.2,0.6-1.8c1.2-3.2,2.8-6.1,4.8-8.6c0.3-0.3,0.5-0.7,0.8-0.9
				c0.2-0.3,0.5-0.5,0.7-0.8c0.1-0.2,0.2-0.3,0.4-0.4c0.2-0.2,0.5-0.5,0.7-0.7c0.2-0.3,0.5-0.5,0.7-0.7c1-0.9,2.1-1.7,3.2-2.4
				c1.3-0.9,2.7-1.5,4.2-2.1l0,0c1.1-0.5,2.2-0.8,3.3-1c0.7-0.2,1.4-0.3,2-0.4c1.2-0.2,2.4-0.2,3.7-0.1c0.3,0,0.6,0,0.9,0
				c0.5,0,0.9,0,1.4,0.1c0.3,0,0.6,0.1,0.9,0.1h0.1c0.4,0.1,0.7,0.1,1,0.2c0.4,0,0.7,0.1,1,0.3c0.7,0.2,1.4,0.4,2,0.7
				c0.4,0.1,0.8,0.3,1.2,0.5c1,0.5,2.1,1,3.2,1.7c0.5,0.3,0.9,0.6,1.4,0.9c0.1,0,0.2,0.1,0.3,0.2c0.7,0.5,1.4,1.1,2.1,1.7
				s1.4,1.3,2.1,2c0.6,0.6,1.2,1.3,1.8,2.1c3.4,4.3,6.4,9.9,8.7,17c0.3,0.9,0.6,1.8,0.8,2.8c0.2,0.7,0.4,1.4,0.6,2.2
				c0.2,0.7,0.4,1.5,0.5,2.3c0.2,0.9,0.4,1.9,0.6,2.9s0.4,1.9,0.5,3c0.2,1.1,0.4,2.3,0.5,3.6c0.1,0.7,0.2,1.4,0.3,2.2
				c0.2,1.9,0.4,3.9,0.5,6c0.1,1.3,0.1,2.5,0.2,3.8c0,0.9,0,1.7,0,2.6s0,1.8,0,2.7v-2.3c0-2,0.1-4,0.4-5.9c0.1-0.8,0.3-1.6,0.5-2.4
				c0.1-0.6,0.3-1.3,0.5-1.9c0.1-0.5,0.3-0.9,0.4-1.4c0.2-0.6,0.4-1.1,0.6-1.7c0.9-2.3,2-4.5,3.2-6.5c0.3-0.4,0.5-0.8,0.9-1.2
				c0-0.1,0.1-0.2,0.1-0.2c0.1-0.1,0.2-0.2,0.2-0.3l0,0c0.5-0.6,0.9-1.2,1.5-1.7c0.5-0.5,1-1.1,1.5-1.6s1.1-1,1.6-1.4
				c0.3-0.3,0.7-0.5,1-0.8l0,0c0.8-0.6,1.6-1.1,2.5-1.5l0,0c1.2-0.6,2.5-1.2,3.7-1.6c0.6-0.2,1.1-0.4,1.7-0.5l0,0
				c0.6-0.1,1.2-0.3,1.8-0.4c0.4-0.1,0.7-0.1,1.1-0.2l0,0c0.2,0,0.4,0,0.5,0c1.9-0.2,3.9-0.1,5.9,0.3c0.6,0.1,1.3,0.3,1.9,0.5
				c0.5,0.1,0.9,0.3,1.4,0.5c0.8,0.3,1.6,0.6,2.4,1c0.6,0.3,1.3,0.6,1.9,1c0.6,0.3,1.2,0.7,1.7,1c0.7,0.5,1.4,1,2,1.5l0,0
				c0.6,0.5,1.2,1,1.8,1.6c0.5,0.5,1,1,1.5,1.5c0.2,0.2,0.4,0.4,0.5,0.6c0.5,0.6,1,1.2,1.5,1.9c0.5,0.6,1,1.3,1.4,2
				c1.2,1.8,2.3,3.7,3.4,5.9c0.1,0.3,0.3,0.6,0.5,0.9c0.1,0.1,0.1,0.2,0.1,0.3c0,0.1,0.1,0.2,0.1,0.3c0.2,0.3,0.3,0.6,0.4,0.9
				c0.2,0.3,0.3,0.6,0.5,0.9c0.3,0.8,0.6,1.5,0.9,2.3c0.3,0.6,0.5,1.3,0.7,1.9l0,0l0,0c0,0.2,0.1,0.4,0.1,0.5s0.1,0.2,0.1,0.3
				c0.1,0.3,0.2,0.5,0.2,0.8c0.2,0.6,0.4,1.3,0.6,1.9c0.2,0.7,0.4,1.4,0.5,2.1c0.2,0.9,0.5,1.8,0.6,2.7c0.2,1,0.5,2,0.6,3.1
				c0.2,1.3,0.5,2.6,0.6,3.9c0.2,1.1,0.3,2.3,0.5,3.4c0.5,4.9,0.9,10.2,0.9,16v-2.3c0-1.2,0-2.3,0.1-3.5c0.1-0.8,0.2-1.5,0.3-2.3
				c0-0.4,0.1-0.7,0.2-1c0.7-4.3,2.2-8.2,4.1-11.5c0.9-1.7,2-3.2,3.2-4.5l0,0c0.6-0.7,1.2-1.3,1.8-1.8c0.6-0.6,1.3-1.2,2-1.7
				c0.5-0.3,0.9-0.7,1.4-0.9c0,0,0,0,0.1,0c0.5-0.3,0.9-0.6,1.4-0.9c0.6-0.4,1.3-0.7,2-1c0.5-0.2,1.1-0.5,1.7-0.7
				c0.1,0,0.2-0.1,0.3-0.1c1.3-0.5,2.6-0.8,4-0.9h0.1c0.4-0.1,0.7-0.1,1.1-0.1c0.7-0.1,1.4-0.1,2.1-0.1c1.4,0,2.7,0.1,4.1,0.4
				c0.6,0.1,1.3,0.2,1.9,0.4c1,0.3,2.1,0.6,3.1,1.1c0.5,0.2,0.9,0.5,1.4,0.7c2,1,4.1,2.4,6,4.2c0.4,0.3,0.7,0.7,1.1,1
				c1.4,1.4,2.8,3,4,4.8c0.4,0.5,0.8,1,1.1,1.6c0.4,0.6,0.8,1.3,1.2,1.9c1.5,2.6,2.9,5.6,4.1,8.9c0.3,0.9,0.6,1.8,0.9,2.7
				c0.9,2.8,1.7,5.7,2.3,9l0,0l0,0c0.1,0.7,0.3,1.4,0.4,2.1c0,0.2,0,0.4,0.1,0.5c0.2,1.2,0.4,2.5,0.6,3.8c0.2,1.6,0.4,3.2,0.5,4.9
				c0,0.5,0.1,1.1,0.1,1.7c0.1,1.1,0.2,2.3,0.3,3.5c0,0.8,0,1.5,0.1,2.3c0.1,2,0.1,4.1,0.1,6.2v-2.2c0-1,0-2.1,0.1-3.1
				c0.1-0.9,0.2-1.8,0.3-2.6c0.3-2,0.7-4,1.4-5.8c0.1-0.6,0.4-1.2,0.6-1.8c0.2-0.5,0.4-1.1,0.6-1.6s0.5-1,0.8-1.5v-0.1
				c0-0.1,0.1-0.3,0.2-0.4c0.1-0.3,0.3-0.5,0.5-0.8c0-0.2,0.1-0.3,0.2-0.5c0-0.1,0.1-0.2,0.2-0.3v-0.1c0.2-0.4,0.5-0.8,0.7-1.1
				c0.3-0.5,0.7-1,1-1.4c0.5-0.6,0.9-1.2,1.4-1.8c0.5-0.6,1.1-1.2,1.7-1.7c0.6-0.6,1.3-1.2,2-1.7c0.7-0.5,1.4-1,2.1-1.5
				c0.9-0.5,1.8-1,2.7-1.4c0.2-0.1,0.4-0.2,0.6-0.3c0,0,0,0,0.1,0c0.2-0.1,0.5-0.2,0.7-0.3c1.8-0.7,3.6-1.1,5.4-1.3
				c0.8-0.1,1.7-0.1,2.5-0.1c0.6,0,1.2,0,1.8,0.1c0.4,0,0.8,0,1.2,0.1c0.4,0,0.8,0.1,1.2,0.2c0.5,0.1,1,0.2,1.5,0.4
				c0.6,0.1,1.2,0.3,1.8,0.5c0.5,0.2,1,0.4,1.5,0.6s1,0.5,1.5,0.7c2,1,3.9,2.3,5.7,3.9c0.4,0.4,0.8,0.7,1.2,1.1
				c3.4,3.3,6.5,7.8,9.1,13.6c0.4,0.8,0.7,1.6,1,2.4l0,0l0,0l0,0c0,0,0,0,0,0.1c0.4,0.9,0.7,1.9,1,3c0.2,0.5,0.4,1,0.5,1.5
				c0.2,0.7,0.5,1.4,0.6,2.2c0.4,1.3,0.7,2.6,1,3.9c0.2,0.9,0.4,1.8,0.6,2.8c0.3,1.3,0.5,2.5,0.7,3.9s0.5,3,0.6,4.6
				c0.1,1.3,0.3,2.6,0.4,3.9c0.1,1.4,0.2,2.8,0.3,4.2v0.3c0,1.3,0.1,2.5,0.1,3.8C706.2,122.4,706.2,123.7,706.2,125z"/>
		</g>
		<g>
			<g>
				<path class="st4" d="M582.6,33.6c3,9,4.8,20.5,4.8,34.9v-2.3c0-9.5,3.1-17.3,8-22.8C591.3,40.3,587,37.1,582.6,33.6z"/>
			</g>
			<g>
				<path class="st4" d="M646.8,96.7v-2.3c0-7.9,2.2-14.6,5.6-19.8c-2.6-0.9-5.3-2-7.9-3C646,78.9,646.8,87.1,646.8,96.7z"/>
			</g>
			<g>
				<path class="st4" d="M852.1,46.6c0-1.4,0-2.8-0.2-4.2c0-0.9-0.1-1.8-0.2-2.7c0-0.5-0.1-1.1-0.2-1.7c-0.3-2.2-0.7-4.4-1.3-6.5
					c-0.3-1.1-0.6-2.2-0.9-3.3c-0.2-0.8-0.5-1.5-0.8-2.3c-0.2-0.7-0.5-1.5-0.8-2.2c-0.4-0.9-0.7-1.8-1.1-2.7c-0.2-0.5-0.4-1-0.7-1.4
					c-0.3-0.7-0.6-1.4-1-2.2c-0.5-0.9-1-1.9-1.5-2.8c-0.3-0.5-0.5-0.9-0.8-1.4c-1.2-1.9-2.4-3.8-3.7-5.6c-0.8-1.1-1.6-2.2-2.5-3.2
					c-4.8-6-10.6-11.7-17.3-17c-1-0.8-2.1-1.7-3.2-2.5c-8.9-6.7-19.2-12.8-30.6-18.4c-20.9-10.3-45.7-18.7-72.4-25.3
					c-7-1.8-14.2-3.3-21.4-4.8c-0.4,0-0.7-0.1-1-0.2c-2.4-0.5-4.8-0.9-7.2-1.4c-2.5-0.5-5.1-0.9-7.6-1.4c-2.6-0.5-5.1-0.9-7.7-1.3
					c-2.6-0.4-5.1-0.8-7.7-1.2c-2.8-0.4-5.5-0.8-8.3-1.2c-5-0.7-10-1.4-15.1-1.9c-10.2-1.2-20.3-2.1-30.5-2.8
					c-0.7,0-1.3-0.1-1.9-0.1c-3-0.2-5.9-0.4-8.8-0.5c-1.9-0.1-3.9-0.2-5.8-0.3c-17.6-0.8-35.1-1-51.9-0.5
					c-5.8,0.2-11.5,0.4-17.1,0.8c-7.5,0.5-14.9,1-22.1,1.8c-0.1,0-0.3,0-0.5,0c-2.6,0.2-5.1,0.5-7.6,0.8c-6,0.7-11.8,1.5-17.5,2.4
					c-1.8,0.3-3.4,0.5-5.1,0.9c-9.7,1.7-18.8,3.6-27.3,5.9c-2.1,0.6-4.2,1.2-6.2,1.8C417.4-56.9,410-49,410-40.5v58.7
					c0,4.6-0.3,9.1,0.1,13.3c0,0.5,0.1,1.1,0.2,1.6c0.4,2.2,0.9,4.2,2,6.1c0.2,0.5,0.5,0.9,0.7,1.3c0.9,1.3,2.1,2.6,3.5,3.7
					c0.6,0.5,1.2,0.9,1.9,1.3c0.7,0.5,1.4,0.8,2.3,1.2c3.2,1.6,7.4,2.8,12.7,3.7c7.7,1.2,15.3,2.7,22.8,4.4c4.6,1,9.5,3.1,14.6,6
					c1,0.6,2.1,1.2,3.1,1.8c0-0.4,0-0.7,0-1c-1-0.5-1.9-1-2.9-1.5c-0.1-0.1-0.3-0.2-0.5-0.2c-0.1,0-0.2-0.1-0.3-0.1
					c-0.5-0.2-1-0.5-1.5-0.7V9.7c0-0.9,0-1.9,0.1-2.8c0-0.8,0.1-1.5,0.3-2.3l0,0l0,0c0.2-1.4,0.4-2.8,0.7-4.1
					c0.2-0.6,0.3-1.3,0.5-1.9c0.2-0.6,0.4-1.2,0.6-1.8c1.2-3.2,2.8-6.1,4.8-8.6c0.3-0.3,0.5-0.7,0.8-0.9c0.1-0.1,0.2-0.3,0.3-0.4
					s0.3-0.3,0.4-0.4c0.1-0.2,0.2-0.3,0.4-0.4c0.2-0.2,0.5-0.5,0.7-0.7c0.2-0.3,0.5-0.5,0.7-0.7c1-0.9,2.1-1.7,3.2-2.4
					c1.3-0.9,2.7-1.5,4.2-2.1l0,0c1.1-0.5,2.2-0.8,3.3-1c0.7-0.2,1.4-0.3,2-0.4c1.2-0.2,2.4-0.2,3.7-0.1c0.3,0,0.6,0,0.9,0
					c0.5,0,0.9,0,1.4,0.1c0.3,0,0.6,0.1,0.9,0.1h0.1c0.4,0.1,0.7,0.1,1,0.2c0.4,0,0.7,0.1,1,0.3c0.7,0.2,1.4,0.4,2,0.7
					c0.4,0.1,0.8,0.3,1.2,0.5c1,0.5,2.1,1,3.2,1.7c0.5,0.3,0.9,0.6,1.4,0.9c0.1,0,0.2,0.1,0.3,0.2c0.7,0.5,1.4,1.1,2.1,1.7
					s1.4,1.3,2.1,2c0.6,0.6,1.2,1.3,1.8,2.1c3.4,4.3,6.4,9.9,8.7,17c0.5,1.6,1,3.2,1.4,5c0.2,0.7,0.4,1.5,0.5,2.3
					c0.2,0.9,0.4,1.9,0.6,2.9c0.2,1,0.4,1.9,0.5,3c0.2,1.1,0.4,2.3,0.5,3.6c0.1,0.7,0.2,1.4,0.3,2.2c0.2,1.9,0.4,3.9,0.5,6
					c0.1,1.3,0.1,2.5,0.2,3.8c0,0.9,0,1.7,0,2.6s0,1.8,0,2.7V38c0-2,0.1-4,0.4-5.9c0.1-0.8,0.3-1.6,0.5-2.4c0.1-0.6,0.3-1.3,0.5-1.9
					c0.1-0.5,0.3-0.9,0.4-1.4c0.2-0.6,0.4-1.1,0.6-1.7c0.9-2.3,2-4.5,3.2-6.5c0.3-0.4,0.5-0.8,0.9-1.2c0-0.1,0.1-0.2,0.1-0.2
					c0.1-0.1,0.2-0.2,0.2-0.3l0,0c0.5-0.6,0.9-1.2,1.5-1.7c0.5-0.5,1-1.1,1.5-1.6s1.1-1,1.6-1.4c0.3-0.3,0.7-0.5,1-0.8l0,0
					c0.8-0.6,1.6-1.1,2.5-1.5l0,0c1.2-0.7,2.4-1.2,3.7-1.6c0.6-0.2,1.1-0.4,1.7-0.5l0,0c0.6-0.2,1.2-0.3,1.8-0.4
					c0.4-0.1,0.7-0.1,1.1-0.2c-0.3-0.2-0.5-0.5-0.8-0.7l0,0c-3.1-2.8-6.1-5.7-9.2-8.7c-1.1-1.1-2.3-2.2-3.5-3.2
					c-1.1-0.9-2.2-1.8-3.2-2.7c-0.9-0.7-1.9-1.4-2.8-2.2c-0.1-0.1-0.2-0.2-0.4-0.3c-0.5-0.4-1.1-0.8-1.6-1.1c-0.5-0.3-1-0.7-1.5-1
					c-0.5-0.4-1-0.7-1.5-1c-1-0.7-2.1-1.4-3.1-1.9c-0.7-0.5-1.4-0.9-2.1-1.2c-3.5-2-7.1-3.8-10.7-5.4l0,0c0,0,0,0-0.1,0
					c-1.6-0.7-3.2-1.4-4.9-2c-1.2-0.5-2.4-0.9-3.6-1.4c-0.4-0.1-0.8-0.3-1.2-0.5l0,0c-0.3-0.1-0.6-0.2-0.9-0.3
					c-0.7-0.3-1.4-0.5-2.2-0.7c-1-0.3-1.9-0.6-2.9-0.9c-1.2-0.4-2.4-0.7-3.6-1c-0.7-0.2-1.4-0.4-2.1-0.6c-0.7-0.2-1.4-0.4-2.1-0.5
					c-0.8-0.2-1.6-0.4-2.4-0.6c-1.3-0.3-2.5-0.6-3.8-0.9c-0.7-0.1-1.4-0.3-2-0.4c-0.7-0.1-1.4-0.3-2.1-0.5c-1.1-0.2-2.3-0.4-3.4-0.6
					c-0.8-0.1-1.6-0.3-2.3-0.4c-1.8-0.3-3.7-0.5-5.5-0.8c-2.4-0.3-4.7-0.6-6.9-0.8c-1.6-0.1-3.2-0.3-4.6-0.4c-0.6,0-1.2-0.1-1.8-0.1
					c-1.2-0.1-2.3-0.2-3.3-0.2c-0.5,0-1-0.1-1.5-0.1c-0.8,0-1.5-0.1-2.2-0.1c-0.4,0-0.7,0-1,0c-1.4-0.1-2.7-0.1-3.7-0.2
					c-0.3,0-0.5,0-0.7,0c-0.7,0-1.1-0.1-1.4-0.1c-0.1,0-0.2-0.1-0.3-0.1h-0.1v-0.1c0.1,0,0.4-0.1,0.8-0.3c3.1-0.8,6.2-1.6,9.4-2.3
					c2.3-0.6,4.7-1.1,7-1.6c2.7-0.6,5.4-1.2,8-1.8c2.8-0.6,5.6-1.2,8.5-1.7c1.7-0.4,3.5-0.7,5.2-0.9c1.9-0.4,3.9-0.7,5.9-1
					c0.8-0.1,1.5-0.3,2.3-0.4c1.5-0.2,3-0.5,4.6-0.7c5.1-0.8,10.2-1.5,15.3-2.1c0.7-0.1,1.4-0.2,2.1-0.3c5.4-0.6,10.8-1.2,16.2-1.7
					c4.4-0.4,8.8-0.7,13.2-1c1-0.1,1.9-0.1,2.9-0.2c2.6-0.2,5.2-0.3,7.8-0.4c2.6-0.1,5.2-0.2,7.8-0.3c5.5-0.2,11-0.2,16.5-0.2
					c3.6,0,7.1,0,10.6,0.1h1.2c2.1,0,4.1,0.1,6.1,0.2c0.3,0,0.6,0,0.9,0s0.5,0,0.8,0c2.7,0.1,5.3,0.2,7.9,0.4
					c3.2,0.1,6.3,0.3,9.5,0.5c3.7,0.3,7.4,0.5,11,0.9c3.2,0.3,6.3,0.6,9.4,0.9c2.1,0.2,4.2,0.5,6.4,0.7c0.4,0,0.8,0.1,1.1,0.1
					c1.4,0.2,2.9,0.4,4.3,0.6c2.3,0.3,4.5,0.6,6.7,0.9c3.1,0.5,6.1,0.9,9.1,1.4s6,1,9,1.6c3.3,0.6,6.7,1.3,10,1.9
					c2,0.4,4.1,0.9,6.1,1.3c0.7,0.1,1.4,0.3,2.2,0.5c2.1,0.5,4.3,1,6.4,1.5c0.5,0.1,1.1,0.3,1.7,0.4c2.8,0.7,5.5,1.4,8.3,2.1
					c2,0.5,4.1,1.1,6.1,1.7c1.2,0.4,2.4,0.7,3.7,1.1c2,0.6,4,1.2,6,1.8c4.6,1.4,9.2,3,13.6,4.6c0,0,0.1,0,0.2,0.1
					c1.6,0.5,3.1,1.1,4.6,1.7c8.1,3,15.8,6.2,23.2,9.7c1.8,0.8,3.7,1.7,5.5,2.6c3.1,1.5,6.1,3.1,9.1,4.7s5.9,3.2,8.7,5l0,0
					c1.8,1.1,3.6,2.2,5.3,3.3c0.5,0.3,1.1,0.7,1.6,1c1.2,0.8,2.4,1.6,3.6,2.4c0.5,0.3,0.9,0.6,1.4,0.9c0.9,0.6,1.9,1.3,2.8,2
					l0.1,0.1c1.3,0.9,2.5,1.8,3.8,2.8c2,1.5,3.9,3,5.8,4.6c0.7,0.5,1.4,1.1,2,1.7c0.6,0.5,1.3,1.1,1.9,1.7c1.3,1.2,2.6,2.4,3.9,3.6
					c1.5,1.4,3,2.9,4.4,4.4c0.7,0.7,1.4,1.5,1.9,2.2c0.6,0.8,1.2,1.5,1.7,2.3c1.1,1.5,1.9,3,2.6,4.6c0.3,0.8,0.6,1.5,0.9,2.3
					c0.2,0.6,0.4,1.2,0.5,1.8c0.1,0.4,0.2,0.8,0.2,1.1c0,0,0,0.1,0,0.2c0.1,0.5,0.2,1,0.2,1.5c0.1,0.8,0.1,1.6,0.1,2.3
					c0,0.5,0,1,0,1.6v0.1c0,0.1,0,0.1,0,0.2c0,0.3,0,0.6-0.1,0.9c0,0.1,0,0.2,0,0.3l0,0c0,0.4-0.1,0.6-0.2,0.9
					c0,0.3-0.1,0.6-0.2,0.9c0,0.4-0.1,0.7-0.2,1c-0.2,0.8-0.4,1.6-0.7,2.3c-0.1,0.4-0.3,0.7-0.4,1c0,0.1,0,0.1-0.1,0.2
					c-0.1,0.3-0.2,0.6-0.4,0.9c0,0.1,0,0.2-0.1,0.3c-0.1,0.3-0.2,0.5-0.3,0.7c0,0.1-0.1,0.2-0.2,0.3c-0.3,0.5-0.5,1.1-0.9,1.6
					c-0.4,0.6-0.8,1.2-1.2,1.8c0,0,0,0.1-0.1,0.2c-0.4,0.6-0.8,1.1-1.2,1.7c-0.2,0.2-0.4,0.5-0.5,0.7c-0.2,0.2-0.3,0.4-0.5,0.5
					c-0.9,1.1-1.9,2.2-3,3.2c-0.2,0.2-0.4,0.5-0.6,0.6c-0.1,0.1-0.3,0.3-0.4,0.4c-0.5,0.5-1.1,1-1.6,1.5l-0.1,0.1
					c-0.1,0.1-0.3,0.2-0.5,0.4c-0.6,0.5-1.2,1-1.8,1.5l0,0c-0.2,0.1-0.3,0.3-0.5,0.4c-1,0.8-2.1,1.6-3.2,2.3
					c-0.5,0.3-0.9,0.6-1.4,0.9c-0.7,0.5-1.4,0.9-2.1,1.3c-1,0.6-2,1.1-3,1.7c-2,1.1-4.2,2.2-6.5,3.2l0,0c-2,0.9-4.2,1.8-6.4,2.6
					c-1.4,0.5-2.9,1.1-4.4,1.6s-3.1,1-4.6,1.4c-0.2,0-0.4,0.1-0.6,0.1s-0.4,0.1-0.6,0.2c-0.7,0.2-1.5,0.5-2.2,0.6
					c-2.1,0.5-4.2,1-6.4,1.5s-4.4,0.9-6.6,1.3l0,0c-0.2,0-0.4,0.1-0.6,0.1c-1,0.2-2.1,0.4-3.2,0.5c-0.7,0.1-1.4,0.2-2.2,0.3
					c-0.3,0.1-0.7,0.1-1,0.1c-2,0.2-4,0.5-6.1,0.6c-0.8,0.1-1.7,0.1-2.5,0.2c-0.1,0-0.3,0-0.5,0c-0.8,0-1.6,0.1-2.4,0.1
					c-1,0-2.1,0.1-3.2,0.1S738,89,736.9,89c-1.9,0.1-3.9,0.1-5.9,0c-2,0-4,0-6-0.1c-1.2,0-2.3,0-3.5-0.1c-0.2,0-0.4,0-0.6,0
					c-0.2,0-0.4,0-0.5,0h-0.2c-0.1,0-0.2,0-0.4,0c-0.3,0-0.5,0-0.8,0c-0.6,0-1.3,0-1.9-0.1c-0.1,0-0.3,0-0.4,0
					c-3.1-0.3-6.2-0.6-9.4-0.9c-0.7-0.1-1.4-0.2-2-0.3c-1.5-0.2-3-0.4-4.5-0.6l0,0l0,0l0,0c0,0,0,0,0,0.1c0.4,0.9,0.7,1.9,1,3
					c0.2,0.5,0.4,1,0.5,1.5c0.2,0.7,0.5,1.4,0.6,2.2c0.4,1.3,0.7,2.6,1,3.9c0.2,0.9,0.4,1.8,0.6,2.8c0.3,1.3,0.5,2.5,0.7,3.9
					c0.2,1.4,0.5,3,0.6,4.6c0.1,1.3,0.3,2.6,0.4,3.9c0.1,1.4,0.2,2.8,0.3,4.2v0.3c0,1.3,0.1,2.5,0.1,3.8s0,2.6,0,3.9v72.4h-0.2v4.6
					c1.8,0,3.7,0,5.7,0c4.4-0.1,8.8-0.3,13.3-0.5c1.4,0,2.7-0.1,4.1-0.3c7.8-0.5,15.6-1.4,23.1-2.6c1.2-0.2,2.4-0.4,3.6-0.6
					c10.4-1.7,20.5-4,30-6.9c0.8-0.2,1.6-0.5,2.4-0.7c1.7-0.5,3.4-1.1,5.1-1.7c1.7-0.6,3.3-1.2,5-1.8c1.7-0.6,3.3-1.3,4.9-2h0.1
					c1.1-0.4,2.1-0.9,3.2-1.4c9.4-4.3,17.8-9.3,24.8-15.1c1.1-0.9,2.2-1.9,3.2-2.8c2.2-2,4.2-4.1,6-6.3c0.9-1,1.7-2.1,2.5-3.2
					c0.7-0.9,1.3-1.8,1.8-2.8c1-1.5,1.8-3.1,2.6-4.7c0.4-0.7,0.7-1.4,1-2.2c0.2-0.5,0.5-1,0.6-1.6c0.4-1,0.8-2.1,1.1-3.2
					c0.4-1.3,0.8-2.6,1-3.9c0-0.1,0-0.3,0.1-0.6V137c0.1-0.4,0.2-0.6,0.2-0.9c0.4-2.2,0.6-4.5,0.6-6.7c0-0.9,0.1-1.8,0.1-2.8V54.9
					C852.4,52.2,852.1,49.5,852.1,46.6z"/>
			</g>
		</g>
	</g>
	<g class="st1">
		<path class="st2" d="M852.1,126.6c-0.1,0.5-0.7,8.2-0.9,10.5c0,0.4-0.1,0.5-0.1,0.6c-9.3,42.2-75.1,63.2-139.4,64.3
			c-1.9,0-3.8,0-5.7,0v-81h0.1l6.6,2.6C712.8,123.7,779.5,219.1,852.1,126.6z"/>
	</g>
	<g class="st1">
		<path class="st2" d="M473.8,62.4c-1-0.6-2.1-1.2-3.1-1.8c-5.1-2.8-10-4.9-14.6-6c-7.5-1.8-15.1-3.2-22.8-4.4
			c-26.7-4.4-23.4-18-23.4-32.3v-37.5l4.1-0.8c1.8,2,50.1,7.7,55,24.9l0,0c0.5,2,1.2,36.6,1.8,38.6c1.8,5.7,2.9,11.8,2.9,18.1
			C473.8,61.6,473.8,62,473.8,62.4z"/>
	</g>
	<path class="st5" d="M450.3-58.3c-4.2,2-8.5,3.7-12.8,5.6c-5.9,2.5-8.1,5.6-7.9,11.3c0.2,5.3,8.1,7.1,12.3,8.9
		c10,4.2,20.3,2.8,30.9,3c6.8,0.2,12,2.5,18.3,4.6c14.5,4.8,29,6.9,42.6,14c6,3.2,12.9,6.6,12.8,14.4c-0.1,8.2-9.7,8-13.9,13.1
		c-7.2-2.1-7.7-11.8-10.7-17.5c-2.6-4.9-5-10.9-10.4-12.5c-7-2-15.3-3.4-22.6-3.8c-3.4-0.2-7.1,0-10.2,1.1c-3.2,1.2-3.6,2.9-6.2,4.9
		c-3.1,2.6-9.2,1.6-13.7,1.6c-10.8,0-20.7-1.6-31.2-4.2c-7.9-1.9-16.3-7.3-18.7-15.8c-3-11.2,2-16.9,10.4-22.9
		c9.8-7.1,24.2-8.4,35.5-11.6c5.6-1.6,11.4-2.4,17.2-3c4.1-0.4,10.6-2.4,15.6-1.9c-8.6-0.5-19.6,3-27.5,6.4
		C457.1-61.3,453.6-59.9,450.3-58.3z"/>
	<g class="st1">
		<g>
			<path class="st6" d="M651.7,158.7c0,9.2,5.1,28.7-4.1,28.7c-1.6,0-12.1-3.9-17.2-6c-0.9-0.3-1.8-0.7-2.8-1.1
				c-1.4-0.5-2.6-1.1-3.9-1.7c-3.2-1.4-6.3-2.8-9.3-4.3c-2.5-1.2-4.9-2.5-7.2-3.8c-0.1,0-0.2-0.1-0.4-0.2c-2.2-1.3-4.4-2.5-6.5-3.8
				c-2.3-1.4-4.4-2.8-6.6-4.2c-1.6-1-3.1-2.1-4.6-3.1c2.9-5.8,3.1-11.7,3.8-11.7c0.5,0,19.6,14,28.4,14c12.6,0,11.8-18.2,12-27.5
				c0.4-18.9,1.5-36.1-0.5-54.8c-0.5-5.1-1.7-10.1-3.8-14.5c-3-6.2-7.8-11.3-15.2-13.8c-2.8-0.9-5.4-0.9-7.7,0
				c-7.4,2.7-11.8,13.4-12.8,23.1c-0.3-3.7-0.5-7.4-0.5-11c0-7.5,1.7-13.7,4.2-18.6c1.1-2.2,2.3-4,3.7-5.6c0,0,0,0,0.1,0
				c3.7-4.5,8.2-6.8,11.7-6.8c4.3,0,26.9,3.7,28.9,27.9c0.1,1.2,0.2,2.4,0.2,3.7c0,2.1,0,4.2,0,6.3v0.5
				C641.7,88,651.7,114.6,651.7,158.7z"/>
		</g>
		<g>
			<path class="st6" d="M533.9,70c0,19.5,3.1,36-4.9,36.4c-0.3-0.3-11.1-10.7-11.4-10.9c-1-0.9-1.9-1.9-2.9-2.8
				c-0.3-0.3-0.6-0.5-0.9-0.8c-0.9-0.9-1.9-1.8-2.8-2.7c-7.8-7.1-15.1-13.4-22.2-18.6c-0.5-0.7-0.9-1.3-1.2-1.7
				c-5.2-6.1-14.8-5.2-14.8-12.7c0-18.9,15.9,6.1,30.5,6.1c9.9,0,11.2-21.2,11.2-31.3c0-22.2-14-37.8-24.2-37.8
				c-10.3,0-16.1,10-16.1,19.2c0,1.1,0.1,2.2,0.2,3.2c-0.1-0.1-0.3-0.1-0.5-0.1c-1.1,0-1.2-6.5-1.2-7.5c0-12.5,6.6-22.2,13.9-28.1
				c5.2-4.2,10.6-6.5,14.2-6.5h0.4c3.7,0.1,6.9,1.5,9.8,3.9l0,0c10.6,8.8,16.5,30.4,19.5,47.4c0.4,2,0.7,3.9,0.9,5.7
				c0.6,3.8,1,7.3,1.3,10c0.3,3,0.4,5.2,0.4,6.4C532.9,53.7,533.9,62,533.9,70z"/>
		</g>
		<g>
			<path class="st6" d="M708.4,175.6c0,2.2-0.8,5.1-2.2,8.3c0,0.1-0.1,0.3-0.2,0.4c-1.8,3.9-4.5,8.3-7.7,12.6
				c-1.6-0.1-3.1-0.3-4.6-0.5c-2-0.2-3.9-0.4-5.8-0.7c-0.1,0-0.2,0-0.4,0c-2.5-0.3-4.9-0.6-7.2-1c-2.4-0.4-4.8-0.8-7.2-1.2
				c-2.3-0.5-4.6-0.9-6.9-1.4c-2-0.4-4-0.9-6-1.3c-3.7-0.9-7.3-1.8-10.7-2.8c0.1-5.1,2.6-8.8,8.9-8.8c35.4,0,35.3-12.7,35.3-48.2
				c0-14.6,0.5-34.4-5.7-46.3c-3.3-6.3-8.4-10.5-16.5-10.5c-4.6,0-7.8,1.2-10.3,3.4c-3.3,2.8-5.4,7.3-8.1,12.7
				c-0.1,0.2-0.1,0.4-0.1,0.5c0,0.4,0.1,0.8,0.1,1.2c-0.6,2.5-1.7,4.5-3.4,6.5c-0.1-2.4-0.3-5.1-0.3-7.7c0-5.7,0.7-10.6,2.2-14.7
				c0-0.1,0-0.1,0.1-0.2v-0.1c0.1-0.4,0.3-0.8,0.5-1.2l0,0c3.4-7.7,10.3-12,21.9-12c14.7,0,28.3,9.5,30.5,24.8l0,0
				c0.1,0.9,0.2,1.7,0.3,2.6l1.1,26.8v0.3l0.2,3.8L708.4,175.6z"/>
		</g>
		<g>
			<path class="st6" d="M591.5,127.2c0,8.1-1.7,13.7-4,17.3c-2.6,4.1-0.9,11.4-3.5,11.4l-7.2-5.7c-1.8-1.5-3.7-3-5.5-4.5
				c-2.1-1.7-4.1-3.4-6-5.1c-0.8-0.7-1.6-1.4-2.4-2.1c-7.3-6.5-14.2-13.1-21-19.7c-3.3-3.2-8.4-8.1-11.7-11.2l0,0
				c0-3-0.4-8-0.4-10.4c0-14.4,14.9,21.6,30.6,21.6c7.4,0,14.5-3.1,14.5-43.8c0-22.7-2.4-51-24.5-51c-11.6,0-15.7,7.4-17.6,16.4l0,0
				c-1.2,5.7-1.5,12-2.2,17.2c-0.8-5.2-1.4-11-1.4-16.8c0-5.5,0.6-10.4,1.7-14.5c0.9-3.6,2.2-6.7,3.8-9.3c0-0.1,0.1-0.2,0.1-0.2
				c0.1-0.1,0.2-0.2,0.2-0.3l0,0c4.1-6.3,9.8-9.6,15.8-10.5l0,0c1.2-0.2,2.5-0.3,3.7-0.3c10.4,0,21.2,7.9,25.7,21.2
				c0.1,0.1,0.1,0.2,0.1,0.3c0,0.1,0.1,0.2,0.1,0.3c0.6,1.7,1.1,3.5,1.4,5.3c0.5,2.6,0.7,5.3,0.7,8.2c0,9.7,5.1,20.1,5.1,29.9
				C587.4,90.7,591.5,93.4,591.5,127.2z"/>
		</g>
	</g>
	<g class="st1">
		<g>
			<g>
				<path class="st7" d="M470.9,3.4c-0.6,0-1.2-0.1-1.8-0.2c-3.1-0.8-6-1.6-8.9-2.3l-5.8-1.5c-7.5-2-15-3.7-22.4-5.1
					c-16.7-3.1-28.9-17.9-28.9-35.1c0-3.7,3-6.8,6.8-6.8c3.8,0,6.8,3,6.8,6.8c0,10.9,7.4,19.8,17.9,21.8c7.7,1.4,15.5,3.2,23.3,5.3
					l5.7,1.4c2.9,0.7,6,1.5,9.1,2.3c3.6,1,5.8,4.7,4.8,8.3C476.6,1.4,473.9,3.4,470.9,3.4z"/>
			</g>
			<g>
				<path class="st7" d="M732.2,95c-10.6,0-21.6-0.8-32.7-2.5c-3.1-0.5-5.2-3.3-4.7-6.4s3.3-5.2,6.4-4.7c34,5.1,66,1.9,90.1-8.8
					c2.8-1.3,6.2,0,7.5,2.8s0,6.2-2.8,7.5C777.8,90.8,755.9,95,732.2,95z"/>
			</g>
			<g>
				<path class="st7" d="M806,76.5c-1.8,0-3.6-0.9-4.7-2.5c-1.7-2.6-1-6.1,1.6-7.8c10.1-6.8,16.2-14.7,17.1-22.4
					c0.6-5.7-1.6-11.2-6.5-16.4C803.6,17,791,7.2,776-1.6c-2.7-1.6-3.6-5-2-7.7s5-3.6,7.7-2C797.6-2,811,8.4,821.6,19.6
					c7.3,7.6,10.6,16.5,9.6,25.5c-1.3,11.1-9.1,21.9-22,30.5C808.2,76.2,807.1,76.5,806,76.5z"/>
			</g>
			<g>
				<path class="st7" d="M763-9.3c-0.8,0-1.7-0.2-2.5-0.6c-14-6.9-29.6-13.1-46.3-18.3c-3-0.9-4.6-4.1-3.7-7.1s4.1-4.6,7.1-3.7
					c17.3,5.4,33.4,11.8,47.9,19c2.8,1.4,3.9,4.8,2.6,7.6C767.1-10.5,765.1-9.3,763-9.3z"/>
			</g>
			<g>
				<path class="st7" d="M667.7-39.9c-0.3,0-0.7,0-1-0.1c-50.8-9.6-105.7-11.3-158.9-4.9c-3.1,0.4-5.9-1.8-6.3-4.9
					c-0.4-3.1,1.8-5.9,4.9-6.3c54.4-6.5,110.5-4.7,162.3,5c3.1,0.6,5.1,3.5,4.5,6.6C672.7-41.8,670.3-39.9,667.7-39.9z"/>
			</g>
			<g>
				<path class="st7" d="M551.4,12.4c-1.4,0-2.7-0.5-3.8-1.5c-2.4-2.2-4.7-4.4-7.2-6.7l-2.9-2.8c-31.1-29.6-79.1-31.8-94.9-32.6
					c-5.4-0.2-9.7-0.4-10.3-5.5c-0.1-0.8-0.3-5,5.1-6.4c15.2-4,30.9-7.3,46.9-9.9c3.1-0.5,6,1.6,6.5,4.7c0.5,3.1-1.6,6-4.7,6.5
					c-4.4,0.7-8.8,1.5-13.2,2.3c22.2,3.7,50.7,12.2,72.4,32.8l2.9,2.7c2.4,2.2,4.7,4.4,7.1,6.6c2.3,2.1,2.4,5.7,0.3,8
					C554.5,11.8,553,12.4,551.4,12.4z"/>
			</g>
		</g>
		<g>
			<path class="st7" d="M734.7,125.5c-5.2,0-10.5-0.1-15.8-0.4c-4.5-0.2-9-0.6-13.5-1.1c-3.7-0.4-6.4-3.7-6-7.4s3.7-6.4,7.4-6
				c4.3,0.4,8.6,0.8,12.9,1c10.1,0.6,20.2,0.6,29.8,0c3.7-0.2,6.9,2.6,7.1,6.4c0.2,3.7-2.6,6.9-6.4,7.2
				C745.1,125.4,739.9,125.5,734.7,125.5z"/>
		</g>
		<g>
			<path class="st7" d="M784.4,120.3c-3.1,0-5.9-2.1-6.6-5.3c-0.8-3.6,1.5-7.3,5.1-8.1c12.6-2.9,23.7-6.9,32.8-12
				c3.3-1.8,7.4-0.6,9.2,2.6c1.8,3.3,0.6,7.4-2.6,9.2c-10.3,5.7-22.5,10.2-36.4,13.3C785.4,120.3,784.9,120.3,784.4,120.3z"/>
		</g>
		<g>
			<path class="st7" d="M819,107.7c-2.4,0-4.7-1.3-5.9-3.5c-1.8-3.3-0.6-7.4,2.6-9.2c18.2-10.1,28.2-23.8,29.7-40.7
				c0.1-1.5,0.1-3.1,0-4.7c0-1-0.1-2-0.1-3.1c0-13.8-5.1-26.8-15-38.9c-2.4-2.9-2-7.1,0.9-9.5s7.1-2,9.5,0.9
				c12,14.6,18.1,30.6,18.1,47.5c0,0.9,0,1.8,0,2.7c0.1,2,0.1,4-0.1,6.2c-1.8,21.4-14.5,39.2-36.6,51.4
				C821.3,107.4,820.1,107.7,819,107.7z"/>
		</g>
		<g>
			<path class="st7" d="M819-5.9c-1.5,0-3-0.5-4.2-1.5c-9.1-7.3-20.4-14.2-33.3-20.5c-3.4-1.6-4.8-5.7-3.1-9c1.6-3.4,5.7-4.8,9-3.1
				c13.9,6.7,25.9,14.1,35.9,22.1c2.9,2.3,3.4,6.6,1.1,9.5C823-6.8,821-5.9,819-5.9z"/>
		</g>
		<g>
			<path class="st7" d="M712.8-52.1c-0.5,0-1.1-0.1-1.6-0.2c-37-9.1-79.1-15-121.8-17c-3.7-0.2-6.6-3.3-6.4-7.1
				c0.2-3.7,3.3-6.5,7.1-6.4c43.6,2.1,86.6,8.1,124.4,17.4c3.6,0.9,5.8,4.6,4.9,8.2C718.6-54.1,715.9-52.1,712.8-52.1z"/>
		</g>
		<g>
			<path class="st7" d="M409.9,13.4c-3.7,0-6.8-3-6.8-6.8v-47.4c0-7.2,3.8-20.4,29.4-28c28-8.3,64.3-13.3,105.1-14.5
				c3.7-0.1,6.9,2.8,7,6.6c0.1,3.7-2.8,6.9-6.6,7c-39.6,1.2-74.8,6-101.6,14c-12.6,3.6-19.7,9.1-19.7,14.9V6.6
				C416.7,10.3,413.6,13.4,409.9,13.4z"/>
		</g>
		<g>
			<path class="st7" d="M484.5,74.5c-1.3,0-2.6-0.4-3.8-1.2c-9.3-6.2-17.8-10.2-26.1-12.1c-6.7-1.6-14-3-22.4-4.3
				C404.8,52.4,402.7,38,403,23.7c0.1-3.7,3.2-6.8,6.9-6.6c3.7,0.1,6.7,3.2,6.6,6.9c-0.2,10.3-0.3,16.6,17.8,19.5
				c8.6,1.4,16.3,2.9,23.3,4.5c10,2.3,20,6.9,30.7,14.1c3.1,2.1,3.9,6.3,1.8,9.4C488.8,73.4,486.7,74.5,484.5,74.5z"/>
		</g>
		<g>
			<path class="st7" d="M725.2,204.8c-6.4,0-12.9-0.2-19.4-0.6l-2.9-0.2c-3.5-0.2-6.7-0.6-9.9-0.9c-0.9-0.1-1.8-0.2-2.7-0.3
				c-3.7-0.4-6.4-3.8-6-7.5c0.4-3.7,3.8-6.4,7.5-6c0.8,0.1,1.7,0.2,2.5,0.3c3.1,0.3,6.2,0.6,9.4,0.8l2.7,0.2
				c16.6,1,32.6,0.7,47.8-0.9c3.7-0.4,7,2.3,7.4,6c0.4,3.7-2.3,7-6,7.4C745.7,204.2,735.6,204.8,725.2,204.8z"/>
		</g>
		<g>
			<path class="st7" d="M784.4,198.2c-3.1,0-5.8-2.1-6.6-5.2c-0.9-3.6,1.3-7.3,5-8.2c14.1-3.4,26.1-8.1,35.7-13.9
				c3.2-1.9,7.4-0.9,9.3,2.3s0.9,7.4-2.3,9.3c-10.8,6.5-24.1,11.7-39.5,15.4C785.5,198.1,785,198.2,784.4,198.2z"/>
		</g>
		<g>
			<path class="st7" d="M835.5,173.4c-1.8,0-3.6-0.7-4.9-2.1c-2.6-2.7-2.5-7,0.2-9.6c7.6-7.2,12.1-15.7,13.6-25c0.6-3.8,1-7,1-10.1
				v-15.9c0-3.7,3-6.8,6.8-6.8c3.7,0,6.8,3,6.8,6.8v15.9c0,4.2-0.5,8.3-1.1,12.1c-1.9,12.4-7.8,23.4-17.6,32.8
				C838.9,172.8,837.2,173.4,835.5,173.4z"/>
		</g>
		<g>
			<path class="st7" d="M852.1,117.5c-3.7,0-6.8-3-6.8-6.8V54.9c0-3.7,3-6.8,6.8-6.8c3.7,0,6.8,3,6.8,6.8v55.9
				C858.9,114.5,855.9,117.5,852.1,117.5z"/>
		</g>
		<g>
			<path class="st7" d="M706.2,199.7c-3.7,0-6.8-3-6.8-6.8V125c0-23.9-5.3-37.1-9.7-44c-4.6-7.2-10.7-11.1-17-11.1
				c-9.4,0-19.2,9.2-19.2,24.6v88.2c0,3.7-3,6.8-6.8,6.8s-6.8-3-6.8-6.8V96.8c0-23.9-5.3-37.1-9.7-44c-4.6-7.2-10.7-11.1-17-11.1
				c-9.4,0-19.2,9.2-19.2,24.6v87.5c0,3.7-3,6.8-6.8,6.8s-6.8-3-6.8-6.8V68.6c0-33.1-9.8-46-15.6-50.8c-2.9-2.4-3.3-6.6-0.9-9.5
				s6.6-3.3,9.5-0.9c6.3,5.2,13.4,14.4,17.4,31c6.2-6.5,14.3-10.1,22.4-10.1c11.1,0,21.2,6.2,28.4,17.4c3.8,5.9,6.6,12.9,8.6,21
				c6.2-6.5,14.3-10.1,22.4-10.1c11.1,0,21.2,6.2,28.4,17.4c7.8,12.2,11.8,29.4,11.8,51.3v67.9C713,196.6,710,199.7,706.2,199.7z"/>
		</g>
		<g>
			<path class="st7" d="M569.3,19.2c-1.5,0-3-0.5-4.3-1.5c-4.9-4-10.6-5.3-16.1-3.4c-3.5,1.2-7.4-0.7-8.6-4.3
				c-1.2-3.5,0.7-7.4,4.3-8.6c9.9-3.3,20.4-1.2,28.9,5.8c2.9,2.4,3.3,6.6,0.9,9.5C573.2,18.3,571.3,19.2,569.3,19.2z"/>
		</g>
		<g>
			<path class="st7" d="M528,107.8c-3.7,0-6.8-3-6.8-6.8V40.2c0-23.9-5.3-37.1-9.7-44c-4.6-7.2-10.7-11.1-17-11.1
				c-9.4,0-19.2,9.2-19.2,24.6v44.6c0,3.7-3,6.8-6.8,6.8c-3.7,0-6.8-3-6.8-6.8V9.7c0-23.8,16.6-38.1,32.7-38.1
				c11.1,0,21.2,6.2,28.4,17.4c3.7,5.8,6.6,12.8,8.6,20.9c3.6-3.8,8-6.8,13.1-8.5c3.6-1.2,7.4,0.7,8.6,4.3c1.2,3.5-0.7,7.4-4.3,8.6
				c-8.6,2.9-14.2,12.2-14.2,23.7v63.1C534.8,104.7,531.8,107.8,528,107.8z"/>
		</g>
	</g>
	<polygon class="st8" points="493.4,111.6 488,110.4 482.6,109.9 482.1,104.4 480.9,99.1 485.9,96.9 490.6,94.2 494.2,98.3 
		498.3,101.9 495.5,106.6 	"/>
	<polygon class="st8" points="540.7,149.4 537.9,154 535.6,159 530.3,157.7 524.9,157.1 524.5,151.7 523.4,146.4 528.4,144.3 
		533.1,141.6 536.7,145.7 	"/>
	<polygon class="st8" points="508.7,184.9 505.8,189.6 503.6,194.5 498.3,193.3 492.9,192.6 492.4,187.2 491.3,181.9 496.4,179.8 
		501.1,177.1 504.7,181.2 	"/>
	<polygon class="st5" points="564.7,180.7 561.9,185.4 559.6,190.3 554.3,189.1 548.9,188.4 548.5,183 547.4,177.7 552.4,175.6 
		557.1,172.9 560.7,177 	"/>
	<polygon class="st5" points="439,71.1 437.2,74 435.8,77.1 432.5,76.3 429.1,76 428.8,72.6 428.1,69.2 431.3,67.9 434.2,66.2 
		436.5,68.8 	"/>
	<polygon class="st8" points="643.2,210 641.4,212.9 640,216 636.7,215.2 633.3,214.8 633,211.4 632.4,208.1 635.5,206.8 
		638.5,205.1 640.7,207.7 	"/>
	<polygon class="st8" points="455.6,96.2 456,100.4 456.9,104.4 453.1,106 449.6,108.1 446.8,105 443.7,102.3 445.8,98.8 447.5,95 
		451.5,95.9 	"/>
	<polygon class="st8" points="656.6,241 654.3,244.4 652.4,248.1 648.4,246.9 644.4,246.3 644.2,242.1 643.6,238.1 647.5,236.7 
		651.2,234.8 653.7,238.1 	"/>
	<polygon class="st5" points="689.5,218 689.9,222.1 690.8,226.2 687.1,227.8 683.5,229.9 680.8,226.8 677.7,224.1 679.8,220.6 
		681.4,216.8 685.4,217.7 	"/>
	<polygon class="st8" points="606.6,184 607,188.1 607.9,192.1 604.1,193.8 600.6,195.9 597.8,192.8 594.7,190.1 596.8,186.5 
		598.5,182.7 602.5,183.6 	"/>
	<polygon class="st8" points="567.9,216.3 565.8,216.8 563.8,217.5 562.7,215.7 561.4,214 562.8,212.3 564,210.6 566,211.4 
		568.1,212 567.9,214.2 	"/>
	<polygon class="st8" points="666.7,206.4 664.6,206.9 662.6,207.6 661.5,205.8 660.2,204 661.6,202.4 662.8,200.6 664.8,201.5 
		666.9,202.1 666.7,204.2 	"/>
	<polygon class="st5" points="478,153.1 475.3,153.7 472.6,154.7 471.2,152.2 469.5,150 471.3,147.9 472.9,145.5 475.5,146.7 
		478.2,147.5 478,150.3 	"/>
	<polygon class="st8" points="507.4,132 505.3,132.5 503.3,133.2 502.2,131.4 500.8,129.6 502.3,128 503.5,126.2 505.5,127.1 
		507.5,127.7 507.3,129.8 	"/>
	<polygon class="st9" points="493.4,33.3 492.1,33.6 490.9,34.1 490.2,32.9 489.4,31.9 490.2,30.9 491,29.8 492.2,30.3 493.5,30.7 
		493.4,32 	"/>
	<polygon class="st9" points="502.4,45 501.1,45.3 499.8,45.8 499.1,44.6 498.3,43.6 499.2,42.6 499.9,41.5 501.2,42 502.5,42.4 
		502.3,43.7 	"/>
	<polygon class="st9" points="553.5,35.5 552.2,35.8 551,36.2 550.3,35.1 549.5,34 550.3,33 551.1,31.9 552.3,32.5 553.6,32.8 
		553.5,34.2 	"/>
	<polygon class="st9" points="556.2,68.5 554.9,68.8 553.6,69.2 553,68.1 552.1,67 553,66 553.8,64.9 555,65.5 556.3,65.8 
		556.2,67.2 	"/>
	<polygon class="st9" points="543.4,89.3 542.1,89.6 540.8,90 540.1,88.9 539.3,87.8 540.2,86.8 541,85.7 542.2,86.2 543.5,86.6 
		543.3,88 	"/>
	<polygon class="st9" points="563.1,101.9 561.8,102.2 560.6,102.6 559.9,101.5 559.1,100.4 559.9,99.4 560.7,98.3 561.9,98.9 
		563.2,99.2 563.1,100.6 	"/>
	<polygon class="st9" points="668.8,113 667.5,113.3 666.3,113.7 665.6,112.6 664.8,111.5 665.7,110.5 666.4,109.4 667.7,109.9 
		668.9,110.3 668.8,111.6 	"/>
	<polygon class="st9" points="609.4,67.7 608.1,68 606.8,68.5 606.1,67.3 605.3,66.2 606.2,65.2 606.9,64.1 608.2,64.7 609.4,65 
		609.3,66.4 	"/>
	<polygon class="st9" points="625.3,93.6 624,93.9 622.7,94.3 622,93.2 621.2,92.1 622.1,91.1 622.9,90 624.1,90.6 625.4,90.9 
		625.2,92.3 	"/>
	<polygon class="st9" points="690.6,129 689.3,129.3 688.1,129.7 687.4,128.6 686.6,127.5 687.5,126.5 688.2,125.4 689.4,125.9 
		690.7,126.3 690.6,127.6 	"/>
	<polygon class="st9" points="678.8,95.6 677.5,95.9 676.3,96.3 675.6,95.2 674.8,94.1 675.7,93.1 676.4,92 677.6,92.5 678.9,92.9 
		678.8,94.2 	"/>
	<polygon class="st9" points="668.8,171.1 667.5,171.4 666.3,171.9 665.6,170.7 664.8,169.7 665.7,168.7 666.4,167.6 667.7,168.1 
		668.9,168.5 668.8,169.8 	"/>
	<polygon class="st9" points="605.2,114.1 603.9,114.4 602.6,114.8 602,113.7 601.2,112.6 602,111.6 602.8,110.5 604,111 
		605.3,111.4 605.2,112.7 	"/>
	<polygon class="st9" points="603.3,143 602,143.3 600.7,143.7 600.1,142.6 599.2,141.5 600.1,140.5 600.9,139.4 602.1,139.9 
		603.4,140.3 603.3,141.6 	"/>
	<polygon class="st9" points="621.1,136.8 619.8,137.1 618.6,137.5 617.9,136.4 617.1,135.3 618,134.3 618.7,133.2 619.9,133.7 
		621.2,134.1 621.1,135.4 	"/>
	<polygon class="st9" points="676.8,145.1 675.5,145.4 674.2,145.9 673.5,144.7 672.7,143.7 673.6,142.7 674.3,141.6 675.6,142.1 
		676.8,142.5 676.7,143.8 	"/>
	<polygon class="st5" points="602.4,230.3 601.3,228.5 600,226.8 601.4,225.1 602.6,223.3 604.6,224.2 606.6,224.8 606.5,226.9 
		606.6,229.1 604.5,229.6 	"/>
	<polygon class="st5" points="534.5,233.4 533.4,231.6 532,229.9 533.4,228.2 534.6,226.4 536.6,227.3 538.7,227.8 538.5,230 
		538.6,232.2 536.5,232.7 	"/>
	<polygon class="st8" points="467.5,80.2 465.4,80.7 463.4,81.4 462.3,79.5 460.9,77.8 462.4,76.2 463.6,74.4 465.6,75.3 
		467.6,75.9 467.4,78 	"/>
</g>
<g>
	<g>
		<path class="st3" d="M106.5,77.5c15.2,5.4,23.7,16.9,23.7,31.9c0,25-19,41.8-47.2,41.8H10.4c-2.3,0-3.5-1.3-3.5-3.5V17.1
			c0-2.3,1.3-3.5,3.5-3.5h67.5c25.8,0,43.4,16.4,43.4,37.6c0,10.9-5.4,19.7-14.6,24.5v1.7H106.5z M35.9,67.2H78
			c8.1,0,14.2-5.4,14.2-13.2c0-8.1-5.4-13.2-14.2-13.2H35.9V67.2z M35.9,123.7h46.5c11.9,0,18.7-5.8,18.7-14.6
			c0-9.8-6.4-14.6-18.7-14.6H35.9V123.7z"/>
		<path class="st3" d="M261.5,13.6c2.3,0,3.5,1.3,3.5,3.5v20.1c0,2.3-1.3,3.5-3.5,3.5H185v25.8h67.2c2.3,0,3.5,1.3,3.5,3.5v20.1
			c0,2.3-1.3,3.5-3.5,3.5H185v29.8h78.5c2.3,0,3.5,1.3,3.5,3.5v20.4c0,2.3-1.3,3.5-3.5,3.5H159.2c-2.3,0-3.5-1.3-3.5-3.5V17.1
			c0-2,1.7-3.5,3.5-3.5H261.5z"/>
		<path class="st3" d="M400.6,13.6c2.3,0,3.5,1.3,3.5,3.5v20.1c0,2.3-1.3,3.5-3.5,3.5h-76.4v25.8h67.2c2.3,0,3.5,1.3,3.5,3.5v20.1
			c0,2.3-1.3,3.5-3.5,3.5h-67.2v29.8h78.5c2.3,0,3.5,1.3,3.5,3.5v20.4c0,2.3-1.3,3.5-3.5,3.5H298.4c-2.3,0-3.5-1.3-3.5-3.5V17.1
			c0-2,1.7-3.5,3.5-3.5H400.6z"/>
		<path class="st3" d="M538,13.6c2.3,0,3.5,1.3,3.5,3.5v20.7c0,2.3-1.3,3.5-3.5,3.5h-74.7v26.2h67.6c2.3,0,3.5,1.3,3.5,3.5v20.7
			c0,2.3-1.3,3.5-3.5,3.5h-67.6v52.3c0,2.3-1.3,3.5-3.5,3.5h-22.2c-2.3,0-3.5-1.3-3.5-3.5V17.1c0-2.3,1.3-3.5,3.5-3.5H538z"/>
	</g>
	<g>
		<path class="st2" d="M670.5,76.8c15.2,5.8,23.7,18,23.7,32c0,23.7-19.4,42.4-45.9,42.4h-73.4c-1.7,0-3.3-1.7-3.3-3.5V17.3
			c0-2.3,1-3.5,3.3-3.5h69.3c25.2,0,40.7,17.4,40.7,37.6c0,9.1-6.4,20-14.3,24v1.3H670.5z M594.3,67.3h51.3
			c8.8,0,16.4-6.8,16.4-15.9S655.4,35,644.5,35h-50.2V67.3z M594.3,129.8h53.3c14.2,0,23.7-8.1,23.7-21c0-13.3-8.8-20.1-23.7-20.1
			h-53.3V129.8z"/>
		<path class="st2" d="M784.2,147.8c0,2.3-1.3,3.5-3.5,3.5h-16.2c-2.3,0-3.3-1.3-3.3-3.5v-31l-57.6-99.9c-0.7-1.3-0.3-3,1.4-3h21
			c1.4,0,2.5,0.7,3.3,2l42.4,77.5h2l41.8-77.5c0.7-1.3,1.7-2,3.5-2h20.4c1.7,0,2.5,1.3,1.7,3L784,116.8v31H784.2z"/>
		<path class="st2" d="M975.8,13.7c2.3,0,3.5,1.3,3.5,3.5v14.3c0,2.3-1.3,3.5-3.5,3.5h-46.6v112.6c0,1.7-1.3,3.5-3.5,3.5h-15.9
			c-2.3,0-3.5-1.3-3.5-3.5V35h-46.8c-2.3,0-3.5-1.3-3.5-3.5V17.2c0-2.3,1.3-3.5,3.5-3.5H975.8z"/>
		<path class="st2" d="M1102.3,13.7c1.7,0,3.5,1.6,3.5,3.5v14.3c0,1.7-1.7,3.3-3.5,3.3h-79.8v34h72.7c2.3,0,3.5,1.3,3.5,3.5v14.3
			c0,2.3-1.3,3.3-3.5,3.3h-72.7v39.7h82.2c2.3,0,3.3,1,3.3,3v14.9c0,2.3-1,3.5-3.3,3.5H1003c-2.3,0-3.3-1.3-3.3-3.5V17.2
			c0-2.3,1-3.5,3.3-3.5H1102.3z"/>
		<path class="st2" d="M1250.1,32.8c1.3,1.3,1.3,2.5,0,3.8l-9.8,12.3c-1.6,1.6-3,1.6-4.5,0.3C1223.6,38.9,1209,33,1190.6,33
			c-21.1,0-32.3,5.8-32.3,16.6c0,10.3,14.9,15.2,36.3,18c35,4.1,60.4,14.3,60.4,43.7c0,27.5-27.5,41.8-61.4,41.8
			c-25.2,0-46.9-6.8-64.1-23c-1.3-1.3-1.3-2.8,0-4.3l9.8-12.3c1.3-1.7,3-2,4.8-0.4c14.2,13.2,30,18.7,49.5,18.7
			c25.2,0,38.7-8.5,38.7-20.4c0-13.3-15.3-18.1-40.7-21.1c-29.1-3.3-56-11.3-56-40.4c0-23,22-38.1,55.6-38.1
			C1212.5,11.7,1234.8,18.8,1250.1,32.8z"/>
	</g>
</g>
</svg>
