<?xml version="1.0" encoding="utf-8"?>
<!-- Generator: Adobe Illustrator 21.0.0, SVG Export Plug-In . SVG Version: 6.00 Build 0)  -->
<svg version="1.1" id="Layer_1" xmlns="http://www.w3.org/2000/svg" xmlns:xlink="http://www.w3.org/1999/xlink" x="0px" y="0px"
	 viewBox="0 0 504 240" style="enable-background:new 0 0 504 240;" xml:space="preserve">
<style type="text/css">
	.st0{display:none;}
	.st1{display:inline;}
	.st2{fill:#EAC1C1;}
	.st3{fill:#DE8989;}
	.st4{fill:#F3DBD8;}
	.st5{display:inline;fill:#EAC1C1;}
	.st6{fill:#CC7272;}
	.st7{fill:#A86060;}
	.st8{display:inline;fill:#DE8989;}
	.st9{display:inline;fill:#CC7272;}
</style>
<g class="st0">
	<g class="st1">
		<g>
			<path class="st2" d="M59.8,0c-9.5,2.5,60.8-4.8,102.6,35c38.3,36.5,71.8,61.3,97.2,72c121.1,50.8,216.2-6.7,179-45.9
				C373.9-7,207-38.6,59.8,0z"/>
		</g>
		<g>
			<path class="st3" d="M327.2,162.6V235h-0.2c-0.9,0-1.8-0.1-2.8-0.2c-1.7-0.1-3.3-0.3-4.9-0.4c-1.6-0.1-3.1-0.3-4.6-0.5
				c-2-0.2-3.9-0.4-5.8-0.7c-0.1,0-0.2,0-0.4,0c-2.5-0.3-4.9-0.6-7.2-1c-2.4-0.4-4.8-0.8-7.2-1.2c-2.3-0.5-4.6-0.9-6.9-1.4
				c-2-0.4-4-0.9-6-1.3c-3.7-0.9-7.3-1.8-10.7-2.8c-2.8-0.8-5.4-1.6-8-2.5c-1.6-0.5-3.2-1.1-4.7-1.6c-2.2-0.8-4.3-1.6-6.4-2.4
				c-0.9-0.3-1.8-0.7-2.8-1.1c-1.4-0.5-2.6-1.1-3.9-1.7c-3.2-1.4-6.3-2.8-9.3-4.3c-2.5-1.2-4.9-2.5-7.2-3.8c-0.1,0-0.2-0.1-0.4-0.2
				c-2.2-1.3-4.4-2.5-6.5-3.8c-2.3-1.4-4.4-2.8-6.6-4.2c-1.6-1-3.1-2.1-4.6-3.1c-0.5-0.4-1.1-0.8-1.7-1.2v0c-3.4-2.4-6.8-4.9-10-7.4
				c-0.2-0.2-0.5-0.4-0.7-0.6h0c-1.8-1.5-3.7-3-5.5-4.5c-2.1-1.7-4.1-3.4-6-5.1c-0.8-0.7-1.6-1.4-2.4-2.1
				c-7.3-6.5-14.2-13.1-21-19.7c-3.3-3.2-6.6-6.4-9.9-9.5c-0.1-0.2-0.3-0.3-0.5-0.5c-0.6-0.5-1.1-1.1-1.7-1.6
				c-1.4-1.4-2.9-2.8-4.4-4.2c-2.3-2.3-4.6-4.5-6.9-6.7c-0.3-0.3-0.6-0.5-0.9-0.8c-1-0.9-1.9-1.9-2.9-2.8c-0.3-0.3-0.6-0.5-0.9-0.8
				c-0.9-0.9-1.9-1.8-2.8-2.7c-7.8-7.1-15.1-13.4-22.2-18.6c0,0-0.1-0.1-0.2-0.1c-1-0.8-2-1.4-3-2.1c-0.2-0.2-0.5-0.3-0.7-0.5
				c-0.9-0.5-1.7-1.1-2.4-1.6c-0.8-0.5-1.6-1-2.4-1.5c-0.5-0.4-1.1-0.7-1.6-1c-0.5-0.3-1-0.5-1.5-0.8c-1-0.6-2-1.1-3-1.6
				c-1-0.5-1.9-1-2.9-1.5c-0.1-0.1-0.3-0.2-0.5-0.2c-0.1,0-0.2-0.1-0.3-0.1c-0.5-0.2-1-0.5-1.5-0.7V47.3c0-0.9,0-1.9,0.1-2.8
				c0-0.8,0.1-1.5,0.3-2.3v-0.1c0.2-1.4,0.4-2.8,0.7-4.1c0.2-0.6,0.3-1.3,0.5-1.9c0.2-0.6,0.4-1.2,0.6-1.8c1.2-3.2,2.8-6.1,4.8-8.6
				c0.3-0.3,0.5-0.7,0.8-0.9c0.2-0.3,0.5-0.5,0.7-0.8c0.1-0.2,0.2-0.3,0.4-0.4c0.2-0.2,0.5-0.5,0.7-0.7c0.2-0.3,0.5-0.5,0.7-0.7
				c1-0.9,2.1-1.7,3.2-2.4c1.3-0.9,2.7-1.5,4.2-2.1h0c1.1-0.5,2.2-0.8,3.3-1c0.7-0.2,1.4-0.3,2-0.4c1.2-0.2,2.4-0.2,3.7-0.1
				c0.3,0,0.6,0,0.9,0c0.5,0,0.9,0,1.4,0.1c0.3,0,0.6,0.1,0.9,0.1c0,0,0.1,0,0.1,0c0.4,0.1,0.7,0.1,1,0.2c0.4,0,0.7,0.1,1,0.3
				c0.7,0.2,1.4,0.4,2,0.7c0.4,0.1,0.8,0.3,1.2,0.5c1,0.5,2.1,1,3.2,1.7c0.5,0.3,0.9,0.6,1.4,0.9c0.1,0,0.2,0.1,0.3,0.2
				c0.7,0.5,1.4,1.1,2.1,1.7c0.7,0.6,1.4,1.3,2.1,2c0.6,0.6,1.2,1.3,1.8,2.1c3.4,4.3,6.4,9.9,8.7,17c0.3,0.9,0.6,1.8,0.8,2.8
				c0.2,0.7,0.4,1.4,0.6,2.2c0.2,0.7,0.4,1.5,0.5,2.3c0.2,0.9,0.4,1.9,0.6,2.9c0.2,1,0.4,1.9,0.5,3c0.2,1.1,0.4,2.3,0.5,3.6
				c0.1,0.7,0.2,1.4,0.3,2.2c0.2,1.9,0.4,3.9,0.5,6c0.1,1.3,0.1,2.5,0.2,3.8c0,0.9,0,1.7,0,2.6c0,0.9,0,1.8,0,2.7v-2.3
				c0-2,0.1-4,0.4-5.9c0.1-0.8,0.3-1.6,0.5-2.4c0.1-0.6,0.3-1.3,0.5-1.9c0.1-0.5,0.3-0.9,0.4-1.4c0.2-0.6,0.4-1.1,0.6-1.7
				c0.9-2.3,2-4.5,3.2-6.5c0.3-0.4,0.5-0.8,0.9-1.2c0-0.1,0.1-0.2,0.1-0.2c0.1-0.1,0.2-0.2,0.2-0.3c0,0,0,0,0,0
				c0.5-0.6,0.9-1.2,1.5-1.7c0.5-0.5,1-1.1,1.5-1.6c0.5-0.5,1.1-1,1.6-1.4c0.3-0.3,0.7-0.5,1-0.8c0,0,0,0,0,0
				c0.8-0.6,1.6-1.1,2.5-1.5c0,0,0,0,0,0c1.2-0.6,2.5-1.2,3.7-1.6c0.6-0.2,1.1-0.4,1.7-0.5c0,0,0,0,0,0c0.6-0.1,1.2-0.3,1.8-0.4
				c0.4-0.1,0.7-0.1,1.1-0.2c0,0,0,0,0,0c0.2,0,0.4,0,0.5,0c1.9-0.2,3.9-0.1,5.9,0.3c0.6,0.1,1.3,0.3,1.9,0.5
				c0.5,0.1,0.9,0.3,1.4,0.5c0.8,0.3,1.6,0.6,2.4,1c0.6,0.3,1.3,0.6,1.9,1c0.6,0.3,1.2,0.7,1.7,1c0.7,0.5,1.4,1,2,1.5l0,0
				c0.6,0.5,1.2,1,1.8,1.6c0.5,0.5,1,1,1.5,1.5c0.2,0.2,0.4,0.4,0.5,0.6c0.5,0.6,1,1.2,1.5,1.9c0.5,0.6,1,1.3,1.4,2
				c1.2,1.8,2.3,3.7,3.4,5.9c0.1,0.3,0.3,0.6,0.5,0.9c0.1,0.1,0.1,0.2,0.1,0.3c0,0.1,0.1,0.2,0.1,0.3c0.2,0.3,0.3,0.6,0.4,0.9
				c0.2,0.3,0.3,0.6,0.5,0.9c0.3,0.8,0.6,1.5,0.9,2.3c0.3,0.6,0.5,1.3,0.7,1.9v0h0c0,0.2,0.1,0.4,0.1,0.5c0,0.1,0.1,0.2,0.1,0.3
				c0.1,0.3,0.2,0.5,0.2,0.8c0.2,0.6,0.4,1.3,0.6,1.9c0.2,0.7,0.4,1.4,0.5,2.1c0.2,0.9,0.5,1.8,0.6,2.7c0.2,1,0.5,2,0.6,3.1
				c0.2,1.3,0.5,2.6,0.6,3.9c0.2,1.1,0.3,2.3,0.5,3.4c0.5,4.9,0.9,10.2,0.9,16v-2.3c0-1.2,0-2.3,0.1-3.5c0.1-0.8,0.2-1.5,0.3-2.3
				c0-0.4,0.1-0.7,0.2-1c0.7-4.3,2.2-8.2,4.1-11.5c0.9-1.7,2-3.2,3.2-4.5v0c0.6-0.7,1.2-1.3,1.8-1.8c0.6-0.6,1.3-1.2,2-1.7
				c0.5-0.3,0.9-0.7,1.4-0.9c0,0,0,0,0.1,0c0.5-0.3,0.9-0.6,1.4-0.9c0.6-0.4,1.3-0.7,2-1c0.5-0.2,1.1-0.5,1.7-0.7
				c0.1,0,0.2-0.1,0.3-0.1c1.3-0.5,2.6-0.8,4-0.9c0,0,0.1,0,0.1,0c0.4-0.1,0.7-0.1,1.1-0.1c0.7-0.1,1.4-0.1,2.1-0.1
				c1.4,0,2.7,0.1,4.1,0.4c0.6,0.1,1.3,0.2,1.9,0.4c1,0.3,2.1,0.6,3.1,1.1c0.5,0.2,0.9,0.5,1.4,0.7c2,1,4.1,2.4,6,4.2
				c0.4,0.3,0.7,0.7,1.1,1c1.4,1.4,2.8,3,4,4.8c0.4,0.5,0.8,1,1.1,1.6c0.4,0.6,0.8,1.3,1.2,1.9c1.5,2.6,2.9,5.6,4.1,8.9
				c0.3,0.9,0.6,1.8,0.9,2.7c0.9,2.8,1.7,5.7,2.3,9v0c0,0,0,0,0,0c0.1,0.7,0.3,1.4,0.4,2.1c0,0.2,0,0.4,0.1,0.5
				c0.2,1.2,0.4,2.5,0.6,3.8c0.2,1.6,0.4,3.2,0.5,4.9c0,0.5,0.1,1.1,0.1,1.7c0.1,1.1,0.2,2.3,0.3,3.5c0,0.8,0,1.5,0.1,2.3
				c0.1,2,0.1,4.1,0.1,6.2V132c0-1,0-2.1,0.1-3.1c0.1-0.9,0.2-1.8,0.3-2.6c0.3-2,0.7-4,1.4-5.8c0.1-0.6,0.4-1.2,0.6-1.8
				c0.2-0.5,0.4-1.1,0.6-1.6c0.2-0.5,0.5-1,0.8-1.5c0,0,0-0.1,0-0.1c0-0.1,0.1-0.3,0.2-0.4c0.1-0.3,0.3-0.5,0.5-0.8
				c0-0.2,0.1-0.3,0.2-0.5c0-0.1,0.1-0.2,0.2-0.3c0,0,0-0.1,0-0.1c0.2-0.4,0.5-0.8,0.7-1.1c0.3-0.5,0.7-1,1-1.4
				c0.5-0.6,0.9-1.2,1.4-1.8c0.5-0.6,1.1-1.2,1.7-1.7c0.6-0.6,1.3-1.2,2-1.7c0.7-0.5,1.4-1,2.1-1.5c0.9-0.5,1.8-1,2.7-1.4
				c0.2-0.1,0.4-0.2,0.6-0.3c0,0,0,0,0.1,0c0.2-0.1,0.5-0.2,0.7-0.3c1.8-0.7,3.6-1.1,5.4-1.3c0.8-0.1,1.7-0.1,2.5-0.1
				c0.6,0,1.2,0,1.8,0.1c0.4,0,0.8,0,1.2,0.1c0.4,0,0.8,0.1,1.2,0.2c0.5,0.1,1,0.2,1.5,0.4c0.6,0.1,1.2,0.3,1.8,0.5
				c0.5,0.2,1,0.4,1.5,0.6c0.5,0.2,1,0.5,1.5,0.7c2,1,3.9,2.3,5.7,3.9c0.4,0.4,0.8,0.7,1.2,1.1c3.4,3.3,6.5,7.8,9.1,13.6
				c0.4,0.8,0.7,1.6,1,2.4c0,0,0,0,0,0h0c0,0,0,0,0,0c0,0,0,0,0,0.1c0.4,0.9,0.7,1.9,1,3c0.2,0.5,0.4,1,0.5,1.5
				c0.2,0.7,0.5,1.4,0.6,2.2c0.4,1.3,0.7,2.6,1,3.9c0.2,0.9,0.4,1.8,0.6,2.8c0.3,1.3,0.5,2.5,0.7,3.9c0.2,1.4,0.5,3,0.6,4.6
				c0.1,1.3,0.3,2.6,0.4,3.9c0.1,1.4,0.2,2.8,0.3,4.2v0.3c0,1.3,0.1,2.5,0.1,3.8C327.2,160,327.2,161.3,327.2,162.6z"/>
		</g>
		<g>
			<g>
				<path class="st4" d="M203.6,71.2c3,9,4.8,20.5,4.8,34.9v-2.3c0-9.5,3.1-17.3,8-22.8C212.3,77.9,208,74.7,203.6,71.2z"/>
			</g>
			<g>
				<path class="st4" d="M267.8,134.3V132c0-7.9,2.2-14.6,5.6-19.8c-2.6-0.9-5.3-2-7.9-3C267,116.5,267.8,124.7,267.8,134.3z"/>
			</g>
			<g>
				<path class="st4" d="M473.1,84.2c0-1.4,0-2.8-0.2-4.2c0-0.9-0.1-1.8-0.2-2.7c0-0.5-0.1-1.1-0.2-1.7c-0.3-2.2-0.7-4.4-1.3-6.5
					c-0.3-1.1-0.6-2.2-0.9-3.3c-0.2-0.8-0.5-1.5-0.8-2.3c-0.2-0.7-0.5-1.5-0.8-2.2c-0.4-0.9-0.7-1.8-1.1-2.7c-0.2-0.5-0.4-1-0.7-1.4
					c-0.3-0.7-0.6-1.4-1-2.2c-0.5-0.9-1-1.9-1.5-2.8c-0.3-0.5-0.5-0.9-0.8-1.4c-1.2-1.9-2.4-3.8-3.7-5.6c-0.8-1.1-1.6-2.2-2.5-3.2
					c-4.8-6-10.6-11.7-17.3-17c-1-0.8-2.1-1.7-3.2-2.5c-8.9-6.7-19.2-12.8-30.6-18.4c-20.9-10.3-45.7-18.7-72.4-25.3
					c-7-1.8-14.2-3.3-21.4-4.8c-0.4,0-0.7-0.1-1-0.2c-2.4-0.5-4.8-0.9-7.2-1.4c-2.5-0.5-5.1-0.9-7.6-1.4c-2.6-0.5-5.1-0.9-7.7-1.3
					c-2.6-0.4-5.1-0.8-7.7-1.2c-2.8-0.4-5.5-0.8-8.3-1.2c-5-0.7-10-1.4-15.1-1.9c-10.2-1.2-20.3-2.1-30.5-2.8
					c-0.7,0-1.3-0.1-1.9-0.1c-3-0.2-5.9-0.4-8.8-0.5c-1.9-0.1-3.9-0.2-5.8-0.3c-17.6-0.8-35.1-1-51.9-0.5
					c-5.8,0.2-11.5,0.4-17.1,0.8c-7.5,0.5-14.9,1-22.1,1.8c-0.1,0-0.3,0-0.5,0c-2.6,0.2-5.1,0.5-7.6,0.8c-6,0.7-11.8,1.5-17.5,2.4
					c-1.8,0.3-3.4,0.5-5.1,0.9c-9.7,1.7-18.8,3.6-27.3,5.9c-2.1,0.6-4.2,1.2-6.2,1.8c-17.2,5.1-24.6,13-24.6,21.5v58.7
					c0,4.6-0.3,9.1,0.1,13.3c0,0.5,0.1,1.1,0.2,1.6c0.4,2.2,0.9,4.2,2,6.1c0.2,0.5,0.5,0.9,0.7,1.3c0.9,1.3,2.1,2.6,3.5,3.7
					c0.6,0.5,1.2,0.9,1.9,1.3c0.7,0.5,1.4,0.8,2.3,1.2c3.2,1.6,7.4,2.8,12.7,3.7c7.7,1.2,15.3,2.7,22.8,4.4c4.6,1,9.5,3.1,14.6,6
					c1,0.6,2.1,1.2,3.1,1.8c0-0.4,0-0.7,0-1c-1-0.5-1.9-1-2.9-1.5c-0.1-0.1-0.3-0.2-0.5-0.2c-0.1,0-0.2-0.1-0.3-0.1
					c-0.5-0.2-1-0.5-1.5-0.7V47.3c0-0.9,0-1.9,0.1-2.8c0-0.8,0.1-1.5,0.3-2.3c0,0,0,0,0,0v0c0.2-1.4,0.4-2.8,0.7-4.1
					c0.2-0.6,0.3-1.3,0.5-1.9c0.2-0.6,0.4-1.2,0.6-1.8c1.2-3.2,2.8-6.1,4.8-8.6c0.3-0.3,0.5-0.7,0.8-0.9c0.1-0.1,0.2-0.3,0.3-0.4
					c0.1-0.1,0.3-0.3,0.4-0.4c0.1-0.2,0.2-0.3,0.4-0.4c0.2-0.2,0.5-0.5,0.7-0.7c0.2-0.3,0.5-0.5,0.7-0.7c1-0.9,2.1-1.7,3.2-2.4
					c1.3-0.9,2.7-1.5,4.2-2.1h0c1.1-0.5,2.2-0.8,3.3-1c0.7-0.2,1.4-0.3,2-0.4c1.2-0.2,2.4-0.2,3.7-0.1c0.3,0,0.6,0,0.9,0
					c0.5,0,0.9,0,1.4,0.1c0.3,0,0.6,0.1,0.9,0.1c0,0,0.1,0,0.1,0c0.4,0.1,0.7,0.1,1,0.2c0.4,0,0.7,0.1,1,0.3c0.7,0.2,1.4,0.4,2,0.7
					c0.4,0.1,0.8,0.3,1.2,0.5c1,0.5,2.1,1,3.2,1.7c0.5,0.3,0.9,0.6,1.4,0.9c0.1,0,0.2,0.1,0.3,0.2c0.7,0.5,1.4,1.1,2.1,1.7
					c0.7,0.6,1.4,1.3,2.1,2c0.6,0.6,1.2,1.3,1.8,2.1c3.4,4.3,6.4,9.9,8.7,17c0.5,1.6,1,3.2,1.4,5c0.2,0.7,0.4,1.5,0.5,2.3
					c0.2,0.9,0.4,1.9,0.6,2.9c0.2,1,0.4,1.9,0.5,3c0.2,1.1,0.4,2.3,0.5,3.6c0.1,0.7,0.2,1.4,0.3,2.2c0.2,1.9,0.4,3.9,0.5,6
					c0.1,1.3,0.1,2.5,0.2,3.8c0,0.9,0,1.7,0,2.6c0,0.9,0,1.8,0,2.7v-2.3c0-2,0.1-4,0.4-5.9c0.1-0.8,0.3-1.6,0.5-2.4
					c0.1-0.6,0.3-1.3,0.5-1.9c0.1-0.5,0.3-0.9,0.4-1.4c0.2-0.6,0.4-1.1,0.6-1.7c0.9-2.3,2-4.5,3.2-6.5c0.3-0.4,0.5-0.8,0.9-1.2
					c0-0.1,0.1-0.2,0.1-0.2c0.1-0.1,0.2-0.2,0.2-0.3c0,0,0,0,0,0c0.5-0.6,0.9-1.2,1.5-1.7c0.5-0.5,1-1.1,1.5-1.6
					c0.5-0.5,1.1-1,1.6-1.4c0.3-0.3,0.7-0.5,1-0.8c0,0,0,0,0,0c0.8-0.6,1.6-1.1,2.5-1.5c0,0,0,0,0,0c1.2-0.7,2.4-1.2,3.7-1.6
					c0.6-0.2,1.1-0.4,1.7-0.5c0,0,0,0,0,0c0.6-0.2,1.2-0.3,1.8-0.4c0.4-0.1,0.7-0.1,1.1-0.2c-0.3-0.2-0.5-0.5-0.8-0.7h0
					c-3.1-2.8-6.1-5.7-9.2-8.7c-1.1-1.1-2.3-2.2-3.5-3.2c-1.1-0.9-2.2-1.8-3.2-2.7c-0.9-0.7-1.9-1.4-2.8-2.2
					c-0.1-0.1-0.2-0.2-0.4-0.3c-0.5-0.4-1.1-0.8-1.6-1.1c-0.5-0.3-1-0.7-1.5-1c-0.5-0.4-1-0.7-1.5-1c-1-0.7-2.1-1.4-3.1-1.9
					c-0.7-0.5-1.4-0.9-2.1-1.2c-3.5-2-7.1-3.8-10.7-5.4h0c0,0,0,0-0.1,0c-1.6-0.7-3.2-1.4-4.9-2c-1.2-0.5-2.4-0.9-3.6-1.4
					c-0.4-0.1-0.8-0.3-1.2-0.5h0c-0.3-0.1-0.6-0.2-0.9-0.3c-0.7-0.3-1.4-0.5-2.2-0.7c-1-0.3-1.9-0.6-2.9-0.9c-1.2-0.4-2.4-0.7-3.6-1
					c-0.7-0.2-1.4-0.4-2.1-0.6c-0.7-0.2-1.4-0.4-2.1-0.5c-0.8-0.2-1.6-0.4-2.4-0.6c-1.3-0.3-2.5-0.6-3.8-0.9c-0.7-0.1-1.4-0.3-2-0.4
					c-0.7-0.1-1.4-0.3-2.1-0.5c-1.1-0.2-2.3-0.4-3.4-0.6c-0.8-0.1-1.6-0.3-2.3-0.4c-1.8-0.3-3.7-0.5-5.5-0.8
					c-2.4-0.3-4.7-0.6-6.9-0.8c-1.6-0.1-3.2-0.3-4.6-0.4c-0.6,0-1.2-0.1-1.8-0.1c-1.2-0.1-2.3-0.2-3.3-0.2c-0.5,0-1-0.1-1.5-0.1
					c-0.8,0-1.5-0.1-2.2-0.1c-0.4,0-0.7,0-1,0c-1.4-0.1-2.7-0.1-3.7-0.2c-0.3,0-0.5,0-0.7,0c-0.7,0-1.1-0.1-1.4-0.1
					c-0.1,0-0.2-0.1-0.3-0.1c0,0-0.1,0-0.1,0s0-0.1,0-0.1c0.1,0,0.4-0.1,0.8-0.3c3.1-0.8,6.2-1.6,9.4-2.3c2.3-0.6,4.7-1.1,7-1.6
					c2.7-0.6,5.4-1.2,8-1.8c2.8-0.6,5.6-1.2,8.5-1.7c1.7-0.4,3.5-0.7,5.2-0.9c1.9-0.4,3.9-0.7,5.9-1c0.8-0.1,1.5-0.3,2.3-0.4
					c1.5-0.2,3-0.5,4.6-0.7c5.1-0.8,10.2-1.5,15.3-2.1c0.7-0.1,1.4-0.2,2.1-0.3c5.4-0.6,10.8-1.2,16.2-1.7c4.4-0.4,8.8-0.7,13.2-1
					c1-0.1,1.9-0.1,2.9-0.2c2.6-0.2,5.2-0.3,7.8-0.4c2.6-0.1,5.2-0.2,7.8-0.3c5.5-0.2,11-0.2,16.5-0.2c3.6,0,7.1,0,10.6,0.1h1.2
					c2.1,0,4.1,0.1,6.1,0.2c0.3,0,0.6,0,0.9,0c0.3,0,0.5,0,0.8,0c2.7,0.1,5.3,0.2,7.9,0.4c3.2,0.1,6.3,0.3,9.5,0.5
					c3.7,0.3,7.4,0.5,11,0.9c3.2,0.3,6.3,0.6,9.4,0.9c2.1,0.2,4.2,0.5,6.4,0.7c0.4,0,0.8,0.1,1.1,0.1c1.4,0.2,2.9,0.4,4.3,0.6
					c2.3,0.3,4.5,0.6,6.7,0.9c3.1,0.5,6.1,0.9,9.1,1.4c3,0.5,6,1,9,1.6c3.3,0.6,6.7,1.3,10,1.9c2,0.4,4.1,0.9,6.1,1.3
					c0.7,0.1,1.4,0.3,2.2,0.5c2.1,0.5,4.3,1,6.4,1.5c0.5,0.1,1.1,0.3,1.7,0.4c2.8,0.7,5.5,1.4,8.3,2.1c2,0.5,4.1,1.1,6.1,1.7
					c1.2,0.4,2.4,0.7,3.7,1.1c2,0.6,4,1.2,6,1.8c4.6,1.4,9.2,3,13.6,4.6c0,0,0.1,0,0.2,0.1c1.6,0.5,3.1,1.1,4.6,1.7
					c8.1,3,15.8,6.2,23.2,9.7c1.8,0.8,3.7,1.7,5.5,2.6c3.1,1.5,6.1,3.1,9.1,4.7c3,1.6,5.9,3.2,8.7,5h0c1.8,1.1,3.6,2.2,5.3,3.3
					c0.5,0.3,1.1,0.7,1.6,1c1.2,0.8,2.4,1.6,3.6,2.4c0.5,0.3,0.9,0.6,1.4,0.9c0.9,0.6,1.9,1.3,2.8,2l0.1,0.1
					c1.3,0.9,2.5,1.8,3.8,2.8c2,1.5,3.9,3,5.8,4.6c0.7,0.5,1.4,1.1,2,1.7c0.6,0.5,1.3,1.1,1.9,1.7c1.3,1.2,2.6,2.4,3.9,3.6
					c1.5,1.4,3,2.9,4.4,4.4c0.7,0.7,1.4,1.5,1.9,2.2c0.6,0.8,1.2,1.5,1.7,2.3c1.1,1.5,1.9,3,2.6,4.6c0.3,0.8,0.6,1.5,0.9,2.3
					c0.2,0.6,0.4,1.2,0.5,1.8c0.1,0.4,0.2,0.8,0.2,1.1c0,0,0,0.1,0,0.2c0.1,0.5,0.2,1,0.2,1.5c0.1,0.8,0.1,1.6,0.1,2.3
					c0,0.5,0,1,0,1.6c0,0,0,0.1,0,0.1c0,0.1,0,0.1,0,0.2c0,0.3,0,0.6-0.1,0.9c0,0.1,0,0.2,0,0.3v0c0,0.4-0.1,0.6-0.2,0.9
					c0,0.3-0.1,0.6-0.2,0.9c0,0.4-0.1,0.7-0.2,1c-0.2,0.8-0.4,1.6-0.7,2.3c-0.1,0.4-0.3,0.7-0.4,1c0,0.1,0,0.1-0.1,0.2
					c-0.1,0.3-0.2,0.6-0.4,0.9c0,0.1,0,0.2-0.1,0.3c-0.1,0.3-0.2,0.5-0.3,0.7c0,0.1-0.1,0.2-0.2,0.3c-0.3,0.5-0.5,1.1-0.9,1.6
					c-0.4,0.6-0.8,1.2-1.2,1.8c0,0,0,0.1-0.1,0.2c-0.4,0.6-0.8,1.1-1.2,1.7c-0.2,0.2-0.4,0.5-0.5,0.7c-0.2,0.2-0.3,0.4-0.5,0.5
					c-0.9,1.1-1.9,2.2-3,3.2c-0.2,0.2-0.4,0.5-0.6,0.6c-0.1,0.1-0.3,0.3-0.4,0.4c-0.5,0.5-1.1,1-1.6,1.5c0,0-0.1,0.1-0.1,0.1
					c-0.1,0.1-0.3,0.2-0.5,0.4c-0.6,0.5-1.2,1-1.8,1.5l0,0c-0.2,0.1-0.3,0.3-0.5,0.4c-1,0.8-2.1,1.6-3.2,2.3
					c-0.5,0.3-0.9,0.6-1.4,0.9c-0.7,0.5-1.4,0.9-2.1,1.3c-1,0.6-2,1.1-3,1.7c-2,1.1-4.2,2.2-6.5,3.2c0,0,0,0,0,0
					c-2,0.9-4.2,1.8-6.4,2.6c-1.4,0.5-2.9,1.1-4.4,1.6c-1.5,0.5-3.1,1-4.6,1.4c-0.2,0-0.4,0.1-0.6,0.1c-0.2,0-0.4,0.1-0.6,0.2
					c-0.7,0.2-1.5,0.5-2.2,0.6c-2.1,0.5-4.2,1-6.4,1.5c-2.2,0.5-4.4,0.9-6.6,1.3c0,0,0,0,0,0c-0.2,0-0.4,0.1-0.6,0.1
					c-1,0.2-2.1,0.4-3.2,0.5c-0.7,0.1-1.4,0.2-2.2,0.3c-0.3,0.1-0.7,0.1-1,0.1c-2,0.2-4,0.5-6.1,0.6c-0.8,0.1-1.7,0.1-2.5,0.2
					c-0.1,0-0.3,0-0.5,0c-0.8,0-1.6,0.1-2.4,0.1c-1,0-2.1,0.1-3.2,0.1c-1.1,0-2.3,0.1-3.4,0.1c-1.9,0.1-3.9,0.1-5.9,0
					c-2,0-4,0-6-0.1c-1.2,0-2.3,0-3.5-0.1c-0.2,0-0.4,0-0.6,0c-0.2,0-0.4,0-0.5,0h-0.2c-0.1,0-0.2,0-0.4,0c-0.3,0-0.5,0-0.8,0
					c-0.6,0-1.3,0-1.9-0.1c-0.1,0-0.3,0-0.4,0c-3.1-0.3-6.2-0.6-9.4-0.9c-0.7-0.1-1.4-0.2-2-0.3c-1.5-0.2-3-0.4-4.5-0.6c0,0,0,0,0,0
					h0c0,0,0,0,0,0c0,0,0,0,0,0.1c0.4,0.9,0.7,1.9,1,3c0.2,0.5,0.4,1,0.5,1.5c0.2,0.7,0.5,1.4,0.6,2.2c0.4,1.3,0.7,2.6,1,3.9
					c0.2,0.9,0.4,1.8,0.6,2.8c0.3,1.3,0.5,2.5,0.7,3.9c0.2,1.4,0.5,3,0.6,4.6c0.1,1.3,0.3,2.6,0.4,3.9c0.1,1.4,0.2,2.8,0.3,4.2v0.3
					c0,1.3,0.1,2.5,0.1,3.8c0,1.3,0,2.6,0,3.9V235h-0.2v4.6c1.8,0,3.7,0,5.7,0c4.4-0.1,8.8-0.3,13.3-0.5c1.4,0,2.7-0.1,4.1-0.3
					c7.8-0.5,15.6-1.4,23.1-2.6c1.2-0.2,2.4-0.4,3.6-0.6c10.4-1.7,20.5-4,30-6.9c0.8-0.2,1.6-0.5,2.4-0.7c1.7-0.5,3.4-1.1,5.1-1.7
					s3.3-1.2,5-1.8c1.7-0.6,3.3-1.3,4.9-2c0,0,0.1,0,0.1,0c1.1-0.4,2.1-0.9,3.2-1.4c9.4-4.3,17.8-9.3,24.8-15.1
					c1.1-0.9,2.2-1.9,3.2-2.8c2.2-2,4.2-4.1,6-6.3c0.9-1,1.7-2.1,2.5-3.2c0.7-0.9,1.3-1.8,1.8-2.8c1-1.5,1.8-3.1,2.6-4.7
					c0.4-0.7,0.7-1.4,1-2.2c0.2-0.5,0.5-1,0.6-1.6c0.4-1,0.8-2.1,1.1-3.2c0.4-1.3,0.8-2.6,1-3.9c0-0.1,0-0.3,0.1-0.6v-0.1
					c0.1-0.4,0.2-0.6,0.2-0.9c0.4-2.2,0.6-4.5,0.6-6.7c0-0.9,0.1-1.8,0.1-2.8V92.5C473.4,89.8,473.1,87.1,473.1,84.2z"/>
			</g>
		</g>
	</g>
	<g class="st1">
		<path class="st2" d="M473.1,164.2c-0.1,0.5-0.7,8.2-0.9,10.5c0,0.4-0.1,0.5-0.1,0.6c-9.3,42.2-75.1,63.2-139.4,64.3
			c-1.9,0-3.8,0-5.7,0v-81l0.1,0l6.6,2.6C333.8,161.3,400.5,256.7,473.1,164.2z"/>
	</g>
	<g class="st1">
		<path class="st2" d="M94.8,100c-1-0.6-2.1-1.2-3.1-1.8c-5.1-2.8-10-4.9-14.6-6C69.6,90.4,62,89,54.3,87.8
			c-26.7-4.4-23.4-18-23.4-32.3V18l4.1-0.8c1.8,2,50.1,7.7,55,24.9v0c0.5,2,1.2,36.6,1.8,38.6c1.8,5.7,2.9,11.8,2.9,18.1
			C94.8,99.2,94.8,99.6,94.8,100z"/>
	</g>
	<path class="st5" d="M71.3-20.7c-4.2,2-8.5,3.7-12.8,5.6c-5.9,2.5-8.1,5.6-7.9,11.3c0.2,5.3,8.1,7.1,12.3,8.9
		c10,4.2,20.3,2.8,30.9,3c6.8,0.2,12,2.5,18.3,4.6c14.5,4.8,29,6.9,42.6,14c6,3.2,12.9,6.6,12.8,14.4c-0.1,8.2-9.7,8-13.9,13.1
		c-7.2-2.1-7.7-11.8-10.7-17.5c-2.6-4.9-5-10.9-10.4-12.5c-7-2-15.3-3.4-22.6-3.8c-3.4-0.2-7.1,0-10.2,1.1c-3.2,1.2-3.6,2.9-6.2,4.9
		C90.4,29,84.3,28,79.8,28c-10.8,0-20.7-1.6-31.2-4.2c-7.9-1.9-16.3-7.3-18.7-15.8C26.9-3.2,31.9-8.9,40.3-14.9
		c9.8-7.1,24.2-8.4,35.5-11.6c5.6-1.6,11.4-2.4,17.2-3c4.1-0.4,10.6-2.4,15.6-1.9c-8.6-0.5-19.6,3-27.5,6.4
		C78.1-23.7,74.6-22.3,71.3-20.7z"/>
	<g class="st1">
		<g>
			<path class="st6" d="M272.7,196.3c0,9.2,5.1,28.7-4.1,28.7c-1.6,0-12.1-3.9-17.2-6c-0.9-0.3-1.8-0.7-2.8-1.1
				c-1.4-0.5-2.6-1.1-3.9-1.7c-3.2-1.4-6.3-2.8-9.3-4.3c-2.5-1.2-4.9-2.5-7.2-3.8c-0.1,0-0.2-0.1-0.4-0.2c-2.2-1.3-4.4-2.5-6.5-3.8
				c-2.3-1.4-4.4-2.8-6.6-4.2c-1.6-1-3.1-2.1-4.6-3.1c2.9-5.8,3.1-11.7,3.8-11.7c0.5,0,19.6,14,28.4,14c12.6,0,11.8-18.2,12-27.5
				c0.4-18.9,1.5-36.1-0.5-54.8c-0.5-5.1-1.7-10.1-3.8-14.5c-3-6.2-7.8-11.3-15.2-13.8c-2.8-0.9-5.4-0.9-7.7,0
				c-7.4,2.7-11.8,13.4-12.8,23.1c-0.3-3.7-0.5-7.4-0.5-11c0-7.5,1.7-13.7,4.2-18.6c1.1-2.2,2.3-4,3.7-5.6c0,0,0,0,0.1,0
				c3.7-4.5,8.2-6.8,11.7-6.8c4.3,0,26.9,3.7,28.9,27.9c0.1,1.2,0.2,2.4,0.2,3.7c0,2.1,0,4.2,0,6.3v0.5
				C262.7,125.6,272.7,152.2,272.7,196.3z"/>
		</g>
		<g>
			<path class="st6" d="M154.9,107.6c0,19.5,3.1,36-4.9,36.4c-0.3-0.3-11.1-10.7-11.4-10.9c-1-0.9-1.9-1.9-2.9-2.8
				c-0.3-0.3-0.6-0.5-0.9-0.8c-0.9-0.9-1.9-1.8-2.8-2.7c-7.8-7.1-15.1-13.4-22.2-18.6c-0.5-0.7-0.9-1.3-1.2-1.7
				c-5.2-6.1-14.8-5.2-14.8-12.7c0-18.9,15.9,6.1,30.5,6.1c9.9,0,11.2-21.2,11.2-31.3c0-22.2-14-37.8-24.2-37.8
				c-10.3,0-16.1,10-16.1,19.2c0,1.1,0.1,2.2,0.2,3.2c-0.1-0.1-0.3-0.1-0.5-0.1c-1.1,0-1.2-6.5-1.2-7.5c0-12.5,6.6-22.2,13.9-28.1
				c5.2-4.2,10.6-6.5,14.2-6.5h0.4c3.7,0.1,6.9,1.5,9.8,3.9h0c10.6,8.8,16.5,30.4,19.5,47.4c0.4,2,0.7,3.9,0.9,5.7
				c0.6,3.8,1,7.3,1.3,10c0.3,3,0.4,5.2,0.4,6.4C153.9,91.3,154.9,99.6,154.9,107.6z"/>
		</g>
		<g>
			<path class="st6" d="M329.4,213.2c0,2.2-0.8,5.1-2.2,8.3c0,0.1-0.1,0.3-0.2,0.4c-1.8,3.9-4.5,8.3-7.7,12.6
				c-1.6-0.1-3.1-0.3-4.6-0.5c-2-0.2-3.9-0.4-5.8-0.7c-0.1,0-0.2,0-0.4,0c-2.5-0.3-4.9-0.6-7.2-1c-2.4-0.4-4.8-0.8-7.2-1.2
				c-2.3-0.5-4.6-0.9-6.9-1.4c-2-0.4-4-0.9-6-1.3c-3.7-0.9-7.3-1.8-10.7-2.8c0.1-5.1,2.6-8.8,8.9-8.8c35.4,0,35.3-12.7,35.3-48.2
				c0-14.6,0.5-34.4-5.7-46.3c-3.3-6.3-8.4-10.5-16.5-10.5c-4.6,0-7.8,1.2-10.3,3.4c-3.3,2.8-5.4,7.3-8.1,12.7
				c-0.1,0.2-0.1,0.4-0.1,0.5c0,0.4,0.1,0.8,0.1,1.2c-0.6,2.5-1.7,4.5-3.4,6.5c-0.1-2.4-0.3-5.1-0.3-7.7c0-5.7,0.7-10.6,2.2-14.7
				c0-0.1,0-0.1,0.1-0.2c0,0,0-0.1,0-0.1c0.1-0.4,0.3-0.8,0.5-1.2h0c3.4-7.7,10.3-12,21.9-12c14.7,0,28.3,9.5,30.5,24.8v0
				c0.1,0.9,0.2,1.7,0.3,2.6l1.1,26.8v0.3l0.2,3.8L329.4,213.2z"/>
		</g>
		<g>
			<path class="st6" d="M212.5,164.8c0,8.1-1.7,13.7-4,17.3c-2.6,4.1-0.9,11.4-3.5,11.4l-7.2-5.7c-1.8-1.5-3.7-3-5.5-4.5
				c-2.1-1.7-4.1-3.4-6-5.1c-0.8-0.7-1.6-1.4-2.4-2.1c-7.3-6.5-14.2-13.1-21-19.7c-3.3-3.2-8.4-8.1-11.7-11.2c0,0,0,0,0,0
				c0-3-0.4-8-0.4-10.4c0-14.4,14.9,21.6,30.6,21.6c7.4,0,14.5-3.1,14.5-43.8c0-22.7-2.4-51-24.5-51c-11.6,0-15.7,7.4-17.6,16.4v0
				c-1.2,5.7-1.5,12-2.2,17.2c-0.8-5.2-1.4-11-1.4-16.8c0-5.5,0.6-10.4,1.7-14.5c0.9-3.6,2.2-6.7,3.8-9.3c0-0.1,0.1-0.2,0.1-0.2
				c0.1-0.1,0.2-0.2,0.2-0.3c0,0,0,0,0,0c4.1-6.3,9.8-9.6,15.8-10.5h0c1.2-0.2,2.5-0.3,3.7-0.3c10.4,0,21.2,7.9,25.7,21.2
				c0.1,0.1,0.1,0.2,0.1,0.3c0,0.1,0.1,0.2,0.1,0.3c0.6,1.7,1.1,3.5,1.4,5.3c0.5,2.6,0.7,5.3,0.7,8.2c0,9.7,5.1,20.1,5.1,29.9
				C208.4,128.3,212.5,131,212.5,164.8z"/>
		</g>
	</g>
	<g class="st1">
		<g>
			<g>
				<path class="st7" d="M91.9,41c-0.6,0-1.2-0.1-1.8-0.2c-3.1-0.8-6-1.6-8.9-2.3L75.4,37c-7.5-2-15-3.7-22.4-5.1
					C36.3,28.8,24.1,14,24.1-3.2c0-3.7,3-6.8,6.8-6.8s6.8,3,6.8,6.8c0,10.9,7.4,19.8,17.9,21.8c7.7,1.4,15.5,3.2,23.3,5.3l5.7,1.4
					c2.9,0.7,6,1.5,9.1,2.3c3.6,1,5.8,4.7,4.8,8.3C97.6,39,94.9,41,91.9,41z"/>
			</g>
			<g>
				<path class="st7" d="M353.2,132.6c-10.6,0-21.6-0.8-32.7-2.5c-3.1-0.5-5.2-3.3-4.7-6.4c0.5-3.1,3.3-5.2,6.4-4.7
					c34,5.1,66,1.9,90.1-8.8c2.8-1.3,6.2,0,7.5,2.8c1.3,2.8,0,6.2-2.8,7.5C398.8,128.4,376.9,132.6,353.2,132.6z"/>
			</g>
			<g>
				<path class="st7" d="M427,114.1c-1.8,0-3.6-0.9-4.7-2.5c-1.7-2.6-1-6.1,1.6-7.8C434,97,440.1,89.1,441,81.4
					c0.6-5.7-1.6-11.2-6.5-16.4C424.6,54.6,412,44.8,397,36c-2.7-1.6-3.6-5-2-7.7c1.6-2.7,5-3.6,7.7-2c15.9,9.3,29.3,19.7,39.9,30.9
					c7.3,7.6,10.6,16.5,9.6,25.5c-1.3,11.1-9.1,21.9-22,30.5C429.2,113.8,428.1,114.1,427,114.1z"/>
			</g>
			<g>
				<path class="st7" d="M384,28.3c-0.8,0-1.7-0.2-2.5-0.6c-14-6.9-29.6-13.1-46.3-18.3c-3-0.9-4.6-4.1-3.7-7.1
					c0.9-3,4.1-4.6,7.1-3.7C355.9,4,372,10.4,386.5,17.6c2.8,1.4,3.9,4.8,2.6,7.6C388.1,27.1,386.1,28.3,384,28.3z"/>
			</g>
			<g>
				<path class="st7" d="M288.7-2.3c-0.3,0-0.7,0-1-0.1C236.9-12,182-13.7,128.8-7.3c-3.1,0.4-5.9-1.8-6.3-4.9s1.8-5.9,4.9-6.3
					c54.4-6.5,110.5-4.7,162.3,5c3.1,0.6,5.1,3.5,4.5,6.6C293.7-4.2,291.3-2.3,288.7-2.3z"/>
			</g>
			<g>
				<path class="st7" d="M172.4,50c-1.4,0-2.7-0.5-3.8-1.5c-2.4-2.2-4.7-4.4-7.2-6.7l-2.9-2.8C127.4,9.4,79.4,7.2,63.6,6.4
					C58.2,6.2,53.9,6,53.3,0.9c-0.1-0.8-0.3-5,5.1-6.4c15.2-4,30.9-7.3,46.9-9.9c3.1-0.5,6,1.6,6.5,4.7c0.5,3.1-1.6,6-4.7,6.5
					c-4.4,0.7-8.8,1.5-13.2,2.3c22.2,3.7,50.7,12.2,72.4,32.8l2.9,2.7c2.4,2.2,4.7,4.4,7.1,6.6c2.3,2.1,2.4,5.7,0.3,8
					C175.5,49.4,174,50,172.4,50z"/>
			</g>
		</g>
		<g>
			<path class="st7" d="M355.7,163.1c-5.2,0-10.5-0.1-15.8-0.4c-4.5-0.2-9-0.6-13.5-1.1c-3.7-0.4-6.4-3.7-6-7.4
				c0.4-3.7,3.7-6.4,7.4-6c4.3,0.4,8.6,0.8,12.9,1c10.1,0.6,20.2,0.6,29.8,0c3.7-0.2,6.9,2.6,7.1,6.4c0.2,3.7-2.6,6.9-6.4,7.2
				C366.1,163,360.9,163.1,355.7,163.1z"/>
		</g>
		<g>
			<path class="st7" d="M405.4,157.9c-3.1,0-5.9-2.1-6.6-5.3c-0.8-3.6,1.5-7.3,5.1-8.1c12.6-2.9,23.7-6.9,32.8-12
				c3.3-1.8,7.4-0.6,9.2,2.6c1.8,3.3,0.6,7.4-2.6,9.2c-10.3,5.7-22.5,10.2-36.4,13.3C406.4,157.9,405.9,157.9,405.4,157.9z"/>
		</g>
		<g>
			<path class="st7" d="M440,145.3c-2.4,0-4.7-1.3-5.9-3.5c-1.8-3.3-0.6-7.4,2.6-9.2c18.2-10.1,28.2-23.8,29.7-40.7
				c0.1-1.5,0.1-3.1,0-4.7c0-1-0.1-2-0.1-3.1c0-13.8-5.1-26.8-15-38.9c-2.4-2.9-2-7.1,0.9-9.5c2.9-2.4,7.1-2,9.5,0.9
				c12,14.6,18.1,30.6,18.1,47.5c0,0.9,0,1.8,0,2.7c0.1,2,0.1,4-0.1,6.2c-1.8,21.4-14.5,39.2-36.6,51.4
				C442.3,145,441.1,145.3,440,145.3z"/>
		</g>
		<g>
			<path class="st7" d="M440,31.7c-1.5,0-3-0.5-4.2-1.5c-9.1-7.3-20.4-14.2-33.3-20.5c-3.4-1.6-4.8-5.7-3.1-9c1.6-3.4,5.7-4.8,9-3.1
				c13.9,6.7,25.9,14.1,35.9,22.1c2.9,2.3,3.4,6.6,1.1,9.5C444,30.8,442,31.7,440,31.7z"/>
		</g>
		<g>
			<path class="st7" d="M333.8-14.5c-0.5,0-1.1-0.1-1.6-0.2c-37-9.1-79.1-15-121.8-17c-3.7-0.2-6.6-3.3-6.4-7.1
				c0.2-3.7,3.3-6.5,7.1-6.4c43.6,2.1,86.6,8.1,124.4,17.4c3.6,0.9,5.8,4.6,4.9,8.2C339.6-16.5,336.9-14.5,333.8-14.5z"/>
		</g>
		<g>
			<path class="st7" d="M30.9,51c-3.7,0-6.8-3-6.8-6.8V-3.2c0-7.2,3.8-20.4,29.4-28c28-8.3,64.3-13.3,105.1-14.5
				c3.7-0.1,6.9,2.8,7,6.6c0.1,3.7-2.8,6.9-6.6,7c-39.6,1.2-74.8,6-101.6,14C44.8-14.5,37.7-9,37.7-3.2v47.4
				C37.7,47.9,34.6,51,30.9,51z"/>
		</g>
		<g>
			<path class="st7" d="M105.5,112.1c-1.3,0-2.6-0.4-3.8-1.2c-9.3-6.2-17.8-10.2-26.1-12.1c-6.7-1.6-14-3-22.4-4.3
				C25.8,90,23.7,75.6,24,61.3c0.1-3.7,3.2-6.8,6.9-6.6c3.7,0.1,6.7,3.2,6.6,6.9c-0.2,10.3-0.3,16.6,17.8,19.5
				c8.6,1.4,16.3,2.9,23.3,4.5c10,2.3,20,6.9,30.7,14.1c3.1,2.1,3.9,6.3,1.8,9.4C109.8,111,107.7,112.1,105.5,112.1z"/>
		</g>
		<g>
			<path class="st7" d="M346.2,242.4c-6.4,0-12.9-0.2-19.4-0.6l-2.9-0.2c-3.5-0.2-6.7-0.6-9.9-0.9c-0.9-0.1-1.8-0.2-2.7-0.3
				c-3.7-0.4-6.4-3.8-6-7.5c0.4-3.7,3.8-6.4,7.5-6c0.8,0.1,1.7,0.2,2.5,0.3c3.1,0.3,6.2,0.6,9.4,0.8l2.7,0.2
				c16.6,1,32.6,0.7,47.8-0.9c3.7-0.4,7,2.3,7.4,6c0.4,3.7-2.3,7-6,7.4C366.7,241.8,356.6,242.4,346.2,242.4z"/>
		</g>
		<g>
			<path class="st7" d="M405.4,235.8c-3.1,0-5.8-2.1-6.6-5.2c-0.9-3.6,1.3-7.3,5-8.2c14.1-3.4,26.1-8.1,35.7-13.9
				c3.2-1.9,7.4-0.9,9.3,2.3c1.9,3.2,0.9,7.4-2.3,9.3c-10.8,6.5-24.1,11.7-39.5,15.4C406.5,235.7,406,235.8,405.4,235.8z"/>
		</g>
		<g>
			<path class="st7" d="M456.5,211c-1.8,0-3.6-0.7-4.9-2.1c-2.6-2.7-2.5-7,0.2-9.6c7.6-7.2,12.1-15.7,13.6-25c0.6-3.8,1-7,1-10.1
				v-15.9c0-3.7,3-6.8,6.8-6.8c3.7,0,6.8,3,6.8,6.8v15.9c0,4.2-0.5,8.3-1.1,12.1c-1.9,12.4-7.8,23.4-17.6,32.8
				C459.9,210.4,458.2,211,456.5,211z"/>
		</g>
		<g>
			<path class="st7" d="M473.1,155.1c-3.7,0-6.8-3-6.8-6.8V92.5c0-3.7,3-6.8,6.8-6.8c3.7,0,6.8,3,6.8,6.8v55.9
				C479.9,152.1,476.9,155.1,473.1,155.1z"/>
		</g>
		<g>
			<path class="st7" d="M327.2,237.3c-3.7,0-6.8-3-6.8-6.8v-67.9c0-23.9-5.3-37.1-9.7-44c-4.6-7.2-10.7-11.1-17-11.1
				c-9.4,0-19.2,9.2-19.2,24.6v88.2c0,3.7-3,6.8-6.8,6.8s-6.8-3-6.8-6.8v-85.9c0-23.9-5.3-37.1-9.7-44c-4.6-7.2-10.7-11.1-17-11.1
				c-9.4,0-19.2,9.2-19.2,24.6v87.5c0,3.7-3,6.8-6.8,6.8s-6.8-3-6.8-6.8v-85.2c0-33.1-9.8-46-15.6-50.8c-2.9-2.4-3.3-6.6-0.9-9.5
				c2.4-2.9,6.6-3.3,9.5-0.9c6.3,5.2,13.4,14.4,17.4,31c6.2-6.5,14.3-10.1,22.4-10.1c11.1,0,21.2,6.2,28.4,17.4
				c3.8,5.9,6.6,12.9,8.6,21c6.2-6.5,14.3-10.1,22.4-10.1c11.1,0,21.2,6.2,28.4,17.4c7.8,12.2,11.8,29.4,11.8,51.3v67.9
				C334,234.2,331,237.3,327.2,237.3z"/>
		</g>
		<g>
			<path class="st7" d="M190.3,56.8c-1.5,0-3-0.5-4.3-1.5c-4.9-4-10.6-5.3-16.1-3.4c-3.5,1.2-7.4-0.7-8.6-4.3
				c-1.2-3.5,0.7-7.4,4.3-8.6c9.9-3.3,20.4-1.2,28.9,5.8c2.9,2.4,3.3,6.6,0.9,9.5C194.2,55.9,192.3,56.8,190.3,56.8z"/>
		</g>
		<g>
			<path class="st7" d="M149,145.4c-3.7,0-6.8-3-6.8-6.8V77.8c0-23.9-5.3-37.1-9.7-44c-4.6-7.2-10.7-11.1-17-11.1
				c-9.4,0-19.2,9.2-19.2,24.6v44.6c0,3.7-3,6.8-6.8,6.8c-3.7,0-6.8-3-6.8-6.8V47.3c0-23.8,16.6-38.1,32.7-38.1
				c11.1,0,21.2,6.2,28.4,17.4c3.7,5.8,6.6,12.8,8.6,20.9c3.6-3.8,8-6.8,13.1-8.5c3.6-1.2,7.4,0.7,8.6,4.3c1.2,3.5-0.7,7.4-4.3,8.6
				c-8.6,2.9-14.2,12.2-14.2,23.7v63.1C155.8,142.3,152.8,145.4,149,145.4z"/>
		</g>
	</g>
	<polygon class="st8" points="114.4,149.2 109,148 103.6,147.5 103.1,142 101.9,136.7 106.9,134.5 111.6,131.8 115.2,135.9 
		119.3,139.5 116.5,144.2 	"/>
	<polygon class="st8" points="161.7,187 158.9,191.6 156.6,196.6 151.3,195.3 145.9,194.7 145.5,189.3 144.4,184 149.4,181.9 
		154.1,179.2 157.7,183.3 	"/>
	<polygon class="st8" points="129.7,222.5 126.8,227.2 124.6,232.1 119.3,230.9 113.9,230.2 113.4,224.8 112.3,219.5 117.4,217.4 
		122.1,214.7 125.7,218.8 	"/>
	<polygon class="st5" points="185.7,218.3 182.9,223 180.6,227.9 175.3,226.7 169.9,226 169.5,220.6 168.4,215.3 173.4,213.2 
		178.1,210.5 181.7,214.6 	"/>
	<polygon class="st5" points="60,108.7 58.2,111.6 56.8,114.7 53.5,113.9 50.1,113.6 49.8,110.2 49.1,106.8 52.3,105.5 55.2,103.8 
		57.5,106.4 	"/>
	<polygon class="st8" points="264.2,247.6 262.4,250.5 261,253.6 257.7,252.8 254.3,252.4 254,249 253.4,245.7 256.5,244.4 
		259.5,242.7 261.7,245.3 	"/>
	<polygon class="st8" points="76.6,133.8 77,138 77.9,142 74.1,143.6 70.6,145.7 67.8,142.6 64.7,139.9 66.8,136.4 68.5,132.6 
		72.5,133.5 	"/>
	<polygon class="st8" points="277.6,278.6 275.3,282 273.4,285.7 269.4,284.5 265.4,283.9 265.2,279.7 264.6,275.7 268.5,274.3 
		272.2,272.4 274.7,275.7 	"/>
	<polygon class="st5" points="310.5,255.6 310.9,259.7 311.8,263.8 308.1,265.4 304.5,267.5 301.8,264.4 298.7,261.7 300.8,258.2 
		302.4,254.4 306.4,255.3 	"/>
	<polygon class="st8" points="227.6,221.6 228,225.7 228.9,229.7 225.1,231.4 221.6,233.5 218.8,230.4 215.7,227.7 217.8,224.1 
		219.5,220.3 223.5,221.2 	"/>
	<polygon class="st8" points="188.9,253.9 186.8,254.4 184.8,255.1 183.7,253.3 182.4,251.6 183.8,249.9 185,248.2 187,249 
		189.1,249.6 188.9,251.8 	"/>
	<polygon class="st8" points="287.7,244 285.6,244.5 283.6,245.2 282.5,243.4 281.2,241.6 282.6,240 283.8,238.2 285.8,239.1 
		287.9,239.7 287.7,241.8 	"/>
	<polygon class="st5" points="99,190.7 96.3,191.3 93.6,192.3 92.2,189.8 90.5,187.6 92.3,185.5 93.9,183.1 96.5,184.3 99.2,185.1 
		99,187.9 	"/>
	<polygon class="st8" points="128.4,169.6 126.3,170.1 124.3,170.8 123.2,169 121.8,167.2 123.3,165.6 124.5,163.8 126.5,164.7 
		128.5,165.3 128.3,167.4 	"/>
	<polygon class="st9" points="114.4,70.9 113.1,71.2 111.9,71.7 111.2,70.5 110.4,69.5 111.2,68.5 112,67.4 113.2,67.9 114.5,68.3 
		114.4,69.6 	"/>
	<polygon class="st9" points="123.4,82.6 122.1,82.9 120.8,83.4 120.1,82.2 119.3,81.2 120.2,80.2 120.9,79.1 122.2,79.6 123.5,80 
		123.3,81.3 	"/>
	<polygon class="st9" points="174.5,73.1 173.2,73.4 172,73.8 171.3,72.7 170.5,71.6 171.3,70.6 172.1,69.5 173.3,70.1 174.6,70.4 
		174.5,71.8 	"/>
	<polygon class="st9" points="177.2,106.1 175.9,106.4 174.6,106.8 174,105.7 173.1,104.6 174,103.6 174.8,102.5 176,103.1 
		177.3,103.4 177.2,104.8 	"/>
	<polygon class="st9" points="164.4,126.9 163.1,127.2 161.8,127.6 161.1,126.5 160.3,125.4 161.2,124.4 162,123.3 163.2,123.8 
		164.5,124.2 164.3,125.6 	"/>
	<polygon class="st9" points="184.1,139.5 182.8,139.8 181.6,140.2 180.9,139.1 180.1,138 180.9,137 181.7,135.9 182.9,136.5 
		184.2,136.8 184.1,138.2 	"/>
	<polygon class="st9" points="289.8,150.6 288.5,150.9 287.3,151.3 286.6,150.2 285.8,149.1 286.7,148.1 287.4,147 288.7,147.5 
		289.9,147.9 289.8,149.2 	"/>
	<polygon class="st9" points="230.4,105.3 229.1,105.6 227.8,106.1 227.1,104.9 226.3,103.8 227.2,102.8 227.9,101.7 229.2,102.3 
		230.4,102.6 230.3,104 	"/>
	<polygon class="st9" points="246.3,131.2 245,131.5 243.7,131.9 243,130.8 242.2,129.7 243.1,128.7 243.9,127.6 245.1,128.2 
		246.4,128.5 246.2,129.9 	"/>
	<polygon class="st9" points="311.6,166.6 310.3,166.9 309.1,167.3 308.4,166.2 307.6,165.1 308.5,164.1 309.2,163 310.4,163.5 
		311.7,163.9 311.6,165.2 	"/>
	<polygon class="st9" points="299.8,133.2 298.5,133.5 297.3,133.9 296.6,132.8 295.8,131.7 296.7,130.7 297.4,129.6 298.6,130.1 
		299.9,130.5 299.8,131.8 	"/>
	<polygon class="st9" points="289.8,208.7 288.5,209 287.3,209.5 286.6,208.3 285.8,207.3 286.7,206.3 287.4,205.2 288.7,205.7 
		289.9,206.1 289.8,207.4 	"/>
	<polygon class="st9" points="226.2,151.7 224.9,152 223.6,152.4 223,151.3 222.2,150.2 223,149.2 223.8,148.1 225,148.6 226.3,149 
		226.2,150.3 	"/>
	<polygon class="st9" points="224.3,180.6 223,180.9 221.7,181.3 221.1,180.2 220.2,179.1 221.1,178.1 221.9,177 223.1,177.5 
		224.4,177.9 224.3,179.2 	"/>
	<polygon class="st9" points="242.1,174.4 240.8,174.7 239.6,175.1 238.9,174 238.1,172.9 239,171.9 239.7,170.8 240.9,171.3 
		242.2,171.7 242.1,173 	"/>
	<polygon class="st9" points="297.8,182.7 296.5,183 295.2,183.5 294.5,182.3 293.7,181.3 294.6,180.3 295.3,179.2 296.6,179.7 
		297.8,180.1 297.7,181.4 	"/>
	<polygon class="st5" points="223.4,267.9 222.3,266.1 221,264.4 222.4,262.7 223.6,260.9 225.6,261.8 227.6,262.4 227.5,264.5 
		227.6,266.7 225.5,267.2 	"/>
	<polygon class="st5" points="155.5,271 154.4,269.2 153,267.5 154.4,265.8 155.6,264 157.6,264.9 159.7,265.4 159.5,267.6 
		159.6,269.8 157.5,270.3 	"/>
	<polygon class="st8" points="88.5,117.8 86.4,118.3 84.4,119 83.3,117.1 81.9,115.4 83.4,113.8 84.6,112 86.6,112.9 88.6,113.5 
		88.4,115.6 	"/>
</g>
<g>
	<g>
		<path class="st3" d="M86,58.2c10.5,3.7,16.4,11.7,16.4,22c0,17.3-13.1,28.9-32.6,28.9H19.6c-1.6,0-2.4-0.9-2.4-2.4V16.5
			c0-1.6,0.9-2.4,2.4-2.4h46.6c17.8,0,30,11.3,30,26c0,7.5-3.7,13.6-10.1,16.9V58.2z M37.2,51.1h29.1c5.6,0,9.8-3.7,9.8-9.1
			c0-5.6-3.7-9.1-9.8-9.1H37.2V51.1z M37.2,90.1h32.1c8.2,0,12.9-4,12.9-10.1c0-6.8-4.4-10.1-12.9-10.1H37.2V90.1z"/>
		<path class="st3" d="M193,14.1c1.6,0,2.4,0.9,2.4,2.4v13.9c0,1.6-0.9,2.4-2.4,2.4h-52.8v17.8h46.4c1.6,0,2.4,0.9,2.4,2.4v13.9
			c0,1.6-0.9,2.4-2.4,2.4h-46.4v20.6h54.2c1.6,0,2.4,0.9,2.4,2.4v14.1c0,1.6-0.9,2.4-2.4,2.4h-72c-1.6,0-2.4-0.9-2.4-2.4V16.5
			c0-1.4,1.2-2.4,2.4-2.4H193z"/>
		<path class="st3" d="M289.1,14.1c1.6,0,2.4,0.9,2.4,2.4v13.9c0,1.6-0.9,2.4-2.4,2.4h-52.8v17.8h46.4c1.6,0,2.4,0.9,2.4,2.4v13.9
			c0,1.6-0.9,2.4-2.4,2.4h-46.4v20.6h54.2c1.6,0,2.4,0.9,2.4,2.4v14.1c0,1.6-0.9,2.4-2.4,2.4h-72c-1.6,0-2.4-0.9-2.4-2.4V16.5
			c0-1.4,1.2-2.4,2.4-2.4H289.1z"/>
		<path class="st3" d="M384,14.1c1.6,0,2.4,0.9,2.4,2.4v14.3c0,1.6-0.9,2.4-2.4,2.4h-51.6v18.1h46.7c1.6,0,2.4,0.9,2.4,2.4v14.3
			c0,1.6-0.9,2.4-2.4,2.4h-46.7v36.1c0,1.6-0.9,2.4-2.4,2.4h-15.3c-1.6,0-2.4-0.9-2.4-2.4V16.5c0-1.6,0.9-2.4,2.4-2.4H384z"/>
	</g>
	<g>
		<path class="st2" d="M84.3,173.1c10.5,4,16.4,12.4,16.4,22.1c0,16.4-13.4,29.3-31.7,29.3H18.3c-1.2,0-2.3-1.2-2.3-2.4v-90.1
			c0-1.6,0.7-2.4,2.3-2.4h47.9c17.4,0,28.1,12,28.1,26c0,6.3-4.4,13.8-9.9,16.6V173.1z M31.7,166.5h35.4c6.1,0,11.3-4.7,11.3-11
			c0-6.3-4.5-11.3-12-11.3H31.7V166.5z M31.7,209.7h36.8c9.8,0,16.4-5.6,16.4-14.5c0-9.2-6.1-13.9-16.4-13.9H31.7V209.7z"/>
		<path class="st2" d="M162.9,222.1c0,1.6-0.9,2.4-2.4,2.4h-11.2c-1.6,0-2.3-0.9-2.3-2.4v-21.4l-39.8-69c-0.5-0.9-0.2-2.1,1-2.1
			h14.5c1,0,1.7,0.5,2.3,1.4l29.3,53.5h1.4l28.9-53.5c0.5-0.9,1.2-1.4,2.4-1.4h14.1c1.2,0,1.7,0.9,1.2,2.1l-39.6,69V222.1z"/>
		<path class="st2" d="M295.2,129.5c1.6,0,2.4,0.9,2.4,2.4v9.9c0,1.6-0.9,2.4-2.4,2.4H263v77.8c0,1.2-0.9,2.4-2.4,2.4h-11
			c-1.6,0-2.4-0.9-2.4-2.4v-77.8h-32.3c-1.6,0-2.4-0.9-2.4-2.4v-9.9c0-1.6,0.9-2.4,2.4-2.4H295.2z"/>
		<path class="st2" d="M382.6,129.5c1.2,0,2.4,1.1,2.4,2.4v9.9c0,1.2-1.2,2.3-2.4,2.3h-55.1v23.5h50.2c1.6,0,2.4,0.9,2.4,2.4v9.9
			c0,1.6-0.9,2.3-2.4,2.3h-50.2v27.4h56.8c1.6,0,2.3,0.7,2.3,2.1v10.3c0,1.6-0.7,2.4-2.3,2.4H314c-1.6,0-2.3-0.9-2.3-2.4v-90.1
			c0-1.6,0.7-2.4,2.3-2.4H382.6z"/>
		<path class="st2" d="M484.7,142.7c0.9,0.9,0.9,1.7,0,2.6l-6.8,8.5c-1.1,1.1-2.1,1.1-3.1,0.2c-8.4-7.1-18.5-11.2-31.2-11.2
			c-14.6,0-22.3,4-22.3,11.5c0,7.1,10.3,10.5,25.1,12.4c24.2,2.8,41.7,9.9,41.7,30.2c0,19-19,28.9-42.4,28.9
			c-17.4,0-32.4-4.7-44.3-15.9c-0.9-0.9-0.9-1.9,0-3l6.8-8.5c0.9-1.2,2.1-1.4,3.3-0.3c9.8,9.1,20.7,12.9,34.2,12.9
			c17.4,0,26.7-5.9,26.7-14.1c0-9.2-10.6-12.5-28.1-14.6c-20.1-2.3-38.7-7.8-38.7-27.9c0-15.9,15.2-26.3,38.4-26.3
			C458.7,128.1,474.1,133,484.7,142.7z"/>
	</g>
</g>
</svg>
