<svg xmlns="http://www.w3.org/2000/svg" viewBox="0 0 736.34 314.37"><title>Asset 3</title><path d="M457.88,200.46c10.06-5.05,17.37-13.25,24.73-21.43,7.47-8.33,12.86-18.23,20.35-26.55C512.37,142,523.87,136.8,538,138.13c2.72.26,6.32-.34,7.7,2.41s-1.21,5.28-2.79,7.5c-7.07,9.91-14.14,19.8-20,30.49-7,12.75-13.09,25.82-16,40.19a42.87,42.87,0,0,0-.61,12.43c.32,3.34,1.52,6.23,5,7.39s6.24-.42,8.57-2.71a28.65,28.65,0,0,0,7.25-12.41c5.59-18.91,19-30,36.41-37.09,3.79-1.55,4.2-2.86,2.54-6.37a53.62,53.62,0,0,1-4.3-16.34c-1.64-13.05,4.42-24.3,16.5-29.57,11.38-5,23.11-6.28,34.85-1.12,6.91,3,9.65,8.08,8.38,14.64-1.49,7.77-8.33,14.91-14.64,15.26-2.79.16-4.11-1-3.5-3.91a8.5,8.5,0,0,1,.66-1.87c1.18-2.46,3.62-5,.87-7.65-2.43-2.36-5.63-1.88-8.49-.87a7.27,7.27,0,0,0-5.3,7.1c-.13,4.91,2.94,8.39,5.27,12.17,6,9.75,6.19,10,16.58,4.93,29.77-14.6,50.71-37,58.86-69.73,5.51-22.12,1.17-43.27-8.79-63.45-1.12-2.26-3.53-4.9.32-6.67,3.62-1.66,4.86,1.35,6.28,3.89,25.59,45.81,13.2,96.26-20.28,130.81a158.77,158.77,0,0,1-30.51,24.91c-4.47,2.75-4.48,4.79-1.87,8.71,13.34,20.13,7.16,45.5-9.07,58.56-14.64,11.79-31.12,13.4-48.57,8-11.72-3.66-22-9.62-28.56-21.16-2.26,2.63-4.22,5-6.29,7.33a38.8,38.8,0,0,1-24.66,12.92c-11.51,1.43-21.76-5.28-26.35-17.14-3.4-8.77-3.67-17.86-2.66-27.07.26-2.29.6-4.57,1-7.85-7.88,4.1-15.39,7.07-21.61,12.44-1.77,1.52-2.21,3.63-2.87,5.68-6.46,20.38-13.88,40.32-27.22,57.43-15.38,19.71-35.39,27.41-60,22.75C348.71,310.88,342,304.52,341,295a17.66,17.66,0,0,1,4.07-13.49c1.12-1.35,2.17-2.27,3.86-.09,6.41,8.27,15.23,10,25,8.62,12.36-1.78,25.16-12.68,27.56-23.27.62-2.72.72-4-2.86-3.12-5.63,1.45-11.37,2.5-17.09,3.56-19.58,3.59-33.6-5.48-38.49-24.83-.28-1.12-.64-2.22-1.13-3.88-7.27,4.73-14.63,8.87-22.67,11.61-24.56,8.38-48.9,6.1-73-1.74a13.12,13.12,0,0,0-9.59.09c-9.87,4-19.85,7.72-29.71,11.72-16.23,6.58-28.91,1.05-35-15.5-3.83-10.48-3.92-21.3-1.6-32,5.28-24.29,15.34-46.43,31.71-65.32,10.19-11.75,23.31-16,38.71-13.35,4.07.7,4.71,2.76,2.8,5.9-2.15,3.55-4.56,7-6.95,10.36-13.42,19-25.05,38.91-30.58,61.82-1,4.37-1.9,8.82-1.43,13.35.8,7.77,4.38,10.18,11.91,8a62.39,62.39,0,0,0,22.14-12.26c15.41-12.74,30.46-25.9,47.17-37,7.92-5.24,15.73-10.63,23.53-16,1.41-1,3.31-1.64,3.91-4.52l-13.85,5c-8.14,2.93-16.24,6-24.71,7.88a33.48,33.48,0,0,1-9.92.71c-6-.46-10.44-4.27-11.24-10.23-1.37-10.22,1.67-19.32,8.07-28.46,2.26,8.47,8.45,8.25,14.4,7.82,12.13-.88,23.93-4,35.94-5.82,11.54-1.71,23.06-3.48,34.76-3.31,11,.17,16.53,6.88,14.53,17.66-.52,2.79-1.1,4.86-5.33,4.73-5.74-.18-10.66,3.54-15.43,6.51A366,366,0,0,0,282,211.79c-3.39,3.23-2.15,4.47,1,6.49,15.19,9.69,30.1,7.88,44.63-1.15A68.13,68.13,0,0,0,353,189.51c8.7-17.28,20.23-32.25,37.65-41.54,16.4-8.74,33.25-11.77,50.12-.91,1.86,1.2,2.69,0,3.91-.65,7.48-3.9,15.27-5.64,23.62-3.38a20.2,20.2,0,0,1,9,5.17c1.19,1.18,1.82,2.41.58,3.92-10.32,12.56-14,28.14-19.46,42.91a38.35,38.35,0,0,0-1.11,4.82c-.16.22-.5.56-.45.64C457.16,201,457.54,200.78,457.88,200.46Zm-68,42.76c7.92-.47,15.18-5,20.83-12.34,6.15-8,8.77-17.46,10.87-27.1.59-2.72,1.92-5.9,1-8.1-.69-1.72-4.16.67-6.47.18s-5.51-.42-6.3-3.18c-.86-3,2.24-4.07,4.14-5.53,1-.81,2.36-1.26,3.42-2.05,6.44-4.76,9.95-11.21,10-19.17,0-7.44-5.62-10.79-12.25-7.54a34.07,34.07,0,0,0-9.75,7.69c-10.91,11.72-17.2,26-22.73,40.72-2.8,7.45-5.39,15-5.68,23.18C376.7,238.3,380.8,243.13,389.89,243.22Zm168.42-16.69c-.24,8.26,5.12,15.49,12.58,17,7.08,1.41,15.32-3.62,18.15-11.09,3-8-1.51-23.26-8.34-28.27-1.46-1.07-2.81-.62-4.27-.33C567.5,205.62,558.59,216.78,558.31,226.53Z" style="fill:#887963"/><path d="M90.18,69.74c-21.05,13.55-42.41,26.94-55,49.59-8.79,15.78-6.8,31.37,3.92,45.87.86,1.15,2.76,2.13,2.15,3.66-.76,1.9-2.93,1.17-4.48,1.11C18.79,169.29,2.21,153.26.34,135.3-1.86,114.24,6.87,97,19.13,81.1,38.38,56.18,63.51,38.66,91.5,24.9c12-5.88,24.08-11.29,37.29-13.89,17.82-3.5,27.56,1.34,38.35,18.74.35.56.6,1.19.91,1.78,4.13,8.17,3.81,8.82-4.9,9.8-17.49,2-29.73,10.8-35.71,27.63-13.21,37.16-19.38,75.42-16.7,114.81A106.33,106.33,0,0,0,123.61,227a11.23,11.23,0,0,0,3.8,4.81c-.37-6.6-.92-12.72-.4-18.88,3-35.9,13.44-69.83,27.61-102.68,11.91-27.62,26-54,46.38-76.55,14.84-16.38,32-29,54.42-33.16,9.47-1.76,17.27.65,23.34,7.84,10.87,12.89,15.92,28.24,17.91,44.75.48,3.92-1.26,5.18-5,4.22-5.16-1.3-10.41-2.26-15.5-3.77-14.12-4.17-26.47-1-37.85,8-13.82,11-25.43,24-35.91,38.07-20,26.84-36.33,55.75-47.45,87.44-4.87,13.87-8.33,28.07-9.27,42.8a70.89,70.89,0,0,0,2.53,23.71c.74,2.7,1.94,5.64-.55,8s-5.66,1.39-8.45.28c-15.53-6.13-27.59-16.58-36.92-30.24-14.15-20.7-20.8-44-23.89-68.61a188.06,188.06,0,0,1,3.07-66c2.13-9.28,5.75-18,9.21-26.85.14-.3.28-.61.41-.91Z" style="fill:#877963"/><path d="M546.38,127.22c-8.47,0-14.77-6.5-14.82-15.4-.07-10.52,9-20.41,18.64-20.44,8.26,0,14.8,6.85,14.84,15.61C565.09,117.74,556.39,127.17,546.38,127.22Z" style="fill:#887964"/><path d="M249.66,87c8.48-.07,14.73,6.43,14.81,15.4.09,10.64-8.68,20.38-18.48,20.51-8.35.1-14.66-6.55-14.72-15.53C231.19,96.43,239.66,87.05,249.66,87Z" style="fill:#887964"/><path d="M698.91,36.36C714.22,49.62,721.4,78.8,701.3,99,705,88,707.19,78,706.54,67.58S702.75,47.43,698.91,36.36Z" style="fill:#8b7c67"/><path d="M653.09,84c-3.81-17.4-5.08-19.74-21.23-39.5C647.73,46.3,662.79,70.39,653.09,84Z" style="fill:#8b7c67"/><path d="M718.3,99C729,87.19,732.66,73.49,733,58,742.09,72.56,731.26,95.64,718.3,99Z" style="fill:#8b7c67"/><path d="M457.88,200.46c-.34.32-.72.57-1.05,0-.05-.08.29-.42.45-.64C457.49,200.05,457.69,200.25,457.88,200.46Z" style="fill:#fefefe"/><path d="M90.18,69.74l.92-.41c-.13.3-.27.61-.41.91Z" style="fill:#fefefe"/></svg>