<?xml version="1.0" encoding="utf-8"?>
<!-- Generator: Adobe Illustrator 19.0.0, SVG Export Plug-In . SVG Version: 6.00 Build 0)  -->
<svg version="1.1" id="Layer_1" xmlns="http://www.w3.org/2000/svg" xmlns:xlink="http://www.w3.org/1999/xlink" x="0px" y="0px"
	 viewBox="-130 80 238 92" style="enable-background:new -130 80 238 92;" xml:space="preserve">
<style type="text/css">
	.st0{fill:#FFFFFF;}
</style>
<g>
	<g>
		<g>
			<path class="st0" d="M-49.2,167.8v1c0,0.6-0.5,1-1,1h-3.1c-0.6,0-1-0.5-1-1v-62h-12.2v24.3c0,0.6-0.5,1-1,1h-19.9
				c-0.6,0-1-0.5-1-1c0-0.6,0.5-1,1-1h18.9v-24.3c0-0.6,0.5-1,1-1h14.3c0.6,0,1,0.5,1,1v62H-49.2z"/>
			<path class="st0" d="M99.3,168.9c0,0.6-0.5,1-1,1H-46.2c-0.6,0-1-0.5-1-1v-1H98.4C98.9,167.8,99.3,168.3,99.3,168.9z"/>
		</g>
		<g>
			<path class="st0" d="M-107.7,167.8v1c0,0.6-0.5,1-1,1h-11.6c-0.6,0-1-0.5-1-1c0-0.6,0.5-1,1-1H-107.7z"/>
			<path class="st0" d="M-79.8,136.2c0,0.6-0.5,1-1,1h-6.7c-0.6,0-1-0.5-1-1v-29.4h-12.2v62c0,0.6-0.5,1-1,1h-3.1c-0.6,0-1-0.5-1-1
				v-1h3.1v-62c0-0.6,0.5-1,1-1h14.3c0.6,0,1,0.5,1,1v29.4h5.6C-80.2,135.2-79.8,135.6-79.8,136.2z"/>
		</g>
		<g>
			<path class="st0" d="M-75,137.2h-5.8c-0.6,0-1-0.5-1-1s0.5-1,1-1h5.8c0.6,0,1,0.5,1,1S-74.4,137.2-75,137.2z"/>
		</g>
		<g>
			<path class="st0" d="M-75.4,167.8v1c0,0.6,0.5,1,1,1c0.6,0,1-0.5,1-1v-1H-75.4z M-67.5,135.2H-75c-0.6,0-1,0.5-1,1
				c0,0.6,0.5,1,1,1h6.4v3.1h-18.8c-0.6,0-1,0.5-1,1v27.5c0,0.6,0.5,1,1,1h3c0.6,0,1-0.5,1-1v-1h-3v-25.5h17.9v25.5h-3v1
				c0,0.6,0.5,1,1,1h3c0.6,0,1-0.5,1-1v-32.6C-66.5,135.6-67,135.2-67.5,135.2z M-81.6,167.8v1c0,0.6,0.5,1,1,1c0.6,0,1-0.5,1-1v-1
				H-81.6z"/>
		</g>
		<g>
			<path class="st0" d="M-89,106.8c-0.6,0-1-0.5-1-1v-4.2h-9.2v4.2c0,0.6-0.5,1-1,1c-0.6,0-1-0.5-1-1v-5.2c0-0.6,0.5-1,1-1H-89
				c0.6,0,1,0.5,1,1v5.2C-87.9,106.4-88.4,106.8-89,106.8z"/>
		</g>
		<g>
			<path class="st0" d="M-92.3,101.6c-0.6,0-1-0.5-1-1v-4.2h-2.6v4.2c0,0.6-0.5,1-1,1s-1-0.5-1-1v-5.2c0-0.6,0.5-1,1-1h4.6
				c0.6,0,1,0.5,1,1v5.2C-91.2,101.2-91.7,101.6-92.3,101.6z"/>
		</g>
		<g>
			<path class="st0" d="M-97.1,141.9c-0.6,0-1-0.5-1-1v-35c0-0.6,0.5-1,1-1s1,0.5,1,1v35C-96.1,141.4-96.6,141.9-97.1,141.9z"/>
		</g>
		<g>
			<path class="st0" d="M-97.1,157.9c-0.6,0-1-0.5-1-1v-8.7c0-0.6,0.5-1,1-1s1,0.5,1,1v8.7C-96.1,157.4-96.6,157.9-97.1,157.9z"/>
		</g>
		<g>
			<path class="st0" d="M-92,122.8c-0.6,0-1-0.5-1-1v-16c0-0.6,0.5-1,1-1c0.6,0,1,0.5,1,1v15.9C-91,122.3-91.5,122.8-92,122.8z"/>
		</g>
		<g>
			<path class="st0" d="M-92,136c-0.6,0-1-0.5-1-1v-10c0-0.6,0.5-1,1-1c0.6,0,1,0.5,1,1v10C-91,135.6-91.5,136-92,136z"/>
		</g>
		<g>
			<path class="st0" d="M-85.4,106.8h-2c-0.6,0-1-0.5-1-1c0-0.6,0.5-1,1-1h2c0.6,0,1,0.5,1,1C-84.4,106.4-84.8,106.8-85.4,106.8z"/>
		</g>
		<g>
			<path class="st0" d="M-101.7,106.8h-2c-0.6,0-1-0.5-1-1c0-0.6,0.5-1,1-1h2c0.6,0,1,0.5,1,1C-100.7,106.4-101.2,106.8-101.7,106.8
				z"/>
		</g>
		<g>
			<g>
				<path class="st0" d="M-54.8,106.8c-0.6,0-1-0.5-1-1v-4.2H-65v4.2c0,0.6-0.5,1-1,1s-1-0.5-1-1v-5.2c0-0.6,0.5-1,1-1h11.2
					c0.6,0,1,0.5,1,1v5.2C-53.7,106.4-54.2,106.8-54.8,106.8z"/>
			</g>
			<g>
				<path class="st0" d="M-58.1,101.6c-0.6,0-1-0.5-1-1v-4.2h-2.6v4.2c0,0.6-0.5,1-1,1s-1-0.5-1-1v-5.2c0-0.6,0.5-1,1-1h4.6
					c0.6,0,1,0.5,1,1v5.2C-57,101.2-57.5,101.6-58.1,101.6z"/>
			</g>
			<g>
				<path class="st0" d="M-57.8,141.9c0.6,0,1-0.5,1-1v-35c0-0.6-0.5-1-1-1s-1,0.5-1,1v35C-58.8,141.4-58.4,141.9-57.8,141.9z"/>
			</g>
			<g>
				<path class="st0" d="M-57.8,157.9c0.6,0,1-0.5,1-1v-8.7c0-0.6-0.5-1-1-1s-1,0.5-1,1v8.7C-58.8,157.4-58.4,157.9-57.8,157.9z"/>
			</g>
			<g>
				<path class="st0" d="M-62.9,122.8c0.6,0,1-0.5,1-1v-16c0-0.6-0.5-1-1-1s-1,0.5-1,1v15.9C-63.9,122.3-63.5,122.8-62.9,122.8z"/>
			</g>
			<g>
				<path class="st0" d="M-62.9,136c0.6,0,1-0.5,1-1v-10c0-0.6-0.5-1-1-1s-1,0.5-1,1v10C-63.9,135.6-63.5,136-62.9,136z"/>
			</g>
			<g>
				<path class="st0" d="M-51.2,106.8h-2c-0.6,0-1-0.5-1-1c0-0.6,0.5-1,1-1h2c0.6,0,1,0.5,1,1C-50.2,106.4-50.6,106.8-51.2,106.8z"
					/>
			</g>
			<g>
				<path class="st0" d="M-67.5,106.8h-2c-0.6,0-1-0.5-1-1c0-0.6,0.5-1,1-1h2c0.6,0,1,0.5,1,1C-66.5,106.4-67,106.8-67.5,106.8z"/>
			</g>
		</g>
		<g>
			<path class="st0" d="M-107.8,132.8c-0.2,0-0.4-0.1-0.6-0.2c-0.5-0.3-0.6-0.9-0.3-1.4c1.8-2.7,3.9-5.1,6.3-7.2
				c0.4-0.4,1.1-0.3,1.4,0.1c0.4,0.4,0.3,1.1-0.1,1.4c-2.3,2-4.3,4.3-5.9,6.8C-107.2,132.7-107.5,132.8-107.8,132.8z"/>
		</g>
		<g>
			<path class="st0" d="M-113.8,149.5C-113.8,149.5-113.9,149.5-113.8,149.5c-0.7-0.1-1.1-0.6-1-1.1c0.4-4.2,1.5-8.3,3.3-12.2
				c0.2-0.5,0.8-0.7,1.4-0.5c0.5,0.2,0.7,0.8,0.5,1.4c-1.7,3.6-2.8,7.5-3.1,11.5C-112.8,149.1-113.3,149.5-113.8,149.5z"/>
		</g>
		<g>
			<path class="st0" d="M-109.9,169.9c-0.4,0-0.7-0.2-0.9-0.6c-2.4-4.6-3.8-9.6-4.1-14.8c0-0.6,0.4-1,1-1.1c0.6,0,1,0.4,1.1,1
				c0.3,4.9,1.6,9.7,3.9,14c0.3,0.5,0.1,1.1-0.4,1.4C-109.6,169.8-109.7,169.9-109.9,169.9z"/>
		</g>
		<g>
			<path class="st0" d="M-47.1,132.8c-0.3,0-0.7-0.2-0.8-0.5c-1.7-2.5-3.7-4.8-5.9-6.8c-0.4-0.4-0.5-1-0.1-1.4s1-0.5,1.4-0.1
				c2.4,2.1,4.5,4.6,6.3,7.2c0.3,0.5,0.2,1.1-0.3,1.4C-46.7,132.8-46.9,132.8-47.1,132.8z"/>
		</g>
		<g>
			<path class="st0" d="M-41.2,149.5c-0.5,0-1-0.4-1-0.9c-0.4-4-1.4-7.9-3.1-11.5c-0.2-0.5,0-1.1,0.5-1.4c0.5-0.2,1.1,0,1.4,0.5
				c1.8,3.8,2.9,7.9,3.3,12.2C-40.1,149-40.5,149.5-41.2,149.5C-41.1,149.5-41.1,149.5-41.2,149.5z"/>
		</g>
		<g>
			<path class="st0" d="M-45.1,169.9c-0.2,0-0.3,0-0.5-0.1c-0.5-0.3-0.7-0.9-0.4-1.4c2.3-4.4,3.6-9.1,3.9-14c0-0.6,0.5-1,1.1-1
				s1,0.5,1,1.1c-0.3,5.2-1.7,10.2-4.1,14.8C-44.4,169.7-44.7,169.9-45.1,169.9z"/>
		</g>
		<g>
			<path class="st0" d="M-67.5,118c-0.1,0-0.2,0-0.3,0c-3.1-0.9-6.4-1.3-9.7-1.3s-6.5,0.4-9.7,1.3c-0.5,0.2-1.1-0.2-1.3-0.7
				s0.2-1.1,0.7-1.3c3.3-0.9,6.8-1.4,10.2-1.4c3.5,0,6.9,0.5,10.2,1.4c0.5,0.2,0.9,0.7,0.7,1.3C-66.7,117.7-67.1,118-67.5,118z"/>
		</g>
		<g>
			<path class="st0" d="M-94.6,96.4c-0.6,0-1-0.5-1-1V83.1c0-0.6,0.5-1,1-1c0.6,0,1,0.5,1,1v12.3C-93.6,96-94,96.4-94.6,96.4z"/>
		</g>
		<g>
			<path class="st0" d="M-60.4,96.4c-0.6,0-1-0.5-1-1v-6.2c0-0.6,0.5-1,1-1c0.6,0,1,0.5,1,1v6.2C-59.4,96-59.8,96.4-60.4,96.4z"/>
		</g>
		<g>
			<path class="st0" d="M-73.4,160.2v8.7c0,0.6-0.5,1-1,1c-0.6,0-1-0.5-1-1v-7.6h-4.1v7.6c0,0.6-0.5,1-1,1c-0.6,0-1-0.5-1-1v-8.7
				c0-0.6,0.5-1,1-1h6.1C-73.9,159.2-73.4,159.6-73.4,160.2z"/>
		</g>
		<g>
			<path class="st0" d="M-69.5,148.2v20.7c0,0.6-0.5,1-1,1c-0.6,0-1-0.5-1-1v-19.7h-1.9v11c0,0.6-0.5,1-1,1c-0.6,0-1-0.5-1-1v-12
				c0-0.6,0.5-1,1-1h3.9C-69.9,147.2-69.5,147.6-69.5,148.2z"/>
		</g>
		<g>
			<path class="st0" d="M-79.5,153.4v6.8c0,0.6-0.5,1-1,1c-0.6,0-1-0.5-1-1v-5.8h-1.9v14.5c0,0.6-0.5,1-1,1c-0.6,0-1-0.5-1-1v-15.5
				c0-0.6,0.5-1,1-1h3.9C-80,152.3-79.5,152.8-79.5,153.4z"/>
		</g>
		<g>
			<path class="st0" d="M-100.7,164.8c0,0.6-0.5,1-1,1h-2v3c0,0.6-0.5,1-1,1c-0.6,0-1-0.5-1-1v-4c0-0.6,0.5-1,1-1h3.1
				C-101.2,163.8-100.7,164.3-100.7,164.8z"/>
		</g>
		<g>
			<path class="st0" d="M-103.8,151.1v13.8c0,0.6-0.5,1-1,1c-0.6,0-1-0.5-1-1v-12.8h-1.9v16.7c0,0.6-0.5,1-1,1
				c-0.2,0-0.4-0.1-0.6-0.2c-0.3-0.2-0.4-0.5-0.4-0.8v-17.7c0-0.6,0.5-1,1-1h3.9C-104.2,150.1-103.8,150.5-103.8,151.1z"/>
		</g>
		<g>
			<path class="st0" d="M-49.2,164.8v4c0,0.6-0.5,1-1,1c-0.6,0-1-0.5-1-1v-3h-2c-0.6,0-1-0.5-1-1c0-0.6,0.5-1,1-1h3.1
				C-49.6,163.8-49.2,164.3-49.2,164.8z"/>
		</g>
		<g>
			<path class="st0" d="M-45.2,157.9v11c0,0.3-0.2,0.7-0.4,0.8c-0.2,0.1-0.4,0.2-0.6,0.2c-0.6,0-1-0.5-1-1v-10h-1.9v7.5
				c0,0.6-0.5,1-1,1c-0.6,0-1-0.5-1-1v-8.5c0-0.6,0.5-1,1-1h3.9C-45.7,156.8-45.2,157.3-45.2,157.9z"/>
		</g>
	</g>
	<g>
		<path class="st0" d="M-20.8,148.5c2.4,0,4.2,1,5.7,3c0.2,0.2,0.3,0.2,0.6,0l1.7-1.3c0.2-0.2,0.2-0.3,0.1-0.6
			c-1.8-2.6-4.9-4.1-8.1-4.1c-5.6,0-9.8,4.1-9.8,9.8s4.2,9.8,9.8,9.8c1.9,0,3.7-0.6,5.2-1.9l0.3,1.1c0.1,0.3,0.3,0.5,0.6,0.5h1.5
			c0.3,0,0.5-0.2,0.5-0.5v-9.5c0-0.3-0.1-0.5-0.5-0.5h-2.2c-0.3,0-0.5,0.1-0.5,0.5v5.2c-1.4,1.4-3,2.1-4.9,2.1
			c-3.9,0-6.6-2.9-6.6-6.8C-27.4,151.4-24.6,148.5-20.8,148.5z"/>
		<path class="st0" d="M11.9,145.8H8.8c-0.3,0-0.6,0.2-0.8,0.5l-3.4,7.6L2,160.3H1.8l-2.4-5.5l-3.9-8.6c-0.1-0.2-0.3-0.5-0.6-0.5
			h-3.2c-0.3,0-0.5,0.2-0.5,0.5v18c0,0.3,0.2,0.5,0.5,0.5h2.2c0.3,0,0.4-0.2,0.4-0.5V156l-0.2-5.5h0.2l3,7l3.1,6.8
			c0.2,0.3,0.4,0.5,0.7,0.5h1.4c0.3,0,0.5-0.2,0.7-0.5l3.1-6.8l2.9-7h0.2L9.2,156v8.3c0,0.3,0.2,0.5,0.5,0.5h2.2
			c0.3,0,0.5-0.2,0.5-0.5v-18C12.4,146,12.2,145.8,11.9,145.8z"/>
		<path class="st0" d="M25.6,145.6c-5.5,0-9.8,4.1-9.8,9.8c0,5.6,4.3,9.8,9.8,9.8s9.8-4.1,9.8-9.8C35.4,149.7,31.1,145.6,25.6,145.6
			z M25.6,162.1c-3.9,0-6.6-2.9-6.6-6.8c0-3.9,2.7-6.8,6.6-6.8c3.9,0,6.6,2.9,6.6,6.8C32.2,159.2,29.5,162.1,25.6,162.1z"/>
		<path class="st0" d="M46.5,145.8h-7.1c-0.3,0-0.5,0.2-0.5,0.5v18c0,0.3,0.2,0.5,0.5,0.5h7.1c5.5,0,9.8-3.9,9.8-9.5
			C56.3,149.7,52,145.8,46.5,145.8z M46.5,161.8H42v-13h4.5c3.8,0,6.5,2.7,6.5,6.5C53.1,159.1,50.3,161.8,46.5,161.8z"/>
		<path class="st0" d="M75.8,145.8h-1.3c-0.3,0-0.5,0.1-0.5,0.5v7.6H62.2v-7.6c0-0.3-0.2-0.5-0.5-0.5h-1.4c-0.3,0-0.5,0.1-0.5,0.5
			v18.1c0,0.3,0.1,0.5,0.5,0.5h1.4c0.3,0,0.5-0.1,0.5-0.5V156H74v8.4c0,0.3,0.2,0.5,0.5,0.5h1.3c0.3,0,0.5-0.1,0.5-0.5v-18.1
			C76.2,146,76.1,145.8,75.8,145.8z"/>
		<path class="st0" d="M96.8,162c1.6-1.7,2.5-4,2.5-6.7c0-5.7-4.2-9.8-9.8-9.8c-5.5,0-9.8,4.1-9.8,9.8c0,5.6,4.3,9.8,9.8,9.8
			c2.1,0,4-0.6,5.6-1.7l1.8,1.9c0.2,0.2,0.5,0.2,0.7,0l0.9-0.8c0.2-0.2,0.2-0.4,0-0.7L96.8,162z M92.8,157.9c-0.2-0.2-0.5-0.2-0.6,0
			l-0.9,0.9c-0.2,0.2-0.2,0.5,0,0.7l2.3,2.4c-1.2,0.7-2.5,1.1-4.1,1.1c-4.3,0-7.5-3.3-7.5-7.6c0-4.4,3.1-7.7,7.5-7.7
			s7.5,3.3,7.5,7.7c0,2-0.7,3.7-1.8,5.1L92.8,157.9z"/>
	</g>
</g>
</svg>
