<?xml version="1.0" encoding="utf-8"?>
<!-- Generator: Adobe Illustrator 24.1.3, SVG Export Plug-In . SVG Version: 6.00 Build 0)  -->
<svg version="1.1" id="Layer_1" xmlns="http://www.w3.org/2000/svg" xmlns:xlink="http://www.w3.org/1999/xlink" x="0px" y="0px"
	 viewBox="0 0 1000 1000" style="enable-background:new 0 0 1000 1000;" xml:space="preserve">
<style type="text/css">
	.st0{fill:#6A4ECF;}
	.st1{fill:#AE9BF3;}
</style>
<g>
	<g>
		<path class="st0" d="M161.8,750.5c0-30.2,13.3-43.6,43.6-43.6h325.5c20.6,0,31.5-15.7,31.5-35.1c0-27.8-10.9-38.7-31.5-41.1
			l-30.1-4.2c-4.9,9.6-14.1,16-27.2,16H148.1c-30.2,0-43.6,13.3-43.6,43.6v141.6c0,30.2,13.3,43.6,43.6,43.6h13.7V750.5z"/>
		<path class="st0" d="M180.9,504.4c-12.4-26.5-19.1-59.3-19.1-99.9v-127c0-137.9,93.2-212.9,250.5-212.9h325.1v-21
			C737.3,13.3,724,0,693.8,0H355C197.7,0,104.6,75,104.6,212.9v127C104.6,423.6,132.7,474,180.9,504.4z"/>
	</g>
	<g>
		<path class="st1" d="M262.7,1000c-30.2,0-43.6-13.3-43.6-43.6V814.9c0-30.2,13.3-43.6,43.6-43.6h325.5c20.6,0,31.5-15.7,31.5-35.1
			c0-27.8-10.9-38.7-31.5-41.1l-181.5-25.4C293,652.8,219.2,604.4,219.2,468.9v-127C219.2,204,312.4,129,469.7,129h338.8
			c30.2,0,43.6,13.3,43.6,43.6v144c0,30.2-13.3,43.6-43.6,43.6H526.4c-20.6,0-32.7,14.5-32.7,36.3s12.1,36.3,32.7,38.7l180.3,24.2
			c113.7,16.9,188.7,65.3,188.7,200.8v127C895.4,925,801.1,1000,645,1000H262.7z"/>
	</g>
</g>
</svg>
