<?xml version="1.0" encoding="utf-8"?>
<!-- Generator: Adobe Illustrator 21.0.0, SVG Export Plug-In . SVG Version: 6.00 Build 0)  -->
<svg version="1.1" id="Layer_1" xmlns="http://www.w3.org/2000/svg" xmlns:xlink="http://www.w3.org/1999/xlink" x="0px" y="0px"
	 viewBox="0 0 420 164" style="enable-background:new 0 0 420 164;" xml:space="preserve">
<style type="text/css">
	.st0{fill:#EAC1C1;}
	.st1{fill:#DE8989;}
	.st2{fill:#F3DBD8;}
	.st3{fill:#CC7272;}
	.st4{fill:#A86060;}
</style>
<g>
	<g>
		<g>
			<path class="st0" d="M209.9,28c-4.3,1.1,27.3-2.2,46.2,15.7c17.3,16.4,32.3,27.6,43.7,32.4c54.5,22.9,97.3-3,80.5-20.6
				C351.2,24.9,276.2,10.6,209.9,28z"/>
		</g>
		<g>
			<path class="st1" d="M330.3,101.2v32.6h-0.1c-0.4,0-0.8-0.1-1.3-0.1c-0.8-0.1-1.5-0.1-2.2-0.2c-0.7-0.1-1.4-0.1-2.1-0.2
				c-0.9-0.1-1.8-0.2-2.6-0.3c-0.1,0-0.1,0-0.2,0c-1.1-0.1-2.2-0.3-3.2-0.4c-1.1-0.2-2.2-0.3-3.2-0.5c-1.1-0.2-2.1-0.4-3.1-0.6
				c-0.9-0.2-1.8-0.4-2.7-0.6c-1.7-0.4-3.3-0.8-4.8-1.3c-1.2-0.3-2.4-0.7-3.6-1.1c-0.7-0.2-1.4-0.5-2.1-0.7c-1-0.3-1.9-0.7-2.9-1.1
				c-0.4-0.1-0.8-0.3-1.2-0.5c-0.6-0.2-1.2-0.5-1.8-0.8c-1.4-0.6-2.8-1.3-4.2-1.9c-1.1-0.5-2.2-1.1-3.2-1.7c-0.1,0-0.1-0.1-0.2-0.1
				c-1-0.6-2-1.1-2.9-1.7c-1-0.6-2-1.2-3-1.9c-0.7-0.5-1.4-0.9-2.1-1.4c-0.2-0.2-0.5-0.3-0.8-0.5v0c-1.5-1.1-3-2.2-4.5-3.3
				c-0.1-0.1-0.2-0.2-0.3-0.3h0c-0.8-0.7-1.7-1.3-2.5-2c-0.9-0.8-1.8-1.5-2.7-2.3c-0.4-0.3-0.7-0.6-1.1-0.9
				c-3.3-2.9-6.4-5.9-9.5-8.9c-1.5-1.4-3-2.9-4.5-4.3c-0.1-0.1-0.1-0.1-0.2-0.2c-0.3-0.2-0.5-0.5-0.8-0.7c-0.6-0.6-1.3-1.3-2-1.9
				c-1.1-1-2.1-2-3.1-3c-0.1-0.1-0.3-0.2-0.4-0.4c-0.4-0.4-0.9-0.9-1.3-1.2c-0.1-0.1-0.3-0.2-0.4-0.4c-0.4-0.4-0.9-0.8-1.3-1.2
				c-3.5-3.2-6.8-6-10-8.4c0,0-0.1,0-0.1-0.1c-0.5-0.3-0.9-0.6-1.4-1c-0.1-0.1-0.2-0.1-0.3-0.2c-0.4-0.2-0.8-0.5-1.1-0.7
				c-0.4-0.2-0.7-0.5-1.1-0.7c-0.2-0.2-0.5-0.3-0.7-0.4c-0.2-0.1-0.4-0.2-0.7-0.4c-0.5-0.3-0.9-0.5-1.4-0.7
				c-0.4-0.2-0.9-0.5-1.3-0.7c-0.1,0-0.1-0.1-0.2-0.1c0,0-0.1,0-0.1-0.1c-0.2-0.1-0.4-0.2-0.7-0.3V49.3c0-0.4,0-0.9,0-1.3
				c0-0.3,0.1-0.7,0.1-1v0c0.1-0.6,0.2-1.2,0.3-1.8c0.1-0.3,0.1-0.6,0.2-0.9c0.1-0.3,0.2-0.5,0.3-0.8c0.5-1.5,1.3-2.8,2.2-3.9
				c0.1-0.1,0.2-0.3,0.4-0.4c0.1-0.1,0.2-0.2,0.3-0.4c0.1-0.1,0.1-0.1,0.2-0.2c0.1-0.1,0.2-0.2,0.3-0.3c0.1-0.1,0.2-0.2,0.3-0.3
				c0.4-0.4,0.9-0.8,1.4-1.1c0.6-0.4,1.2-0.7,1.9-1h0c0.5-0.2,1-0.3,1.5-0.4c0.3-0.1,0.6-0.1,0.9-0.2c0.5-0.1,1.1-0.1,1.6-0.1
				c0.1,0,0.3,0,0.4,0c0.2,0,0.4,0,0.6,0.1c0.1,0,0.3,0,0.4,0.1c0,0,0,0,0.1,0c0.2,0,0.3,0.1,0.5,0.1c0.2,0,0.3,0.1,0.5,0.1
				c0.3,0.1,0.6,0.2,0.9,0.3c0.2,0.1,0.4,0.1,0.5,0.2c0.5,0.2,1,0.4,1.4,0.8c0.2,0.1,0.4,0.3,0.6,0.4c0,0,0.1,0,0.1,0.1
				c0.3,0.2,0.6,0.5,0.9,0.8c0.3,0.3,0.6,0.6,0.9,0.9c0.3,0.3,0.5,0.6,0.8,0.9c1.5,1.9,2.9,4.4,3.9,7.7c0.1,0.4,0.3,0.8,0.4,1.2
				c0.1,0.3,0.2,0.6,0.3,1c0.1,0.3,0.2,0.7,0.2,1c0.1,0.4,0.2,0.9,0.3,1.3c0.1,0.4,0.2,0.9,0.2,1.3c0.1,0.5,0.2,1.1,0.2,1.6
				c0.1,0.3,0.1,0.6,0.1,1c0.1,0.9,0.2,1.8,0.2,2.7c0,0.6,0.1,1.1,0.1,1.7c0,0.4,0,0.8,0,1.2c0,0.4,0,0.8,0,1.2v-1
				c0-0.9,0.1-1.8,0.2-2.6c0.1-0.4,0.1-0.7,0.2-1.1c0.1-0.3,0.1-0.6,0.2-0.9c0.1-0.2,0.1-0.4,0.2-0.6c0.1-0.3,0.2-0.5,0.3-0.8
				c0.4-1.1,0.9-2,1.5-2.9c0.1-0.2,0.2-0.4,0.4-0.5c0,0,0-0.1,0.1-0.1c0-0.1,0.1-0.1,0.1-0.1c0,0,0,0,0,0c0.2-0.3,0.4-0.5,0.7-0.8
				c0.2-0.2,0.4-0.5,0.7-0.7c0.2-0.2,0.5-0.4,0.7-0.6c0.1-0.1,0.3-0.2,0.4-0.3c0,0,0,0,0,0c0.4-0.3,0.7-0.5,1.1-0.7c0,0,0,0,0,0
				c0.5-0.3,1.1-0.5,1.7-0.7c0.3-0.1,0.5-0.2,0.8-0.2c0,0,0,0,0,0c0.3-0.1,0.5-0.1,0.8-0.2c0.2,0,0.3-0.1,0.5-0.1c0,0,0,0,0,0
				c0.1,0,0.2,0,0.2,0c0.9-0.1,1.7,0,2.6,0.1c0.3,0,0.6,0.1,0.9,0.2c0.2,0.1,0.4,0.1,0.6,0.2c0.4,0.1,0.7,0.3,1.1,0.4
				c0.3,0.1,0.6,0.3,0.9,0.4c0.3,0.1,0.5,0.3,0.8,0.5c0.3,0.2,0.6,0.4,0.9,0.7l0,0c0.3,0.2,0.5,0.5,0.8,0.7c0.2,0.2,0.4,0.4,0.7,0.7
				c0.1,0.1,0.2,0.2,0.2,0.3c0.2,0.3,0.5,0.5,0.7,0.9c0.2,0.3,0.4,0.6,0.6,0.9c0.5,0.8,1.1,1.7,1.5,2.7c0.1,0.1,0.1,0.3,0.2,0.4
				c0,0,0.1,0.1,0,0.1c0,0,0,0.1,0,0.1c0.1,0.1,0.1,0.3,0.2,0.4c0.1,0.1,0.1,0.3,0.2,0.4c0.1,0.3,0.3,0.7,0.4,1.1
				c0.1,0.3,0.2,0.6,0.3,0.9v0h0c0,0.1,0,0.2,0.1,0.2c0,0,0,0.1,0,0.1c0,0.1,0.1,0.2,0.1,0.4c0.1,0.3,0.2,0.6,0.3,0.9
				c0.1,0.3,0.2,0.6,0.2,0.9c0.1,0.4,0.2,0.8,0.3,1.2c0.1,0.4,0.2,0.9,0.3,1.4c0.1,0.6,0.2,1.2,0.3,1.7c0.1,0.5,0.1,1,0.2,1.5
				c0.2,2.2,0.4,4.6,0.4,7.2v-1c0-0.5,0-1.1,0.1-1.6c0-0.3,0.1-0.7,0.1-1c0-0.2,0-0.3,0.1-0.5c0.3-1.9,1-3.7,1.8-5.2
				c0.4-0.8,0.9-1.4,1.5-2v0c0.3-0.3,0.5-0.6,0.8-0.8c0.3-0.3,0.6-0.5,0.9-0.8c0.2-0.1,0.4-0.3,0.6-0.4c0,0,0,0,0,0
				c0.2-0.1,0.4-0.3,0.6-0.4c0.3-0.2,0.6-0.3,0.9-0.5c0.2-0.1,0.5-0.2,0.8-0.3c0,0,0.1,0,0.1,0c0.6-0.2,1.2-0.3,1.8-0.4c0,0,0,0,0,0
				c0.2,0,0.3-0.1,0.5-0.1c0.3,0,0.6-0.1,0.9-0.1c0.6,0,1.2,0,1.8,0.2c0.3,0,0.6,0.1,0.9,0.2c0.5,0.1,0.9,0.3,1.4,0.5
				c0.2,0.1,0.4,0.2,0.6,0.3c0.9,0.5,1.8,1.1,2.7,1.9c0.2,0.1,0.3,0.3,0.5,0.5c0.6,0.6,1.2,1.3,1.8,2.2c0.2,0.2,0.3,0.5,0.5,0.7
				c0.2,0.3,0.4,0.6,0.5,0.9c0.7,1.2,1.3,2.5,1.8,4c0.1,0.4,0.3,0.8,0.4,1.2c0.4,1.2,0.8,2.6,1,4v0c0,0,0,0,0,0
				c0.1,0.3,0.1,0.6,0.2,1c0,0.1,0,0.2,0,0.2c0.1,0.5,0.2,1.1,0.3,1.7c0.1,0.7,0.2,1.4,0.2,2.2c0,0.2,0,0.5,0.1,0.8
				c0,0.5,0.1,1,0.1,1.6c0,0.3,0,0.7,0,1.1c0,0.9,0.1,1.8,0.1,2.8v-1c0-0.5,0-0.9,0-1.4c0-0.4,0.1-0.8,0.1-1.2
				c0.1-0.9,0.3-1.8,0.6-2.6c0.1-0.3,0.2-0.5,0.3-0.8c0.1-0.2,0.2-0.5,0.3-0.7c0.1-0.2,0.2-0.5,0.3-0.7c0,0,0,0,0-0.1
				c0-0.1,0-0.1,0.1-0.2c0.1-0.1,0.1-0.2,0.2-0.3c0-0.1,0.1-0.1,0.1-0.2c0-0.1,0.1-0.1,0.1-0.1c0,0,0,0,0,0c0.1-0.2,0.2-0.3,0.3-0.5
				c0.1-0.2,0.3-0.4,0.4-0.6c0.2-0.3,0.4-0.5,0.6-0.8c0.2-0.3,0.5-0.5,0.8-0.8c0.3-0.3,0.6-0.5,0.9-0.8c0.3-0.2,0.6-0.5,1-0.7
				c0.4-0.2,0.8-0.4,1.2-0.6c0.1,0,0.2-0.1,0.3-0.1c0,0,0,0,0,0c0.1,0,0.2-0.1,0.3-0.1c0.8-0.3,1.6-0.5,2.4-0.6
				c0.4,0,0.8-0.1,1.1-0.1c0.3,0,0.5,0,0.8,0c0.2,0,0.3,0,0.5,0.1c0.2,0,0.4,0,0.5,0.1c0.2,0,0.5,0.1,0.7,0.2
				c0.3,0.1,0.5,0.1,0.8,0.2c0.2,0.1,0.4,0.2,0.7,0.3c0.2,0.1,0.4,0.2,0.7,0.3c0.9,0.4,1.7,1,2.6,1.8c0.2,0.2,0.4,0.3,0.5,0.5
				c1.5,1.5,2.9,3.5,4.1,6.1c0.2,0.3,0.3,0.7,0.4,1.1c0,0,0,0,0,0h0c0,0,0,0,0,0c0,0,0,0,0,0c0.2,0.4,0.3,0.9,0.5,1.3
				c0.1,0.2,0.2,0.4,0.2,0.7c0.1,0.3,0.2,0.6,0.3,1c0.2,0.6,0.3,1.2,0.4,1.8c0.1,0.4,0.2,0.8,0.3,1.3c0.1,0.6,0.2,1.1,0.3,1.7
				c0.1,0.6,0.2,1.3,0.3,2.1c0.1,0.6,0.1,1.2,0.2,1.7c0.1,0.6,0.1,1.3,0.1,1.9v0.1c0,0.6,0,1.1,0.1,1.7
				C330.3,100,330.3,100.6,330.3,101.2z"/>
		</g>
		<g>
			<g>
				<path class="st2" d="M274.6,60c1.3,4.1,2.2,9.2,2.2,15.7v-1c0-4.3,1.4-7.8,3.6-10.3C278.5,63.1,276.6,61.6,274.6,60z"/>
			</g>
			<g>
				<path class="st2" d="M303.5,88.5v-1c0-3.5,1-6.6,2.5-8.9c-1.2-0.4-2.4-0.9-3.6-1.3C303.1,80.4,303.5,84.1,303.5,88.5z"/>
			</g>
			<g>
				<path class="st2" d="M395.9,65.9c0-0.6,0-1.3-0.1-1.9c0-0.4,0-0.8-0.1-1.2c0-0.2,0-0.5-0.1-0.8c-0.1-1-0.3-2-0.6-2.9
					c-0.1-0.5-0.3-1-0.4-1.5c-0.1-0.3-0.2-0.7-0.3-1c-0.1-0.3-0.2-0.7-0.4-1c-0.2-0.4-0.3-0.8-0.5-1.2c-0.1-0.2-0.2-0.4-0.3-0.6
					c-0.1-0.3-0.3-0.6-0.5-1c-0.2-0.4-0.4-0.9-0.7-1.3c-0.1-0.2-0.2-0.4-0.4-0.6c-0.5-0.9-1.1-1.7-1.7-2.5c-0.4-0.5-0.7-1-1.1-1.5
					c-2.2-2.7-4.8-5.3-7.8-7.7c-0.5-0.4-1-0.8-1.4-1.1c-4-3-8.6-5.8-13.8-8.3c-9.4-4.6-20.5-8.4-32.6-11.4c-3.1-0.8-6.4-1.5-9.6-2.2
					c-0.2,0-0.3-0.1-0.5-0.1c-1.1-0.2-2.2-0.4-3.2-0.6c-1.1-0.2-2.3-0.4-3.4-0.6c-1.2-0.2-2.3-0.4-3.5-0.6c-1.2-0.2-2.3-0.4-3.5-0.5
					c-1.2-0.2-2.5-0.4-3.7-0.5c-2.3-0.3-4.5-0.6-6.8-0.9c-4.6-0.5-9.2-1-13.7-1.3c-0.3,0-0.6,0-0.9-0.1c-1.3-0.1-2.7-0.2-4-0.2
					c-0.9-0.1-1.7-0.1-2.6-0.1c-7.9-0.4-15.8-0.4-23.4-0.2c-2.6,0.1-5.2,0.2-7.7,0.3c-3.4,0.2-6.7,0.5-9.9,0.8c-0.1,0-0.1,0-0.2,0
					c-1.2,0.1-2.3,0.2-3.4,0.4c-2.7,0.3-5.3,0.7-7.9,1.1c-0.8,0.1-1.5,0.2-2.3,0.4c-4.3,0.8-8.5,1.6-12.3,2.7
					c-1,0.3-1.9,0.5-2.8,0.8c-7.7,2.3-11.1,5.9-11.1,9.7V53c0,2.1-0.1,4.1,0,6c0,0.2,0.1,0.5,0.1,0.7c0.2,1,0.4,1.9,0.9,2.7
					c0.1,0.2,0.2,0.4,0.3,0.6c0.4,0.6,0.9,1.2,1.6,1.7c0.3,0.2,0.5,0.4,0.9,0.6c0.3,0.2,0.6,0.4,1,0.5c1.4,0.7,3.3,1.3,5.7,1.7
					c3.5,0.5,6.9,1.2,10.3,2c2.1,0.5,4.3,1.4,6.6,2.7c0.5,0.3,0.9,0.5,1.4,0.8c0-0.2,0-0.3,0-0.5c-0.4-0.2-0.9-0.5-1.3-0.7
					c-0.1,0-0.1-0.1-0.2-0.1c0,0-0.1,0-0.1-0.1c-0.2-0.1-0.4-0.2-0.7-0.3V49.3c0-0.4,0-0.9,0-1.3c0-0.3,0.1-0.7,0.1-1c0,0,0,0,0,0v0
					c0.1-0.6,0.2-1.2,0.3-1.8c0.1-0.3,0.1-0.6,0.2-0.9c0.1-0.3,0.2-0.5,0.3-0.8c0.5-1.5,1.3-2.8,2.2-3.9c0.1-0.1,0.2-0.3,0.4-0.4
					c0-0.1,0.1-0.1,0.1-0.2c0.1-0.1,0.1-0.1,0.2-0.2c0.1-0.1,0.1-0.1,0.2-0.2c0.1-0.1,0.2-0.2,0.3-0.3c0.1-0.1,0.2-0.2,0.3-0.3
					c0.4-0.4,0.9-0.8,1.4-1.1c0.6-0.4,1.2-0.7,1.9-1h0c0.5-0.2,1-0.3,1.5-0.4c0.3-0.1,0.6-0.1,0.9-0.2c0.5-0.1,1.1-0.1,1.6-0.1
					c0.1,0,0.3,0,0.4,0c0.2,0,0.4,0,0.6,0.1c0.1,0,0.3,0,0.4,0.1c0,0,0,0,0.1,0c0.2,0,0.3,0.1,0.5,0.1c0.2,0,0.3,0.1,0.5,0.1
					c0.3,0.1,0.6,0.2,0.9,0.3c0.2,0.1,0.4,0.1,0.5,0.2c0.5,0.2,1,0.4,1.4,0.8c0.2,0.1,0.4,0.3,0.6,0.4c0,0,0.1,0,0.1,0.1
					c0.3,0.2,0.6,0.5,0.9,0.8c0.3,0.3,0.6,0.6,0.9,0.9c0.3,0.3,0.5,0.6,0.8,0.9c1.5,1.9,2.9,4.4,3.9,7.7c0.2,0.7,0.4,1.4,0.6,2.2
					c0.1,0.3,0.2,0.7,0.2,1c0.1,0.4,0.2,0.9,0.3,1.3c0.1,0.4,0.2,0.9,0.2,1.3c0.1,0.5,0.2,1.1,0.2,1.6c0.1,0.3,0.1,0.6,0.1,1
					c0.1,0.9,0.2,1.8,0.2,2.7c0,0.6,0.1,1.1,0.1,1.7c0,0.4,0,0.8,0,1.2c0,0.4,0,0.8,0,1.2v-1c0-0.9,0.1-1.8,0.2-2.6
					c0.1-0.4,0.1-0.7,0.2-1.1c0.1-0.3,0.1-0.6,0.2-0.9c0.1-0.2,0.1-0.4,0.2-0.6c0.1-0.3,0.2-0.5,0.3-0.8c0.4-1.1,0.9-2,1.5-2.9
					c0.1-0.2,0.2-0.4,0.4-0.5c0,0,0-0.1,0.1-0.1c0-0.1,0.1-0.1,0.1-0.1c0,0,0,0,0,0c0.2-0.3,0.4-0.5,0.7-0.8
					c0.2-0.2,0.4-0.5,0.7-0.7c0.2-0.2,0.5-0.4,0.7-0.6c0.1-0.1,0.3-0.2,0.4-0.3c0,0,0,0,0,0c0.4-0.3,0.7-0.5,1.1-0.7c0,0,0,0,0,0
					c0.5-0.3,1.1-0.5,1.7-0.7c0.3-0.1,0.5-0.2,0.8-0.2c0,0,0,0,0,0c0.3-0.1,0.5-0.1,0.8-0.2c0.2,0,0.3-0.1,0.5-0.1
					c-0.1-0.1-0.2-0.2-0.3-0.3h0c-1.4-1.3-2.7-2.6-4.2-3.9c-0.5-0.5-1-1-1.6-1.4c-0.5-0.4-1-0.8-1.5-1.2c-0.4-0.3-0.9-0.6-1.3-1
					c-0.1,0-0.1-0.1-0.2-0.1c-0.2-0.2-0.5-0.3-0.7-0.5c-0.2-0.1-0.5-0.3-0.7-0.5c-0.2-0.2-0.5-0.3-0.7-0.4c-0.5-0.3-0.9-0.6-1.4-0.9
					c-0.3-0.2-0.6-0.4-0.9-0.5c-1.6-0.9-3.2-1.7-4.8-2.4h0c0,0,0,0,0,0c-0.7-0.3-1.5-0.6-2.2-0.9c-0.5-0.2-1.1-0.4-1.6-0.6
					c-0.2-0.1-0.4-0.1-0.5-0.2h0c-0.1,0-0.3-0.1-0.4-0.1c-0.3-0.1-0.6-0.2-1-0.3c-0.4-0.1-0.9-0.3-1.3-0.4c-0.5-0.2-1.1-0.3-1.6-0.5
					c-0.3-0.1-0.6-0.2-1-0.3c-0.3-0.1-0.6-0.2-1-0.2c-0.4-0.1-0.7-0.2-1.1-0.3c-0.6-0.1-1.1-0.3-1.7-0.4c-0.3-0.1-0.6-0.1-0.9-0.2
					c-0.3-0.1-0.6-0.1-1-0.2c-0.5-0.1-1-0.2-1.5-0.3c-0.3-0.1-0.7-0.1-1.1-0.2c-0.8-0.1-1.7-0.2-2.5-0.4c-1.1-0.1-2.1-0.3-3.1-0.4
					c-0.7-0.1-1.4-0.1-2.1-0.2c-0.3,0-0.5,0-0.8-0.1c-0.5,0-1-0.1-1.5-0.1c-0.2,0-0.5,0-0.7,0c-0.3,0-0.7,0-1-0.1
					c-0.2,0-0.3,0-0.5,0c-0.6,0-1.2-0.1-1.6-0.1c-0.1,0-0.2,0-0.3,0c-0.3,0-0.5,0-0.6-0.1c-0.1,0-0.1,0-0.1,0c0,0,0,0,0,0s0,0,0-0.1
					c0,0,0.2-0.1,0.4-0.1c1.4-0.4,2.8-0.7,4.2-1.1c1.1-0.3,2.1-0.5,3.2-0.7c1.2-0.3,2.4-0.5,3.6-0.8c1.3-0.3,2.5-0.5,3.8-0.8
					c0.8-0.2,1.6-0.3,2.4-0.4c0.9-0.2,1.7-0.3,2.6-0.5c0.3-0.1,0.7-0.1,1-0.2c0.7-0.1,1.4-0.2,2.1-0.3c2.3-0.4,4.6-0.7,6.9-1
					c0.3,0,0.6-0.1,0.9-0.1c2.4-0.3,4.9-0.5,7.3-0.8c2-0.2,4-0.3,5.9-0.4c0.4,0,0.9-0.1,1.3-0.1c1.2-0.1,2.3-0.1,3.5-0.2
					c1.2-0.1,2.4-0.1,3.5-0.1c2.5-0.1,5-0.1,7.4-0.1c1.6,0,3.2,0,4.8,0.1h0.5c0.9,0,1.8,0,2.8,0.1c0.1,0,0.3,0,0.4,0
					c0.1,0,0.2,0,0.4,0c1.2,0,2.4,0.1,3.6,0.2c1.4,0.1,2.8,0.1,4.3,0.2c1.7,0.1,3.3,0.2,5,0.4c1.4,0.1,2.8,0.3,4.2,0.4
					c1,0.1,1.9,0.2,2.9,0.3c0.2,0,0.3,0,0.5,0.1c0.6,0.1,1.3,0.2,1.9,0.3c1,0.1,2,0.3,3,0.4c1.4,0.2,2.7,0.4,4.1,0.6
					c1.4,0.2,2.7,0.4,4,0.7c1.5,0.3,3,0.6,4.5,0.9c0.9,0.2,1.8,0.4,2.7,0.6c0.3,0.1,0.6,0.1,1,0.2c1,0.2,1.9,0.4,2.9,0.7
					c0.2,0.1,0.5,0.1,0.8,0.2c1.3,0.3,2.5,0.6,3.7,1c0.9,0.2,1.8,0.5,2.7,0.8c0.5,0.2,1.1,0.3,1.6,0.5c0.9,0.3,1.8,0.5,2.7,0.8
					c2.1,0.6,4.1,1.3,6.1,2.1c0,0,0.1,0,0.1,0c0.7,0.2,1.4,0.5,2.1,0.8c3.6,1.3,7.1,2.8,10.4,4.4c0.8,0.4,1.6,0.8,2.5,1.2
					c1.4,0.7,2.8,1.4,4.1,2.1c1.3,0.7,2.6,1.5,3.9,2.2h0c0.8,0.5,1.6,1,2.4,1.5c0.2,0.1,0.5,0.3,0.7,0.5c0.5,0.3,1.1,0.7,1.6,1.1
					c0.2,0.1,0.4,0.3,0.6,0.4c0.4,0.3,0.9,0.6,1.3,0.9l0.1,0.1c0.6,0.4,1.1,0.8,1.7,1.3c0.9,0.7,1.8,1.4,2.6,2.1
					c0.3,0.2,0.6,0.5,0.9,0.8c0.3,0.2,0.6,0.5,0.9,0.8c0.6,0.5,1.2,1.1,1.7,1.6c0.7,0.6,1.3,1.3,2,2c0.3,0.3,0.6,0.7,0.9,1
					c0.3,0.3,0.5,0.7,0.8,1c0.5,0.7,0.9,1.4,1.2,2.1c0.1,0.3,0.3,0.7,0.4,1c0.1,0.3,0.2,0.5,0.2,0.8c0,0.2,0.1,0.3,0.1,0.5
					c0,0,0,0.1,0,0.1c0.1,0.2,0.1,0.5,0.1,0.7c0,0.3,0.1,0.7,0.1,1.1c0,0.2,0,0.5,0,0.7c0,0,0,0,0,0.1c0,0,0,0.1,0,0.1
					c0,0.1,0,0.3,0,0.4c0,0.1,0,0.1,0,0.1v0c0,0.2,0,0.3-0.1,0.4c0,0.1-0.1,0.3-0.1,0.4c0,0.2,0,0.3-0.1,0.4
					c-0.1,0.4-0.2,0.7-0.3,1.1c0,0.2-0.1,0.3-0.2,0.5c0,0,0,0.1,0,0.1c-0.1,0.1-0.1,0.3-0.2,0.4c0,0.1,0,0.1-0.1,0.1
					c0,0.1-0.1,0.2-0.1,0.3c0,0,0,0.1-0.1,0.1c-0.1,0.2-0.2,0.5-0.4,0.7c-0.2,0.3-0.3,0.5-0.5,0.8c0,0,0,0.1-0.1,0.1
					c-0.2,0.3-0.3,0.5-0.5,0.8c-0.1,0.1-0.2,0.2-0.2,0.3c-0.1,0.1-0.1,0.2-0.2,0.2c-0.4,0.5-0.9,1-1.4,1.5c-0.1,0.1-0.2,0.2-0.3,0.3
					c-0.1,0.1-0.1,0.1-0.2,0.2c-0.2,0.2-0.5,0.5-0.7,0.7c0,0,0,0-0.1,0.1c-0.1,0.1-0.1,0.1-0.2,0.2c-0.3,0.2-0.5,0.4-0.8,0.7l0,0
					c-0.1,0.1-0.1,0.1-0.2,0.2c-0.5,0.4-1,0.7-1.5,1c-0.2,0.1-0.4,0.3-0.6,0.4c-0.3,0.2-0.6,0.4-1,0.6c-0.4,0.3-0.9,0.5-1.4,0.8
					c-0.9,0.5-1.9,1-2.9,1.4c0,0,0,0,0,0c-0.9,0.4-1.9,0.8-2.9,1.2c-0.6,0.2-1.3,0.5-2,0.7c-0.7,0.2-1.4,0.4-2.1,0.6
					c-0.1,0-0.2,0-0.3,0.1c-0.1,0-0.2,0.1-0.3,0.1c-0.3,0.1-0.7,0.2-1,0.3c-0.9,0.2-1.9,0.5-2.9,0.7c-1,0.2-2,0.4-3,0.6c0,0,0,0,0,0
					c-0.1,0-0.2,0-0.3,0c-0.5,0.1-1,0.2-1.4,0.2c-0.3,0-0.6,0.1-1,0.1c-0.1,0-0.3,0.1-0.5,0.1c-0.9,0.1-1.8,0.2-2.7,0.3
					c-0.4,0-0.8,0.1-1.1,0.1c-0.1,0-0.1,0-0.2,0c-0.4,0-0.7,0-1.1,0.1c-0.5,0-1,0-1.4,0.1c-0.5,0-1,0-1.5,0c-0.9,0-1.7,0-2.6,0
					c-0.9,0-1.8,0-2.7-0.1c-0.5,0-1.1,0-1.6-0.1c-0.1,0-0.2,0-0.3,0c-0.1,0-0.2,0-0.2,0h-0.1c0,0-0.1,0-0.2,0c-0.1,0-0.2,0-0.4,0
					c-0.3,0-0.6,0-0.9,0c-0.1,0-0.1,0-0.2,0c-1.4-0.1-2.8-0.3-4.2-0.4c-0.3,0-0.6-0.1-0.9-0.1c-0.7-0.1-1.3-0.2-2-0.3c0,0,0,0,0,0h0
					c0,0,0,0,0,0c0,0,0,0,0,0c0.2,0.4,0.3,0.9,0.5,1.3c0.1,0.2,0.2,0.4,0.2,0.7c0.1,0.3,0.2,0.6,0.3,1c0.2,0.6,0.3,1.2,0.4,1.8
					c0.1,0.4,0.2,0.8,0.3,1.3c0.1,0.6,0.2,1.1,0.3,1.7c0.1,0.6,0.2,1.3,0.3,2.1c0.1,0.6,0.1,1.2,0.2,1.7c0.1,0.6,0.1,1.3,0.1,1.9
					v0.1c0,0.6,0,1.1,0.1,1.7c0,0.6,0,1.2,0,1.7v32.6h-0.1v2.1c0.8,0,1.7,0,2.6,0c2,0,4-0.1,6-0.2c0.6,0,1.2-0.1,1.8-0.1
					c3.5-0.2,7-0.6,10.4-1.2c0.5-0.1,1.1-0.2,1.6-0.3c4.7-0.8,9.2-1.8,13.5-3.1c0.4-0.1,0.7-0.2,1.1-0.3c0.8-0.2,1.5-0.5,2.3-0.8
					c0.8-0.3,1.5-0.5,2.2-0.8c0.8-0.3,1.5-0.6,2.2-0.9c0,0,0,0,0,0c0.5-0.2,1-0.4,1.4-0.6c4.2-1.9,8-4.2,11.1-6.8
					c0.5-0.4,1-0.9,1.4-1.3c1-0.9,1.9-1.8,2.7-2.8c0.4-0.5,0.8-1,1.1-1.5c0.3-0.4,0.6-0.8,0.8-1.2c0.4-0.7,0.8-1.4,1.2-2.1
					c0.2-0.3,0.3-0.6,0.5-1c0.1-0.2,0.2-0.5,0.3-0.7c0.2-0.5,0.4-0.9,0.5-1.4c0.2-0.6,0.3-1.2,0.5-1.7c0,0,0-0.1,0-0.3v-0.1
					c0-0.2,0.1-0.3,0.1-0.4c0.2-1,0.3-2,0.3-3c0-0.4,0-0.8,0-1.2V69.6C396,68.4,395.9,67.2,395.9,65.9z"/>
			</g>
		</g>
	</g>
	<g>
		<path class="st0" d="M395.9,101.9c0,0.2-0.3,3.7-0.4,4.7c0,0.2,0,0.2,0,0.3c-4.2,19-33.8,28.4-62.7,28.9c-0.9,0-1.7,0-2.6,0V99.4
			l0.1,0l3,1.2C333.2,100.6,363.2,143.5,395.9,101.9z"/>
	</g>
	<g>
		<path class="st0" d="M225.7,73c-0.5-0.3-0.9-0.5-1.4-0.8c-2.3-1.3-4.5-2.2-6.6-2.7c-3.4-0.8-6.8-1.4-10.3-2
			c-12-2-10.5-8.1-10.5-14.5V36.1l1.8-0.3c0.8,0.9,22.5,3.5,24.8,11.2v0c0.2,0.9,0.5,16.5,0.8,17.4c0.8,2.6,1.3,5.3,1.3,8.2
			C225.7,72.7,225.7,72.8,225.7,73z"/>
	</g>
	<path class="st0" d="M215.1,18.7c-1.9,0.9-3.8,1.7-5.8,2.5c-2.6,1.1-3.7,2.5-3.6,5.1c0.1,2.4,3.6,3.2,5.5,4
		c4.5,1.9,9.1,1.2,13.9,1.4c3.1,0.1,5.4,1.1,8.2,2.1c6.5,2.2,13,3.1,19.2,6.3c2.7,1.4,5.8,3,5.8,6.5c-0.1,3.7-4.4,3.6-6.2,5.9
		c-3.3-0.9-3.5-5.3-4.8-7.9c-1.2-2.2-2.2-4.9-4.7-5.6c-3.2-0.9-6.9-1.5-10.2-1.7c-1.5-0.1-3.2,0-4.6,0.5c-1.4,0.5-1.6,1.3-2.8,2.2
		c-1.4,1.1-4.2,0.7-6.2,0.7c-4.9,0-9.3-0.7-14-1.9c-3.5-0.9-7.4-3.3-8.4-7.1c-1.4-5,0.9-7.6,4.7-10.3c4.4-3.2,10.9-3.8,16-5.2
		c2.5-0.7,5.1-1.1,7.7-1.4c1.8-0.2,4.8-1.1,7-0.8c-3.9-0.2-8.8,1.4-12.4,2.9C218.2,17.3,216.6,18,215.1,18.7z"/>
	<g>
		<g>
			<path class="st3" d="M305.7,116.3c0,4.1,2.3,12.9-1.8,12.9c-0.7,0-5.4-1.8-7.8-2.7c-0.4-0.1-0.8-0.3-1.2-0.5
				c-0.6-0.2-1.2-0.5-1.8-0.8c-1.4-0.6-2.8-1.3-4.2-1.9c-1.1-0.5-2.2-1.1-3.2-1.7c-0.1,0-0.1-0.1-0.2-0.1c-1-0.6-2-1.1-2.9-1.7
				c-1-0.6-2-1.2-3-1.9c-0.7-0.5-1.4-0.9-2.1-1.4c1.3-2.6,1.4-5.3,1.7-5.3c0.2,0,8.8,6.3,12.8,6.3c5.7,0,5.3-8.2,5.4-12.4
				c0.2-8.5,0.7-16.2-0.2-24.7c-0.2-2.3-0.8-4.5-1.7-6.5c-1.3-2.8-3.5-5.1-6.8-6.2c-1.3-0.4-2.4-0.4-3.5,0c-3.3,1.2-5.3,6-5.8,10.4
				c-0.1-1.7-0.2-3.3-0.2-4.9c0-3.4,0.8-6.2,1.9-8.4c0.5-1,1.1-1.8,1.7-2.5c0,0,0,0,0,0c1.7-2,3.7-3,5.3-3c1.9,0,12.1,1.6,13,12.6
				c0.1,0.5,0.1,1.1,0.1,1.6c0,1,0,1.9,0,2.8v0.2C301.2,84.5,305.7,96.5,305.7,116.3z"/>
		</g>
		<g>
			<path class="st3" d="M252.7,76.4c0,8.8,1.4,16.2-2.2,16.4c-0.1-0.1-5-4.8-5.1-4.9c-0.4-0.4-0.9-0.9-1.3-1.2
				c-0.1-0.1-0.3-0.2-0.4-0.4c-0.4-0.4-0.9-0.8-1.3-1.2c-3.5-3.2-6.8-6-10-8.4c-0.2-0.3-0.4-0.6-0.5-0.8c-2.3-2.7-6.7-2.3-6.7-5.7
				c0-8.5,7.2,2.8,13.7,2.8c4.5,0,5-9.5,5-14.1c0-10-6.3-17-10.9-17c-4.6,0-7.2,4.5-7.2,8.6c0,0.5,0,1,0.1,1.4
				c0-0.1-0.1-0.1-0.2-0.1c-0.5,0-0.5-2.9-0.5-3.4c0-5.6,3-10,6.3-12.6c2.3-1.9,4.8-2.9,6.4-2.9h0.2c1.6,0,3.1,0.7,4.4,1.8h0
				c4.8,4,7.4,13.7,8.8,21.3c0.2,0.9,0.3,1.7,0.4,2.6c0.3,1.7,0.4,3.3,0.6,4.5c0.1,1.4,0.2,2.4,0.2,2.9
				C252.3,69.1,252.7,72.8,252.7,76.4z"/>
		</g>
		<g>
			<path class="st3" d="M331.3,123.9c0,1-0.4,2.3-1,3.7c0,0.1,0,0.1-0.1,0.2c-0.8,1.8-2,3.7-3.5,5.7c-0.7-0.1-1.4-0.1-2.1-0.2
				c-0.9-0.1-1.8-0.2-2.6-0.3c-0.1,0-0.1,0-0.2,0c-1.1-0.1-2.2-0.3-3.2-0.4c-1.1-0.2-2.2-0.3-3.2-0.5c-1.1-0.2-2.1-0.4-3.1-0.6
				c-0.9-0.2-1.8-0.4-2.7-0.6c-1.7-0.4-3.3-0.8-4.8-1.3c0-2.3,1.2-4,4-4c15.9,0,15.9-5.7,15.9-21.7c0-6.6,0.2-15.5-2.6-20.8
				c-1.5-2.8-3.8-4.7-7.4-4.7c-2.1,0-3.5,0.5-4.6,1.5c-1.5,1.3-2.4,3.3-3.7,5.7c-0.1,0.1-0.1,0.2-0.1,0.2c0,0.2,0.1,0.3,0.1,0.5
				c-0.3,1.1-0.8,2-1.5,2.9c-0.1-1.1-0.1-2.3-0.1-3.5c0-2.6,0.3-4.8,1-6.6c0,0,0-0.1,0-0.1c0,0,0,0,0,0c0-0.2,0.1-0.4,0.2-0.5h0
				c1.5-3.5,4.6-5.4,9.9-5.4c6.6,0,12.7,4.3,13.7,11.2v0c0.1,0.4,0.1,0.8,0.1,1.2l0.5,12.1v0.1l0.1,1.7L331.3,123.9z"/>
		</g>
		<g>
			<path class="st3" d="M278.6,102.1c0,3.7-0.8,6.2-1.8,7.8c-1.2,1.8-0.4,5.1-1.6,5.1l-3.2-2.6c-0.8-0.7-1.7-1.3-2.5-2
				c-0.9-0.8-1.8-1.5-2.7-2.3c-0.4-0.3-0.7-0.6-1.1-0.9c-3.3-2.9-6.4-5.9-9.5-8.9c-1.5-1.4-3.8-3.7-5.3-5.1c0,0,0,0,0,0
				c0-1.3-0.2-3.6-0.2-4.7c0-6.5,6.7,9.7,13.8,9.7c3.3,0,6.5-1.4,6.5-19.7c0-10.2-1.1-22.9-11-22.9c-5.2,0-7.1,3.3-7.9,7.4v0
				c-0.5,2.6-0.7,5.4-1,7.8c-0.3-2.4-0.6-5-0.6-7.6c0-2.5,0.3-4.7,0.8-6.5c0.4-1.6,1-3,1.7-4.2c0,0,0-0.1,0.1-0.1
				c0-0.1,0.1-0.1,0.1-0.1c0,0,0,0,0,0c1.8-2.8,4.4-4.3,7.1-4.7h0c0.5-0.1,1.1-0.1,1.7-0.1c4.7,0,9.5,3.6,11.6,9.6
				c0,0,0.1,0.1,0,0.1c0,0,0,0.1,0,0.1c0.3,0.8,0.5,1.6,0.6,2.4c0.2,1.2,0.3,2.4,0.3,3.7c0,4.4,2.3,9,2.3,13.4
				C276.8,85.7,278.6,86.9,278.6,102.1z"/>
		</g>
	</g>
	<g>
		<g>
			<g>
				<path class="st4" d="M224.4,46.4c-0.3,0-0.5,0-0.8-0.1c-1.4-0.4-2.7-0.7-4-1l-2.6-0.7c-3.4-0.9-6.8-1.7-10.1-2.3
					c-7.5-1.4-13-8.1-13-15.8c0-1.7,1.4-3,3-3c1.7,0,3,1.4,3,3c0,4.9,3.3,8.9,8,9.8c3.5,0.6,7,1.4,10.5,2.4l2.5,0.6
					c1.3,0.3,2.7,0.7,4.1,1.1c1.6,0.4,2.6,2.1,2.2,3.7C226.9,45.6,225.7,46.4,224.4,46.4z"/>
			</g>
			<g>
				<path class="st4" d="M341.9,87.7c-4.8,0-9.7-0.4-14.7-1.1c-1.4-0.2-2.3-1.5-2.1-2.9c0.2-1.4,1.5-2.3,2.9-2.1
					c15.3,2.3,29.7,0.9,40.5-4c1.3-0.6,2.8,0,3.4,1.3c0.6,1.3,0,2.8-1.3,3.4C362.5,85.8,352.6,87.7,341.9,87.7z"/>
			</g>
			<g>
				<path class="st4" d="M375.2,79.3c-0.8,0-1.6-0.4-2.1-1.1c-0.8-1.2-0.5-2.7,0.7-3.5c4.6-3,7.3-6.6,7.7-10c0.3-2.6-0.7-5-2.9-7.4
					c-4.4-4.7-10.1-9.1-16.8-13c-1.2-0.7-1.6-2.3-0.9-3.5c0.7-1.2,2.3-1.6,3.5-0.9c7.1,4.2,13.2,8.9,17.9,13.9
					c3.3,3.4,4.8,7.4,4.3,11.5c-0.6,5-4.1,9.8-9.9,13.7C376.1,79.2,375.6,79.3,375.2,79.3z"/>
			</g>
			<g>
				<path class="st4" d="M355.8,40.7c-0.4,0-0.8-0.1-1.1-0.3c-6.3-3.1-13.3-5.9-20.8-8.2c-1.3-0.4-2.1-1.8-1.7-3.2
					c0.4-1.3,1.8-2.1,3.2-1.7c7.8,2.4,15,5.3,21.6,8.5c1.3,0.6,1.8,2.1,1.1,3.4C357.6,40.2,356.7,40.7,355.8,40.7z"/>
			</g>
			<g>
				<path class="st4" d="M312.9,27c-0.2,0-0.3,0-0.5,0c-22.8-4.3-47.5-5.1-71.5-2.2c-1.4,0.2-2.7-0.8-2.8-2.2
					c-0.2-1.4,0.8-2.7,2.2-2.8c24.5-2.9,49.7-2.1,73,2.3c1.4,0.3,2.3,1.6,2,3C315.2,26.1,314.1,27,312.9,27z"/>
			</g>
			<g>
				<path class="st4" d="M260.6,50.5c-0.6,0-1.2-0.2-1.7-0.7c-1.1-1-2.1-2-3.2-3l-1.3-1.2c-14-13.3-35.6-14.4-42.7-14.7
					c-2.5-0.1-4.4-0.2-4.6-2.5c0-0.4-0.1-2.3,2.3-2.9c6.8-1.8,13.9-3.3,21.1-4.4c1.4-0.2,2.7,0.7,2.9,2.1c0.2,1.4-0.7,2.7-2.1,2.9
					c-2,0.3-4,0.7-5.9,1c10,1.7,22.8,5.5,32.6,14.8l1.3,1.2c1.1,1,2.1,2,3.2,3c1,0.9,1.1,2.6,0.2,3.6
					C262,50.2,261.3,50.5,260.6,50.5z"/>
			</g>
		</g>
		<g>
			<path class="st4" d="M343.1,101.4c-2.3,0-4.7-0.1-7.1-0.2c-2-0.1-4.1-0.3-6.1-0.5c-1.7-0.2-2.9-1.7-2.7-3.3
				c0.2-1.7,1.7-2.9,3.3-2.7c1.9,0.2,3.9,0.3,5.8,0.5c4.6,0.3,9.1,0.2,13.4,0c1.6-0.1,3.1,1.2,3.2,2.9c0.1,1.7-1.2,3.1-2.9,3.2
				C347.8,101.3,345.4,101.4,343.1,101.4z"/>
		</g>
		<g>
			<path class="st4" d="M365.4,99.1c-1.4,0-2.6-1-3-2.4c-0.4-1.6,0.7-3.3,2.3-3.6c5.7-1.3,10.6-3.1,14.8-5.4
				c1.5-0.8,3.3-0.3,4.1,1.2c0.8,1.5,0.3,3.3-1.2,4.1c-4.6,2.6-10.1,4.6-16.4,6C365.9,99,365.7,99.1,365.4,99.1z"/>
		</g>
		<g>
			<path class="st4" d="M381,93.4c-1.1,0-2.1-0.6-2.7-1.6c-0.8-1.5-0.3-3.3,1.2-4.1c8.2-4.5,12.7-10.7,13.3-18.3
				c0.1-0.7,0-1.4,0-2.1c0-0.5,0-0.9,0-1.4c0-6.2-2.3-12.1-6.8-17.5c-1.1-1.3-0.9-3.2,0.4-4.3c1.3-1.1,3.2-0.9,4.3,0.4
				c5.4,6.6,8.2,13.8,8.2,21.4c0,0.4,0,0.8,0,1.2c0,0.9,0,1.8,0,2.8c-0.8,9.6-6.5,17.6-16.5,23.1C382,93.3,381.5,93.4,381,93.4z"/>
		</g>
		<g>
			<path class="st4" d="M381,42.3c-0.7,0-1.3-0.2-1.9-0.7c-4.1-3.3-9.2-6.4-15-9.2c-1.5-0.7-2.1-2.6-1.4-4.1
				c0.7-1.5,2.6-2.1,4.1-1.4c6.2,3,11.7,6.4,16.1,9.9c1.3,1,1.5,3,0.5,4.3C382.8,41.9,381.9,42.3,381,42.3z"/>
		</g>
		<g>
			<path class="st4" d="M333.2,21.5c-0.2,0-0.5,0-0.7-0.1c-16.6-4.1-35.6-6.8-54.8-7.7c-1.7-0.1-3-1.5-2.9-3.2
				c0.1-1.7,1.5-2.9,3.2-2.9c19.6,0.9,39,3.6,56,7.8c1.6,0.4,2.6,2.1,2.2,3.7C335.8,20.6,334.6,21.5,333.2,21.5z"/>
		</g>
		<g>
			<path class="st4" d="M196.9,50.9c-1.7,0-3-1.4-3-3V26.6c0-3.2,1.7-9.2,13.2-12.6c12.6-3.7,28.9-6,47.3-6.5c1.7-0.1,3.1,1.3,3.1,3
				c0,1.7-1.3,3.1-3,3.1c-17.8,0.5-33.7,2.7-45.7,6.3c-5.6,1.7-8.9,4.1-8.9,6.7v21.3C200,49.6,198.6,50.9,196.9,50.9z"/>
		</g>
		<g>
			<path class="st4" d="M230.5,78.4c-0.6,0-1.2-0.2-1.7-0.5c-4.2-2.8-8-4.6-11.8-5.4c-3-0.7-6.3-1.3-10.1-2
				c-12.3-2-13.3-8.5-13.1-14.9c0-1.7,1.5-3.1,3.1-3c1.7,0,3,1.4,3,3.1c-0.1,4.7-0.1,7.5,8,8.8c3.9,0.6,7.3,1.3,10.5,2
				c4.5,1,9,3.1,13.8,6.3c1.4,0.9,1.8,2.8,0.8,4.2C232.4,78,231.5,78.4,230.5,78.4z"/>
		</g>
		<g>
			<path class="st4" d="M338.8,137.1c-2.9,0-5.8-0.1-8.7-0.3l-1.3-0.1c-1.6-0.1-3-0.3-4.5-0.4c-0.4,0-0.8-0.1-1.2-0.1
				c-1.7-0.2-2.9-1.7-2.7-3.4c0.2-1.7,1.7-2.9,3.4-2.7c0.4,0,0.8,0.1,1.1,0.1c1.4,0.1,2.8,0.3,4.2,0.4l1.2,0.1
				c7.5,0.5,14.6,0.3,21.5-0.4c1.6-0.2,3.2,1,3.4,2.7c0.2,1.7-1,3.2-2.7,3.4C348,136.8,343.5,137.1,338.8,137.1z"/>
		</g>
		<g>
			<path class="st4" d="M365.4,134.1c-1.4,0-2.6-0.9-3-2.3c-0.4-1.6,0.6-3.3,2.2-3.7c6.3-1.5,11.7-3.6,16.1-6.2
				c1.4-0.9,3.3-0.4,4.2,1c0.9,1.4,0.4,3.3-1,4.2c-4.9,2.9-10.8,5.3-17.8,6.9C365.9,134.1,365.7,134.1,365.4,134.1z"/>
		</g>
		<g>
			<path class="st4" d="M388.4,122.9c-0.8,0-1.6-0.3-2.2-0.9c-1.2-1.2-1.1-3.1,0.1-4.3c3.4-3.3,5.5-7,6.1-11.3
				c0.3-1.7,0.4-3.1,0.4-4.5v-7.1c0-1.7,1.4-3,3-3c1.7,0,3,1.4,3,3v7.1c0,1.9-0.2,3.7-0.5,5.5c-0.9,5.6-3.5,10.5-7.9,14.7
				C390,122.7,389.2,122.9,388.4,122.9z"/>
		</g>
		<g>
			<path class="st4" d="M395.9,97.8c-1.7,0-3-1.4-3-3V69.6c0-1.7,1.4-3,3-3c1.7,0,3,1.4,3,3v25.1C399,96.4,397.6,97.8,395.9,97.8z"
				/>
		</g>
		<g>
			<path class="st4" d="M330.3,134.8c-1.7,0-3-1.4-3-3v-30.5c0-10.8-2.4-16.7-4.3-19.8c-2.1-3.2-4.8-5-7.7-5c-4.2,0-8.6,4.1-8.6,11
				v39.7c0,1.7-1.4,3-3,3c-1.7,0-3-1.4-3-3V88.5c0-10.8-2.4-16.7-4.3-19.8c-2.1-3.2-4.8-5-7.7-5c-4.2,0-8.6,4.1-8.6,11v39.4
				c0,1.7-1.4,3-3,3c-1.7,0-3-1.4-3-3V75.7c0-14.9-4.4-20.7-7-22.9c-1.3-1.1-1.5-3-0.4-4.3c1.1-1.3,3-1.5,4.3-0.4
				c2.8,2.3,6,6.5,7.8,14c2.8-2.9,6.4-4.5,10.1-4.5c5,0,9.6,2.8,12.8,7.8c1.7,2.6,3,5.8,3.9,9.4c2.8-2.9,6.5-4.5,10.1-4.5
				c5,0,9.5,2.8,12.8,7.8c3.5,5.5,5.3,13.2,5.3,23.1v30.5C333.3,133.4,331.9,134.8,330.3,134.8z"/>
		</g>
		<g>
			<path class="st4" d="M268.7,53.6c-0.7,0-1.4-0.2-1.9-0.7c-2.2-1.8-4.8-2.4-7.2-1.5c-1.6,0.5-3.3-0.3-3.9-1.9s0.3-3.3,1.9-3.9
				c4.4-1.5,9.2-0.5,13,2.6c1.3,1.1,1.5,3,0.4,4.3C270.4,53.2,269.5,53.6,268.7,53.6z"/>
		</g>
		<g>
			<path class="st4" d="M250.1,93.4c-1.7,0-3-1.4-3-3V63c0-10.8-2.4-16.7-4.3-19.8c-2.1-3.2-4.8-5-7.7-5c-4.2,0-8.6,4.1-8.6,11v20.1
				c0,1.7-1.4,3-3,3c-1.7,0-3-1.4-3-3V49.3c0-10.7,7.5-17.1,14.7-17.1c5,0,9.6,2.8,12.8,7.8c1.7,2.6,3,5.8,3.9,9.4
				c1.6-1.7,3.6-3,5.9-3.8c1.6-0.5,3.3,0.3,3.9,1.9c0.5,1.6-0.3,3.3-1.9,3.9c-3.9,1.3-6.4,5.5-6.4,10.7v28.4
				C253.1,92.1,251.8,93.4,250.1,93.4z"/>
		</g>
	</g>
	<polygon class="st1" points="234.5,95.1 232.1,94.6 229.6,94.4 229.4,91.9 228.9,89.5 231.1,88.5 233.2,87.3 234.9,89.1 
		236.7,90.8 235.5,92.9 	"/>
	<polygon class="st1" points="255.8,112.1 254.5,114.2 253.5,116.5 251.1,115.9 248.7,115.6 248.5,113.2 248,110.8 250.2,109.8 
		252.4,108.6 254,110.5 	"/>
	<polygon class="st1" points="241.4,128.1 240.1,130.2 239.1,132.4 236.7,131.9 234.3,131.6 234.1,129.2 233.6,126.8 235.8,125.8 
		238,124.6 239.6,126.5 	"/>
	<polygon class="st0" points="266.6,126.2 265.3,128.3 264.3,130.6 261.9,130 259.5,129.7 259.3,127.3 258.8,124.9 261,123.9 
		263.2,122.7 264.8,124.6 	"/>
	<polygon class="st0" points="210,76.9 209.2,78.2 208.6,79.6 207.1,79.3 205.6,79.1 205.4,77.6 205.1,76.1 206.5,75.5 207.9,74.7 
		208.9,75.9 	"/>
	<polygon class="st1" points="301.9,139.4 301.1,140.7 300.5,142.1 299,141.8 297.5,141.6 297.3,140.1 297,138.6 298.4,138 
		299.8,137.2 300.8,138.4 	"/>
	<polygon class="st1" points="217.5,88.2 217.7,90.1 218.1,91.9 216.4,92.6 214.8,93.6 213.5,92.2 212.1,91 213.1,89.4 213.8,87.7 
		215.6,88.1 	"/>
	<polygon class="st1" points="307.9,153.4 306.9,154.9 306,156.6 304.3,156 302.4,155.7 302.4,153.9 302.1,152 303.8,151.4 
		305.5,150.6 306.6,152.1 	"/>
	<polygon class="st0" points="322.7,143 322.9,144.9 323.3,146.7 321.6,147.4 320,148.4 318.8,147 317.4,145.8 318.4,144.2 
		319.1,142.5 320.9,142.9 	"/>
	<polygon class="st1" points="285.4,127.7 285.6,129.6 286,131.4 284.3,132.1 282.7,133.1 281.5,131.7 280.1,130.5 281,128.9 
		281.8,127.2 283.6,127.5 	"/>
	<polygon class="st1" points="268,142.3 267.1,142.5 266.2,142.8 265.7,142 265.1,141.2 265.7,140.5 266.3,139.7 267.2,140.1 
		268.1,140.3 268,141.3 	"/>
	<polygon class="st1" points="312.5,137.8 311.5,138 310.6,138.3 310.1,137.5 309.5,136.7 310.2,136 310.7,135.2 311.6,135.6 
		312.5,135.9 312.5,136.8 	"/>
	<polygon class="st0" points="227.6,113.8 226.3,114.1 225.1,114.5 224.5,113.4 223.7,112.4 224.6,111.5 225.3,110.4 226.4,110.9 
		227.7,111.3 227.6,112.5 	"/>
	<polygon class="st1" points="240.8,104.3 239.8,104.5 238.9,104.9 238.4,104 237.8,103.3 238.5,102.5 239,101.7 239.9,102.1 
		240.9,102.4 240.8,103.4 	"/>
	<polygon class="st3" points="234.5,59.9 233.9,60.1 233.3,60.3 233,59.7 232.7,59.3 233.1,58.8 233.4,58.3 234,58.6 234.5,58.7 
		234.5,59.3 	"/>
	<polygon class="st3" points="238.5,65.2 237.9,65.3 237.4,65.5 237.1,65 236.7,64.5 237.1,64.1 237.4,63.6 238,63.8 238.6,64 
		238.5,64.6 	"/>
	<polygon class="st3" points="261.5,60.9 261,61 260.4,61.2 260.1,60.7 259.7,60.2 260.1,59.8 260.5,59.3 261,59.5 261.6,59.7 
		261.5,60.3 	"/>
	<polygon class="st3" points="262.8,75.7 262.2,75.9 261.6,76.1 261.3,75.6 260.9,75.1 261.3,74.6 261.7,74.1 262.2,74.4 
		262.8,74.5 262.7,75.1 	"/>
	<polygon class="st3" points="257,85.1 256.4,85.2 255.8,85.4 255.5,84.9 255.2,84.4 255.6,84 255.9,83.5 256.4,83.7 257,83.9 
		257,84.5 	"/>
	<polygon class="st3" points="265.9,90.8 265.3,90.9 264.7,91.1 264.4,90.6 264,90.1 264.4,89.7 264.8,89.2 265.3,89.4 265.9,89.6 
		265.8,90.2 	"/>
	<polygon class="st3" points="313.4,95.8 312.9,95.9 312.3,96.1 312,95.6 311.6,95.1 312,94.7 312.3,94.2 312.9,94.4 313.5,94.6 
		313.4,95.2 	"/>
	<polygon class="st3" points="286.7,75.4 286.1,75.5 285.5,75.7 285.2,75.2 284.8,74.7 285.2,74.3 285.6,73.8 286.1,74 286.7,74.2 
		286.7,74.8 	"/>
	<polygon class="st3" points="293.8,87 293.3,87.2 292.7,87.4 292.4,86.9 292,86.4 292.4,85.9 292.7,85.4 293.3,85.7 293.9,85.8 
		293.8,86.4 	"/>
	<polygon class="st3" points="323.2,103 322.7,103.1 322.1,103.3 321.8,102.8 321.4,102.3 321.8,101.8 322.2,101.4 322.7,101.6 
		323.3,101.8 323.2,102.4 	"/>
	<polygon class="st3" points="317.9,87.9 317.3,88.1 316.8,88.3 316.5,87.7 316.1,87.3 316.5,86.8 316.8,86.3 317.4,86.6 318,86.7 
		317.9,87.3 	"/>
	<polygon class="st3" points="313.4,121.9 312.9,122.1 312.3,122.3 312,121.7 311.6,121.3 312,120.8 312.3,120.3 312.9,120.6 
		313.5,120.7 313.4,121.3 	"/>
	<polygon class="st3" points="284.8,96.3 284.2,96.4 283.7,96.6 283.3,96.1 283,95.6 283.4,95.1 283.7,94.6 284.3,94.9 284.8,95.1 
		284.8,95.7 	"/>
	<polygon class="st3" points="283.9,109.3 283.4,109.4 282.8,109.6 282.5,109.1 282.1,108.6 282.5,108.1 282.9,107.7 283.4,107.9 
		284,108.1 283.9,108.7 	"/>
	<polygon class="st3" points="292,106.5 291.4,106.6 290.8,106.8 290.5,106.3 290.1,105.8 290.5,105.4 290.9,104.9 291.4,105.1 
		292,105.3 292,105.9 	"/>
	<polygon class="st3" points="317,110.2 316.4,110.4 315.8,110.6 315.5,110 315.2,109.6 315.6,109.1 315.9,108.6 316.5,108.9 
		317,109 317,109.6 	"/>
	<polygon class="st0" points="283.6,148.6 283,147.7 282.4,147 283.1,146.2 283.6,145.4 284.5,145.8 285.5,146.1 285.4,147 
		285.4,148 284.5,148.2 	"/>
	<polygon class="st0" points="253,149.9 252.5,149.1 251.9,148.4 252.5,147.6 253.1,146.8 253.9,147.2 254.9,147.4 254.8,148.4 
		254.8,149.4 253.9,149.6 	"/>
	<polygon class="st1" points="222.8,81 221.9,81.2 221,81.5 220.5,80.7 219.9,79.9 220.5,79.2 221.1,78.4 222,78.8 222.9,79.1 
		222.8,80 	"/>
	<g>
		<g>
			<path class="st1" d="M49.2,69.2c4.2,1.5,6.6,4.7,6.6,8.8c0,6.9-5.3,11.7-13.1,11.7H22.5c-0.6,0-1-0.4-1-1V52.5c0-0.6,0.4-1,1-1
				h18.7c7.2,0,12.1,4.6,12.1,10.5c0,3-1.5,5.5-4.1,6.8V69.2z M29.5,66.4h11.7c2.2,0,3.9-1.5,3.9-3.7c0-2.2-1.5-3.6-3.9-3.6H29.5
				V66.4z M29.5,82.1h12.9c3.3,0,5.2-1.6,5.2-4.1c0-2.7-1.8-4.1-5.2-4.1H29.5V82.1z"/>
			<path class="st1" d="M92.3,51.5c0.6,0,1,0.4,1,1v5.6c0,0.6-0.3,1-1,1H71v7.2h18.7c0.6,0,1,0.3,1,1v5.6c0,0.6-0.4,1-1,1H71v8.3
				h21.8c0.6,0,1,0.3,1,1v5.7c0,0.6-0.4,1-1,1h-29c-0.6,0-1-0.4-1-1V52.5c0-0.6,0.5-1,1-1H92.3z"/>
			<path class="st1" d="M131,51.5c0.6,0,1,0.4,1,1v5.6c0,0.6-0.4,1-1,1h-21.3v7.2h18.7c0.6,0,1,0.3,1,1v5.6c0,0.6-0.3,1-1,1h-18.7
				v8.3h21.8c0.6,0,1,0.3,1,1v5.7c0,0.6-0.4,1-1,1h-29c-0.6,0-1-0.4-1-1V52.5c0-0.6,0.5-1,1-1H131z"/>
			<path class="st1" d="M169.2,51.5c0.6,0,1,0.4,1,1v5.8c0,0.6-0.3,1-1,1h-20.8v7.3h18.8c0.6,0,1,0.4,1,1v5.8c0,0.6-0.4,1-1,1h-18.8
				v14.5c0,0.6-0.4,1-1,1h-6.2c-0.6,0-1-0.4-1-1V52.5c0-0.6,0.4-1,1-1H169.2z"/>
		</g>
		<g>
			<path class="st0" d="M48.5,115.5c4.2,1.6,6.6,5,6.6,8.9c0,6.6-5.4,11.8-12.8,11.8H21.9c-0.5,0-0.9-0.5-0.9-1V98.9
				c0-0.6,0.3-1,0.9-1h19.3c7,0,11.3,4.8,11.3,10.5c0,2.5-1.8,5.5-4,6.7V115.5z M27.3,112.8h14.3c2.5,0,4.6-1.9,4.6-4.4
				c0-2.5-1.8-4.6-4.8-4.6h-14V112.8z M27.3,130.2h14.8c3.9,0,6.6-2.2,6.6-5.8c0-3.7-2.5-5.6-6.6-5.6H27.3V130.2z"/>
			<path class="st0" d="M80.1,135.2c0,0.6-0.4,1-1,1h-4.5c-0.6,0-0.9-0.4-0.9-1v-8.6l-16-27.8c-0.2-0.4-0.1-0.8,0.4-0.8H64
				c0.4,0,0.7,0.2,0.9,0.6l11.8,21.6h0.6l11.7-21.6c0.2-0.4,0.5-0.6,1-0.6h5.7c0.5,0,0.7,0.4,0.5,0.8l-15.9,27.8V135.2z"/>
			<path class="st0" d="M133.4,97.9c0.6,0,1,0.4,1,1v4c0,0.6-0.3,1-1,1h-13v31.3c0,0.5-0.3,1-1,1H115c-0.6,0-1-0.4-1-1v-31.3h-13
				c-0.6,0-1-0.4-1-1v-4c0-0.6,0.4-1,1-1H133.4z"/>
			<path class="st0" d="M168.6,97.9c0.5,0,1,0.4,1,1v4c0,0.5-0.5,0.9-1,0.9h-22.2v9.5h20.2c0.6,0,1,0.3,1,1v4c0,0.6-0.4,0.9-1,0.9
				h-20.2v11h22.9c0.6,0,0.9,0.3,0.9,0.8v4.1c0,0.6-0.3,1-0.9,1H141c-0.6,0-0.9-0.4-0.9-1V98.9c0-0.6,0.3-1,0.9-1H168.6z"/>
			<path class="st0" d="M209.7,103.3c0.3,0.4,0.3,0.7,0,1.1l-2.7,3.4c-0.4,0.4-0.8,0.4-1.3,0.1c-3.4-2.9-7.4-4.5-12.6-4.5
				c-5.9,0-9,1.6-9,4.6c0,2.9,4.1,4.2,10.1,5c9.8,1.1,16.8,4,16.8,12.1c0,7.7-7.7,11.7-17.1,11.7c-7,0-13.1-1.9-17.8-6.4
				c-0.3-0.3-0.3-0.8,0-1.2l2.7-3.4c0.4-0.5,0.8-0.6,1.3-0.1c3.9,3.6,8.4,5.2,13.8,5.2c7,0,10.7-2.4,10.7-5.7
				c0-3.7-4.3-5.1-11.3-5.9c-8.1-0.9-15.6-3.2-15.6-11.2c0-6.4,6.1-10.6,15.4-10.6C199.3,97.4,205.4,99.4,209.7,103.3z"/>
		</g>
	</g>
</g>
</svg>
