<?xml version="1.0" encoding="utf-8"?>
<!-- Generator: Adobe Illustrator 19.0.0, SVG Export Plug-In . SVG Version: 6.00 Build 0)  -->
<svg version="1.1" id="Layer_1" xmlns="http://www.w3.org/2000/svg" xmlns:xlink="http://www.w3.org/1999/xlink" x="0px" y="0px"
	 viewBox="0 0 710 480" style="enable-background:new 0 0 710 480;" xml:space="preserve">
<style type="text/css">
	.st0{fill:#5B5B5B;}
</style>
<g id="XMLID_117_">
	<path id="XMLID_143_" class="st0" d="M580.3,389.8c0.5-1.5,0.8-2.7,1.3-4.2c1.7-5.8,2.5-11.9,2.5-18.1c0-8.2-1.1-15.8-3.2-22.7
		c-2.3-7.4-5.8-13.8-10.3-19.2c-4.8-5.7-10.8-10-17.9-12.9c-6.6-2.7-14.1-4.1-22.1-4.1c-4.5,0-8.7,1.3-12.7,1.3H503V179h9v-19h-67.8
		l-27.3-26.9l6.3-6.1c7.4,5.9,16.2,9.3,25.9,9.3c11.1,0,21.4-4.4,29.5-12.1l3.3-3.3l-26.2-26.2l6.7-6.6c1.8-1.8,1.8-4.8,0-6.6
		c-0.9-0.9-2.1-1.4-3.3-1.4c-1.2,0-2.4,0.5-3.3,1.4L449,88l-26.2-26.2l-3.3,3.3c-7.8,7.8-12.2,18.1-12.2,29.5
		c0,9.6,3.3,18.1,9.2,25.5l-8.1,7.8H387v32h-32v-36h10v-19H259V90h18c2.4,0,4.4-1.6,4.4-4c0-2.4-1.9-4-4.4-4h-18v-9h21
		c6.4,0,12.3-4,14.2-10.1c3-9.4-4.1-18.9-13.3-18.9H259v-7.8c0-2.8-2.2-5.1-5-5.1c-2.8,0-5,2.3-5,5.1V45h-23.6
		c-7.5,0-13.9,6-14.2,13.4c-0.3,8,6.1,14.6,14,14.6H249v10h-20c-2.4,0-4.4,2.1-4.4,4.5c0,2.4,1.9,4.5,4.4,4.5h20v13h-68v19h8v185.8
		c-4-0.7-7.6-1.1-11.4-1.1c-8.6,0-16.6,1.5-23.5,4.6c-7,3.1-13,7.6-17.7,13.1c-4.6,5.4-8.1,11.7-10.4,18.7
		c-2.2,6.7-3.3,13.8-3.3,21.1c0,7.1,1.1,14,3.2,20.7c2.3,6.9,5.6,13.1,9.9,18.5c4.5,5.6,9.9,10.2,16.3,13.5
		c6.7,3.6,14.2,5.5,22.3,5.5c6.1,0,11.9-1.6,17.1-2.6h124.8h4.3h1.2h24.2h33.6h127h2.4c0.2,1,0.5,1.5,0.8,2.3
		c1.9,4.9,4.5,9.2,7.9,12.9c3.6,3.8,7.8,6.7,12.7,8.7c4.7,2,9.8,2.9,15.2,2.9c5.7,0,11.2-1.1,16.2-3.4c4.9-2.2,9.2-5.3,12.8-9.2
		c3.6-3.8,7.1-8.4,9-13.5c1.9-5,3.5-10.4,3.5-16.1v-10.6C587,392.6,583.8,389.8,580.3,389.8z M423.1,75.1l45.4,45.4
		c-5.5,4.1-12.2,6.3-19.2,6.3c-8.5,0-16.6-3.3-22.9-9.6c-6.3-6.3-9.6-14.4-9.6-22.9C416.9,87.7,419.1,80.7,423.1,75.1z M259,54h21.9
		c2.6,0,4.8,2.4,4.8,5c0,2.6-2.2,5-4.8,5H259V54z M397,138h11l23.3,24H397V138z M355,179h129v129H355V179z M222.1,336.5
		c0,0.2-0.1,0.2-0.3,0L222.1,336.5z M390.2,329.7c0,0-0.1,0-0.1,0C390.2,329.7,390.2,329.7,390.2,329.7z M225.2,64
		c-1.5,0-4.8-2.4-4.8-5c0-2.6,2.2-5,4.8-5H249v10L225.2,64z M208,124h130v184H208V124z M213,406h-15.3l-0.3-8.1
		c-1.9,3.3-4.8,5.4-8.9,7.2c-4.1,1.8-8.8,2.7-14.2,2.7c-5.3,0-10.2-1.2-14.5-3.4c-4.3-2.3-8-5.4-11-9.2c-3.1-3.8-5.4-8.3-7-13.2
		c-1.6-5-2.4-10.2-2.4-15.5c0-5.6,0.8-11,2.4-16c1.6-5,4-9.4,7.2-13.1c3.2-3.7,7.1-6.6,11.8-8.8c4.7-2.1,10.2-3.2,16.5-3.2
		c4.6,0,8.8,0.7,12.8,2c4,1.3,7.5,3.2,10.5,5.5c3,2.3,5.4,5.2,7.2,8.4c1.8,3.2,2.9,5.8,3.2,10.8h-16.3c-0.2-2-0.9-3.6-1.9-5.2
		c-1-1.6-2.3-3.1-3.8-4.3c-1.6-1.2-3.4-2.1-5.4-2.8c-2-0.7-4.2-1-6.3-1c-6.5,0-11.7,2.4-15.6,7.3c-3.9,4.8-5.9,11.9-5.9,21.1
		c0,3.2,0.4,6.4,1.2,9.6c0.8,3.2,2.1,6.1,3.8,8.7c1.7,2.6,4,4.7,6.7,6.3s5.9,2.4,9.6,2.4c2.6,0,5.1-0.5,7.4-1.4
		c2.3-0.9,4.3-2.2,6-3.8c1.7-1.6,3-3.8,4-5.9c1-2.1,1.5-5,1.5-7h-17v-13h34V406z M300,406h-15v-35.6c0-3.5-1.3-6.3-2.9-8.5
		c-1.6-2.2-4-3.3-6.8-3.3c-2.8,0-4.9,1.2-6.7,3.5c-1.8,2.3-2.6,5.2-2.6,8.7V406h-14v-35.3c0-2.3-0.9-4.2-1.2-5.7
		c-0.3-1.5-1.3-2.6-2.1-3.5c-0.7-0.9-1.9-1.5-3-1.8c-1.2-0.3-2.2-0.5-3.8-0.5c-6.1,0-8.9,3.7-8.9,11.2V406h-14v-59h14v9.3
		c1-3.8,3.4-6.4,6.1-7.8s5.4-2.1,9.2-2.1c1.9,0,3.5,0.2,5,0.5c1.5,0.3,2.8,0.8,4,1.6c1.2,0.7,2.3,1.7,3.4,2.8
		c1.1,1.2,2.1,2.6,3.2,4.2c1.6-3.2,3.6-5.5,6.1-6.9c2.6-1.4,5.6-2.1,9.3-2.1c2.9,0,5.5,0.5,7.9,1.5c2.4,1,4.4,2.3,6.1,4.1
		c1.7,1.7,3.6,3.8,4.6,6.1c1,2.3,2,4.8,2,7.4V406z M360.1,388.9c-1.4,3.7-3.3,6.8-5.8,9.5c-2.5,2.6-5.6,4.7-9.2,6.1
		c-3.6,1.4-7.6,2.1-12,2.1c-4.6,0-8.8-0.7-12.4-2.2c-3.6-1.5-6.7-3.5-9.2-6.2c-2.5-2.6-4.4-5.8-5.8-9.5c-1.3-3.7-2-7.8-2-12.2
		c0-4.5,0.7-8.6,2-12.3c1.4-3.7,3.3-6.9,5.9-9.5c2.6-2.6,5.6-4.7,9.2-6.1c3.6-1.4,7.7-2.1,12.3-2.1c4.5,0,8.5,0.7,12.1,2.1
		c3.6,1.4,6.6,3.4,9.1,6s4.5,5.8,5.8,9.5c1.4,3.7,2,7.9,2,12.4C362.1,381.1,361.4,385.2,360.1,388.9z M422,406h-15.4l-0.1-7.4
		c-3.5,5.6-8.8,8.1-15.9,8.1c-3.6,0-7-0.7-10-2.1c-3-1.4-5.6-3.4-7.8-6.1c-2.2-2.6-3.9-5.9-5.1-9.6c-1.2-3.8-1.9-8.1-1.9-12.9
		c0-4.3,0.5-8.3,1.6-11.9c1-3.6,2.6-6.7,4.6-9.4c2-2.6,4.5-4.7,7.4-6.1c2.9-1.4,6.6-2.1,10.3-2.1c7,0,13.3,3,17.3,8.9V327h15V406z
		 M490,406h-16v-35h-30v35h-16v-79h16v29h30v-29h16V406z M567.1,417.1c-1.2,3.1-2.8,5.5-4.9,7.8c-2.1,2.3-4.6,4-7.4,5.3
		c-2.9,1.3-6,1.9-9.4,1.9c-3.2,0-6.1-0.6-8.8-1.7c-2.7-1.1-5-2.7-6.9-4.8c-1.9-2-2.8-4.5-3.8-7.4c-1.1-2.9-0.9-6-0.9-9.4v-2.4
		c-10-1.3-17.9-5.2-23-11.8c-5.2-6.5-8.2-15.7-8.2-27.5c0-6.5,0.7-12.4,2.3-17.5c1.6-5.2,3.9-9.6,7.1-13.2c3.2-3.6,7-6.3,11.6-8.2
		c4.6-1.9,9.8-2.8,15.8-2.8c5.9,0,11.1,0.9,15.7,2.8c4.6,1.9,8.4,4.7,11.6,8.3c3.1,3.6,5.5,8.1,7.1,13.3c1.6,5.2,2.4,11.1,2.4,17.7
		c0,4.6-0.6,9.1-1.9,13.4c-1.3,4.3-3.1,8.1-5.6,11.5c-2.4,3.4-5.5,6.3-9.1,8.6c-3.6,2.3-7.7,3.8-12.4,4.5c0,4.4,0.8,7.7,2.3,9.6
		c1.5,2,3.6,3,6,3c2.2,0,4.1-0.9,5.6-2.8c1.5-1.9,2.3-5.4,2.3-8.4h14.2C568.9,410,568.3,414,567.1,417.1z"/>
	<path id="XMLID_142_" class="st0" d="M333.1,359.2c-9.2,0-13.8,5.8-13.8,17.3c0,11.6,4.6,17.4,13.8,17.4c9.2,0,13.8-5.8,13.8-17.4
		C346.9,364.9,342.3,359.2,333.1,359.2z"/>
	<path id="XMLID_141_" class="st0" d="M394.2,359.3c-8.7,0-13,5.9-13,17.7c0,5.1,1.2,9.3,3.6,12.5c2.4,3.2,5.5,4.8,9.3,4.8
		c3.6,0,6.7-1.5,9.1-4.5c2.4-3,3.7-7,3.7-11.8C406.8,365.5,402.6,359.3,394.2,359.3z"/>
	<path id="XMLID_138_" class="st0" d="M545.3,387.6c1.9-2.1,3.4-4.9,4.5-8.2c1.1-3.3,1.6-7.3,1.6-11.8c0-9.1-1.8-16.1-5.3-20.8
		c-3.6-4.7-8.8-7.1-15.6-7.1c-6.8,0-12.1,2.4-15.7,7.1c-3.6,4.7-5.5,11.7-5.5,20.8c0,9.1,1.8,15.8,5.5,20c3.7,4.2,8.9,6.3,15.6,6.3
		c2.9,0,5.6-0.5,8.1-1.6C541.2,391.3,543.4,389.7,545.3,387.6z M533.9,374.2c-0.5,1.6-1,2.2-1.1,2.3c-0.3,0.3-0.4,0.4-0.5,0.4
		c-0.6,0.2-1.1,0.3-1.8,0.3c-0.4,0-2.5,0-3-0.6c0,0-1.4-2.1-1.4-9.1c0-7.6,1.7-10.2,2-10.6c0.1-0.2,0.4-0.6,2.5-0.6
		c1.5,0,2.1,0.3,2.1,0.3c0,0,0.1,0.1,0.1,0.2c0.3,0.4,2,3,2,10.7C534.7,371,534.3,373.1,533.9,374.2z"/>
	<path id="XMLID_137_" class="st0" d="M264,148.8c0-3.2-2.6-5.8-5.8-5.8h-26.4c-3.2,0-5.8,2.6-5.8,5.8v24.4c0,3.2,2.6,5.8,5.8,5.8
		h26.4c3.2,0,5.8-2.6,5.8-5.8V148.8z"/>
	<path id="XMLID_134_" class="st0" d="M264,258.8c0-3.2-2.6-5.8-5.8-5.8h-26.4c-3.2,0-5.8,2.6-5.8,5.8v24.4c0,3.2,2.6,5.8,5.8,5.8
		h26.4c3.2,0,5.8-2.6,5.8-5.8V258.8z M258,280.1c0,2.2-1.8,3.9-3.9,3.9h-18.1c-2.2,0-3.9-1.8-3.9-3.9v-17.1c0-2.2,1.8-3.9,3.9-3.9
		h18.1c2.2,0,3.9,1.8,3.9,3.9V280.1z"/>
	<path id="XMLID_133_" class="st0" d="M319,148.8c0-3.2-2.6-5.8-5.8-5.8h-26.4c-3.2,0-5.8,2.6-5.8,5.8v24.4c0,3.2,2.6,5.8,5.8,5.8
		h26.4c3.2,0,5.8-2.6,5.8-5.8V148.8z"/>
	<path id="XMLID_132_" class="st0" d="M264,203.8c0-3.2-2.6-5.8-5.8-5.8h-26.4c-3.2,0-5.8,2.6-5.8,5.8v24.4c0,3.2,2.6,5.8,5.8,5.8
		h26.4c3.2,0,5.8-2.6,5.8-5.8V203.8z"/>
	<path id="XMLID_131_" class="st0" d="M319,258.8c0-3.2-2.6-5.8-5.8-5.8h-26.4c-3.2,0-5.8,2.6-5.8,5.8v24.4c0,3.2,2.6,5.8,5.8,5.8
		h26.4c3.2,0,5.8-2.6,5.8-5.8V258.8z"/>
	<path id="XMLID_128_" class="st0" d="M319,203.8c0-3.2-2.6-5.8-5.8-5.8h-26.4c-3.2,0-5.8,2.6-5.8,5.8v24.4c0,3.2,2.6,5.8,5.8,5.8
		h26.4c3.2,0,5.8-2.6,5.8-5.8V203.8z M313,225.1c0,2.2-1.8,3.9-3.9,3.9h-18.1c-2.2,0-3.9-1.8-3.9-3.9v-17.1c0-2.2,1.8-3.9,3.9-3.9
		h18.1c2.2,0,3.9,1.8,3.9,3.9V225.1z"/>
	<path id="XMLID_125_" class="st0" d="M412,203.8c0-3.2-2.6-5.8-5.8-5.8h-26.4c-3.2,0-5.8,2.6-5.8,5.8v24.4c0,3.2,2.6,5.8,5.8,5.8
		h26.4c3.2,0,5.8-2.6,5.8-5.8V203.8z M406,225.1c0,2.2-1.8,3.9-3.9,3.9h-18.1c-2.2,0-3.9-1.8-3.9-3.9v-17.1c0-2.2,1.8-3.9,3.9-3.9
		h18.1c2.2,0,3.9,1.8,3.9,3.9V225.1z"/>
	<path id="XMLID_124_" class="st0" d="M467,203.8c0-3.2-2.6-5.8-5.8-5.8h-26.4c-3.2,0-5.8,2.6-5.8,5.8v24.4c0,3.2,2.6,5.8,5.8,5.8
		h26.4c3.2,0,5.8-2.6,5.8-5.8V203.8z"/>
	<path id="XMLID_121_" class="st0" d="M412,258.8c0-3.2-2.6-5.8-5.8-5.8h-26.4c-3.2,0-5.8,2.6-5.8,5.8v24.4c0,3.2,2.6,5.8,5.8,5.8
		h26.4c3.2,0,5.8-2.6,5.8-5.8V258.8z M406,280.1c0,2.2-1.8,3.9-3.9,3.9h-18.1c-2.2,0-3.9-1.8-3.9-3.9v-17.1c0-2.2,1.8-3.9,3.9-3.9
		h18.1c2.2,0,3.9,1.8,3.9,3.9V280.1z"/>
	<path id="XMLID_118_" class="st0" d="M467,258.8c0-3.2-2.6-5.8-5.8-5.8h-26.4c-3.2,0-5.8,2.6-5.8,5.8v24.4c0,3.2,2.6,5.8,5.8,5.8
		h26.4c3.2,0,5.8-2.6,5.8-5.8V258.8z M461,280.1c0,2.2-1.8,3.9-3.9,3.9h-18.1c-2.2,0-3.9-1.8-3.9-3.9v-17.1c0-2.2,1.8-3.9,3.9-3.9
		h18.1c2.2,0,3.9,1.8,3.9,3.9V280.1z"/>
</g>
</svg>
